<?xml version="1.0" encoding="UTF-8" standalone="no"?>
<!DOCTYPE svg PUBLIC "-//W3C//DTD SVG 1.1//EN"
 "http://www.w3.org/Graphics/SVG/1.1/DTD/svg11.dtd">
<!-- Generated by graphviz version 12.1.1 (0)
 -->
<!-- Title: design Pages: 1 -->
<svg width="1737pt" height="524pt"
 viewBox="0.00 0.00 1737.41 523.71" xmlns="http://www.w3.org/2000/svg" xmlns:xlink="http://www.w3.org/1999/xlink">
<g id="graph0" class="graph" transform="scale(1 1) rotate(0) translate(4 519.71)">
<title>design</title>
<polygon fill="white" stroke="none" points="-4,4 -4,-519.71 1733.41,-519.71 1733.41,4 -4,4"/>
<text text-anchor="middle" x="864.71" y="-7.95" font-family="Times,serif" font-size="14.00">design</text>
<!-- n1 -->
<g id="node1" class="node">
<title>n1</title>
<polygon fill="none" stroke="black" points="1258.14,-308.25 1179.03,-290.25 1258.14,-272.25 1337.26,-290.25 1258.14,-308.25"/>
<text text-anchor="middle" x="1258.14" y="-285.57" font-family="Times,serif" font-size="14.00">voter.out</text>
</g>
<!-- x6 -->
<g id="node33" class="node">
<title>x6</title>
<ellipse fill="black" stroke="black" cx="1450.89" cy="-290.25" rx="1.8" ry="1.8"/>
</g>
<!-- n1&#45;&gt;x6 -->
<g id="edge2" class="edge">
<title>n1:e&#45;&gt;x6:w</title>
<path fill="none" stroke="black" d="M1337.26,-290.25C1382.28,-290.25 1396.31,-290.25 1436.24,-290.25"/>
<polygon fill="black" stroke="black" points="1436.09,-293.75 1446.09,-290.25 1436.09,-286.75 1436.09,-293.75"/>
</g>
<!-- n2 -->
<g id="node2" class="node">
<title>n2</title>
<polygon fill="none" stroke="black" points="1450.89,-243.25 1373.26,-225.25 1450.89,-207.25 1528.51,-225.25 1450.89,-243.25"/>
<text text-anchor="middle" x="1450.89" y="-220.57" font-family="Times,serif" font-size="14.00">voter.err</text>
</g>
<!-- x5 -->
<g id="node32" class="node">
<title>x5</title>
<ellipse fill="black" stroke="black" cx="1591.51" cy="-225.25" rx="1.8" ry="1.8"/>
</g>
<!-- n2&#45;&gt;x5 -->
<g id="edge14" class="edge">
<title>n2:e&#45;&gt;x5:w</title>
<path fill="none" stroke="black" d="M1528.51,-225.25C1550.91,-225.25 1559.13,-225.25 1577.1,-225.25"/>
<polygon fill="black" stroke="black" points="1576.72,-228.75 1586.72,-225.25 1576.72,-221.75 1576.72,-228.75"/>
</g>
<!-- n3 -->
<g id="node3" class="node">
<title>n3</title>
<polygon fill="none" stroke="black" points="551.55,-169.25 488.06,-151.25 551.55,-133.25 615.04,-151.25 551.55,-169.25"/>
<text text-anchor="middle" x="551.55" y="-146.57" font-family="Times,serif" font-size="14.00">voter.c</text>
</g>
<!-- c32 -->
<g id="node18" class="node">
<title>c32</title>
<polygon fill="none" stroke="black" points="654.4,-32 654.4,-74.5 793.9,-74.5 793.9,-32 654.4,-32"/>
<text text-anchor="middle" x="667.28" y="-48.7" font-family="Times,serif" font-size="14.00">A</text>
<polyline fill="none" stroke="black" points="680.15,-32 680.15,-74.5"/>
<text text-anchor="middle" x="724.53" y="-57.2" font-family="Times,serif" font-size="14.00">$11</text>
<text text-anchor="middle" x="724.53" y="-39.95" font-family="Times,serif" font-size="14.00">$logic_not</text>
<polyline fill="none" stroke="black" points="768.9,-32 768.9,-74.5"/>
<text text-anchor="middle" x="781.4" y="-48.7" font-family="Times,serif" font-size="14.00">Y</text>
</g>
<!-- n3&#45;&gt;c32 -->
<g id="edge24" class="edge">
<title>n3:e&#45;&gt;c32:w</title>
<path fill="none" stroke="black" d="M616.53,-151.25C658.47,-151.25 616.9,-71.56 642.53,-55.99"/>
<polygon fill="black" stroke="black" points="643.03,-59.47 651.93,-53.73 641.39,-52.67 643.03,-59.47"/>
</g>
<!-- c33 -->
<g id="node19" class="node">
<title>c33</title>
<polygon fill="none" stroke="black" points="652.53,-240 652.53,-290.5 795.78,-290.5 795.78,-240 652.53,-240"/>
<text text-anchor="middle" x="665.78" y="-273.2" font-family="Times,serif" font-size="14.00">A</text>
<polyline fill="none" stroke="black" points="652.53,-265.25 679.03,-265.25"/>
<text text-anchor="middle" x="665.78" y="-247.95" font-family="Times,serif" font-size="14.00">B</text>
<polyline fill="none" stroke="black" points="679.03,-240 679.03,-290.5"/>
<text text-anchor="middle" x="724.9" y="-269.2" font-family="Times,serif" font-size="14.00">$4</text>
<text text-anchor="middle" x="724.9" y="-251.95" font-family="Times,serif" font-size="14.00">$logic_and</text>
<polyline fill="none" stroke="black" points="770.78,-240 770.78,-290.5"/>
<text text-anchor="middle" x="783.28" y="-260.7" font-family="Times,serif" font-size="14.00">Y</text>
</g>
<!-- n3&#45;&gt;c33 -->
<g id="edge25" class="edge">
<title>n3:e&#45;&gt;c33:w</title>
<path fill="none" stroke="black" d="M616.53,-151.25C659.67,-151.25 615.34,-233.79 641.39,-249.91"/>
<polygon fill="black" stroke="black" points="640.51,-253.3 651.06,-252.27 642.17,-246.5 640.51,-253.3"/>
</g>
<!-- c34 -->
<g id="node20" class="node">
<title>c34</title>
<polygon fill="none" stroke="black" points="652.53,-132 652.53,-182.5 795.78,-182.5 795.78,-132 652.53,-132"/>
<text text-anchor="middle" x="665.78" y="-165.2" font-family="Times,serif" font-size="14.00">A</text>
<polyline fill="none" stroke="black" points="652.53,-157.25 679.03,-157.25"/>
<text text-anchor="middle" x="665.78" y="-139.95" font-family="Times,serif" font-size="14.00">B</text>
<polyline fill="none" stroke="black" points="679.03,-132 679.03,-182.5"/>
<text text-anchor="middle" x="724.9" y="-161.2" font-family="Times,serif" font-size="14.00">$2</text>
<text text-anchor="middle" x="724.9" y="-143.95" font-family="Times,serif" font-size="14.00">$logic_and</text>
<polyline fill="none" stroke="black" points="770.78,-132 770.78,-182.5"/>
<text text-anchor="middle" x="783.28" y="-152.7" font-family="Times,serif" font-size="14.00">Y</text>
</g>
<!-- n3&#45;&gt;c34 -->
<g id="edge26" class="edge">
<title>n3:e&#45;&gt;c34:w</title>
<path fill="none" stroke="black" d="M616.53,-151.25C628.22,-151.25 633.3,-147.83 641.27,-145.9"/>
<polygon fill="black" stroke="black" points="641.48,-149.4 651.02,-144.8 640.69,-142.45 641.48,-149.4"/>
</g>
<!-- c37 -->
<g id="node23" class="node">
<title>c37</title>
<polygon fill="none" stroke="black" points="831.78,-358 831.78,-408.5 975.03,-408.5 975.03,-358 831.78,-358"/>
<text text-anchor="middle" x="845.03" y="-391.2" font-family="Times,serif" font-size="14.00">A</text>
<polyline fill="none" stroke="black" points="831.78,-383.25 858.28,-383.25"/>
<text text-anchor="middle" x="845.03" y="-365.95" font-family="Times,serif" font-size="14.00">B</text>
<polyline fill="none" stroke="black" points="858.28,-358 858.28,-408.5"/>
<text text-anchor="middle" x="904.15" y="-387.2" font-family="Times,serif" font-size="14.00">$7</text>
<text text-anchor="middle" x="904.15" y="-369.95" font-family="Times,serif" font-size="14.00">$logic_and</text>
<polyline fill="none" stroke="black" points="950.03,-358 950.03,-408.5"/>
<text text-anchor="middle" x="962.53" y="-378.7" font-family="Times,serif" font-size="14.00">Y</text>
</g>
<!-- n3&#45;&gt;c37 -->
<g id="edge27" class="edge">
<title>n3:e&#45;&gt;c37:w</title>
<path fill="none" stroke="black" d="M616.53,-151.25C637.07,-151.25 633.15,-129.08 652.53,-122.25 712.57,-101.07 747.64,-80.58 795.78,-122.25 834.82,-156.04 784.63,-340.14 821.22,-367.28"/>
<polygon fill="black" stroke="black" points="819.75,-370.49 830.34,-370.17 821.86,-363.81 819.75,-370.49"/>
</g>
<!-- n4 -->
<g id="node4" class="node">
<title>n4</title>
<polygon fill="none" stroke="black" points="551.55,-229.25 486.57,-211.25 551.55,-193.25 616.53,-211.25 551.55,-229.25"/>
<text text-anchor="middle" x="551.55" y="-206.57" font-family="Times,serif" font-size="14.00">voter.b</text>
</g>
<!-- c30 -->
<g id="node16" class="node">
<title>c30</title>
<polygon fill="none" stroke="black" points="654.4,-310 654.4,-352.5 793.9,-352.5 793.9,-310 654.4,-310"/>
<text text-anchor="middle" x="667.28" y="-326.7" font-family="Times,serif" font-size="14.00">A</text>
<polyline fill="none" stroke="black" points="680.15,-310 680.15,-352.5"/>
<text text-anchor="middle" x="724.53" y="-335.2" font-family="Times,serif" font-size="14.00">$8</text>
<text text-anchor="middle" x="724.53" y="-317.95" font-family="Times,serif" font-size="14.00">$logic_not</text>
<polyline fill="none" stroke="black" points="768.9,-310 768.9,-352.5"/>
<text text-anchor="middle" x="781.4" y="-326.7" font-family="Times,serif" font-size="14.00">Y</text>
</g>
<!-- n4&#45;&gt;c30 -->
<g id="edge29" class="edge">
<title>n4:e&#45;&gt;c30:w</title>
<path fill="none" stroke="black" d="M616.53,-211.25C667.79,-211.25 608.95,-312.48 642.15,-329.08"/>
<polygon fill="black" stroke="black" points="641.42,-332.51 651.92,-331.07 642.82,-325.65 641.42,-332.51"/>
</g>
<!-- n4&#45;&gt;c34 -->
<g id="edge30" class="edge">
<title>n4:e&#45;&gt;c34:w</title>
<path fill="none" stroke="black" d="M616.53,-211.25C636.14,-211.25 631.72,-184.46 641.94,-173.99"/>
<polygon fill="black" stroke="black" points="643.07,-177.31 651.12,-170.42 640.53,-170.79 643.07,-177.31"/>
</g>
<!-- c35 -->
<g id="node21" class="node">
<title>c35</title>
<polygon fill="none" stroke="black" points="652.53,-372 652.53,-422.5 795.78,-422.5 795.78,-372 652.53,-372"/>
<text text-anchor="middle" x="665.78" y="-405.2" font-family="Times,serif" font-size="14.00">A</text>
<polyline fill="none" stroke="black" points="652.53,-397.25 679.03,-397.25"/>
<text text-anchor="middle" x="665.78" y="-379.95" font-family="Times,serif" font-size="14.00">B</text>
<polyline fill="none" stroke="black" points="679.03,-372 679.03,-422.5"/>
<text text-anchor="middle" x="724.9" y="-401.2" font-family="Times,serif" font-size="14.00">$1</text>
<text text-anchor="middle" x="724.9" y="-383.95" font-family="Times,serif" font-size="14.00">$logic_and</text>
<polyline fill="none" stroke="black" points="770.78,-372 770.78,-422.5"/>
<text text-anchor="middle" x="783.28" y="-392.7" font-family="Times,serif" font-size="14.00">Y</text>
</g>
<!-- n4&#45;&gt;c35 -->
<g id="edge31" class="edge">
<title>n4:e&#45;&gt;c35:w</title>
<path fill="none" stroke="black" d="M616.53,-211.25C690.92,-211.25 586.51,-366.18 641.35,-383.13"/>
<polygon fill="black" stroke="black" points="640.65,-386.56 651.03,-384.42 641.58,-379.63 640.65,-386.56"/>
</g>
<!-- c38 -->
<g id="node24" class="node">
<title>c38</title>
<polygon fill="none" stroke="black" points="831.78,-174 831.78,-224.5 975.03,-224.5 975.03,-174 831.78,-174"/>
<text text-anchor="middle" x="845.03" y="-207.2" font-family="Times,serif" font-size="14.00">A</text>
<polyline fill="none" stroke="black" points="831.78,-199.25 858.28,-199.25"/>
<text text-anchor="middle" x="845.03" y="-181.95" font-family="Times,serif" font-size="14.00">B</text>
<polyline fill="none" stroke="black" points="858.28,-174 858.28,-224.5"/>
<text text-anchor="middle" x="904.15" y="-203.2" font-family="Times,serif" font-size="14.00">$12</text>
<text text-anchor="middle" x="904.15" y="-185.95" font-family="Times,serif" font-size="14.00">$logic_and</text>
<polyline fill="none" stroke="black" points="950.03,-174 950.03,-224.5"/>
<text text-anchor="middle" x="962.53" y="-194.7" font-family="Times,serif" font-size="14.00">Y</text>
</g>
<!-- n4&#45;&gt;c38 -->
<g id="edge32" class="edge">
<title>n4:e&#45;&gt;c38:w</title>
<path fill="none" stroke="black" d="M616.53,-211.25C708.27,-211.25 734.03,-211.82 820.36,-211.87"/>
<polygon fill="black" stroke="black" points="820.26,-215.37 830.26,-211.87 820.27,-208.37 820.26,-215.37"/>
</g>
<!-- n5 -->
<g id="node5" class="node">
<title>n5</title>
<polygon fill="none" stroke="black" points="551.55,-427.25 487.31,-409.25 551.55,-391.25 615.78,-409.25 551.55,-427.25"/>
<text text-anchor="middle" x="551.55" y="-404.57" font-family="Times,serif" font-size="14.00">voter.a</text>
</g>
<!-- c31 -->
<g id="node17" class="node">
<title>c31</title>
<polygon fill="none" stroke="black" points="654.4,-442 654.4,-484.5 793.9,-484.5 793.9,-442 654.4,-442"/>
<text text-anchor="middle" x="667.28" y="-458.7" font-family="Times,serif" font-size="14.00">A</text>
<polyline fill="none" stroke="black" points="680.15,-442 680.15,-484.5"/>
<text text-anchor="middle" x="724.53" y="-467.2" font-family="Times,serif" font-size="14.00">$6</text>
<text text-anchor="middle" x="724.53" y="-449.95" font-family="Times,serif" font-size="14.00">$logic_not</text>
<polyline fill="none" stroke="black" points="768.9,-442 768.9,-484.5"/>
<text text-anchor="middle" x="781.4" y="-458.7" font-family="Times,serif" font-size="14.00">Y</text>
</g>
<!-- n5&#45;&gt;c31 -->
<g id="edge34" class="edge">
<title>n5:e&#45;&gt;c31:w</title>
<path fill="none" stroke="black" d="M616.53,-409.25C640.86,-409.25 629.94,-447.07 642.7,-459.48"/>
<polygon fill="black" stroke="black" points="641.39,-462.73 651.98,-462.86 643.78,-456.15 641.39,-462.73"/>
</g>
<!-- n5&#45;&gt;c33 -->
<g id="edge35" class="edge">
<title>n5:e&#45;&gt;c33:w</title>
<path fill="none" stroke="black" d="M616.53,-409.25C672.58,-409.25 603.81,-296.65 641.34,-279.94"/>
<polygon fill="black" stroke="black" points="641.84,-283.4 651.04,-278.15 640.57,-276.52 641.84,-283.4"/>
</g>
<!-- n5&#45;&gt;c35 -->
<g id="edge36" class="edge">
<title>n5:e&#45;&gt;c35:w</title>
<path fill="none" stroke="black" d="M616.53,-409.25C627.91,-409.25 633.21,-409.57 641.08,-409.75"/>
<polygon fill="black" stroke="black" points="640.98,-413.25 651.01,-409.86 641.05,-406.25 640.98,-413.25"/>
</g>
<!-- c36 -->
<g id="node22" class="node">
<title>c36</title>
<polygon fill="none" stroke="black" points="831.78,-428 831.78,-478.5 975.03,-478.5 975.03,-428 831.78,-428"/>
<text text-anchor="middle" x="845.03" y="-461.2" font-family="Times,serif" font-size="14.00">A</text>
<polyline fill="none" stroke="black" points="831.78,-453.25 858.28,-453.25"/>
<text text-anchor="middle" x="845.03" y="-435.95" font-family="Times,serif" font-size="14.00">B</text>
<polyline fill="none" stroke="black" points="858.28,-428 858.28,-478.5"/>
<text text-anchor="middle" x="904.15" y="-457.2" font-family="Times,serif" font-size="14.00">$9</text>
<text text-anchor="middle" x="904.15" y="-439.95" font-family="Times,serif" font-size="14.00">$logic_and</text>
<polyline fill="none" stroke="black" points="950.03,-428 950.03,-478.5"/>
<text text-anchor="middle" x="962.53" y="-448.7" font-family="Times,serif" font-size="14.00">Y</text>
</g>
<!-- n5&#45;&gt;c36 -->
<g id="edge37" class="edge">
<title>n5:e&#45;&gt;c36:w</title>
<path fill="none" stroke="black" d="M616.53,-409.25C657.55,-409.25 618.33,-471.59 652.53,-494.25 705.61,-529.41 735.62,-515.11 795.78,-494.25 810.52,-489.14 811.85,-475.22 820.8,-468.98"/>
<polygon fill="black" stroke="black" points="821.65,-472.38 830.32,-466.29 819.75,-465.64 821.65,-472.38"/>
</g>
<!-- n17 -->
<g id="node6" class="node">
<title>n17</title>
<polygon fill="none" stroke="black" points="93.75,-143.79 93.75,-158.71 77.93,-169.25 55.57,-169.25 39.75,-158.71 39.75,-143.79 55.57,-133.25 77.93,-133.25 93.75,-143.79"/>
<text text-anchor="middle" x="66.75" y="-146.57" font-family="Times,serif" font-size="14.00">a</text>
</g>
<!-- c39 -->
<g id="node25" class="node">
<title>c39</title>
<polygon fill="none" stroke="black" points="169.5,-130 169.5,-172.5 309,-172.5 309,-130 169.5,-130"/>
<text text-anchor="middle" x="182.38" y="-146.7" font-family="Times,serif" font-size="14.00">A</text>
<polyline fill="none" stroke="black" points="195.25,-130 195.25,-172.5"/>
<text text-anchor="middle" x="239.62" y="-155.2" font-family="Times,serif" font-size="14.00">$15</text>
<text text-anchor="middle" x="239.62" y="-137.95" font-family="Times,serif" font-size="14.00">$logic_not</text>
<polyline fill="none" stroke="black" points="284,-130 284,-172.5"/>
<text text-anchor="middle" x="296.5" y="-146.7" font-family="Times,serif" font-size="14.00">Y</text>
</g>
<!-- n17&#45;&gt;c39 -->
<g id="edge10" class="edge">
<title>n17:e&#45;&gt;c39:w</title>
<path fill="none" stroke="black" d="M95,-151.25C123.97,-151.25 133.93,-151.35 158.15,-151.37"/>
<polygon fill="black" stroke="black" points="157.98,-154.87 167.99,-151.37 157.99,-147.87 157.98,-154.87"/>
</g>
<!-- n18 -->
<g id="node7" class="node">
<title>n18</title>
<polygon fill="none" stroke="black" points="1691.96,-243.25 1654.51,-225.25 1691.96,-207.25 1729.41,-225.25 1691.96,-243.25"/>
<text text-anchor="middle" x="1691.96" y="-220.57" font-family="Times,serif" font-size="14.00">err</text>
</g>
<!-- n19 -->
<g id="node8" class="node">
<title>n19</title>
<polygon fill="none" stroke="black" points="1618.51,-282.79 1618.51,-297.71 1602.7,-308.25 1580.33,-308.25 1564.51,-297.71 1564.51,-282.79 1580.33,-272.25 1602.7,-272.25 1618.51,-282.79"/>
<text text-anchor="middle" x="1591.51" y="-285.57" font-family="Times,serif" font-size="14.00">o</text>
</g>
<!-- n20 -->
<g id="node9" class="node">
<title>n20</title>
<polygon fill="none" stroke="black" points="377.99,-169.25 345,-151.25 377.99,-133.25 410.97,-151.25 377.99,-169.25"/>
<text text-anchor="middle" x="377.99" y="-146.57" font-family="Times,serif" font-size="14.00">o1</text>
</g>
<!-- x0 -->
<g id="node27" class="node">
<title>x0</title>
<ellipse fill="black" stroke="black" cx="448.77" cy="-113.25" rx="1.8" ry="1.8"/>
</g>
<!-- n20&#45;&gt;x0 -->
<g id="edge16" class="edge">
<title>n20:e&#45;&gt;x0:w</title>
<path fill="none" stroke="black" d="M410.97,-151.25C429.51,-151.25 426.59,-127.12 436.41,-117.32"/>
<polygon fill="black" stroke="black" points="437.48,-120.65 445.56,-113.79 434.97,-114.12 437.48,-120.65"/>
</g>
<!-- x1 -->
<g id="node28" class="node">
<title>x1</title>
<ellipse fill="black" stroke="black" cx="448.77" cy="-75.25" rx="1.8" ry="1.8"/>
</g>
<!-- n20&#45;&gt;x1 -->
<g id="edge17" class="edge">
<title>n20:e&#45;&gt;x1:w</title>
<path fill="none" stroke="black" d="M410.97,-151.25C443.67,-151.25 418.09,-93.06 436.23,-78.52"/>
<polygon fill="black" stroke="black" points="436.97,-81.95 445.52,-75.69 434.94,-75.25 436.97,-81.95"/>
</g>
<!-- x2 -->
<g id="node29" class="node">
<title>x2</title>
<ellipse fill="black" stroke="black" cx="448.77" cy="-311.25" rx="1.8" ry="1.8"/>
</g>
<!-- n20&#45;&gt;x2 -->
<g id="edge18" class="edge">
<title>n20:e&#45;&gt;x2:w</title>
<path fill="none" stroke="black" d="M410.97,-151.25C479.45,-151.25 386.71,-292.46 435.66,-309.56"/>
<polygon fill="black" stroke="black" points="435.07,-313.01 445.47,-311.03 436.1,-306.09 435.07,-313.01"/>
</g>
<!-- x3 -->
<g id="node30" class="node">
<title>x3</title>
<ellipse fill="black" stroke="black" cx="448.77" cy="-192.25" rx="1.8" ry="1.8"/>
</g>
<!-- n20&#45;&gt;x3 -->
<g id="edge19" class="edge">
<title>n20:e&#45;&gt;x3:w</title>
<path fill="none" stroke="black" d="M410.97,-151.25C430.48,-151.25 426.2,-177.8 436.42,-188.17"/>
<polygon fill="black" stroke="black" points="434.97,-191.36 445.56,-191.7 437.5,-184.83 434.97,-191.36"/>
</g>
<!-- x4 -->
<g id="node31" class="node">
<title>x4</title>
<ellipse fill="black" stroke="black" cx="448.77" cy="-151.25" rx="1.8" ry="1.8"/>
</g>
<!-- n20&#45;&gt;x4 -->
<g id="edge20" class="edge">
<title>n20:e&#45;&gt;x4:w</title>
<path fill="none" stroke="black" d="M410.97,-151.25C422.35,-151.25 427.66,-151.25 435.52,-151.25"/>
<polygon fill="black" stroke="black" points="435.46,-154.75 445.46,-151.25 435.46,-147.75 435.46,-154.75"/>
</g>
<!-- n21 -->
<g id="node10" class="node">
<title>n21</title>
<polygon fill="none" stroke="black" points="551.55,-115.25 518.56,-97.25 551.55,-79.25 584.54,-97.25 551.55,-115.25"/>
<text text-anchor="middle" x="551.55" y="-92.58" font-family="Times,serif" font-size="14.00">o2</text>
</g>
<!-- n22 -->
<g id="node11" class="node">
<title>n22</title>
<polygon fill="none" stroke="black" points="551.55,-61.25 518.56,-43.25 551.55,-25.25 584.54,-43.25 551.55,-61.25"/>
<text text-anchor="middle" x="551.55" y="-38.58" font-family="Times,serif" font-size="14.00">o3</text>
</g>
<!-- c23 -->
<g id="node12" class="node">
<title>c23</title>
<polygon fill="none" stroke="black" points="0,-188 0,-230.5 133.5,-230.5 133.5,-188 0,-188"/>
<text text-anchor="middle" x="10.25" y="-204.7" font-family="Times,serif" font-size="14.00"> </text>
<polyline fill="none" stroke="black" points="20.5,-188 20.5,-230.5"/>
<text text-anchor="middle" x="66.75" y="-213.2" font-family="Times,serif" font-size="14.00">voter</text>
<text text-anchor="middle" x="66.75" y="-195.95" font-family="Times,serif" font-size="14.00">$scopeinfo</text>
<polyline fill="none" stroke="black" points="113,-188 113,-230.5"/>
<text text-anchor="middle" x="123.25" y="-204.7" font-family="Times,serif" font-size="14.00"> </text>
</g>
<!-- c27 -->
<g id="node13" class="node">
<title>c27</title>
<polygon fill="none" stroke="black" points="837.4,-288 837.4,-338.5 969.4,-338.5 969.4,-288 837.4,-288"/>
<text text-anchor="middle" x="850.65" y="-321.2" font-family="Times,serif" font-size="14.00">A</text>
<polyline fill="none" stroke="black" points="837.4,-313.25 863.9,-313.25"/>
<text text-anchor="middle" x="850.65" y="-295.95" font-family="Times,serif" font-size="14.00">B</text>
<polyline fill="none" stroke="black" points="863.9,-288 863.9,-338.5"/>
<text text-anchor="middle" x="904.15" y="-317.2" font-family="Times,serif" font-size="14.00">$3</text>
<text text-anchor="middle" x="904.15" y="-299.95" font-family="Times,serif" font-size="14.00">$logic_or</text>
<polyline fill="none" stroke="black" points="944.4,-288 944.4,-338.5"/>
<text text-anchor="middle" x="956.9" y="-308.7" font-family="Times,serif" font-size="14.00">Y</text>
</g>
<!-- c40 -->
<g id="node26" class="node">
<title>c40</title>
<polygon fill="none" stroke="black" points="1011.03,-265 1011.03,-315.5 1143.03,-315.5 1143.03,-265 1011.03,-265"/>
<text text-anchor="middle" x="1024.28" y="-298.2" font-family="Times,serif" font-size="14.00">A</text>
<polyline fill="none" stroke="black" points="1011.03,-290.25 1037.53,-290.25"/>
<text text-anchor="middle" x="1024.28" y="-272.95" font-family="Times,serif" font-size="14.00">B</text>
<polyline fill="none" stroke="black" points="1037.53,-265 1037.53,-315.5"/>
<text text-anchor="middle" x="1077.78" y="-294.2" font-family="Times,serif" font-size="14.00">$5</text>
<text text-anchor="middle" x="1077.78" y="-276.95" font-family="Times,serif" font-size="14.00">$logic_or</text>
<polyline fill="none" stroke="black" points="1118.03,-265 1118.03,-315.5"/>
<text text-anchor="middle" x="1130.53" y="-285.7" font-family="Times,serif" font-size="14.00">Y</text>
</g>
<!-- c27&#45;&gt;c40 -->
<g id="edge38" class="edge">
<title>c27:e&#45;&gt;c40:w</title>
<path fill="none" stroke="black" d="M970.4,-313.38C984.54,-313.38 989.87,-307.35 999.74,-304.42"/>
<polygon fill="black" stroke="black" points="1000.1,-307.91 1009.53,-303.08 999.15,-300.97 1000.1,-307.91"/>
</g>
<!-- c28 -->
<g id="node14" class="node">
<title>c28</title>
<polygon fill="none" stroke="black" points="1192.14,-200 1192.14,-250.5 1324.14,-250.5 1324.14,-200 1192.14,-200"/>
<text text-anchor="middle" x="1205.39" y="-233.2" font-family="Times,serif" font-size="14.00">A</text>
<polyline fill="none" stroke="black" points="1192.14,-225.25 1218.64,-225.25"/>
<text text-anchor="middle" x="1205.39" y="-207.95" font-family="Times,serif" font-size="14.00">B</text>
<polyline fill="none" stroke="black" points="1218.64,-200 1218.64,-250.5"/>
<text text-anchor="middle" x="1258.89" y="-229.2" font-family="Times,serif" font-size="14.00">$13</text>
<text text-anchor="middle" x="1258.89" y="-211.95" font-family="Times,serif" font-size="14.00">$logic_or</text>
<polyline fill="none" stroke="black" points="1299.14,-200 1299.14,-250.5"/>
<text text-anchor="middle" x="1311.64" y="-220.7" font-family="Times,serif" font-size="14.00">Y</text>
</g>
<!-- c28&#45;&gt;n2 -->
<g id="edge13" class="edge">
<title>c28:e&#45;&gt;n2:w</title>
<path fill="none" stroke="black" d="M1325.14,-225.38C1342.18,-225.38 1349.04,-225.3 1361.94,-225.26"/>
<polygon fill="black" stroke="black" points="1361.75,-228.76 1371.75,-225.25 1361.74,-221.76 1361.75,-228.76"/>
</g>
<!-- c29 -->
<g id="node15" class="node">
<title>c29</title>
<polygon fill="none" stroke="black" points="1011.03,-346 1011.03,-396.5 1143.03,-396.5 1143.03,-346 1011.03,-346"/>
<text text-anchor="middle" x="1024.28" y="-379.2" font-family="Times,serif" font-size="14.00">A</text>
<polyline fill="none" stroke="black" points="1011.03,-371.25 1037.53,-371.25"/>
<text text-anchor="middle" x="1024.28" y="-353.95" font-family="Times,serif" font-size="14.00">B</text>
<polyline fill="none" stroke="black" points="1037.53,-346 1037.53,-396.5"/>
<text text-anchor="middle" x="1077.78" y="-375.2" font-family="Times,serif" font-size="14.00">$10</text>
<text text-anchor="middle" x="1077.78" y="-357.95" font-family="Times,serif" font-size="14.00">$logic_or</text>
<polyline fill="none" stroke="black" points="1118.03,-346 1118.03,-396.5"/>
<text text-anchor="middle" x="1130.53" y="-366.7" font-family="Times,serif" font-size="14.00">Y</text>
</g>
<!-- c29&#45;&gt;c28 -->
<g id="edge39" class="edge">
<title>c29:e&#45;&gt;c28:w</title>
<path fill="none" stroke="black" d="M1143.03,-371.38C1201.66,-371.38 1138.35,-255.99 1179.83,-239.76"/>
<polygon fill="black" stroke="black" points="1180.36,-243.22 1189.65,-238.12 1179.21,-236.32 1180.36,-243.22"/>
</g>
<!-- c30&#45;&gt;c36 -->
<g id="edge40" class="edge">
<title>c30:e&#45;&gt;c36:w</title>
<path fill="none" stroke="black" d="M794.9,-331.38C841.55,-331.38 791.38,-421.88 820.63,-438.14"/>
<polygon fill="black" stroke="black" points="819.78,-441.53 830.3,-440.3 821.3,-434.7 819.78,-441.53"/>
</g>
<!-- c31&#45;&gt;c37 -->
<g id="edge41" class="edge">
<title>c31:e&#45;&gt;c37:w</title>
<path fill="none" stroke="black" d="M794.9,-463.38C824.28,-463.38 805.15,-413.52 820.89,-399.5"/>
<polygon fill="black" stroke="black" points="821.96,-402.84 830.34,-396.35 819.75,-396.19 821.96,-402.84"/>
</g>
<!-- c32&#45;&gt;c38 -->
<g id="edge3" class="edge">
<title>c32:e&#45;&gt;c38:w</title>
<path fill="none" stroke="black" d="M794.9,-53.38C852.03,-53.38 781.7,-168.55 820.9,-184.74"/>
<polygon fill="black" stroke="black" points="819.84,-188.11 830.29,-186.37 821.03,-181.21 819.84,-188.11"/>
</g>
<!-- c33&#45;&gt;c40 -->
<g id="edge4" class="edge">
<title>c33:e&#45;&gt;c40:w</title>
<path fill="none" stroke="black" d="M795.78,-265.38C887.67,-265.38 913.15,-276.64 999.59,-277.56"/>
<polygon fill="black" stroke="black" points="999.5,-281.06 1009.51,-277.62 999.53,-274.06 999.5,-281.06"/>
</g>
<!-- c34&#45;&gt;c27 -->
<g id="edge5" class="edge">
<title>c34:e&#45;&gt;c27:w</title>
<path fill="none" stroke="black" d="M795.78,-157.38C857.56,-157.38 781.71,-282.23 825.22,-298.81"/>
<polygon fill="black" stroke="black" points="824.48,-302.24 834.91,-300.38 825.6,-295.33 824.48,-302.24"/>
</g>
<!-- c35&#45;&gt;c27 -->
<g id="edge6" class="edge">
<title>c35:e&#45;&gt;c27:w</title>
<path fill="none" stroke="black" d="M795.78,-397.38C827.76,-397.38 806.89,-342.63 825.66,-328.95"/>
<polygon fill="black" stroke="black" points="826.3,-332.41 834.95,-326.29 824.37,-325.68 826.3,-332.41"/>
</g>
<!-- c36&#45;&gt;c29 -->
<g id="edge7" class="edge">
<title>c36:e&#45;&gt;c29:w</title>
<path fill="none" stroke="black" d="M975.03,-453.38C1015.5,-453.38 975.95,-376.89 1000.16,-361.36"/>
<polygon fill="black" stroke="black" points="1000.72,-364.83 1009.56,-358.99 999.01,-358.04 1000.72,-364.83"/>
</g>
<!-- c37&#45;&gt;c29 -->
<g id="edge8" class="edge">
<title>c37:e&#45;&gt;c29:w</title>
<path fill="none" stroke="black" d="M975.03,-383.38C986.4,-383.38 991.71,-383.63 999.58,-383.77"/>
<polygon fill="black" stroke="black" points="999.48,-387.27 1009.51,-383.86 999.55,-380.27 999.48,-387.27"/>
</g>
<!-- c38&#45;&gt;c28 -->
<g id="edge9" class="edge">
<title>c38:e&#45;&gt;c28:w</title>
<path fill="none" stroke="black" d="M975.03,-199.38C1067.31,-199.38 1092.85,-211.56 1179.66,-212.56"/>
<polygon fill="black" stroke="black" points="1179.61,-216.06 1189.63,-212.62 1179.65,-209.06 1179.61,-216.06"/>
</g>
<!-- c39&#45;&gt;n20 -->
<g id="edge15" class="edge">
<title>c39:e&#45;&gt;n20:w</title>
<path fill="none" stroke="black" d="M309,-151.38C320.38,-151.38 325.68,-151.31 333.55,-151.28"/>
<polygon fill="black" stroke="black" points="333.49,-154.78 343.49,-151.25 333.48,-147.78 333.49,-154.78"/>
</g>
<!-- c40&#45;&gt;n1 -->
<g id="edge1" class="edge">
<title>c40:e&#45;&gt;n1:w</title>
<path fill="none" stroke="black" d="M1143.03,-290.38C1154.4,-290.38 1159.71,-290.31 1167.58,-290.28"/>
<polygon fill="black" stroke="black" points="1167.52,-293.78 1177.51,-290.25 1167.51,-286.78 1167.52,-293.78"/>
</g>
<!-- x0&#45;&gt;n21 -->
<g id="edge21" class="edge">
<title>x0:e&#45;&gt;n21:w</title>
<path fill="none" stroke="black" d="M450.57,-113.25C476.51,-113.25 484.32,-101.43 505.16,-98.11"/>
<polygon fill="black" stroke="black" points="505.35,-101.61 515.06,-97.36 504.83,-94.63 505.35,-101.61"/>
</g>
<!-- x1&#45;&gt;n22 -->
<g id="edge22" class="edge">
<title>x1:e&#45;&gt;n22:w</title>
<path fill="none" stroke="black" d="M450.57,-75.25C478.97,-75.25 483.24,-50.97 505.41,-44.71"/>
<polygon fill="black" stroke="black" points="505.61,-48.21 515.07,-43.45 504.7,-41.27 505.61,-48.21"/>
</g>
<!-- x2&#45;&gt;n5 -->
<g id="edge33" class="edge">
<title>x2:e&#45;&gt;n5:w</title>
<path fill="none" stroke="black" d="M450.57,-311.25C492.26,-311.25 450.64,-390.35 475.41,-406.42"/>
<polygon fill="black" stroke="black" points="474.55,-409.82 485.1,-408.88 476.27,-403.03 474.55,-409.82"/>
</g>
<!-- x3&#45;&gt;n4 -->
<g id="edge28" class="edge">
<title>x3:e&#45;&gt;n4:w</title>
<path fill="none" stroke="black" d="M450.57,-192.25C464,-192.25 467.36,-202.72 475.6,-208.11"/>
<polygon fill="black" stroke="black" points="474.54,-211.45 485.12,-210.83 476.46,-204.72 474.54,-211.45"/>
</g>
<!-- x4&#45;&gt;n3 -->
<g id="edge23" class="edge">
<title>x4:e&#45;&gt;n3:w</title>
<path fill="none" stroke="black" d="M450.57,-151.25C461.95,-151.25 467.26,-151.25 475.12,-151.25"/>
<polygon fill="black" stroke="black" points="475.06,-154.75 485.06,-151.25 475.06,-147.75 475.06,-154.75"/>
</g>
<!-- x5&#45;&gt;n18 -->
<g id="edge11" class="edge">
<title>x5:e&#45;&gt;n18:w</title>
<path fill="none" stroke="black" d="M1594.79,-225.25C1617.19,-225.25 1625.41,-225.25 1643.38,-225.25"/>
<polygon fill="black" stroke="black" points="1643,-228.75 1653,-225.25 1643,-221.75 1643,-228.75"/>
</g>
<!-- x6&#45;&gt;n19 -->
<g id="edge12" class="edge">
<title>x6:e&#45;&gt;n19:w</title>
<path fill="none" stroke="black" d="M1454.16,-290.25C1499.19,-290.25 1513.21,-290.25 1553.15,-290.25"/>
<polygon fill="black" stroke="black" points="1553,-293.75 1563,-290.25 1553,-286.75 1553,-293.75"/>
</g>
</g>
</svg>
