<?xml version="1.0" encoding="UTF-8" standalone="no"?>
<!DOCTYPE svg PUBLIC "-//W3C//DTD SVG 1.1//EN"
 "http://www.w3.org/Graphics/SVG/1.1/DTD/svg11.dtd">
<!-- Generated by graphviz version 12.1.2 (0)
 -->
<!-- Title: not_voter_gate Pages: 1 -->
<svg width="2131pt" height="597pt"
 viewBox="0.00 0.00 2130.67 596.75" xmlns="http://www.w3.org/2000/svg" xmlns:xlink="http://www.w3.org/1999/xlink">
<g id="graph0" class="graph" transform="scale(1 1) rotate(0) translate(4 592.75)">
<title>not_voter_gate</title>
<polygon fill="white" stroke="none" points="-4,4 -4,-592.75 2126.67,-592.75 2126.67,4 -4,4"/>
<text text-anchor="middle" x="1061.34" y="-7.95" font-family="Times,serif" font-size="14.00">not_voter_gate</text>
<!-- n12 -->
<g id="node1" class="node">
<title>n12</title>
<polygon fill="none" stroke="black" points="93.75,-315.54 93.75,-330.46 77.93,-341 55.57,-341 39.75,-330.46 39.75,-315.54 55.57,-305 77.93,-305 93.75,-315.54"/>
<text text-anchor="middle" x="66.75" y="-318.32" font-family="Times,serif" font-size="14.00">a</text>
</g>
<!-- x5 -->
<g id="node43" class="node">
<title>x5</title>
<ellipse fill="black" stroke="black" cx="171.3" cy="-285" rx="1.8" ry="1.8"/>
</g>
<!-- n12&#45;&gt;x5 -->
<g id="edge4" class="edge">
<title>n12:e&#45;&gt;x5:w</title>
<path fill="none" stroke="#a6761d" d="M95,-323C127.96,-323 131.82,-293.12 158.19,-286.35"/>
<polygon fill="#a6761d" stroke="#a6761d" points="158.48,-289.84 168,-285.18 157.65,-282.89 158.48,-289.84"/>
</g>
<!-- x7 -->
<g id="node45" class="node">
<title>x7</title>
<ellipse fill="black" stroke="black" cx="171.3" cy="-323" rx="1.8" ry="1.8"/>
</g>
<!-- n12&#45;&gt;x7 -->
<g id="edge5" class="edge">
<title>n12:e&#45;&gt;x7:w</title>
<path fill="none" stroke="#a6761d" d="M95,-323C123.97,-323 133.93,-323 158.15,-323"/>
<polygon fill="#a6761d" stroke="#a6761d" points="157.99,-326.5 167.99,-323 157.99,-319.5 157.99,-326.5"/>
</g>
<!-- x9 -->
<g id="node47" class="node">
<title>x9</title>
<ellipse fill="black" stroke="black" cx="171.3" cy="-361" rx="1.8" ry="1.8"/>
</g>
<!-- n12&#45;&gt;x9 -->
<g id="edge6" class="edge">
<title>n12:e&#45;&gt;x9:w</title>
<path fill="none" stroke="#a6761d" d="M95,-323C127.96,-323 131.82,-352.88 158.19,-359.65"/>
<polygon fill="#a6761d" stroke="#a6761d" points="157.65,-363.11 168,-360.82 158.48,-356.16 157.65,-363.11"/>
</g>
<!-- n13 -->
<g id="node2" class="node">
<title>n13</title>
<polygon fill="none" stroke="black" points="2085.22,-241 2047.77,-223 2085.22,-205 2122.67,-223 2085.22,-241"/>
<text text-anchor="middle" x="2085.22" y="-218.32" font-family="Times,serif" font-size="14.00">err</text>
</g>
<!-- n14 -->
<g id="node3" class="node">
<title>n14</title>
<polygon fill="none" stroke="black" points="269.61,-407 209.1,-389 269.61,-371 330.13,-389 269.61,-407"/>
<text text-anchor="middle" x="269.61" y="-384.32" font-family="Times,serif" font-size="14.00">not1.a</text>
</g>
<!-- c31 -->
<g id="node18" class="node">
<title>c31</title>
<polygon fill="none" stroke="black" points="366.13,-368.75 366.13,-411.25 505.63,-411.25 505.63,-368.75 366.13,-368.75"/>
<text text-anchor="middle" x="379" y="-385.45" font-family="Times,serif" font-size="14.00">A</text>
<polyline fill="none" stroke="black" points="391.88,-368.75 391.88,-411.25"/>
<text text-anchor="middle" x="436.25" y="-393.95" font-family="Times,serif" font-size="14.00">$14</text>
<text text-anchor="middle" x="436.25" y="-376.7" font-family="Times,serif" font-size="14.00">$logic_not</text>
<polyline fill="none" stroke="black" points="480.63,-368.75 480.63,-411.25"/>
<text text-anchor="middle" x="493.13" y="-385.45" font-family="Times,serif" font-size="14.00">Y</text>
</g>
<!-- n14&#45;&gt;c31 -->
<g id="edge9" class="edge">
<title>n14:e&#45;&gt;c31:w</title>
<path fill="none" stroke="#e6ab02" d="M330.13,-389C341.51,-389 346.81,-389.57 354.68,-389.9"/>
<polygon fill="#e6ab02" stroke="#e6ab02" points="354.55,-393.4 364.62,-390.09 354.69,-386.4 354.55,-393.4"/>
</g>
<!-- n15 -->
<g id="node4" class="node">
<title>n15</title>
<polygon fill="none" stroke="black" points="602.14,-409 541.63,-391 602.14,-373 662.66,-391 602.14,-409"/>
<text text-anchor="middle" x="602.14" y="-386.32" font-family="Times,serif" font-size="14.00">not1.o</text>
</g>
<!-- x10 -->
<g id="node48" class="node">
<title>x10</title>
<ellipse fill="black" stroke="black" cx="700.46" cy="-392" rx="1.8" ry="1.8"/>
</g>
<!-- n15&#45;&gt;x10 -->
<g id="edge11" class="edge">
<title>n15:e&#45;&gt;x10:w</title>
<path fill="none" stroke="#e6ab02" d="M662.66,-391C674.04,-391 679.34,-391.51 687.21,-391.8"/>
<polygon fill="#e6ab02" stroke="#e6ab02" points="687.08,-395.3 697.15,-391.97 687.21,-388.3 687.08,-395.3"/>
</g>
<!-- n16 -->
<g id="node5" class="node">
<title>n16</title>
<polygon fill="none" stroke="black" points="269.61,-341 209.1,-323 269.61,-305 330.13,-323 269.61,-341"/>
<text text-anchor="middle" x="269.61" y="-318.32" font-family="Times,serif" font-size="14.00">not2.a</text>
</g>
<!-- c32 -->
<g id="node19" class="node">
<title>c32</title>
<polygon fill="none" stroke="black" points="366.13,-301.75 366.13,-344.25 505.63,-344.25 505.63,-301.75 366.13,-301.75"/>
<text text-anchor="middle" x="379" y="-318.45" font-family="Times,serif" font-size="14.00">A</text>
<polyline fill="none" stroke="black" points="391.88,-301.75 391.88,-344.25"/>
<text text-anchor="middle" x="436.25" y="-326.95" font-family="Times,serif" font-size="14.00">$14</text>
<text text-anchor="middle" x="436.25" y="-309.7" font-family="Times,serif" font-size="14.00">$logic_not</text>
<polyline fill="none" stroke="black" points="480.63,-301.75 480.63,-344.25"/>
<text text-anchor="middle" x="493.13" y="-318.45" font-family="Times,serif" font-size="14.00">Y</text>
</g>
<!-- n16&#45;&gt;c32 -->
<g id="edge13" class="edge">
<title>n16:e&#45;&gt;c32:w</title>
<path fill="none" stroke="#d95f02" d="M330.13,-323C341.5,-323 346.81,-323.06 354.68,-323.1"/>
<polygon fill="#d95f02" stroke="#d95f02" points="354.61,-326.6 364.62,-323.12 354.62,-319.6 354.61,-326.6"/>
</g>
<!-- n17 -->
<g id="node6" class="node">
<title>n17</title>
<polygon fill="none" stroke="black" points="602.14,-341 541.63,-323 602.14,-305 662.66,-323 602.14,-341"/>
<text text-anchor="middle" x="602.14" y="-318.32" font-family="Times,serif" font-size="14.00">not2.o</text>
</g>
<!-- x8 -->
<g id="node46" class="node">
<title>x8</title>
<ellipse fill="black" stroke="black" cx="700.46" cy="-323" rx="1.8" ry="1.8"/>
</g>
<!-- n17&#45;&gt;x8 -->
<g id="edge15" class="edge">
<title>n17:e&#45;&gt;x8:w</title>
<path fill="none" stroke="#1b9e77" d="M662.66,-323C674.03,-323 679.34,-323 687.21,-323"/>
<polygon fill="#1b9e77" stroke="#1b9e77" points="687.14,-326.5 697.14,-323 687.14,-319.5 687.14,-326.5"/>
</g>
<!-- n18 -->
<g id="node7" class="node">
<title>n18</title>
<polygon fill="none" stroke="black" points="269.61,-283 209.1,-265 269.61,-247 330.13,-265 269.61,-283"/>
<text text-anchor="middle" x="269.61" y="-260.32" font-family="Times,serif" font-size="14.00">not3.a</text>
</g>
<!-- c33 -->
<g id="node20" class="node">
<title>c33</title>
<polygon fill="none" stroke="black" points="366.13,-235.75 366.13,-278.25 505.63,-278.25 505.63,-235.75 366.13,-235.75"/>
<text text-anchor="middle" x="379" y="-252.45" font-family="Times,serif" font-size="14.00">A</text>
<polyline fill="none" stroke="black" points="391.88,-235.75 391.88,-278.25"/>
<text text-anchor="middle" x="436.25" y="-260.95" font-family="Times,serif" font-size="14.00">$14</text>
<text text-anchor="middle" x="436.25" y="-243.7" font-family="Times,serif" font-size="14.00">$logic_not</text>
<polyline fill="none" stroke="black" points="480.63,-235.75 480.63,-278.25"/>
<text text-anchor="middle" x="493.13" y="-252.45" font-family="Times,serif" font-size="14.00">Y</text>
</g>
<!-- n18&#45;&gt;c33 -->
<g id="edge17" class="edge">
<title>n18:e&#45;&gt;c33:w</title>
<path fill="none" stroke="#d95f02" d="M330.13,-265C341.9,-265 346.89,-260.93 354.84,-258.64"/>
<polygon fill="#d95f02" stroke="#d95f02" points="355.19,-262.13 364.63,-257.33 354.25,-255.19 355.19,-262.13"/>
</g>
<!-- n19 -->
<g id="node8" class="node">
<title>n19</title>
<polygon fill="none" stroke="black" points="602.14,-267 541.63,-249 602.14,-231 662.66,-249 602.14,-267"/>
<text text-anchor="middle" x="602.14" y="-244.32" font-family="Times,serif" font-size="14.00">not3.o</text>
</g>
<!-- x6 -->
<g id="node44" class="node">
<title>x6</title>
<ellipse fill="black" stroke="black" cx="700.46" cy="-234" rx="1.8" ry="1.8"/>
</g>
<!-- n19&#45;&gt;x6 -->
<g id="edge19" class="edge">
<title>n19:e&#45;&gt;x6:w</title>
<path fill="none" stroke="#a6761d" d="M662.66,-249C675.39,-249 679.49,-240.91 687.63,-236.61"/>
<polygon fill="#a6761d" stroke="#a6761d" points="688.26,-240.06 697.19,-234.35 686.65,-233.25 688.26,-240.06"/>
</g>
<!-- n20 -->
<g id="node9" class="node">
<title>n20</title>
<polygon fill="none" stroke="black" points="2011.77,-284.54 2011.77,-299.46 1995.96,-310 1973.59,-310 1957.77,-299.46 1957.77,-284.54 1973.59,-274 1995.96,-274 2011.77,-284.54"/>
<text text-anchor="middle" x="1984.77" y="-287.32" font-family="Times,serif" font-size="14.00">o</text>
</g>
<!-- n21 -->
<g id="node10" class="node">
<title>n21</title>
<polygon fill="none" stroke="black" points="771.24,-416 738.26,-398 771.24,-380 804.23,-398 771.24,-416"/>
<text text-anchor="middle" x="771.24" y="-393.32" font-family="Times,serif" font-size="14.00">o1</text>
</g>
<!-- x0 -->
<g id="node38" class="node">
<title>x0</title>
<ellipse fill="black" stroke="black" cx="842.03" cy="-400" rx="1.8" ry="1.8"/>
</g>
<!-- n21&#45;&gt;x0 -->
<g id="edge23" class="edge">
<title>n21:e&#45;&gt;x0:w</title>
<path fill="none" stroke="#66a61e" d="M804.23,-398C815.62,-398 820.91,-399.01 828.78,-399.6"/>
<polygon fill="#66a61e" stroke="#66a61e" points="828.6,-403.09 838.72,-399.95 828.85,-396.1 828.6,-403.09"/>
</g>
<!-- n22 -->
<g id="node11" class="node">
<title>n22</title>
<polygon fill="none" stroke="black" points="771.24,-341 738.26,-323 771.24,-305 804.23,-323 771.24,-341"/>
<text text-anchor="middle" x="771.24" y="-318.32" font-family="Times,serif" font-size="14.00">o2</text>
</g>
<!-- x1 -->
<g id="node39" class="node">
<title>x1</title>
<ellipse fill="black" stroke="black" cx="842.03" cy="-323" rx="1.8" ry="1.8"/>
</g>
<!-- n22&#45;&gt;x1 -->
<g id="edge25" class="edge">
<title>n22:e&#45;&gt;x1:w</title>
<path fill="none" stroke="#d95f02" d="M804.23,-323C815.6,-323 820.91,-323 828.78,-323"/>
<polygon fill="#d95f02" stroke="#d95f02" points="828.72,-326.5 838.72,-323 828.72,-319.5 828.72,-326.5"/>
</g>
<!-- n23 -->
<g id="node12" class="node">
<title>n23</title>
<polygon fill="none" stroke="black" points="771.24,-221 738.26,-203 771.24,-185 804.23,-203 771.24,-221"/>
<text text-anchor="middle" x="771.24" y="-198.32" font-family="Times,serif" font-size="14.00">o3</text>
</g>
<!-- x2 -->
<g id="node40" class="node">
<title>x2</title>
<ellipse fill="black" stroke="black" cx="842.03" cy="-141" rx="1.8" ry="1.8"/>
</g>
<!-- n23&#45;&gt;x2 -->
<g id="edge27" class="edge">
<title>n23:e&#45;&gt;x2:w</title>
<path fill="none" stroke="#666666" d="M804.23,-203C831.36,-203 815.28,-158.04 829.59,-144.69"/>
<polygon fill="#666666" stroke="#666666" points="830.5,-148.08 838.8,-141.5 828.2,-141.47 830.5,-148.08"/>
</g>
<!-- n24 -->
<g id="node13" class="node">
<title>n24</title>
<polygon fill="none" stroke="black" points="944.81,-421 880.57,-403 944.81,-385 1009.04,-403 944.81,-421"/>
<text text-anchor="middle" x="944.81" y="-398.32" font-family="Times,serif" font-size="14.00">voter.a</text>
</g>
<!-- c37 -->
<g id="node23" class="node">
<title>c37</title>
<polygon fill="none" stroke="black" points="1225.04,-421.75 1225.04,-472.25 1368.29,-472.25 1368.29,-421.75 1225.04,-421.75"/>
<text text-anchor="middle" x="1238.29" y="-454.95" font-family="Times,serif" font-size="14.00">A</text>
<polyline fill="none" stroke="black" points="1225.04,-447 1251.54,-447"/>
<text text-anchor="middle" x="1238.29" y="-429.7" font-family="Times,serif" font-size="14.00">B</text>
<polyline fill="none" stroke="black" points="1251.54,-421.75 1251.54,-472.25"/>
<text text-anchor="middle" x="1297.41" y="-450.95" font-family="Times,serif" font-size="14.00">$9</text>
<text text-anchor="middle" x="1297.41" y="-433.7" font-family="Times,serif" font-size="14.00">$logic_and</text>
<polyline fill="none" stroke="black" points="1343.29,-421.75 1343.29,-472.25"/>
<text text-anchor="middle" x="1355.79" y="-442.45" font-family="Times,serif" font-size="14.00">Y</text>
</g>
<!-- n24&#45;&gt;c37 -->
<g id="edge29" class="edge">
<title>n24:e&#45;&gt;c37:w</title>
<path fill="none" stroke="#7570b3" d="M1009.79,-403C1050.81,-403 1011.58,-465.34 1045.79,-488 1098.86,-523.16 1128.88,-508.86 1189.04,-488 1203.77,-482.89 1205.11,-468.97 1214.06,-462.73"/>
<polygon fill="#7570b3" stroke="#7570b3" points="1214.91,-466.13 1223.58,-460.04 1213.01,-459.39 1214.91,-466.13"/>
</g>
<!-- c38 -->
<g id="node24" class="node">
<title>c38</title>
<polygon fill="none" stroke="black" points="1045.79,-365.75 1045.79,-416.25 1189.04,-416.25 1189.04,-365.75 1045.79,-365.75"/>
<text text-anchor="middle" x="1059.04" y="-398.95" font-family="Times,serif" font-size="14.00">A</text>
<polyline fill="none" stroke="black" points="1045.79,-391 1072.29,-391"/>
<text text-anchor="middle" x="1059.04" y="-373.7" font-family="Times,serif" font-size="14.00">B</text>
<polyline fill="none" stroke="black" points="1072.29,-365.75 1072.29,-416.25"/>
<text text-anchor="middle" x="1118.16" y="-394.95" font-family="Times,serif" font-size="14.00">$1</text>
<text text-anchor="middle" x="1118.16" y="-377.7" font-family="Times,serif" font-size="14.00">$logic_and</text>
<polyline fill="none" stroke="black" points="1164.04,-365.75 1164.04,-416.25"/>
<text text-anchor="middle" x="1176.54" y="-386.45" font-family="Times,serif" font-size="14.00">Y</text>
</g>
<!-- n24&#45;&gt;c38 -->
<g id="edge30" class="edge">
<title>n24:e&#45;&gt;c38:w</title>
<path fill="none" stroke="#7570b3" d="M1009.79,-403C1021.16,-403 1026.47,-403.32 1034.34,-403.5"/>
<polygon fill="#7570b3" stroke="#7570b3" points="1034.24,-407 1044.27,-403.61 1034.31,-400 1034.24,-407"/>
</g>
<!-- c40 -->
<g id="node26" class="node">
<title>c40</title>
<polygon fill="none" stroke="black" points="1045.79,-233.75 1045.79,-284.25 1189.04,-284.25 1189.04,-233.75 1045.79,-233.75"/>
<text text-anchor="middle" x="1059.04" y="-266.95" font-family="Times,serif" font-size="14.00">A</text>
<polyline fill="none" stroke="black" points="1045.79,-259 1072.29,-259"/>
<text text-anchor="middle" x="1059.04" y="-241.7" font-family="Times,serif" font-size="14.00">B</text>
<polyline fill="none" stroke="black" points="1072.29,-233.75 1072.29,-284.25"/>
<text text-anchor="middle" x="1118.16" y="-262.95" font-family="Times,serif" font-size="14.00">$4</text>
<text text-anchor="middle" x="1118.16" y="-245.7" font-family="Times,serif" font-size="14.00">$logic_and</text>
<polyline fill="none" stroke="black" points="1164.04,-233.75 1164.04,-284.25"/>
<text text-anchor="middle" x="1176.54" y="-254.45" font-family="Times,serif" font-size="14.00">Y</text>
</g>
<!-- n24&#45;&gt;c40 -->
<g id="edge31" class="edge">
<title>n24:e&#45;&gt;c40:w</title>
<path fill="none" stroke="#7570b3" d="M1009.79,-403C1065.83,-403 997.07,-290.4 1034.59,-273.69"/>
<polygon fill="#7570b3" stroke="#7570b3" points="1035.1,-277.15 1044.3,-271.9 1033.83,-270.27 1035.1,-277.15"/>
</g>
<!-- c42 -->
<g id="node28" class="node">
<title>c42</title>
<polygon fill="none" stroke="black" points="1047.66,-435.75 1047.66,-478.25 1187.16,-478.25 1187.16,-435.75 1047.66,-435.75"/>
<text text-anchor="middle" x="1060.54" y="-452.45" font-family="Times,serif" font-size="14.00">A</text>
<polyline fill="none" stroke="black" points="1073.41,-435.75 1073.41,-478.25"/>
<text text-anchor="middle" x="1117.79" y="-460.95" font-family="Times,serif" font-size="14.00">$6</text>
<text text-anchor="middle" x="1117.79" y="-443.7" font-family="Times,serif" font-size="14.00">$logic_not</text>
<polyline fill="none" stroke="black" points="1162.16,-435.75 1162.16,-478.25"/>
<text text-anchor="middle" x="1174.66" y="-452.45" font-family="Times,serif" font-size="14.00">Y</text>
</g>
<!-- n24&#45;&gt;c42 -->
<g id="edge32" class="edge">
<title>n24:e&#45;&gt;c42:w</title>
<path fill="none" stroke="#7570b3" d="M1009.79,-403C1034.12,-403 1023.2,-440.82 1035.96,-453.23"/>
<polygon fill="#7570b3" stroke="#7570b3" points="1034.65,-456.48 1045.24,-456.61 1037.04,-449.9 1034.65,-456.48"/>
</g>
<!-- n25 -->
<g id="node14" class="node">
<title>n25</title>
<polygon fill="none" stroke="black" points="944.81,-341 879.83,-323 944.81,-305 1009.79,-323 944.81,-341"/>
<text text-anchor="middle" x="944.81" y="-318.32" font-family="Times,serif" font-size="14.00">voter.b</text>
</g>
<!-- c35 -->
<g id="node21" class="node">
<title>c35</title>
<polygon fill="none" stroke="black" points="1225.04,-167.75 1225.04,-218.25 1368.29,-218.25 1368.29,-167.75 1225.04,-167.75"/>
<text text-anchor="middle" x="1238.29" y="-200.95" font-family="Times,serif" font-size="14.00">A</text>
<polyline fill="none" stroke="black" points="1225.04,-193 1251.54,-193"/>
<text text-anchor="middle" x="1238.29" y="-175.7" font-family="Times,serif" font-size="14.00">B</text>
<polyline fill="none" stroke="black" points="1251.54,-167.75 1251.54,-218.25"/>
<text text-anchor="middle" x="1297.41" y="-196.95" font-family="Times,serif" font-size="14.00">$12</text>
<text text-anchor="middle" x="1297.41" y="-179.7" font-family="Times,serif" font-size="14.00">$logic_and</text>
<polyline fill="none" stroke="black" points="1343.29,-167.75 1343.29,-218.25"/>
<text text-anchor="middle" x="1355.79" y="-188.45" font-family="Times,serif" font-size="14.00">Y</text>
</g>
<!-- n25&#45;&gt;c35 -->
<g id="edge34" class="edge">
<title>n25:e&#45;&gt;c35:w</title>
<path fill="none" stroke="#e6ab02" d="M1009.79,-323C1056.61,-323 1008.86,-252.78 1045.79,-224 1105.87,-177.17 1141.37,-202.8 1213.61,-205.42"/>
<polygon fill="#e6ab02" stroke="#e6ab02" points="1213.46,-208.91 1223.52,-205.6 1213.59,-201.92 1213.46,-208.91"/>
</g>
<!-- n25&#45;&gt;c38 -->
<g id="edge35" class="edge">
<title>n25:e&#45;&gt;c38:w</title>
<path fill="none" stroke="#e6ab02" d="M1009.79,-323C1034.33,-323 1022.48,-361.7 1035.08,-374.39"/>
<polygon fill="#e6ab02" stroke="#e6ab02" points="1033.78,-377.64 1044.37,-377.85 1036.22,-371.08 1033.78,-377.64"/>
</g>
<!-- c39 -->
<g id="node25" class="node">
<title>c39</title>
<polygon fill="none" stroke="black" points="1045.79,-125.75 1045.79,-176.25 1189.04,-176.25 1189.04,-125.75 1045.79,-125.75"/>
<text text-anchor="middle" x="1059.04" y="-158.95" font-family="Times,serif" font-size="14.00">A</text>
<polyline fill="none" stroke="black" points="1045.79,-151 1072.29,-151"/>
<text text-anchor="middle" x="1059.04" y="-133.7" font-family="Times,serif" font-size="14.00">B</text>
<polyline fill="none" stroke="black" points="1072.29,-125.75 1072.29,-176.25"/>
<text text-anchor="middle" x="1118.16" y="-154.95" font-family="Times,serif" font-size="14.00">$2</text>
<text text-anchor="middle" x="1118.16" y="-137.7" font-family="Times,serif" font-size="14.00">$logic_and</text>
<polyline fill="none" stroke="black" points="1164.04,-125.75 1164.04,-176.25"/>
<text text-anchor="middle" x="1176.54" y="-146.45" font-family="Times,serif" font-size="14.00">Y</text>
</g>
<!-- n25&#45;&gt;c39 -->
<g id="edge36" class="edge">
<title>n25:e&#45;&gt;c39:w</title>
<path fill="none" stroke="#e6ab02" d="M1009.79,-323C1078.01,-323 985.73,-182.34 1034.52,-165.31"/>
<polygon fill="#e6ab02" stroke="#e6ab02" points="1034.92,-168.79 1044.29,-163.85 1033.88,-161.86 1034.92,-168.79"/>
</g>
<!-- c43 -->
<g id="node29" class="node">
<title>c43</title>
<polygon fill="none" stroke="black" points="1047.66,-303.75 1047.66,-346.25 1187.16,-346.25 1187.16,-303.75 1047.66,-303.75"/>
<text text-anchor="middle" x="1060.54" y="-320.45" font-family="Times,serif" font-size="14.00">A</text>
<polyline fill="none" stroke="black" points="1073.41,-303.75 1073.41,-346.25"/>
<text text-anchor="middle" x="1117.79" y="-328.95" font-family="Times,serif" font-size="14.00">$8</text>
<text text-anchor="middle" x="1117.79" y="-311.7" font-family="Times,serif" font-size="14.00">$logic_not</text>
<polyline fill="none" stroke="black" points="1162.16,-303.75 1162.16,-346.25"/>
<text text-anchor="middle" x="1174.66" y="-320.45" font-family="Times,serif" font-size="14.00">Y</text>
</g>
<!-- n25&#45;&gt;c43 -->
<g id="edge37" class="edge">
<title>n25:e&#45;&gt;c43:w</title>
<path fill="none" stroke="#e6ab02" d="M1009.79,-323C1021.59,-323 1026.99,-324.1 1035.2,-324.72"/>
<polygon fill="#e6ab02" stroke="#e6ab02" points="1035.03,-328.21 1045.15,-325.07 1035.28,-321.22 1035.03,-328.21"/>
</g>
<!-- n26 -->
<g id="node15" class="node">
<title>n26</title>
<polygon fill="none" stroke="black" points="944.81,-157 881.32,-139 944.81,-121 1008.3,-139 944.81,-157"/>
<text text-anchor="middle" x="944.81" y="-134.32" font-family="Times,serif" font-size="14.00">voter.c</text>
</g>
<!-- c36 -->
<g id="node22" class="node">
<title>c36</title>
<polygon fill="none" stroke="black" points="1225.04,-351.75 1225.04,-402.25 1368.29,-402.25 1368.29,-351.75 1225.04,-351.75"/>
<text text-anchor="middle" x="1238.29" y="-384.95" font-family="Times,serif" font-size="14.00">A</text>
<polyline fill="none" stroke="black" points="1225.04,-377 1251.54,-377"/>
<text text-anchor="middle" x="1238.29" y="-359.7" font-family="Times,serif" font-size="14.00">B</text>
<polyline fill="none" stroke="black" points="1251.54,-351.75 1251.54,-402.25"/>
<text text-anchor="middle" x="1297.41" y="-380.95" font-family="Times,serif" font-size="14.00">$7</text>
<text text-anchor="middle" x="1297.41" y="-363.7" font-family="Times,serif" font-size="14.00">$logic_and</text>
<polyline fill="none" stroke="black" points="1343.29,-351.75 1343.29,-402.25"/>
<text text-anchor="middle" x="1355.79" y="-372.45" font-family="Times,serif" font-size="14.00">Y</text>
</g>
<!-- n26&#45;&gt;c36 -->
<g id="edge39" class="edge">
<title>n26:e&#45;&gt;c36:w</title>
<path fill="none" stroke="#7570b3" d="M1009.79,-139C1028.77,-139 1027.56,-121.32 1045.79,-116 1106.9,-98.14 1140.9,-74.33 1189.04,-116 1228.08,-149.79 1177.89,-333.89 1214.47,-361.03"/>
<polygon fill="#7570b3" stroke="#7570b3" points="1213,-364.24 1223.59,-363.92 1215.12,-357.56 1213,-364.24"/>
</g>
<!-- n26&#45;&gt;c39 -->
<g id="edge40" class="edge">
<title>n26:e&#45;&gt;c39:w</title>
<path fill="none" stroke="#7570b3" d="M1009.79,-139C1021.16,-139 1026.47,-138.68 1034.34,-138.5"/>
<polygon fill="#7570b3" stroke="#7570b3" points="1034.31,-142 1044.27,-138.39 1034.24,-135 1034.31,-142"/>
</g>
<!-- n26&#45;&gt;c40 -->
<g id="edge41" class="edge">
<title>n26:e&#45;&gt;c40:w</title>
<path fill="none" stroke="#7570b3" d="M1009.79,-139C1055.6,-139 1006.15,-227.95 1034.84,-243.93"/>
<polygon fill="#7570b3" stroke="#7570b3" points="1033.79,-247.28 1044.31,-246.05 1035.31,-240.45 1033.79,-247.28"/>
</g>
<!-- c41 -->
<g id="node27" class="node">
<title>c41</title>
<polygon fill="none" stroke="black" points="1047.66,-25.75 1047.66,-68.25 1187.16,-68.25 1187.16,-25.75 1047.66,-25.75"/>
<text text-anchor="middle" x="1060.54" y="-42.45" font-family="Times,serif" font-size="14.00">A</text>
<polyline fill="none" stroke="black" points="1073.41,-25.75 1073.41,-68.25"/>
<text text-anchor="middle" x="1117.79" y="-50.95" font-family="Times,serif" font-size="14.00">$11</text>
<text text-anchor="middle" x="1117.79" y="-33.7" font-family="Times,serif" font-size="14.00">$logic_not</text>
<polyline fill="none" stroke="black" points="1162.16,-25.75 1162.16,-68.25"/>
<text text-anchor="middle" x="1174.66" y="-42.45" font-family="Times,serif" font-size="14.00">Y</text>
</g>
<!-- n26&#45;&gt;c41 -->
<g id="edge42" class="edge">
<title>n26:e&#45;&gt;c41:w</title>
<path fill="none" stroke="#7570b3" d="M1009.79,-139C1049.15,-139 1012.39,-65.48 1035.69,-49.98"/>
<polygon fill="#7570b3" stroke="#7570b3" points="1036.4,-53.41 1045.2,-47.51 1034.64,-46.63 1036.4,-53.41"/>
</g>
<!-- n27 -->
<g id="node16" class="node">
<title>n27</title>
<polygon fill="none" stroke="black" points="1844.14,-241 1766.52,-223 1844.14,-205 1921.77,-223 1844.14,-241"/>
<text text-anchor="middle" x="1844.14" y="-218.32" font-family="Times,serif" font-size="14.00">voter.err</text>
</g>
<!-- x3 -->
<g id="node41" class="node">
<title>x3</title>
<ellipse fill="black" stroke="black" cx="1984.77" cy="-223" rx="1.8" ry="1.8"/>
</g>
<!-- n27&#45;&gt;x3 -->
<g id="edge44" class="edge">
<title>n27:e&#45;&gt;x3:w</title>
<path fill="none" stroke="#e6ab02" d="M1921.77,-223C1944.17,-223 1952.39,-223 1970.36,-223"/>
<polygon fill="#e6ab02" stroke="#e6ab02" points="1969.98,-226.5 1979.98,-223 1969.98,-219.5 1969.98,-226.5"/>
</g>
<!-- n28 -->
<g id="node17" class="node">
<title>n28</title>
<polygon fill="none" stroke="black" points="1651.4,-310 1572.29,-292 1651.4,-274 1730.52,-292 1651.4,-310"/>
<text text-anchor="middle" x="1651.4" y="-287.32" font-family="Times,serif" font-size="14.00">voter.out</text>
</g>
<!-- x4 -->
<g id="node42" class="node">
<title>x4</title>
<ellipse fill="black" stroke="black" cx="1844.14" cy="-292" rx="1.8" ry="1.8"/>
</g>
<!-- n28&#45;&gt;x4 -->
<g id="edge46" class="edge">
<title>n28:e&#45;&gt;x4:w</title>
<path fill="none" stroke="#a6761d" d="M1730.52,-292C1775.54,-292 1789.56,-292 1829.5,-292"/>
<polygon fill="#a6761d" stroke="#a6761d" points="1829.35,-295.5 1839.35,-292 1829.35,-288.5 1829.35,-295.5"/>
</g>
<!-- c31&#45;&gt;n15 -->
<g id="edge10" class="edge">
<title>c31:e&#45;&gt;n15:w</title>
<path fill="none" stroke="#e6ab02" d="M505.63,-390.12C517.01,-390.12 522.31,-390.57 530.18,-390.82"/>
<polygon fill="#e6ab02" stroke="#e6ab02" points="530.06,-394.32 540.12,-390.98 530.17,-387.32 530.06,-394.32"/>
</g>
<!-- c32&#45;&gt;n17 -->
<g id="edge14" class="edge">
<title>c32:e&#45;&gt;n17:w</title>
<path fill="none" stroke="#1b9e77" d="M505.63,-323.12C517,-323.12 522.31,-323.06 530.18,-323.03"/>
<polygon fill="#1b9e77" stroke="#1b9e77" points="530.12,-326.53 540.12,-323 530.11,-319.53 530.12,-326.53"/>
</g>
<!-- c33&#45;&gt;n19 -->
<g id="edge18" class="edge">
<title>c33:e&#45;&gt;n19:w</title>
<path fill="none" stroke="#a6761d" d="M505.63,-257.12C517.42,-257.12 522.38,-252.93 530.34,-250.57"/>
<polygon fill="#a6761d" stroke="#a6761d" points="530.71,-254.05 540.13,-249.21 529.74,-247.12 530.71,-254.05"/>
</g>
<!-- c45 -->
<g id="node31" class="node">
<title>c45</title>
<polygon fill="none" stroke="black" points="1585.4,-197.75 1585.4,-248.25 1717.4,-248.25 1717.4,-197.75 1585.4,-197.75"/>
<text text-anchor="middle" x="1598.65" y="-230.95" font-family="Times,serif" font-size="14.00">A</text>
<polyline fill="none" stroke="black" points="1585.4,-223 1611.9,-223"/>
<text text-anchor="middle" x="1598.65" y="-205.7" font-family="Times,serif" font-size="14.00">B</text>
<polyline fill="none" stroke="black" points="1611.9,-197.75 1611.9,-248.25"/>
<text text-anchor="middle" x="1652.15" y="-226.95" font-family="Times,serif" font-size="14.00">$13</text>
<text text-anchor="middle" x="1652.15" y="-209.7" font-family="Times,serif" font-size="14.00">$logic_or</text>
<polyline fill="none" stroke="black" points="1692.4,-197.75 1692.4,-248.25"/>
<text text-anchor="middle" x="1704.9" y="-218.45" font-family="Times,serif" font-size="14.00">Y</text>
</g>
<!-- c35&#45;&gt;c45 -->
<g id="edge1" class="edge">
<title>c35:e&#45;&gt;c45:w</title>
<path fill="none" stroke="#e7298a" d="M1368.29,-193.12C1460.69,-193.12 1486,-208.99 1572.9,-210.29"/>
<polygon fill="#e7298a" stroke="#e7298a" points="1572.86,-213.79 1582.89,-210.36 1572.91,-206.79 1572.86,-213.79"/>
</g>
<!-- c44 -->
<g id="node30" class="node">
<title>c44</title>
<polygon fill="none" stroke="black" points="1404.29,-339.75 1404.29,-390.25 1536.29,-390.25 1536.29,-339.75 1404.29,-339.75"/>
<text text-anchor="middle" x="1417.54" y="-372.95" font-family="Times,serif" font-size="14.00">A</text>
<polyline fill="none" stroke="black" points="1404.29,-365 1430.79,-365"/>
<text text-anchor="middle" x="1417.54" y="-347.7" font-family="Times,serif" font-size="14.00">B</text>
<polyline fill="none" stroke="black" points="1430.79,-339.75 1430.79,-390.25"/>
<text text-anchor="middle" x="1471.04" y="-368.95" font-family="Times,serif" font-size="14.00">$10</text>
<text text-anchor="middle" x="1471.04" y="-351.7" font-family="Times,serif" font-size="14.00">$logic_or</text>
<polyline fill="none" stroke="black" points="1511.29,-339.75 1511.29,-390.25"/>
<text text-anchor="middle" x="1523.79" y="-360.45" font-family="Times,serif" font-size="14.00">Y</text>
</g>
<!-- c36&#45;&gt;c44 -->
<g id="edge20" class="edge">
<title>c36:e&#45;&gt;c44:w</title>
<path fill="none" stroke="#66a61e" d="M1368.29,-377.12C1379.66,-377.12 1384.97,-377.38 1392.84,-377.52"/>
<polygon fill="#66a61e" stroke="#66a61e" points="1392.74,-381.02 1402.77,-377.61 1392.8,-374.02 1392.74,-381.02"/>
</g>
<!-- c37&#45;&gt;c44 -->
<g id="edge47" class="edge">
<title>c37:e&#45;&gt;c44:w</title>
<path fill="none" stroke="#a6761d" d="M1368.29,-447.12C1408.76,-447.12 1369.2,-370.64 1393.42,-355.11"/>
<polygon fill="#a6761d" stroke="#a6761d" points="1393.98,-358.58 1402.82,-352.74 1392.27,-351.79 1393.98,-358.58"/>
</g>
<!-- c46 -->
<g id="node32" class="node">
<title>c46</title>
<polygon fill="none" stroke="black" points="1230.66,-281.75 1230.66,-332.25 1362.66,-332.25 1362.66,-281.75 1230.66,-281.75"/>
<text text-anchor="middle" x="1243.91" y="-314.95" font-family="Times,serif" font-size="14.00">A</text>
<polyline fill="none" stroke="black" points="1230.66,-307 1257.16,-307"/>
<text text-anchor="middle" x="1243.91" y="-289.7" font-family="Times,serif" font-size="14.00">B</text>
<polyline fill="none" stroke="black" points="1257.16,-281.75 1257.16,-332.25"/>
<text text-anchor="middle" x="1297.41" y="-310.95" font-family="Times,serif" font-size="14.00">$3</text>
<text text-anchor="middle" x="1297.41" y="-293.7" font-family="Times,serif" font-size="14.00">$logic_or</text>
<polyline fill="none" stroke="black" points="1337.66,-281.75 1337.66,-332.25"/>
<text text-anchor="middle" x="1350.16" y="-302.45" font-family="Times,serif" font-size="14.00">Y</text>
</g>
<!-- c38&#45;&gt;c46 -->
<g id="edge48" class="edge">
<title>c38:e&#45;&gt;c46:w</title>
<path fill="none" stroke="#7570b3" d="M1189.04,-391.12C1221.02,-391.12 1200.15,-336.38 1218.92,-322.7"/>
<polygon fill="#7570b3" stroke="#7570b3" points="1219.55,-326.16 1228.21,-320.04 1217.63,-319.43 1219.55,-326.16"/>
</g>
<!-- c39&#45;&gt;c46 -->
<g id="edge49" class="edge">
<title>c39:e&#45;&gt;c46:w</title>
<path fill="none" stroke="#666666" d="M1189.04,-151.12C1250.82,-151.12 1174.97,-275.98 1218.47,-292.56"/>
<polygon fill="#666666" stroke="#666666" points="1217.74,-295.99 1228.17,-294.13 1218.86,-289.08 1217.74,-295.99"/>
</g>
<!-- c47 -->
<g id="node33" class="node">
<title>c47</title>
<polygon fill="none" stroke="black" points="1404.29,-266.75 1404.29,-317.25 1536.29,-317.25 1536.29,-266.75 1404.29,-266.75"/>
<text text-anchor="middle" x="1417.54" y="-299.95" font-family="Times,serif" font-size="14.00">A</text>
<polyline fill="none" stroke="black" points="1404.29,-292 1430.79,-292"/>
<text text-anchor="middle" x="1417.54" y="-274.7" font-family="Times,serif" font-size="14.00">B</text>
<polyline fill="none" stroke="black" points="1430.79,-266.75 1430.79,-317.25"/>
<text text-anchor="middle" x="1471.04" y="-295.95" font-family="Times,serif" font-size="14.00">$5</text>
<text text-anchor="middle" x="1471.04" y="-278.7" font-family="Times,serif" font-size="14.00">$logic_or</text>
<polyline fill="none" stroke="black" points="1511.29,-266.75 1511.29,-317.25"/>
<text text-anchor="middle" x="1523.79" y="-287.45" font-family="Times,serif" font-size="14.00">Y</text>
</g>
<!-- c40&#45;&gt;c47 -->
<g id="edge50" class="edge">
<title>c40:e&#45;&gt;c47:w</title>
<path fill="none" stroke="#e7298a" d="M1189.04,-259.12C1268.91,-259.12 1289.16,-261.1 1368.29,-272 1379.92,-273.6 1384.99,-276.71 1392.99,-278.33"/>
<polygon fill="#e7298a" stroke="#e7298a" points="1392.5,-281.8 1402.78,-279.24 1393.14,-274.83 1392.5,-281.8"/>
</g>
<!-- c41&#45;&gt;c35 -->
<g id="edge51" class="edge">
<title>c41:e&#45;&gt;c35:w</title>
<path fill="none" stroke="#66a61e" d="M1188.16,-47.12C1245.29,-47.12 1174.96,-162.3 1214.16,-178.49"/>
<polygon fill="#66a61e" stroke="#66a61e" points="1213.09,-181.86 1223.55,-180.12 1214.29,-174.96 1213.09,-181.86"/>
</g>
<!-- c42&#45;&gt;c36 -->
<g id="edge52" class="edge">
<title>c42:e&#45;&gt;c36:w</title>
<path fill="none" stroke="#e7298a" d="M1188.16,-457.12C1217.54,-457.12 1198.41,-407.27 1214.15,-393.25"/>
<polygon fill="#e7298a" stroke="#e7298a" points="1215.22,-396.59 1223.6,-390.1 1213.01,-389.94 1215.22,-396.59"/>
</g>
<!-- c43&#45;&gt;c37 -->
<g id="edge53" class="edge">
<title>c43:e&#45;&gt;c37:w</title>
<path fill="none" stroke="#d95f02" d="M1188.16,-325.12C1234.8,-325.12 1184.64,-415.63 1213.88,-431.89"/>
<polygon fill="#d95f02" stroke="#d95f02" points="1213.04,-435.28 1223.56,-434.05 1214.56,-428.45 1213.04,-435.28"/>
</g>
<!-- c44&#45;&gt;c45 -->
<g id="edge2" class="edge">
<title>c44:e&#45;&gt;c45:w</title>
<path fill="none" stroke="#7570b3" d="M1536.29,-365.12C1593.25,-365.12 1533.09,-253.67 1573.12,-237.56"/>
<polygon fill="#7570b3" stroke="#7570b3" points="1573.64,-241.02 1582.91,-235.88 1572.46,-234.12 1573.64,-241.02"/>
</g>
<!-- c45&#45;&gt;n27 -->
<g id="edge43" class="edge">
<title>c45:e&#45;&gt;n27:w</title>
<path fill="none" stroke="#e6ab02" d="M1718.4,-223.12C1735.44,-223.12 1742.3,-223.05 1755.2,-223.01"/>
<polygon fill="#e6ab02" stroke="#e6ab02" points="1755.01,-226.51 1765,-223 1755,-219.51 1755.01,-226.51"/>
</g>
<!-- c46&#45;&gt;c47 -->
<g id="edge3" class="edge">
<title>c46:e&#45;&gt;c47:w</title>
<path fill="none" stroke="#7570b3" d="M1363.66,-307.12C1377.23,-307.12 1383.12,-305.72 1392.85,-305.02"/>
<polygon fill="#7570b3" stroke="#7570b3" points="1392.9,-308.52 1402.77,-304.68 1392.66,-301.52 1392.9,-308.52"/>
</g>
<!-- c47&#45;&gt;n28 -->
<g id="edge45" class="edge">
<title>c47:e&#45;&gt;n28:w</title>
<path fill="none" stroke="#a6761d" d="M1536.29,-292.12C1547.66,-292.12 1552.97,-292.06 1560.84,-292.03"/>
<polygon fill="#a6761d" stroke="#a6761d" points="1560.78,-295.53 1570.77,-292 1560.77,-288.53 1560.78,-295.53"/>
</g>
<!-- c48 -->
<g id="node34" class="node">
<title>c48</title>
<polygon fill="none" stroke="black" points="0,-359.75 0,-402.25 133.5,-402.25 133.5,-359.75 0,-359.75"/>
<text text-anchor="middle" x="10.25" y="-376.45" font-family="Times,serif" font-size="14.00"> </text>
<polyline fill="none" stroke="black" points="20.5,-359.75 20.5,-402.25"/>
<text text-anchor="middle" x="66.75" y="-384.95" font-family="Times,serif" font-size="14.00">not1</text>
<text text-anchor="middle" x="66.75" y="-367.7" font-family="Times,serif" font-size="14.00">$scopeinfo</text>
<polyline fill="none" stroke="black" points="113,-359.75 113,-402.25"/>
<text text-anchor="middle" x="123.25" y="-376.45" font-family="Times,serif" font-size="14.00"> </text>
</g>
<!-- c49 -->
<g id="node35" class="node">
<title>c49</title>
<polygon fill="none" stroke="black" points="0,-421.75 0,-464.25 133.5,-464.25 133.5,-421.75 0,-421.75"/>
<text text-anchor="middle" x="10.25" y="-438.45" font-family="Times,serif" font-size="14.00"> </text>
<polyline fill="none" stroke="black" points="20.5,-421.75 20.5,-464.25"/>
<text text-anchor="middle" x="66.75" y="-446.95" font-family="Times,serif" font-size="14.00">not2</text>
<text text-anchor="middle" x="66.75" y="-429.7" font-family="Times,serif" font-size="14.00">$scopeinfo</text>
<polyline fill="none" stroke="black" points="113,-421.75 113,-464.25"/>
<text text-anchor="middle" x="123.25" y="-438.45" font-family="Times,serif" font-size="14.00"> </text>
</g>
<!-- c50 -->
<g id="node36" class="node">
<title>c50</title>
<polygon fill="none" stroke="black" points="0,-483.75 0,-526.25 133.5,-526.25 133.5,-483.75 0,-483.75"/>
<text text-anchor="middle" x="10.25" y="-500.45" font-family="Times,serif" font-size="14.00"> </text>
<polyline fill="none" stroke="black" points="20.5,-483.75 20.5,-526.25"/>
<text text-anchor="middle" x="66.75" y="-508.95" font-family="Times,serif" font-size="14.00">not3</text>
<text text-anchor="middle" x="66.75" y="-491.7" font-family="Times,serif" font-size="14.00">$scopeinfo</text>
<polyline fill="none" stroke="black" points="113,-483.75 113,-526.25"/>
<text text-anchor="middle" x="123.25" y="-500.45" font-family="Times,serif" font-size="14.00"> </text>
</g>
<!-- c51 -->
<g id="node37" class="node">
<title>c51</title>
<polygon fill="none" stroke="black" points="0,-545.75 0,-588.25 133.5,-588.25 133.5,-545.75 0,-545.75"/>
<text text-anchor="middle" x="10.25" y="-562.45" font-family="Times,serif" font-size="14.00"> </text>
<polyline fill="none" stroke="black" points="20.5,-545.75 20.5,-588.25"/>
<text text-anchor="middle" x="66.75" y="-570.95" font-family="Times,serif" font-size="14.00">voter</text>
<text text-anchor="middle" x="66.75" y="-553.7" font-family="Times,serif" font-size="14.00">$scopeinfo</text>
<polyline fill="none" stroke="black" points="113,-545.75 113,-588.25"/>
<text text-anchor="middle" x="123.25" y="-562.45" font-family="Times,serif" font-size="14.00"> </text>
</g>
<!-- x0&#45;&gt;n24 -->
<g id="edge28" class="edge">
<title>x0:e&#45;&gt;n24:w</title>
<path fill="none" stroke="#7570b3" d="M843.83,-400C855.24,-400 860.51,-401.52 868.37,-402.39"/>
<polygon fill="#7570b3" stroke="#7570b3" points="868.15,-405.89 878.32,-402.92 868.52,-398.9 868.15,-405.89"/>
</g>
<!-- x1&#45;&gt;n25 -->
<g id="edge33" class="edge">
<title>x1:e&#45;&gt;n25:w</title>
<path fill="none" stroke="#e6ab02" d="M843.83,-323C855.2,-323 860.51,-323 868.38,-323"/>
<polygon fill="#e6ab02" stroke="#e6ab02" points="868.32,-326.5 878.32,-323 868.32,-319.5 868.32,-326.5"/>
</g>
<!-- x2&#45;&gt;n26 -->
<g id="edge38" class="edge">
<title>x2:e&#45;&gt;n26:w</title>
<path fill="none" stroke="#7570b3" d="M843.83,-141C855.22,-141 860.51,-139.99 868.38,-139.4"/>
<polygon fill="#7570b3" stroke="#7570b3" points="868.45,-142.9 878.32,-139.05 868.2,-135.91 868.45,-142.9"/>
</g>
<!-- x3&#45;&gt;n13 -->
<g id="edge7" class="edge">
<title>x3:e&#45;&gt;n13:w</title>
<path fill="none" stroke="#d95f02" d="M1988.05,-223C2010.45,-223 2018.67,-223 2036.64,-223"/>
<polygon fill="#d95f02" stroke="#d95f02" points="2036.26,-226.5 2046.26,-223 2036.26,-219.5 2036.26,-226.5"/>
</g>
<!-- x4&#45;&gt;n20 -->
<g id="edge21" class="edge">
<title>x4:e&#45;&gt;n20:w</title>
<path fill="none" stroke="#a6761d" d="M1847.42,-292C1892.44,-292 1906.47,-292 1946.4,-292"/>
<polygon fill="#a6761d" stroke="#a6761d" points="1946.26,-295.5 1956.26,-292 1946.26,-288.5 1946.26,-295.5"/>
</g>
<!-- x5&#45;&gt;n18 -->
<g id="edge16" class="edge">
<title>x5:e&#45;&gt;n18:w</title>
<path fill="none" stroke="#d95f02" d="M173.1,-285C186.83,-285 189.92,-273.75 198.33,-268.12"/>
<polygon fill="#d95f02" stroke="#d95f02" points="199.02,-271.57 207.65,-265.42 197.07,-264.85 199.02,-271.57"/>
</g>
<!-- x6&#45;&gt;n23 -->
<g id="edge26" class="edge">
<title>x6:e&#45;&gt;n23:w</title>
<path fill="none" stroke="#666666" d="M702.26,-234C718.59,-234 718.56,-215.46 727.48,-207.05"/>
<polygon fill="#666666" stroke="#666666" points="728.71,-210.33 736.84,-203.53 726.25,-203.78 728.71,-210.33"/>
</g>
<!-- x7&#45;&gt;n16 -->
<g id="edge12" class="edge">
<title>x7:e&#45;&gt;n16:w</title>
<path fill="none" stroke="#d95f02" d="M173.1,-323C184.48,-323 189.78,-323 197.65,-323"/>
<polygon fill="#d95f02" stroke="#d95f02" points="197.59,-326.5 207.59,-323 197.59,-319.5 197.59,-326.5"/>
</g>
<!-- x8&#45;&gt;n22 -->
<g id="edge24" class="edge">
<title>x8:e&#45;&gt;n22:w</title>
<path fill="none" stroke="#d95f02" d="M702.26,-323C713.63,-323 718.94,-323 726.81,-323"/>
<polygon fill="#d95f02" stroke="#d95f02" points="726.74,-326.5 736.74,-323 726.74,-319.5 726.74,-326.5"/>
</g>
<!-- x9&#45;&gt;n14 -->
<g id="edge8" class="edge">
<title>x9:e&#45;&gt;n14:w</title>
<path fill="none" stroke="#e6ab02" d="M173.1,-361C188.62,-361 189.6,-377.41 198.3,-385.11"/>
<polygon fill="#e6ab02" stroke="#e6ab02" points="197.08,-388.39 207.68,-388.49 199.46,-381.8 197.08,-388.39"/>
</g>
<!-- x10&#45;&gt;n21 -->
<g id="edge22" class="edge">
<title>x10:e&#45;&gt;n21:w</title>
<path fill="none" stroke="#66a61e" d="M702.26,-392C713.92,-392 719.03,-395.1 727.01,-396.84"/>
<polygon fill="#66a61e" stroke="#66a61e" points="726.45,-400.3 736.75,-397.85 727.16,-393.34 726.45,-400.3"/>
</g>
</g>
</svg>
