<?xml version="1.0" encoding="UTF-8" standalone="no"?>
<!DOCTYPE svg PUBLIC "-//W3C//DTD SVG 1.1//EN"
 "http://www.w3.org/Graphics/SVG/1.1/DTD/svg11.dtd">
<!-- Generated by graphviz version 12.1.1 (0)
 -->
<!-- Title: design Pages: 1 -->
<svg width="328pt" height="77pt"
 viewBox="0.00 0.00 327.50 76.75" xmlns="http://www.w3.org/2000/svg" xmlns:xlink="http://www.w3.org/1999/xlink">
<g id="graph0" class="graph" transform="scale(1 1) rotate(0) translate(4 72.75)">
<title>design</title>
<polygon fill="white" stroke="none" points="-4,4 -4,-72.75 323.5,-72.75 323.5,4 -4,4"/>
<text text-anchor="middle" x="159.75" y="-7.95" font-family="Times,serif" font-size="14.00">design</text>
<!-- n1 -->
<g id="node1" class="node">
<title>n1</title>
<polygon fill="none" stroke="black" points="54,-39.54 54,-54.46 38.18,-65 15.82,-65 0,-54.46 0,-39.54 15.82,-29 38.18,-29 54,-39.54"/>
<text text-anchor="middle" x="27" y="-42.33" font-family="Times,serif" font-size="14.00">a</text>
</g>
<!-- c5 -->
<g id="node3" class="node">
<title>c5</title>
<polygon fill="none" stroke="black" points="90,-25.75 90,-68.25 229.5,-68.25 229.5,-25.75 90,-25.75"/>
<text text-anchor="middle" x="102.88" y="-42.45" font-family="Times,serif" font-size="14.00">A</text>
<polyline fill="none" stroke="black" points="115.75,-25.75 115.75,-68.25"/>
<text text-anchor="middle" x="160.12" y="-50.95" font-family="Times,serif" font-size="14.00">$1</text>
<text text-anchor="middle" x="160.12" y="-33.7" font-family="Times,serif" font-size="14.00">$logic_not</text>
<polyline fill="none" stroke="black" points="204.5,-25.75 204.5,-68.25"/>
<text text-anchor="middle" x="217" y="-42.45" font-family="Times,serif" font-size="14.00">Y</text>
</g>
<!-- n1&#45;&gt;c5 -->
<g id="edge1" class="edge">
<title>n1:e&#45;&gt;c5:w</title>
<path fill="none" stroke="black" d="M54,-47C65.38,-47 70.68,-47.06 78.55,-47.1"/>
<polygon fill="black" stroke="black" points="78.48,-50.6 88.49,-47.12 78.49,-43.6 78.48,-50.6"/>
</g>
<!-- n2 -->
<g id="node2" class="node">
<title>n2</title>
<polygon fill="none" stroke="black" points="319.5,-39.54 319.5,-54.46 303.68,-65 281.32,-65 265.5,-54.46 265.5,-39.54 281.32,-29 303.68,-29 319.5,-39.54"/>
<text text-anchor="middle" x="292.5" y="-42.33" font-family="Times,serif" font-size="14.00">o</text>
</g>
<!-- c5&#45;&gt;n2 -->
<g id="edge2" class="edge">
<title>c5:e&#45;&gt;n2:w</title>
<path fill="none" stroke="black" d="M229.5,-47.12C240.88,-47.12 246.18,-47.06 254.05,-47.03"/>
<polygon fill="black" stroke="black" points="253.99,-50.53 263.99,-47 253.98,-43.53 253.99,-50.53"/>
</g>
</g>
</svg>
