<?xml version="1.0" encoding="UTF-8" standalone="no"?>
<!-- Created with Inkscape (http://www.inkscape.org/) -->
<svg xmlns:dc="http://purl.org/dc/elements/1.1/" xmlns:cc="http://creativecommons.org/ns#" xmlns:rdf="http://www.w3.org/1999/02/22-rdf-syntax-ns#" xmlns:svg="http://www.w3.org/2000/svg" xmlns="http://www.w3.org/2000/svg" xmlns:sodipodi="http://sodipodi.sourceforge.net/DTD/sodipodi-0.dtd" xmlns:inkscape="http://www.inkscape.org/namespaces/inkscape" inkscape:version="0.48.3.1 r9886" version="1.1" id="svg2" height="720.80554" width="627.24872" sodipodi:docname="pla_my.svg">
  <defs id="defs4"/>
  <sodipodi:namedview id="base" pagecolor="#ffffff" bordercolor="#666666" borderopacity="1.0" inkscape:pageopacity="0.0" inkscape:pageshadow="2" inkscape:zoom="0.70710678" inkscape:cx="254.75023" inkscape:cy="267.89638" inkscape:document-units="px" inkscape:current-layer="layer1" showgrid="false" inkscape:window-width="1680" inkscape:window-height="1004" inkscape:window-x="0" inkscape:window-y="0" inkscape:window-maximized="1" fit-margin-top="10" fit-margin-left="10" fit-margin-right="10" fit-margin-bottom="10"/>
  <metadata id="metadata7">
    <rdf:RDF>
      <cc:Work rdf:about="">
        <dc:format>image/svg+xml</dc:format>
        <dc:type rdf:resource="http://purl.org/dc/dcmitype/StillImage"/>
      </cc:Work>
    </rdf:RDF>
  </metadata>
  <g inkscape:label="Layer 1" inkscape:groupmode="layer" id="layer1" transform="translate(-20.482069,-64.205833)">
    <g id="g3790">
      <path sodipodi:nodetypes="cc" inkscape:connector-curvature="0" id="path2985" d="m 30.982142,220.66576 606.248568,0" style="fill:none;stroke:#000000;stroke-width:1.00014699px;stroke-linecap:butt;stroke-linejoin:miter;stroke-opacity:1"/>
      <path sodipodi:nodetypes="czzzcc" inkscape:connector-curvature="0" id="rect2987" d="m 315.80358,206.0229 c 0,0 10.18611,0 20.44641,0 10.2603,0 12.76786,8.864 12.76786,14.46429 0,5.60028 -2.86708,14.82143 -12.76786,14.82143 -9.90078,0 -20.35713,0 -20.35713,0 z" style="fill:#ffffff;fill-rule:evenodd;stroke:#000000;stroke-width:1px;stroke-linecap:butt;stroke-linejoin:miter;stroke-opacity:1"/>
      <path transform="translate(0,-0.13885121)" d="m 59.129202,220.80461 c 0,3.5621 -2.88765,6.44975 -6.449747,6.44975 -3.562097,0 -6.449748,-2.88765 -6.449748,-6.44975 0,-3.5621 2.887651,-6.44975 6.449748,-6.44975 3.562097,0 6.449747,2.88765 6.449747,6.44975 z" sodipodi:ry="6.4497476" sodipodi:rx="6.4497476" sodipodi:cy="220.80461" sodipodi:cx="52.679455" id="path3770" style="fill:none;stroke:#000000;stroke-opacity:1" sodipodi:type="arc"/>
      <path sodipodi:type="arc" style="fill:none;stroke:#000000;stroke-opacity:1" id="path3772" sodipodi:cx="52.679455" sodipodi:cy="220.80461" sodipodi:rx="6.4497476" sodipodi:ry="6.4497476" d="m 59.129202,220.80461 c 0,3.5621 -2.88765,6.44975 -6.449747,6.44975 -3.562097,0 -6.449748,-2.88765 -6.449748,-6.44975 0,-3.5621 2.887651,-6.44975 6.449748,-6.44975 3.562097,0 6.449747,2.88765 6.449747,6.44975 z" transform="translate(41.199997,-0.13885121)"/>
      <path sodipodi:type="arc" style="fill:none;stroke:#000000;stroke-opacity:1" id="path3774" sodipodi:cx="52.679455" sodipodi:cy="220.80461" sodipodi:rx="6.4497476" sodipodi:ry="6.4497476" d="m 59.129202,220.80461 c 0,3.5621 -2.88765,6.44975 -6.449747,6.44975 -3.562097,0 -6.449748,-2.88765 -6.449748,-6.44975 0,-3.5621 2.887651,-6.44975 6.449748,-6.44975 3.562097,0 6.449747,2.88765 6.449747,6.44975 z" transform="translate(82.399994,-0.13885121)"/>
      <path transform="translate(123.59999,-0.13885121)" d="m 59.129202,220.80461 c 0,3.5621 -2.88765,6.44975 -6.449747,6.44975 -3.562097,0 -6.449748,-2.88765 -6.449748,-6.44975 0,-3.5621 2.887651,-6.44975 6.449748,-6.44975 3.562097,0 6.449747,2.88765 6.449747,6.44975 z" sodipodi:ry="6.4497476" sodipodi:rx="6.4497476" sodipodi:cy="220.80461" sodipodi:cx="52.679455" id="path3776" style="fill:none;stroke:#000000;stroke-opacity:1" sodipodi:type="arc"/>
      <path transform="translate(164.79999,-0.13885121)" d="m 59.129202,220.80461 c 0,3.5621 -2.88765,6.44975 -6.449747,6.44975 -3.562097,0 -6.449748,-2.88765 -6.449748,-6.44975 0,-3.5621 2.887651,-6.44975 6.449748,-6.44975 3.562097,0 6.449747,2.88765 6.449747,6.44975 z" sodipodi:ry="6.4497476" sodipodi:rx="6.4497476" sodipodi:cy="220.80461" sodipodi:cx="52.679455" id="path3778" style="fill:none;stroke:#000000;stroke-opacity:1" sodipodi:type="arc"/>
      <path sodipodi:type="arc" style="fill:none;stroke:#000000;stroke-opacity:1" id="path3780" sodipodi:cx="52.679455" sodipodi:cy="220.80461" sodipodi:rx="6.4497476" sodipodi:ry="6.4497476" d="m 59.129202,220.80461 c 0,3.5621 -2.88765,6.44975 -6.449747,6.44975 -3.562097,0 -6.449748,-2.88765 -6.449748,-6.44975 0,-3.5621 2.887651,-6.44975 6.449748,-6.44975 3.562097,0 6.449747,2.88765 6.449747,6.44975 z" transform="translate(206,-0.13885121)"/>
      <path sodipodi:type="arc" style="fill:none;stroke:#000000;stroke-opacity:1" id="path3782" sodipodi:cx="52.679455" sodipodi:cy="220.80461" sodipodi:rx="6.4497476" sodipodi:ry="6.4497476" d="m 59.129202,220.80461 c 0,3.5621 -2.88765,6.44975 -6.449747,6.44975 -3.562097,0 -6.449748,-2.88765 -6.449748,-6.44975 0,-3.5621 2.887651,-6.44975 6.449748,-6.44975 3.562097,0 6.449747,2.88765 6.449747,6.44975 z" transform="translate(384,-0.13885121)"/>
      <path transform="translate(425.2,-0.13885121)" d="m 59.129202,220.80461 c 0,3.5621 -2.88765,6.44975 -6.449747,6.44975 -3.562097,0 -6.449748,-2.88765 -6.449748,-6.44975 0,-3.5621 2.887651,-6.44975 6.449748,-6.44975 3.562097,0 6.449747,2.88765 6.449747,6.44975 z" sodipodi:ry="6.4497476" sodipodi:rx="6.4497476" sodipodi:cy="220.80461" sodipodi:cx="52.679455" id="path3784" style="fill:none;stroke:#000000;stroke-opacity:1" sodipodi:type="arc"/>
      <path transform="translate(466.39999,-0.13885121)" d="m 59.129202,220.80461 c 0,3.5621 -2.88765,6.44975 -6.449747,6.44975 -3.562097,0 -6.449748,-2.88765 -6.449748,-6.44975 0,-3.5621 2.887651,-6.44975 6.449748,-6.44975 3.562097,0 6.449747,2.88765 6.449747,6.44975 z" sodipodi:ry="6.4497476" sodipodi:rx="6.4497476" sodipodi:cy="220.80461" sodipodi:cx="52.679455" id="path3786" style="fill:none;stroke:#000000;stroke-opacity:1" sodipodi:type="arc"/>
      <path sodipodi:type="arc" style="fill:none;stroke:#000000;stroke-opacity:1" id="path3788" sodipodi:cx="52.679455" sodipodi:cy="220.80461" sodipodi:rx="6.4497476" sodipodi:ry="6.4497476" d="m 59.129202,220.80461 c 0,3.5621 -2.88765,6.44975 -6.449747,6.44975 -3.562097,0 -6.449748,-2.88765 -6.449748,-6.44975 0,-3.5621 2.887651,-6.44975 6.449748,-6.44975 3.562097,0 6.449747,2.88765 6.449747,6.44975 z" transform="translate(507.59999,-0.13885121)"/>
    </g>
    <g id="g3804" transform="translate(0,53.714294)">
      <path style="fill:none;stroke:#000000;stroke-width:1.00014699px;stroke-linecap:butt;stroke-linejoin:miter;stroke-opacity:1" d="m 30.982142,220.66576 606.248568,0" id="path3806" inkscape:connector-curvature="0" sodipodi:nodetypes="cc"/>
      <path style="fill:#ffffff;fill-rule:evenodd;stroke:#000000;stroke-width:1px;stroke-linecap:butt;stroke-linejoin:miter;stroke-opacity:1" d="m 315.80358,206.0229 c 0,0 10.18611,0 20.44641,0 10.2603,0 12.76786,8.864 12.76786,14.46429 0,5.60028 -2.86708,14.82143 -12.76786,14.82143 -9.90078,0 -20.35713,0 -20.35713,0 z" id="path3808" inkscape:connector-curvature="0" sodipodi:nodetypes="czzzcc"/>
      <path sodipodi:type="arc" style="fill:none;stroke:#000000;stroke-opacity:1" id="path3810" sodipodi:cx="52.679455" sodipodi:cy="220.80461" sodipodi:rx="6.4497476" sodipodi:ry="6.4497476" d="m 59.129202,220.80461 c 0,3.5621 -2.88765,6.44975 -6.449747,6.44975 -3.562097,0 -6.449748,-2.88765 -6.449748,-6.44975 0,-3.5621 2.887651,-6.44975 6.449748,-6.44975 3.562097,0 6.449747,2.88765 6.449747,6.44975 z" transform="translate(0,-0.13885121)"/>
      <path transform="translate(41.199997,-0.13885121)" d="m 59.129202,220.80461 c 0,3.5621 -2.88765,6.44975 -6.449747,6.44975 -3.562097,0 -6.449748,-2.88765 -6.449748,-6.44975 0,-3.5621 2.887651,-6.44975 6.449748,-6.44975 3.562097,0 6.449747,2.88765 6.449747,6.44975 z" sodipodi:ry="6.4497476" sodipodi:rx="6.4497476" sodipodi:cy="220.80461" sodipodi:cx="52.679455" id="path3812" style="fill:none;stroke:#000000;stroke-opacity:1" sodipodi:type="arc"/>
      <path transform="translate(82.399994,-0.13885121)" d="m 59.129202,220.80461 c 0,3.5621 -2.88765,6.44975 -6.449747,6.44975 -3.562097,0 -6.449748,-2.88765 -6.449748,-6.44975 0,-3.5621 2.887651,-6.44975 6.449748,-6.44975 3.562097,0 6.449747,2.88765 6.449747,6.44975 z" sodipodi:ry="6.4497476" sodipodi:rx="6.4497476" sodipodi:cy="220.80461" sodipodi:cx="52.679455" id="path3814" style="fill:none;stroke:#000000;stroke-opacity:1" sodipodi:type="arc"/>
      <path sodipodi:type="arc" style="fill:none;stroke:#000000;stroke-opacity:1" id="path3816" sodipodi:cx="52.679455" sodipodi:cy="220.80461" sodipodi:rx="6.4497476" sodipodi:ry="6.4497476" d="m 59.129202,220.80461 c 0,3.5621 -2.88765,6.44975 -6.449747,6.44975 -3.562097,0 -6.449748,-2.88765 -6.449748,-6.44975 0,-3.5621 2.887651,-6.44975 6.449748,-6.44975 3.562097,0 6.449747,2.88765 6.449747,6.44975 z" transform="translate(123.59999,-0.13885121)"/>
      <path sodipodi:type="arc" style="fill:none;stroke:#000000;stroke-opacity:1" id="path3818" sodipodi:cx="52.679455" sodipodi:cy="220.80461" sodipodi:rx="6.4497476" sodipodi:ry="6.4497476" d="m 59.129202,220.80461 c 0,3.5621 -2.88765,6.44975 -6.449747,6.44975 -3.562097,0 -6.449748,-2.88765 -6.449748,-6.44975 0,-3.5621 2.887651,-6.44975 6.449748,-6.44975 3.562097,0 6.449747,2.88765 6.449747,6.44975 z" transform="translate(164.79999,-0.13885121)"/>
      <path transform="translate(206,-0.13885121)" d="m 59.129202,220.80461 c 0,3.5621 -2.88765,6.44975 -6.449747,6.44975 -3.562097,0 -6.449748,-2.88765 -6.449748,-6.44975 0,-3.5621 2.887651,-6.44975 6.449748,-6.44975 3.562097,0 6.449747,2.88765 6.449747,6.44975 z" sodipodi:ry="6.4497476" sodipodi:rx="6.4497476" sodipodi:cy="220.80461" sodipodi:cx="52.679455" id="path3820" style="fill:none;stroke:#000000;stroke-opacity:1" sodipodi:type="arc"/>
      <path transform="translate(384,-0.13885121)" d="m 59.129202,220.80461 c 0,3.5621 -2.88765,6.44975 -6.449747,6.44975 -3.562097,0 -6.449748,-2.88765 -6.449748,-6.44975 0,-3.5621 2.887651,-6.44975 6.449748,-6.44975 3.562097,0 6.449747,2.88765 6.449747,6.44975 z" sodipodi:ry="6.4497476" sodipodi:rx="6.4497476" sodipodi:cy="220.80461" sodipodi:cx="52.679455" id="path3822" style="fill:none;stroke:#000000;stroke-opacity:1" sodipodi:type="arc"/>
      <path sodipodi:type="arc" style="fill:none;stroke:#000000;stroke-opacity:1" id="path3824" sodipodi:cx="52.679455" sodipodi:cy="220.80461" sodipodi:rx="6.4497476" sodipodi:ry="6.4497476" d="m 59.129202,220.80461 c 0,3.5621 -2.88765,6.44975 -6.449747,6.44975 -3.562097,0 -6.449748,-2.88765 -6.449748,-6.44975 0,-3.5621 2.887651,-6.44975 6.449748,-6.44975 3.562097,0 6.449747,2.88765 6.449747,6.44975 z" transform="translate(425.2,-0.13885121)"/>
      <path sodipodi:type="arc" style="fill:none;stroke:#000000;stroke-opacity:1" id="path3826" sodipodi:cx="52.679455" sodipodi:cy="220.80461" sodipodi:rx="6.4497476" sodipodi:ry="6.4497476" d="m 59.129202,220.80461 c 0,3.5621 -2.88765,6.44975 -6.449747,6.44975 -3.562097,0 -6.449748,-2.88765 -6.449748,-6.44975 0,-3.5621 2.887651,-6.44975 6.449748,-6.44975 3.562097,0 6.449747,2.88765 6.449747,6.44975 z" transform="translate(466.39999,-0.13885121)"/>
      <path transform="translate(507.59999,-0.13885121)" d="m 59.129202,220.80461 c 0,3.5621 -2.88765,6.44975 -6.449747,6.44975 -3.562097,0 -6.449748,-2.88765 -6.449748,-6.44975 0,-3.5621 2.887651,-6.44975 6.449748,-6.44975 3.562097,0 6.449747,2.88765 6.449747,6.44975 z" sodipodi:ry="6.4497476" sodipodi:rx="6.4497476" sodipodi:cy="220.80461" sodipodi:cx="52.679455" id="path3828" style="fill:none;stroke:#000000;stroke-opacity:1" sodipodi:type="arc"/>
    </g>
    <g id="g3830" transform="translate(0,107.42859)">
      <path style="fill:none;stroke:#000000;stroke-width:1.00014699px;stroke-linecap:butt;stroke-linejoin:miter;stroke-opacity:1" d="m 30.982142,220.66576 606.248568,0" id="path3832" inkscape:connector-curvature="0" sodipodi:nodetypes="cc"/>
      <path style="fill:#ffffff;fill-rule:evenodd;stroke:#000000;stroke-width:1px;stroke-linecap:butt;stroke-linejoin:miter;stroke-opacity:1" d="m 315.80358,206.0229 c 0,0 10.18611,0 20.44641,0 10.2603,0 12.76786,8.864 12.76786,14.46429 0,5.60028 -2.86708,14.82143 -12.76786,14.82143 -9.90078,0 -20.35713,0 -20.35713,0 z" id="path3834" inkscape:connector-curvature="0" sodipodi:nodetypes="czzzcc"/>
      <path sodipodi:type="arc" style="fill:none;stroke:#000000;stroke-opacity:1" id="path3836" sodipodi:cx="52.679455" sodipodi:cy="220.80461" sodipodi:rx="6.4497476" sodipodi:ry="6.4497476" d="m 59.129202,220.80461 c 0,3.5621 -2.88765,6.44975 -6.449747,6.44975 -3.562097,0 -6.449748,-2.88765 -6.449748,-6.44975 0,-3.5621 2.887651,-6.44975 6.449748,-6.44975 3.562097,0 6.449747,2.88765 6.449747,6.44975 z" transform="translate(0,-0.13885121)"/>
      <path transform="translate(41.199997,-0.13885121)" d="m 59.129202,220.80461 c 0,3.5621 -2.88765,6.44975 -6.449747,6.44975 -3.562097,0 -6.449748,-2.88765 -6.449748,-6.44975 0,-3.5621 2.887651,-6.44975 6.449748,-6.44975 3.562097,0 6.449747,2.88765 6.449747,6.44975 z" sodipodi:ry="6.4497476" sodipodi:rx="6.4497476" sodipodi:cy="220.80461" sodipodi:cx="52.679455" id="path3838" style="fill:none;stroke:#000000;stroke-opacity:1" sodipodi:type="arc"/>
      <path transform="translate(82.399994,-0.13885121)" d="m 59.129202,220.80461 c 0,3.5621 -2.88765,6.44975 -6.449747,6.44975 -3.562097,0 -6.449748,-2.88765 -6.449748,-6.44975 0,-3.5621 2.887651,-6.44975 6.449748,-6.44975 3.562097,0 6.449747,2.88765 6.449747,6.44975 z" sodipodi:ry="6.4497476" sodipodi:rx="6.4497476" sodipodi:cy="220.80461" sodipodi:cx="52.679455" id="path3840" style="fill:none;stroke:#000000;stroke-opacity:1" sodipodi:type="arc"/>
      <path sodipodi:type="arc" style="fill:none;stroke:#000000;stroke-opacity:1" id="path3842" sodipodi:cx="52.679455" sodipodi:cy="220.80461" sodipodi:rx="6.4497476" sodipodi:ry="6.4497476" d="m 59.129202,220.80461 c 0,3.5621 -2.88765,6.44975 -6.449747,6.44975 -3.562097,0 -6.449748,-2.88765 -6.449748,-6.44975 0,-3.5621 2.887651,-6.44975 6.449748,-6.44975 3.562097,0 6.449747,2.88765 6.449747,6.44975 z" transform="translate(123.59999,-0.13885121)"/>
      <path sodipodi:type="arc" style="fill:none;stroke:#000000;stroke-opacity:1" id="path3844" sodipodi:cx="52.679455" sodipodi:cy="220.80461" sodipodi:rx="6.4497476" sodipodi:ry="6.4497476" d="m 59.129202,220.80461 c 0,3.5621 -2.88765,6.44975 -6.449747,6.44975 -3.562097,0 -6.449748,-2.88765 -6.449748,-6.44975 0,-3.5621 2.887651,-6.44975 6.449748,-6.44975 3.562097,0 6.449747,2.88765 6.449747,6.44975 z" transform="translate(164.79999,-0.13885121)"/>
      <path transform="translate(206,-0.13885121)" d="m 59.129202,220.80461 c 0,3.5621 -2.88765,6.44975 -6.449747,6.44975 -3.562097,0 -6.449748,-2.88765 -6.449748,-6.44975 0,-3.5621 2.887651,-6.44975 6.449748,-6.44975 3.562097,0 6.449747,2.88765 6.449747,6.44975 z" sodipodi:ry="6.4497476" sodipodi:rx="6.4497476" sodipodi:cy="220.80461" sodipodi:cx="52.679455" id="path3846" style="fill:none;stroke:#000000;stroke-opacity:1" sodipodi:type="arc"/>
      <path transform="translate(384,-0.13885121)" d="m 59.129202,220.80461 c 0,3.5621 -2.88765,6.44975 -6.449747,6.44975 -3.562097,0 -6.449748,-2.88765 -6.449748,-6.44975 0,-3.5621 2.887651,-6.44975 6.449748,-6.44975 3.562097,0 6.449747,2.88765 6.449747,6.44975 z" sodipodi:ry="6.4497476" sodipodi:rx="6.4497476" sodipodi:cy="220.80461" sodipodi:cx="52.679455" id="path3848" style="fill:none;stroke:#000000;stroke-opacity:1" sodipodi:type="arc"/>
      <path sodipodi:type="arc" style="fill:none;stroke:#000000;stroke-opacity:1" id="path3850" sodipodi:cx="52.679455" sodipodi:cy="220.80461" sodipodi:rx="6.4497476" sodipodi:ry="6.4497476" d="m 59.129202,220.80461 c 0,3.5621 -2.88765,6.44975 -6.449747,6.44975 -3.562097,0 -6.449748,-2.88765 -6.449748,-6.44975 0,-3.5621 2.887651,-6.44975 6.449748,-6.44975 3.562097,0 6.449747,2.88765 6.449747,6.44975 z" transform="translate(425.2,-0.13885121)"/>
      <path sodipodi:type="arc" style="fill:none;stroke:#000000;stroke-opacity:1" id="path3852" sodipodi:cx="52.679455" sodipodi:cy="220.80461" sodipodi:rx="6.4497476" sodipodi:ry="6.4497476" d="m 59.129202,220.80461 c 0,3.5621 -2.88765,6.44975 -6.449747,6.44975 -3.562097,0 -6.449748,-2.88765 -6.449748,-6.44975 0,-3.5621 2.887651,-6.44975 6.449748,-6.44975 3.562097,0 6.449747,2.88765 6.449747,6.44975 z" transform="translate(466.39999,-0.13885121)"/>
      <path transform="translate(507.59999,-0.13885121)" d="m 59.129202,220.80461 c 0,3.5621 -2.88765,6.44975 -6.449747,6.44975 -3.562097,0 -6.449748,-2.88765 -6.449748,-6.44975 0,-3.5621 2.887651,-6.44975 6.449748,-6.44975 3.562097,0 6.449747,2.88765 6.449747,6.44975 z" sodipodi:ry="6.4497476" sodipodi:rx="6.4497476" sodipodi:cy="220.80461" sodipodi:cx="52.679455" id="path3854" style="fill:none;stroke:#000000;stroke-opacity:1" sodipodi:type="arc"/>
    </g>
    <g transform="translate(0,161.14282)" id="g3856">
      <path sodipodi:nodetypes="cc" inkscape:connector-curvature="0" id="path3858" d="m 30.982142,220.66576 606.248568,0" style="fill:none;stroke:#000000;stroke-width:1.00014699px;stroke-linecap:butt;stroke-linejoin:miter;stroke-opacity:1"/>
      <path sodipodi:nodetypes="czzzcc" inkscape:connector-curvature="0" id="path3860" d="m 315.80358,206.0229 c 0,0 10.18611,0 20.44641,0 10.2603,0 12.76786,8.864 12.76786,14.46429 0,5.60028 -2.86708,14.82143 -12.76786,14.82143 -9.90078,0 -20.35713,0 -20.35713,0 z" style="fill:#ffffff;fill-rule:evenodd;stroke:#000000;stroke-width:1px;stroke-linecap:butt;stroke-linejoin:miter;stroke-opacity:1"/>
      <path transform="translate(0,-0.13885121)" d="m 59.129202,220.80461 c 0,3.5621 -2.88765,6.44975 -6.449747,6.44975 -3.562097,0 -6.449748,-2.88765 -6.449748,-6.44975 0,-3.5621 2.887651,-6.44975 6.449748,-6.44975 3.562097,0 6.449747,2.88765 6.449747,6.44975 z" sodipodi:ry="6.4497476" sodipodi:rx="6.4497476" sodipodi:cy="220.80461" sodipodi:cx="52.679455" id="path3862" style="fill:none;stroke:#000000;stroke-opacity:1" sodipodi:type="arc"/>
      <path sodipodi:type="arc" style="fill:none;stroke:#000000;stroke-opacity:1" id="path3864" sodipodi:cx="52.679455" sodipodi:cy="220.80461" sodipodi:rx="6.4497476" sodipodi:ry="6.4497476" d="m 59.129202,220.80461 c 0,3.5621 -2.88765,6.44975 -6.449747,6.44975 -3.562097,0 -6.449748,-2.88765 -6.449748,-6.44975 0,-3.5621 2.887651,-6.44975 6.449748,-6.44975 3.562097,0 6.449747,2.88765 6.449747,6.44975 z" transform="translate(41.199997,-0.13885121)"/>
      <path sodipodi:type="arc" style="fill:none;stroke:#000000;stroke-opacity:1" id="path3866" sodipodi:cx="52.679455" sodipodi:cy="220.80461" sodipodi:rx="6.4497476" sodipodi:ry="6.4497476" d="m 59.129202,220.80461 c 0,3.5621 -2.88765,6.44975 -6.449747,6.44975 -3.562097,0 -6.449748,-2.88765 -6.449748,-6.44975 0,-3.5621 2.887651,-6.44975 6.449748,-6.44975 3.562097,0 6.449747,2.88765 6.449747,6.44975 z" transform="translate(82.399994,-0.13885121)"/>
      <path transform="translate(123.59999,-0.13885121)" d="m 59.129202,220.80461 c 0,3.5621 -2.88765,6.44975 -6.449747,6.44975 -3.562097,0 -6.449748,-2.88765 -6.449748,-6.44975 0,-3.5621 2.887651,-6.44975 6.449748,-6.44975 3.562097,0 6.449747,2.88765 6.449747,6.44975 z" sodipodi:ry="6.4497476" sodipodi:rx="6.4497476" sodipodi:cy="220.80461" sodipodi:cx="52.679455" id="path3868" style="fill:none;stroke:#000000;stroke-opacity:1" sodipodi:type="arc"/>
      <path transform="translate(164.79999,-0.13885121)" d="m 59.129202,220.80461 c 0,3.5621 -2.88765,6.44975 -6.449747,6.44975 -3.562097,0 -6.449748,-2.88765 -6.449748,-6.44975 0,-3.5621 2.887651,-6.44975 6.449748,-6.44975 3.562097,0 6.449747,2.88765 6.449747,6.44975 z" sodipodi:ry="6.4497476" sodipodi:rx="6.4497476" sodipodi:cy="220.80461" sodipodi:cx="52.679455" id="path3870" style="fill:none;stroke:#000000;stroke-opacity:1" sodipodi:type="arc"/>
      <path sodipodi:type="arc" style="fill:none;stroke:#000000;stroke-opacity:1" id="path3872" sodipodi:cx="52.679455" sodipodi:cy="220.80461" sodipodi:rx="6.4497476" sodipodi:ry="6.4497476" d="m 59.129202,220.80461 c 0,3.5621 -2.88765,6.44975 -6.449747,6.44975 -3.562097,0 -6.449748,-2.88765 -6.449748,-6.44975 0,-3.5621 2.887651,-6.44975 6.449748,-6.44975 3.562097,0 6.449747,2.88765 6.449747,6.44975 z" transform="translate(206,-0.13885121)"/>
      <path sodipodi:type="arc" style="fill:none;stroke:#000000;stroke-opacity:1" id="path3874" sodipodi:cx="52.679455" sodipodi:cy="220.80461" sodipodi:rx="6.4497476" sodipodi:ry="6.4497476" d="m 59.129202,220.80461 c 0,3.5621 -2.88765,6.44975 -6.449747,6.44975 -3.562097,0 -6.449748,-2.88765 -6.449748,-6.44975 0,-3.5621 2.887651,-6.44975 6.449748,-6.44975 3.562097,0 6.449747,2.88765 6.449747,6.44975 z" transform="translate(384,-0.13885121)"/>
      <path transform="translate(425.2,-0.13885121)" d="m 59.129202,220.80461 c 0,3.5621 -2.88765,6.44975 -6.449747,6.44975 -3.562097,0 -6.449748,-2.88765 -6.449748,-6.44975 0,-3.5621 2.887651,-6.44975 6.449748,-6.44975 3.562097,0 6.449747,2.88765 6.449747,6.44975 z" sodipodi:ry="6.4497476" sodipodi:rx="6.4497476" sodipodi:cy="220.80461" sodipodi:cx="52.679455" id="path3876" style="fill:none;stroke:#000000;stroke-opacity:1" sodipodi:type="arc"/>
      <path transform="translate(466.39999,-0.13885121)" d="m 59.129202,220.80461 c 0,3.5621 -2.88765,6.44975 -6.449747,6.44975 -3.562097,0 -6.449748,-2.88765 -6.449748,-6.44975 0,-3.5621 2.887651,-6.44975 6.449748,-6.44975 3.562097,0 6.449747,2.88765 6.449747,6.44975 z" sodipodi:ry="6.4497476" sodipodi:rx="6.4497476" sodipodi:cy="220.80461" sodipodi:cx="52.679455" id="path3878" style="fill:none;stroke:#000000;stroke-opacity:1" sodipodi:type="arc"/>
      <path sodipodi:type="arc" style="fill:none;stroke:#000000;stroke-opacity:1" id="path3880" sodipodi:cx="52.679455" sodipodi:cy="220.80461" sodipodi:rx="6.4497476" sodipodi:ry="6.4497476" d="m 59.129202,220.80461 c 0,3.5621 -2.88765,6.44975 -6.449747,6.44975 -3.562097,0 -6.449748,-2.88765 -6.449748,-6.44975 0,-3.5621 2.887651,-6.44975 6.449748,-6.44975 3.562097,0 6.449747,2.88765 6.449747,6.44975 z" transform="translate(507.59999,-0.13885121)"/>
    </g>
    <g id="g3882" transform="translate(0,214.85718)">
      <path style="fill:none;stroke:#000000;stroke-width:1.00014699px;stroke-linecap:butt;stroke-linejoin:miter;stroke-opacity:1" d="m 30.982142,220.66576 606.248568,0" id="path3884" inkscape:connector-curvature="0" sodipodi:nodetypes="cc"/>
      <path style="fill:#ffffff;fill-rule:evenodd;stroke:#000000;stroke-width:1px;stroke-linecap:butt;stroke-linejoin:miter;stroke-opacity:1" d="m 315.80358,206.0229 c 0,0 10.18611,0 20.44641,0 10.2603,0 12.76786,8.864 12.76786,14.46429 0,5.60028 -2.86708,14.82143 -12.76786,14.82143 -9.90078,0 -20.35713,0 -20.35713,0 z" id="path3886" inkscape:connector-curvature="0" sodipodi:nodetypes="czzzcc"/>
      <path sodipodi:type="arc" style="fill:none;stroke:#000000;stroke-opacity:1" id="path3888" sodipodi:cx="52.679455" sodipodi:cy="220.80461" sodipodi:rx="6.4497476" sodipodi:ry="6.4497476" d="m 59.129202,220.80461 c 0,3.5621 -2.88765,6.44975 -6.449747,6.44975 -3.562097,0 -6.449748,-2.88765 -6.449748,-6.44975 0,-3.5621 2.887651,-6.44975 6.449748,-6.44975 3.562097,0 6.449747,2.88765 6.449747,6.44975 z" transform="translate(0,-0.13885121)"/>
      <path transform="translate(41.199997,-0.13885121)" d="m 59.129202,220.80461 c 0,3.5621 -2.88765,6.44975 -6.449747,6.44975 -3.562097,0 -6.449748,-2.88765 -6.449748,-6.44975 0,-3.5621 2.887651,-6.44975 6.449748,-6.44975 3.562097,0 6.449747,2.88765 6.449747,6.44975 z" sodipodi:ry="6.4497476" sodipodi:rx="6.4497476" sodipodi:cy="220.80461" sodipodi:cx="52.679455" id="path3890" style="fill:none;stroke:#000000;stroke-opacity:1" sodipodi:type="arc"/>
      <path transform="translate(82.399994,-0.13885121)" d="m 59.129202,220.80461 c 0,3.5621 -2.88765,6.44975 -6.449747,6.44975 -3.562097,0 -6.449748,-2.88765 -6.449748,-6.44975 0,-3.5621 2.887651,-6.44975 6.449748,-6.44975 3.562097,0 6.449747,2.88765 6.449747,6.44975 z" sodipodi:ry="6.4497476" sodipodi:rx="6.4497476" sodipodi:cy="220.80461" sodipodi:cx="52.679455" id="path3892" style="fill:none;stroke:#000000;stroke-opacity:1" sodipodi:type="arc"/>
      <path sodipodi:type="arc" style="fill:none;stroke:#000000;stroke-opacity:1" id="path3894" sodipodi:cx="52.679455" sodipodi:cy="220.80461" sodipodi:rx="6.4497476" sodipodi:ry="6.4497476" d="m 59.129202,220.80461 c 0,3.5621 -2.88765,6.44975 -6.449747,6.44975 -3.562097,0 -6.449748,-2.88765 -6.449748,-6.44975 0,-3.5621 2.887651,-6.44975 6.449748,-6.44975 3.562097,0 6.449747,2.88765 6.449747,6.44975 z" transform="translate(123.59999,-0.13885121)"/>
      <path sodipodi:type="arc" style="fill:none;stroke:#000000;stroke-opacity:1" id="path3896" sodipodi:cx="52.679455" sodipodi:cy="220.80461" sodipodi:rx="6.4497476" sodipodi:ry="6.4497476" d="m 59.129202,220.80461 c 0,3.5621 -2.88765,6.44975 -6.449747,6.44975 -3.562097,0 -6.449748,-2.88765 -6.449748,-6.44975 0,-3.5621 2.887651,-6.44975 6.449748,-6.44975 3.562097,0 6.449747,2.88765 6.449747,6.44975 z" transform="translate(164.79999,-0.13885121)"/>
      <path transform="translate(206,-0.13885121)" d="m 59.129202,220.80461 c 0,3.5621 -2.88765,6.44975 -6.449747,6.44975 -3.562097,0 -6.449748,-2.88765 -6.449748,-6.44975 0,-3.5621 2.887651,-6.44975 6.449748,-6.44975 3.562097,0 6.449747,2.88765 6.449747,6.44975 z" sodipodi:ry="6.4497476" sodipodi:rx="6.4497476" sodipodi:cy="220.80461" sodipodi:cx="52.679455" id="path3898" style="fill:none;stroke:#000000;stroke-opacity:1" sodipodi:type="arc"/>
      <path transform="translate(384,-0.13885121)" d="m 59.129202,220.80461 c 0,3.5621 -2.88765,6.44975 -6.449747,6.44975 -3.562097,0 -6.449748,-2.88765 -6.449748,-6.44975 0,-3.5621 2.887651,-6.44975 6.449748,-6.44975 3.562097,0 6.449747,2.88765 6.449747,6.44975 z" sodipodi:ry="6.4497476" sodipodi:rx="6.4497476" sodipodi:cy="220.80461" sodipodi:cx="52.679455" id="path3900" style="fill:none;stroke:#000000;stroke-opacity:1" sodipodi:type="arc"/>
      <path sodipodi:type="arc" style="fill:none;stroke:#000000;stroke-opacity:1" id="path3902" sodipodi:cx="52.679455" sodipodi:cy="220.80461" sodipodi:rx="6.4497476" sodipodi:ry="6.4497476" d="m 59.129202,220.80461 c 0,3.5621 -2.88765,6.44975 -6.449747,6.44975 -3.562097,0 -6.449748,-2.88765 -6.449748,-6.44975 0,-3.5621 2.887651,-6.44975 6.449748,-6.44975 3.562097,0 6.449747,2.88765 6.449747,6.44975 z" transform="translate(425.2,-0.13885121)"/>
      <path sodipodi:type="arc" style="fill:none;stroke:#000000;stroke-opacity:1" id="path3904" sodipodi:cx="52.679455" sodipodi:cy="220.80461" sodipodi:rx="6.4497476" sodipodi:ry="6.4497476" d="m 59.129202,220.80461 c 0,3.5621 -2.88765,6.44975 -6.449747,6.44975 -3.562097,0 -6.449748,-2.88765 -6.449748,-6.44975 0,-3.5621 2.887651,-6.44975 6.449748,-6.44975 3.562097,0 6.449747,2.88765 6.449747,6.44975 z" transform="translate(466.39999,-0.13885121)"/>
      <path transform="translate(507.59999,-0.13885121)" d="m 59.129202,220.80461 c 0,3.5621 -2.88765,6.44975 -6.449747,6.44975 -3.562097,0 -6.449748,-2.88765 -6.449748,-6.44975 0,-3.5621 2.887651,-6.44975 6.449748,-6.44975 3.562097,0 6.449747,2.88765 6.449747,6.44975 z" sodipodi:ry="6.4497476" sodipodi:rx="6.4497476" sodipodi:cy="220.80461" sodipodi:cx="52.679455" id="path3906" style="fill:none;stroke:#000000;stroke-opacity:1" sodipodi:type="arc"/>
    </g>
    <g transform="translate(0,268.57141)" id="g3908">
      <path sodipodi:nodetypes="cc" inkscape:connector-curvature="0" id="path3910" d="m 30.982142,220.66576 606.248568,0" style="fill:none;stroke:#000000;stroke-width:1.00014699px;stroke-linecap:butt;stroke-linejoin:miter;stroke-opacity:1"/>
      <path sodipodi:nodetypes="czzzcc" inkscape:connector-curvature="0" id="path3912" d="m 315.80358,206.0229 c 0,0 10.18611,0 20.44641,0 10.2603,0 12.76786,8.864 12.76786,14.46429 0,5.60028 -2.86708,14.82143 -12.76786,14.82143 -9.90078,0 -20.35713,0 -20.35713,0 z" style="fill:#ffffff;fill-rule:evenodd;stroke:#000000;stroke-width:1px;stroke-linecap:butt;stroke-linejoin:miter;stroke-opacity:1"/>
      <path transform="translate(0,-0.13885121)" d="m 59.129202,220.80461 c 0,3.5621 -2.88765,6.44975 -6.449747,6.44975 -3.562097,0 -6.449748,-2.88765 -6.449748,-6.44975 0,-3.5621 2.887651,-6.44975 6.449748,-6.44975 3.562097,0 6.449747,2.88765 6.449747,6.44975 z" sodipodi:ry="6.4497476" sodipodi:rx="6.4497476" sodipodi:cy="220.80461" sodipodi:cx="52.679455" id="path3914" style="fill:none;stroke:#000000;stroke-opacity:1" sodipodi:type="arc"/>
      <path sodipodi:type="arc" style="fill:none;stroke:#000000;stroke-opacity:1" id="path3916" sodipodi:cx="52.679455" sodipodi:cy="220.80461" sodipodi:rx="6.4497476" sodipodi:ry="6.4497476" d="m 59.129202,220.80461 c 0,3.5621 -2.88765,6.44975 -6.449747,6.44975 -3.562097,0 -6.449748,-2.88765 -6.449748,-6.44975 0,-3.5621 2.887651,-6.44975 6.449748,-6.44975 3.562097,0 6.449747,2.88765 6.449747,6.44975 z" transform="translate(41.199997,-0.13885121)"/>
      <path sodipodi:type="arc" style="fill:none;stroke:#000000;stroke-opacity:1" id="path3918" sodipodi:cx="52.679455" sodipodi:cy="220.80461" sodipodi:rx="6.4497476" sodipodi:ry="6.4497476" d="m 59.129202,220.80461 c 0,3.5621 -2.88765,6.44975 -6.449747,6.44975 -3.562097,0 -6.449748,-2.88765 -6.449748,-6.44975 0,-3.5621 2.887651,-6.44975 6.449748,-6.44975 3.562097,0 6.449747,2.88765 6.449747,6.44975 z" transform="translate(82.399994,-0.13885121)"/>
      <path transform="translate(123.59999,-0.13885121)" d="m 59.129202,220.80461 c 0,3.5621 -2.88765,6.44975 -6.449747,6.44975 -3.562097,0 -6.449748,-2.88765 -6.449748,-6.44975 0,-3.5621 2.887651,-6.44975 6.449748,-6.44975 3.562097,0 6.449747,2.88765 6.449747,6.44975 z" sodipodi:ry="6.4497476" sodipodi:rx="6.4497476" sodipodi:cy="220.80461" sodipodi:cx="52.679455" id="path3920" style="fill:none;stroke:#000000;stroke-opacity:1" sodipodi:type="arc"/>
      <path transform="translate(164.79999,-0.13885121)" d="m 59.129202,220.80461 c 0,3.5621 -2.88765,6.44975 -6.449747,6.44975 -3.562097,0 -6.449748,-2.88765 -6.449748,-6.44975 0,-3.5621 2.887651,-6.44975 6.449748,-6.44975 3.562097,0 6.449747,2.88765 6.449747,6.44975 z" sodipodi:ry="6.4497476" sodipodi:rx="6.4497476" sodipodi:cy="220.80461" sodipodi:cx="52.679455" id="path3922" style="fill:none;stroke:#000000;stroke-opacity:1" sodipodi:type="arc"/>
      <path sodipodi:type="arc" style="fill:none;stroke:#000000;stroke-opacity:1" id="path3924" sodipodi:cx="52.679455" sodipodi:cy="220.80461" sodipodi:rx="6.4497476" sodipodi:ry="6.4497476" d="m 59.129202,220.80461 c 0,3.5621 -2.88765,6.44975 -6.449747,6.44975 -3.562097,0 -6.449748,-2.88765 -6.449748,-6.44975 0,-3.5621 2.887651,-6.44975 6.449748,-6.44975 3.562097,0 6.449747,2.88765 6.449747,6.44975 z" transform="translate(206,-0.13885121)"/>
      <path sodipodi:type="arc" style="fill:none;stroke:#000000;stroke-opacity:1" id="path3926" sodipodi:cx="52.679455" sodipodi:cy="220.80461" sodipodi:rx="6.4497476" sodipodi:ry="6.4497476" d="m 59.129202,220.80461 c 0,3.5621 -2.88765,6.44975 -6.449747,6.44975 -3.562097,0 -6.449748,-2.88765 -6.449748,-6.44975 0,-3.5621 2.887651,-6.44975 6.449748,-6.44975 3.562097,0 6.449747,2.88765 6.449747,6.44975 z" transform="translate(384,-0.13885121)"/>
      <path transform="translate(425.2,-0.13885121)" d="m 59.129202,220.80461 c 0,3.5621 -2.88765,6.44975 -6.449747,6.44975 -3.562097,0 -6.449748,-2.88765 -6.449748,-6.44975 0,-3.5621 2.887651,-6.44975 6.449748,-6.44975 3.562097,0 6.449747,2.88765 6.449747,6.44975 z" sodipodi:ry="6.4497476" sodipodi:rx="6.4497476" sodipodi:cy="220.80461" sodipodi:cx="52.679455" id="path3928" style="fill:none;stroke:#000000;stroke-opacity:1" sodipodi:type="arc"/>
      <path transform="translate(466.39999,-0.13885121)" d="m 59.129202,220.80461 c 0,3.5621 -2.88765,6.44975 -6.449747,6.44975 -3.562097,0 -6.449748,-2.88765 -6.449748,-6.44975 0,-3.5621 2.887651,-6.44975 6.449748,-6.44975 3.562097,0 6.449747,2.88765 6.449747,6.44975 z" sodipodi:ry="6.4497476" sodipodi:rx="6.4497476" sodipodi:cy="220.80461" sodipodi:cx="52.679455" id="path3930" style="fill:none;stroke:#000000;stroke-opacity:1" sodipodi:type="arc"/>
      <path sodipodi:type="arc" style="fill:none;stroke:#000000;stroke-opacity:1" id="path3932" sodipodi:cx="52.679455" sodipodi:cy="220.80461" sodipodi:rx="6.4497476" sodipodi:ry="6.4497476" d="m 59.129202,220.80461 c 0,3.5621 -2.88765,6.44975 -6.449747,6.44975 -3.562097,0 -6.449748,-2.88765 -6.449748,-6.44975 0,-3.5621 2.887651,-6.44975 6.449748,-6.44975 3.562097,0 6.449747,2.88765 6.449747,6.44975 z" transform="translate(507.59999,-0.13885121)"/>
    </g>
    <g transform="translate(0,322.28571)" id="g3934">
      <path sodipodi:nodetypes="cc" inkscape:connector-curvature="0" id="path3936" d="m 30.982142,220.66576 606.248568,0" style="fill:none;stroke:#000000;stroke-width:1.00014699px;stroke-linecap:butt;stroke-linejoin:miter;stroke-opacity:1"/>
      <path sodipodi:nodetypes="czzzcc" inkscape:connector-curvature="0" id="path3938" d="m 315.80358,206.0229 c 0,0 10.18611,0 20.44641,0 10.2603,0 12.76786,8.864 12.76786,14.46429 0,5.60028 -2.86708,14.82143 -12.76786,14.82143 -9.90078,0 -20.35713,0 -20.35713,0 z" style="fill:#ffffff;fill-rule:evenodd;stroke:#000000;stroke-width:1px;stroke-linecap:butt;stroke-linejoin:miter;stroke-opacity:1"/>
      <path transform="translate(0,-0.13885121)" d="m 59.129202,220.80461 c 0,3.5621 -2.88765,6.44975 -6.449747,6.44975 -3.562097,0 -6.449748,-2.88765 -6.449748,-6.44975 0,-3.5621 2.887651,-6.44975 6.449748,-6.44975 3.562097,0 6.449747,2.88765 6.449747,6.44975 z" sodipodi:ry="6.4497476" sodipodi:rx="6.4497476" sodipodi:cy="220.80461" sodipodi:cx="52.679455" id="path3940" style="fill:none;stroke:#000000;stroke-opacity:1" sodipodi:type="arc"/>
      <path sodipodi:type="arc" style="fill:none;stroke:#000000;stroke-opacity:1" id="path3942" sodipodi:cx="52.679455" sodipodi:cy="220.80461" sodipodi:rx="6.4497476" sodipodi:ry="6.4497476" d="m 59.129202,220.80461 c 0,3.5621 -2.88765,6.44975 -6.449747,6.44975 -3.562097,0 -6.449748,-2.88765 -6.449748,-6.44975 0,-3.5621 2.887651,-6.44975 6.449748,-6.44975 3.562097,0 6.449747,2.88765 6.449747,6.44975 z" transform="translate(41.199997,-0.13885121)"/>
      <path sodipodi:type="arc" style="fill:none;stroke:#000000;stroke-opacity:1" id="path3944" sodipodi:cx="52.679455" sodipodi:cy="220.80461" sodipodi:rx="6.4497476" sodipodi:ry="6.4497476" d="m 59.129202,220.80461 c 0,3.5621 -2.88765,6.44975 -6.449747,6.44975 -3.562097,0 -6.449748,-2.88765 -6.449748,-6.44975 0,-3.5621 2.887651,-6.44975 6.449748,-6.44975 3.562097,0 6.449747,2.88765 6.449747,6.44975 z" transform="translate(82.399994,-0.13885121)"/>
      <path transform="translate(123.59999,-0.13885121)" d="m 59.129202,220.80461 c 0,3.5621 -2.88765,6.44975 -6.449747,6.44975 -3.562097,0 -6.449748,-2.88765 -6.449748,-6.44975 0,-3.5621 2.887651,-6.44975 6.449748,-6.44975 3.562097,0 6.449747,2.88765 6.449747,6.44975 z" sodipodi:ry="6.4497476" sodipodi:rx="6.4497476" sodipodi:cy="220.80461" sodipodi:cx="52.679455" id="path3946" style="fill:none;stroke:#000000;stroke-opacity:1" sodipodi:type="arc"/>
      <path transform="translate(164.79999,-0.13885121)" d="m 59.129202,220.80461 c 0,3.5621 -2.88765,6.44975 -6.449747,6.44975 -3.562097,0 -6.449748,-2.88765 -6.449748,-6.44975 0,-3.5621 2.887651,-6.44975 6.449748,-6.44975 3.562097,0 6.449747,2.88765 6.449747,6.44975 z" sodipodi:ry="6.4497476" sodipodi:rx="6.4497476" sodipodi:cy="220.80461" sodipodi:cx="52.679455" id="path3948" style="fill:none;stroke:#000000;stroke-opacity:1" sodipodi:type="arc"/>
      <path sodipodi:type="arc" style="fill:none;stroke:#000000;stroke-opacity:1" id="path3950" sodipodi:cx="52.679455" sodipodi:cy="220.80461" sodipodi:rx="6.4497476" sodipodi:ry="6.4497476" d="m 59.129202,220.80461 c 0,3.5621 -2.88765,6.44975 -6.449747,6.44975 -3.562097,0 -6.449748,-2.88765 -6.449748,-6.44975 0,-3.5621 2.887651,-6.44975 6.449748,-6.44975 3.562097,0 6.449747,2.88765 6.449747,6.44975 z" transform="translate(206,-0.13885121)"/>
      <path sodipodi:type="arc" style="fill:none;stroke:#000000;stroke-opacity:1" id="path3952" sodipodi:cx="52.679455" sodipodi:cy="220.80461" sodipodi:rx="6.4497476" sodipodi:ry="6.4497476" d="m 59.129202,220.80461 c 0,3.5621 -2.88765,6.44975 -6.449747,6.44975 -3.562097,0 -6.449748,-2.88765 -6.449748,-6.44975 0,-3.5621 2.887651,-6.44975 6.449748,-6.44975 3.562097,0 6.449747,2.88765 6.449747,6.44975 z" transform="translate(384,-0.13885121)"/>
      <path transform="translate(425.2,-0.13885121)" d="m 59.129202,220.80461 c 0,3.5621 -2.88765,6.44975 -6.449747,6.44975 -3.562097,0 -6.449748,-2.88765 -6.449748,-6.44975 0,-3.5621 2.887651,-6.44975 6.449748,-6.44975 3.562097,0 6.449747,2.88765 6.449747,6.44975 z" sodipodi:ry="6.4497476" sodipodi:rx="6.4497476" sodipodi:cy="220.80461" sodipodi:cx="52.679455" id="path3954" style="fill:none;stroke:#000000;stroke-opacity:1" sodipodi:type="arc"/>
      <path transform="translate(466.39999,-0.13885121)" d="m 59.129202,220.80461 c 0,3.5621 -2.88765,6.44975 -6.449747,6.44975 -3.562097,0 -6.449748,-2.88765 -6.449748,-6.44975 0,-3.5621 2.887651,-6.44975 6.449748,-6.44975 3.562097,0 6.449747,2.88765 6.449747,6.44975 z" sodipodi:ry="6.4497476" sodipodi:rx="6.4497476" sodipodi:cy="220.80461" sodipodi:cx="52.679455" id="path3956" style="fill:none;stroke:#000000;stroke-opacity:1" sodipodi:type="arc"/>
      <path sodipodi:type="arc" style="fill:none;stroke:#000000;stroke-opacity:1" id="path3958" sodipodi:cx="52.679455" sodipodi:cy="220.80461" sodipodi:rx="6.4497476" sodipodi:ry="6.4497476" d="m 59.129202,220.80461 c 0,3.5621 -2.88765,6.44975 -6.449747,6.44975 -3.562097,0 -6.449748,-2.88765 -6.449748,-6.44975 0,-3.5621 2.887651,-6.44975 6.449748,-6.44975 3.562097,0 6.449747,2.88765 6.449747,6.44975 z" transform="translate(507.59999,-0.13885121)"/>
    </g>
    <g id="g3960" transform="translate(0,376)">
      <path style="fill:none;stroke:#000000;stroke-width:1.00014699px;stroke-linecap:butt;stroke-linejoin:miter;stroke-opacity:1" d="m 30.982142,220.66576 606.248568,0" id="path3962" inkscape:connector-curvature="0" sodipodi:nodetypes="cc"/>
      <path style="fill:#ffffff;fill-rule:evenodd;stroke:#000000;stroke-width:1px;stroke-linecap:butt;stroke-linejoin:miter;stroke-opacity:1" d="m 315.80358,206.0229 c 0,0 10.18611,0 20.44641,0 10.2603,0 12.76786,8.864 12.76786,14.46429 0,5.60028 -2.86708,14.82143 -12.76786,14.82143 -9.90078,0 -20.35713,0 -20.35713,0 z" id="path3964" inkscape:connector-curvature="0" sodipodi:nodetypes="czzzcc"/>
      <path sodipodi:type="arc" style="fill:none;stroke:#000000;stroke-opacity:1" id="path3966" sodipodi:cx="52.679455" sodipodi:cy="220.80461" sodipodi:rx="6.4497476" sodipodi:ry="6.4497476" d="m 59.129202,220.80461 c 0,3.5621 -2.88765,6.44975 -6.449747,6.44975 -3.562097,0 -6.449748,-2.88765 -6.449748,-6.44975 0,-3.5621 2.887651,-6.44975 6.449748,-6.44975 3.562097,0 6.449747,2.88765 6.449747,6.44975 z" transform="translate(0,-0.13885121)"/>
      <path transform="translate(41.199997,-0.13885121)" d="m 59.129202,220.80461 c 0,3.5621 -2.88765,6.44975 -6.449747,6.44975 -3.562097,0 -6.449748,-2.88765 -6.449748,-6.44975 0,-3.5621 2.887651,-6.44975 6.449748,-6.44975 3.562097,0 6.449747,2.88765 6.449747,6.44975 z" sodipodi:ry="6.4497476" sodipodi:rx="6.4497476" sodipodi:cy="220.80461" sodipodi:cx="52.679455" id="path3968" style="fill:none;stroke:#000000;stroke-opacity:1" sodipodi:type="arc"/>
      <path transform="translate(82.399994,-0.13885121)" d="m 59.129202,220.80461 c 0,3.5621 -2.88765,6.44975 -6.449747,6.44975 -3.562097,0 -6.449748,-2.88765 -6.449748,-6.44975 0,-3.5621 2.887651,-6.44975 6.449748,-6.44975 3.562097,0 6.449747,2.88765 6.449747,6.44975 z" sodipodi:ry="6.4497476" sodipodi:rx="6.4497476" sodipodi:cy="220.80461" sodipodi:cx="52.679455" id="path3970" style="fill:none;stroke:#000000;stroke-opacity:1" sodipodi:type="arc"/>
      <path sodipodi:type="arc" style="fill:none;stroke:#000000;stroke-opacity:1" id="path3972" sodipodi:cx="52.679455" sodipodi:cy="220.80461" sodipodi:rx="6.4497476" sodipodi:ry="6.4497476" d="m 59.129202,220.80461 c 0,3.5621 -2.88765,6.44975 -6.449747,6.44975 -3.562097,0 -6.449748,-2.88765 -6.449748,-6.44975 0,-3.5621 2.887651,-6.44975 6.449748,-6.44975 3.562097,0 6.449747,2.88765 6.449747,6.44975 z" transform="translate(123.59999,-0.13885121)"/>
      <path sodipodi:type="arc" style="fill:none;stroke:#000000;stroke-opacity:1" id="path3974" sodipodi:cx="52.679455" sodipodi:cy="220.80461" sodipodi:rx="6.4497476" sodipodi:ry="6.4497476" d="m 59.129202,220.80461 c 0,3.5621 -2.88765,6.44975 -6.449747,6.44975 -3.562097,0 -6.449748,-2.88765 -6.449748,-6.44975 0,-3.5621 2.887651,-6.44975 6.449748,-6.44975 3.562097,0 6.449747,2.88765 6.449747,6.44975 z" transform="translate(164.79999,-0.13885121)"/>
      <path transform="translate(206,-0.13885121)" d="m 59.129202,220.80461 c 0,3.5621 -2.88765,6.44975 -6.449747,6.44975 -3.562097,0 -6.449748,-2.88765 -6.449748,-6.44975 0,-3.5621 2.887651,-6.44975 6.449748,-6.44975 3.562097,0 6.449747,2.88765 6.449747,6.44975 z" sodipodi:ry="6.4497476" sodipodi:rx="6.4497476" sodipodi:cy="220.80461" sodipodi:cx="52.679455" id="path3976" style="fill:none;stroke:#000000;stroke-opacity:1" sodipodi:type="arc"/>
      <path transform="translate(384,-0.13885121)" d="m 59.129202,220.80461 c 0,3.5621 -2.88765,6.44975 -6.449747,6.44975 -3.562097,0 -6.449748,-2.88765 -6.449748,-6.44975 0,-3.5621 2.887651,-6.44975 6.449748,-6.44975 3.562097,0 6.449747,2.88765 6.449747,6.44975 z" sodipodi:ry="6.4497476" sodipodi:rx="6.4497476" sodipodi:cy="220.80461" sodipodi:cx="52.679455" id="path3978" style="fill:none;stroke:#000000;stroke-opacity:1" sodipodi:type="arc"/>
      <path sodipodi:type="arc" style="fill:none;stroke:#000000;stroke-opacity:1" id="path3980" sodipodi:cx="52.679455" sodipodi:cy="220.80461" sodipodi:rx="6.4497476" sodipodi:ry="6.4497476" d="m 59.129202,220.80461 c 0,3.5621 -2.88765,6.44975 -6.449747,6.44975 -3.562097,0 -6.449748,-2.88765 -6.449748,-6.44975 0,-3.5621 2.887651,-6.44975 6.449748,-6.44975 3.562097,0 6.449747,2.88765 6.449747,6.44975 z" transform="translate(425.2,-0.13885121)"/>
      <path sodipodi:type="arc" style="fill:none;stroke:#000000;stroke-opacity:1" id="path3982" sodipodi:cx="52.679455" sodipodi:cy="220.80461" sodipodi:rx="6.4497476" sodipodi:ry="6.4497476" d="m 59.129202,220.80461 c 0,3.5621 -2.88765,6.44975 -6.449747,6.44975 -3.562097,0 -6.449748,-2.88765 -6.449748,-6.44975 0,-3.5621 2.887651,-6.44975 6.449748,-6.44975 3.562097,0 6.449747,2.88765 6.449747,6.44975 z" transform="translate(466.39999,-0.13885121)"/>
      <path transform="translate(507.59999,-0.13885121)" d="m 59.129202,220.80461 c 0,3.5621 -2.88765,6.44975 -6.449747,6.44975 -3.562097,0 -6.449748,-2.88765 -6.449748,-6.44975 0,-3.5621 2.887651,-6.44975 6.449748,-6.44975 3.562097,0 6.449747,2.88765 6.449747,6.44975 z" sodipodi:ry="6.4497476" sodipodi:rx="6.4497476" sodipodi:cy="220.80461" sodipodi:cx="52.679455" id="path3984" style="fill:none;stroke:#000000;stroke-opacity:1" sodipodi:type="arc"/>
    </g>
    <g id="g4186">
      <g id="g4031">
        <path inkscape:connector-curvature="0" id="path4009" d="m 93.879452,195.79508 0,459.30193" style="fill:none;stroke:#000000;stroke-width:1px;stroke-linecap:butt;stroke-linejoin:miter;stroke-opacity:1" sodipodi:nodetypes="cc"/>
        <path style="fill:none;stroke:#000000;stroke-width:1px;stroke-linecap:butt;stroke-linejoin:miter;stroke-opacity:1" d="m 52.679455,162.09702 0,492.99999" id="path4007" inkscape:connector-curvature="0"/>
        <g id="g4019" transform="matrix(1,0,0,-1,78.484801,206.24906)">
          <g id="g4023" transform="translate(0,-4)">
            <path sodipodi:type="arc" style="fill:none;stroke:#000000;stroke-opacity:1" id="path4013" sodipodi:cx="79.5" sodipodi:cy="151.36218" sodipodi:rx="1.6715728" sodipodi:ry="1.6715728" d="m 81.171573,151.36218 c 0,0.92319 -0.748389,1.67158 -1.671573,1.67158 -0.923184,0 -1.671573,-0.74839 -1.671573,-1.67158 0,-0.92318 0.748389,-1.67157 1.671573,-1.67157 0.923184,0 1.671573,0.74839 1.671573,1.67157 z" transform="translate(-64.105349,-135.07617)"/>
            <path sodipodi:type="star" style="fill:none;stroke:#000000;stroke-opacity:1" id="path4017" sodipodi:sides="3" sodipodi:cx="29.079765" sodipodi:cy="43.585972" sodipodi:r1="9.4513559" sodipodi:r2="4.725678" sodipodi:arg1="0.52359878" sodipodi:arg2="1.5707963" inkscape:flatsided="true" inkscape:rounded="0" inkscape:randomized="0" d="m 37.26488,48.31165 -16.370229,0 8.185114,-14.177034 z" inkscape:transform-center-y="-2.3628389" transform="translate(-13.685114,-15.177033)"/>
          </g>
        </g>
        <path style="fill:none;stroke:#000000;stroke-width:1px;stroke-linecap:butt;stroke-linejoin:miter;stroke-opacity:1" d="m 93.96784,128.14939 -0.176776,48.63782" id="path4027" inkscape:connector-curvature="0" sodipodi:nodetypes="cc"/>
        <path style="fill:none;stroke:#000000;stroke-width:1px;stroke-linecap:butt;stroke-linejoin:miter;stroke-opacity:1" d="m 52.767843,162.51249 41.18897,0" id="path4029" inkscape:connector-curvature="0"/>
      </g>
      <g transform="translate(164.58579,0)" id="g4041">
        <path sodipodi:nodetypes="cc" style="fill:none;stroke:#000000;stroke-width:1px;stroke-linecap:butt;stroke-linejoin:miter;stroke-opacity:1" d="m 93.879452,195.79508 0,459.30193" id="path4043" inkscape:connector-curvature="0"/>
        <path inkscape:connector-curvature="0" id="path4045" d="m 52.679455,162.09702 0,492.99999" style="fill:none;stroke:#000000;stroke-width:1px;stroke-linecap:butt;stroke-linejoin:miter;stroke-opacity:1"/>
        <g transform="matrix(1,0,0,-1,78.484801,206.24906)" id="g4047">
          <g transform="translate(0,-4)" id="g4049">
            <path transform="translate(-64.105349,-135.07617)" d="m 81.171573,151.36218 c 0,0.92319 -0.748389,1.67158 -1.671573,1.67158 -0.923184,0 -1.671573,-0.74839 -1.671573,-1.67158 0,-0.92318 0.748389,-1.67157 1.671573,-1.67157 0.923184,0 1.671573,0.74839 1.671573,1.67157 z" sodipodi:ry="1.6715728" sodipodi:rx="1.6715728" sodipodi:cy="151.36218" sodipodi:cx="79.5" id="path4051" style="fill:none;stroke:#000000;stroke-opacity:1" sodipodi:type="arc"/>
            <path transform="translate(-13.685114,-15.177033)" inkscape:transform-center-y="-2.3628389" d="m 37.26488,48.31165 -16.370229,0 8.185114,-14.177034 z" inkscape:randomized="0" inkscape:rounded="0" inkscape:flatsided="true" sodipodi:arg2="1.5707963" sodipodi:arg1="0.52359878" sodipodi:r2="4.725678" sodipodi:r1="9.4513559" sodipodi:cy="43.585972" sodipodi:cx="29.079765" sodipodi:sides="3" id="path4053" style="fill:none;stroke:#000000;stroke-opacity:1" sodipodi:type="star"/>
          </g>
        </g>
        <path sodipodi:nodetypes="cc" inkscape:connector-curvature="0" id="path4055" d="m 93.96784,128.14939 -0.176776,48.63782" style="fill:none;stroke:#000000;stroke-width:1px;stroke-linecap:butt;stroke-linejoin:miter;stroke-opacity:1"/>
        <path inkscape:connector-curvature="0" id="path4057" d="m 52.767843,162.51249 41.18897,0" style="fill:none;stroke:#000000;stroke-width:1px;stroke-linecap:butt;stroke-linejoin:miter;stroke-opacity:1"/>
      </g>
      <g id="g4059" transform="translate(82,0)">
        <path inkscape:connector-curvature="0" id="path4061" d="m 93.879452,195.79508 0,459.30193" style="fill:none;stroke:#000000;stroke-width:1px;stroke-linecap:butt;stroke-linejoin:miter;stroke-opacity:1" sodipodi:nodetypes="cc"/>
        <path style="fill:none;stroke:#000000;stroke-width:1px;stroke-linecap:butt;stroke-linejoin:miter;stroke-opacity:1" d="m 52.679455,162.09702 0,492.99999" id="path4063" inkscape:connector-curvature="0"/>
        <g id="g4065" transform="matrix(1,0,0,-1,78.484801,206.24906)">
          <g id="g4067" transform="translate(0,-4)">
            <path sodipodi:type="arc" style="fill:none;stroke:#000000;stroke-opacity:1" id="path4069" sodipodi:cx="79.5" sodipodi:cy="151.36218" sodipodi:rx="1.6715728" sodipodi:ry="1.6715728" d="m 81.171573,151.36218 c 0,0.92319 -0.748389,1.67158 -1.671573,1.67158 -0.923184,0 -1.671573,-0.74839 -1.671573,-1.67158 0,-0.92318 0.748389,-1.67157 1.671573,-1.67157 0.923184,0 1.671573,0.74839 1.671573,1.67157 z" transform="translate(-64.105349,-135.07617)"/>
            <path sodipodi:type="star" style="fill:none;stroke:#000000;stroke-opacity:1" id="path4071" sodipodi:sides="3" sodipodi:cx="29.079765" sodipodi:cy="43.585972" sodipodi:r1="9.4513559" sodipodi:r2="4.725678" sodipodi:arg1="0.52359878" sodipodi:arg2="1.5707963" inkscape:flatsided="true" inkscape:rounded="0" inkscape:randomized="0" d="m 37.26488,48.31165 -16.370229,0 8.185114,-14.177034 z" inkscape:transform-center-y="-2.3628389" transform="translate(-13.685114,-15.177033)"/>
          </g>
        </g>
        <path style="fill:none;stroke:#000000;stroke-width:1px;stroke-linecap:butt;stroke-linejoin:miter;stroke-opacity:1" d="m 93.96784,128.14939 -0.176776,48.63782" id="path4073" inkscape:connector-curvature="0" sodipodi:nodetypes="cc"/>
        <path style="fill:none;stroke:#000000;stroke-width:1px;stroke-linecap:butt;stroke-linejoin:miter;stroke-opacity:1" d="m 52.767843,162.51249 41.18897,0" id="path4075" inkscape:connector-curvature="0"/>
      </g>
    </g>
    <g id="g4172">
      <g id="g4142">
        <path style="fill:none;stroke:#000000;stroke-width:0.99905539px;stroke-linecap:butt;stroke-linejoin:miter;stroke-opacity:1" d="m 436.67939,186.86174 0,534.00089" id="path4140" inkscape:connector-curvature="0" sodipodi:nodetypes="cc"/>
        <path inkscape:connector-curvature="0" style="fill:#ffffff;fill-opacity:1;stroke:#000000;stroke-width:1;stroke-miterlimit:4;stroke-opacity:1;stroke-dasharray:none" d="m 453.67944,640.73717 0,11.28125 c 0,4.68418 0.13021,18.28685 -17,27.96875 -8.42907,-4.76678 -12.68391,-10.52128 -14.8125,-15.71875 -2.19542,-5.36066 -2.1875,-9.84192 -2.1875,-12.25 l 0,-11.25 c 3.10843,1.87359 9.04935,4.75 17,4.75 7.97335,0 13.90019,-2.90853 17,-4.78125 z" id="path4973" sodipodi:nodetypes="cccsccsc"/>
      </g>
      <g transform="translate(41.2,0)" id="g4146">
        <path sodipodi:nodetypes="cc" inkscape:connector-curvature="0" id="path4148" d="m 436.67937,186.85275 0,534.01888" style="fill:none;stroke:#000000;stroke-width:0.98106003px;stroke-linecap:butt;stroke-linejoin:miter;stroke-opacity:1"/>
        <path sodipodi:nodetypes="cccsccsc" id="path4150" d="m 453.67944,640.73717 0,11.28125 c 0,4.68418 0.13021,18.28685 -17,27.96875 -8.42907,-4.76678 -12.68391,-10.52128 -14.8125,-15.71875 -2.19542,-5.36066 -2.1875,-9.84192 -2.1875,-12.25 l 0,-11.25 c 3.10843,1.87359 9.04935,4.75 17,4.75 7.97335,0 13.90019,-2.90853 17,-4.78125 z" style="fill:#ffffff;fill-opacity:1;stroke:#000000;stroke-width:1;stroke-miterlimit:4;stroke-opacity:1;stroke-dasharray:none" inkscape:connector-curvature="0"/>
      </g>
      <g transform="translate(82.39999,0)" id="g4152">
        <path style="fill:none;stroke:#000000;stroke-width:0.98106003px;stroke-linecap:butt;stroke-linejoin:miter;stroke-opacity:1" d="m 436.67937,186.85275 0,534.01888" id="path4154" inkscape:connector-curvature="0" sodipodi:nodetypes="cc"/>
        <path inkscape:connector-curvature="0" style="fill:#ffffff;fill-opacity:1;stroke:#000000;stroke-width:1;stroke-miterlimit:4;stroke-opacity:1;stroke-dasharray:none" d="m 453.67944,640.73717 0,11.28125 c 0,4.68418 0.13021,18.28685 -17,27.96875 -8.42907,-4.76678 -12.68391,-10.52128 -14.8125,-15.71875 -2.19542,-5.36066 -2.1875,-9.84192 -2.1875,-12.25 l 0,-11.25 c 3.10843,1.87359 9.04935,4.75 17,4.75 7.97335,0 13.90019,-2.90853 17,-4.78125 z" id="path4156" sodipodi:nodetypes="cccsccsc"/>
      </g>
      <g transform="translate(124,0)" id="g4158">
        <path sodipodi:nodetypes="cc" inkscape:connector-curvature="0" id="path4160" d="m 436.67937,186.85275 0,534.01888" style="fill:none;stroke:#000000;stroke-width:0.98106003px;stroke-linecap:butt;stroke-linejoin:miter;stroke-opacity:1"/>
        <path sodipodi:nodetypes="cccsccsc" id="path4162" d="m 453.67944,640.73717 0,11.28125 c 0,4.68418 0.13021,18.28685 -17,27.96875 -8.42907,-4.76678 -12.68391,-10.52128 -14.8125,-15.71875 -2.19542,-5.36066 -2.1875,-9.84192 -2.1875,-12.25 l 0,-11.25 c 3.10843,1.87359 9.04935,4.75 17,4.75 7.97335,0 13.90019,-2.90853 17,-4.78125 z" style="fill:#ffffff;fill-opacity:1;stroke:#000000;stroke-width:1;stroke-miterlimit:4;stroke-opacity:1;stroke-dasharray:none" inkscape:connector-curvature="0"/>
      </g>
    </g>
    <text xml:space="preserve" style="font-size:40px;font-style:normal;font-weight:normal;line-height:125%;letter-spacing:0px;word-spacing:0px;fill:#000000;fill-opacity:1;stroke:none;font-family:Sans" x="106.78405" y="104.59646" id="text4164" sodipodi:linespacing="125%"><tspan sodipodi:role="line" id="tspan4166" x="106.78405" y="104.59646">input</tspan></text>
    <text xml:space="preserve" style="font-size:40px;font-style:normal;font-weight:normal;line-height:125%;letter-spacing:0px;word-spacing:0px;fill:#000000;fill-opacity:1;stroke:none;font-family:Sans" x="432.04858" y="766.69104" id="text4168" sodipodi:linespacing="125%"><tspan sodipodi:role="line" id="tspan4170" x="432.04858" y="766.69104">output</tspan></text>
    <text xml:space="preserve" style="font-size:28px;font-style:normal;font-variant:normal;font-weight:normal;font-stretch:normal;text-align:start;line-height:125%;letter-spacing:0px;word-spacing:0px;writing-mode:lr-tb;text-anchor:start;fill:#000000;fill-opacity:1;stroke:none;font-family:Sans;-inkscape-font-specification:Sans" x="86.171745" y="693.15192" id="text4215" sodipodi:linespacing="125%"><tspan sodipodi:role="line" id="tspan4217" x="86.171745" y="693.15192">AND plane</tspan></text>
    <text sodipodi:linespacing="125%" id="text4219" y="165.16498" x="434.57202" style="font-size:28px;font-style:normal;font-variant:normal;font-weight:normal;font-stretch:normal;text-align:start;line-height:125%;letter-spacing:0px;word-spacing:0px;writing-mode:lr-tb;text-anchor:start;fill:#000000;fill-opacity:1;stroke:none;font-family:Sans;-inkscape-font-specification:Sans" xml:space="preserve"><tspan y="165.16498" x="434.57202" id="tspan4221" sodipodi:role="line">OR plane</tspan></text>
  </g>
</svg>