<?xml version="1.0" encoding="UTF-8" standalone="no"?>
<!DOCTYPE svg PUBLIC "-//W3C//DTD SVG 1.1//EN"
 "http://www.w3.org/Graphics/SVG/1.1/DTD/svg11.dtd">
<!-- Generated by graphviz version 12.1.1 (0)
 -->
<!-- Title: not_triplicate Pages: 1 -->
<svg width="572pt" height="123pt"
 viewBox="0.00 0.00 572.30 123.25" xmlns="http://www.w3.org/2000/svg" xmlns:xlink="http://www.w3.org/1999/xlink">
<g id="graph0" class="graph" transform="scale(1 1) rotate(0) translate(4 119.25)">
<title>not_triplicate</title>
<text text-anchor="middle" x="282.15" y="-7.95" font-family="Times,serif" font-size="14.00">not_triplicate</text>
<!-- n1 -->
<g id="node1" class="node">
<title>n1</title>
<polygon fill="none" stroke="black" points="54.52,-35.79 54.52,-50.71 38.71,-61.25 16.34,-61.25 0.52,-50.71 0.52,-35.79 16.34,-25.25 38.71,-25.25 54.52,-35.79"/>
<text text-anchor="middle" x="27.52" y="-38.58" font-family="Times,serif" font-size="14.00">a</text>
</g>
<!-- c11 -->
<g id="node6" class="node">
<title>c11</title>
<polygon fill="none" stroke="black" points="91.05,-45 91.05,-95.5 208.8,-95.5 208.8,-45 91.05,-45"/>
<text text-anchor="middle" x="114.05" y="-78.2" font-family="Times,serif" font-size="14.00">CLK</text>
<polyline fill="none" stroke="black" points="91.05,-70.25 137.05,-70.25"/>
<text text-anchor="middle" x="114.05" y="-52.95" font-family="Times,serif" font-size="14.00">D</text>
<polyline fill="none" stroke="black" points="137.05,-45 137.05,-95.5"/>
<text text-anchor="middle" x="159.3" y="-74.2" font-family="Times,serif" font-size="14.00">$3</text>
<text text-anchor="middle" x="159.3" y="-56.95" font-family="Times,serif" font-size="14.00">$dff</text>
<polyline fill="none" stroke="black" points="181.55,-45 181.55,-95.5"/>
<text text-anchor="middle" x="195.17" y="-65.7" font-family="Times,serif" font-size="14.00">Q</text>
</g>
<!-- n1&#45;&gt;c11 -->
<g id="edge1" class="edge">
<title>n1:e&#45;&gt;c11:w</title>
<path fill="none" stroke="black" d="M55.05,-43.25C67.7,-43.25 71.89,-51 80.05,-55.12"/>
<polygon fill="black" stroke="black" points="79.04,-58.48 89.57,-57.29 80.6,-51.66 79.04,-58.48"/>
</g>
<!-- n2 -->
<g id="node2" class="node">
<title>n2</title>
<polygon fill="none" stroke="black" points="55.05,-89.79 55.05,-104.71 38.92,-115.25 16.12,-115.25 0,-104.71 0,-89.79 16.12,-79.25 38.92,-79.25 55.05,-89.79"/>
<text text-anchor="middle" x="27.52" y="-92.58" font-family="Times,serif" font-size="14.00">clk</text>
</g>
<!-- n2&#45;&gt;c11 -->
<g id="edge2" class="edge">
<title>n2:e&#45;&gt;c11:w</title>
<path fill="none" stroke="black" d="M55.05,-97.25C67.7,-97.25 71.89,-89.5 80.05,-85.38"/>
<polygon fill="black" stroke="black" points="80.6,-88.84 89.57,-83.21 79.04,-82.02 80.6,-88.84"/>
</g>
<!-- n3 -->
<g id="node3" class="node">
<title>n3</title>
<polygon fill="none" stroke="black" points="271.8,-88.25 244.8,-70.25 271.8,-52.25 298.8,-70.25 271.8,-88.25"/>
<text text-anchor="middle" x="271.8" y="-65.58" font-family="Times,serif" font-size="14.00">ff</text>
</g>
<!-- c7 -->
<g id="node5" class="node">
<title>c7</title>
<polygon fill="none" stroke="black" points="334.8,-49 334.8,-91.5 474.3,-91.5 474.3,-49 334.8,-49"/>
<text text-anchor="middle" x="347.67" y="-65.7" font-family="Times,serif" font-size="14.00">A</text>
<polyline fill="none" stroke="black" points="360.55,-49 360.55,-91.5"/>
<text text-anchor="middle" x="404.92" y="-74.2" font-family="Times,serif" font-size="14.00">$2</text>
<text text-anchor="middle" x="404.92" y="-56.95" font-family="Times,serif" font-size="14.00">$logic_not</text>
<polyline fill="none" stroke="black" points="449.3,-49 449.3,-91.5"/>
<text text-anchor="middle" x="461.8" y="-65.7" font-family="Times,serif" font-size="14.00">Y</text>
</g>
<!-- n3&#45;&gt;c7 -->
<g id="edge4" class="edge">
<title>n3:e&#45;&gt;c7:w</title>
<path fill="none" stroke="black" d="M298.8,-70.25C310.17,-70.25 315.48,-70.31 323.35,-70.35"/>
<polygon fill="black" stroke="black" points="323.28,-73.85 333.28,-70.37 323.29,-66.85 323.28,-73.85"/>
</g>
<!-- n4 -->
<g id="node4" class="node">
<title>n4</title>
<polygon fill="none" stroke="black" points="564.3,-62.79 564.3,-77.71 548.48,-88.25 526.11,-88.25 510.3,-77.71 510.3,-62.79 526.11,-52.25 548.48,-52.25 564.3,-62.79"/>
<text text-anchor="middle" x="537.3" y="-65.58" font-family="Times,serif" font-size="14.00">o</text>
</g>
<!-- c7&#45;&gt;n4 -->
<g id="edge5" class="edge">
<title>c7:e&#45;&gt;n4:w</title>
<path fill="none" stroke="black" d="M474.3,-70.38C485.67,-70.38 490.98,-70.31 498.85,-70.28"/>
<polygon fill="black" stroke="black" points="498.79,-73.78 508.78,-70.25 498.78,-66.78 498.79,-73.78"/>
</g>
<!-- c11&#45;&gt;n3 -->
<g id="edge3" class="edge">
<title>c11:e&#45;&gt;n3:w</title>
<path fill="none" stroke="black" d="M208.8,-70.38C220.17,-70.38 225.48,-70.31 233.35,-70.28"/>
<polygon fill="black" stroke="black" points="233.29,-73.78 243.28,-70.25 233.28,-66.78 233.29,-73.78"/>
</g>
</g>
</svg>
