<?xml version="1.0" encoding="UTF-8" standalone="no"?>
<!DOCTYPE svg PUBLIC "-//W3C//DTD SVG 1.1//EN"
 "http://www.w3.org/Graphics/SVG/1.1/DTD/svg11.dtd">
<!-- Generated by graphviz version 12.1.1 (0)
 -->
<!-- Title: not_triplicate Pages: 1 -->
<svg width="899pt" height="653pt"
 viewBox="0.00 0.00 898.77 652.75" xmlns="http://www.w3.org/2000/svg" xmlns:xlink="http://www.w3.org/1999/xlink">
<g id="graph0" class="graph" transform="scale(1 1) rotate(0) translate(4 648.75)">
<title>not_triplicate</title>
<text text-anchor="middle" x="445.39" y="-7.95" font-family="Times,serif" font-size="14.00">not_triplicate</text>
<!-- n17 -->
<g id="node1" class="node">
<title>n17</title>
<polygon fill="none" stroke="black" points="60.73,-74.54 60.73,-89.46 44.91,-100 22.55,-100 6.73,-89.46 6.73,-74.54 22.55,-64 44.91,-64 60.73,-74.54"/>
<text text-anchor="middle" x="33.73" y="-77.33" font-family="Times,serif" font-size="14.00">a</text>
</g>
<!-- c43 -->
<g id="node21" class="node">
<title>c43</title>
<polygon fill="none" stroke="black" points="116.21,-83.75 116.21,-134.25 233.96,-134.25 233.96,-83.75 116.21,-83.75"/>
<text text-anchor="middle" x="139.21" y="-116.95" font-family="Times,serif" font-size="14.00">CLK</text>
<polyline fill="none" stroke="black" points="116.21,-109 162.21,-109"/>
<text text-anchor="middle" x="139.21" y="-91.7" font-family="Times,serif" font-size="14.00">D</text>
<polyline fill="none" stroke="black" points="162.21,-83.75 162.21,-134.25"/>
<text text-anchor="middle" x="184.46" y="-112.95" font-family="Times,serif" font-size="14.00">$3</text>
<text text-anchor="middle" x="184.46" y="-95.7" font-family="Times,serif" font-size="14.00">$dff</text>
<polyline fill="none" stroke="black" points="206.71,-83.75 206.71,-134.25"/>
<text text-anchor="middle" x="220.33" y="-104.45" font-family="Times,serif" font-size="14.00">Q</text>
</g>
<!-- n17&#45;&gt;c43 -->
<g id="edge12" class="edge">
<title>n17:e&#45;&gt;c43:w</title>
<path fill="none" stroke="black" d="M61.98,-82C82.27,-82 88.66,-91.86 104.17,-95.25"/>
<polygon fill="black" stroke="black" points="103.4,-98.69 113.7,-96.22 104.11,-91.72 103.4,-98.69"/>
</g>
<!-- n18 -->
<g id="node2" class="node">
<title>n18</title>
<polygon fill="none" stroke="black" points="61.25,-128.54 61.25,-143.46 45.13,-154 22.33,-154 6.21,-143.46 6.21,-128.54 22.33,-118 45.13,-118 61.25,-128.54"/>
<text text-anchor="middle" x="33.73" y="-131.32" font-family="Times,serif" font-size="14.00">clk</text>
</g>
<!-- n18&#45;&gt;c43 -->
<g id="edge13" class="edge">
<title>n18:e&#45;&gt;c43:w</title>
<path fill="none" stroke="black" d="M62.51,-136C82.43,-136 88.79,-126.33 103.84,-122.85"/>
<polygon fill="black" stroke="black" points="104.14,-126.34 113.7,-121.79 103.39,-119.38 104.14,-126.34"/>
</g>
<!-- n19 -->
<g id="node3" class="node">
<title>n19</title>
<polygon fill="none" stroke="black" points="354.33,-127 327.33,-109 354.33,-91 381.33,-109 354.33,-127"/>
<text text-anchor="middle" x="354.33" y="-104.33" font-family="Times,serif" font-size="14.00">ff</text>
</g>
<!-- c23 -->
<g id="node5" class="node">
<title>c23</title>
<polygon fill="none" stroke="black" points="461.96,-149.75 461.96,-192.25 601.46,-192.25 601.46,-149.75 461.96,-149.75"/>
<text text-anchor="middle" x="474.83" y="-166.45" font-family="Times,serif" font-size="14.00">A</text>
<polyline fill="none" stroke="black" points="487.71,-149.75 487.71,-192.25"/>
<text text-anchor="middle" x="532.08" y="-174.95" font-family="Times,serif" font-size="14.00">$4</text>
<text text-anchor="middle" x="532.08" y="-157.7" font-family="Times,serif" font-size="14.00">$logic_not</text>
<polyline fill="none" stroke="black" points="576.46,-149.75 576.46,-192.25"/>
<text text-anchor="middle" x="588.96" y="-166.45" font-family="Times,serif" font-size="14.00">Y</text>
</g>
<!-- n19&#45;&gt;c23 -->
<g id="edge15" class="edge">
<title>n19:e&#45;&gt;c23:w</title>
<path fill="none" stroke="black" d="M383.15,-109C423.57,-109 418.82,-160.02 450.77,-169.59"/>
<polygon fill="black" stroke="black" points="450.08,-173.03 460.46,-170.92 451.03,-166.09 450.08,-173.03"/>
</g>
<!-- c24 -->
<g id="node6" class="node">
<title>c24</title>
<polygon fill="none" stroke="black" points="461.96,-87.75 461.96,-130.25 601.46,-130.25 601.46,-87.75 461.96,-87.75"/>
<text text-anchor="middle" x="474.83" y="-104.45" font-family="Times,serif" font-size="14.00">A</text>
<polyline fill="none" stroke="black" points="487.71,-87.75 487.71,-130.25"/>
<text text-anchor="middle" x="532.08" y="-112.95" font-family="Times,serif" font-size="14.00">$5</text>
<text text-anchor="middle" x="532.08" y="-95.7" font-family="Times,serif" font-size="14.00">$logic_not</text>
<polyline fill="none" stroke="black" points="576.46,-87.75 576.46,-130.25"/>
<text text-anchor="middle" x="588.96" y="-104.45" font-family="Times,serif" font-size="14.00">Y</text>
</g>
<!-- n19&#45;&gt;c24 -->
<g id="edge16" class="edge">
<title>n19:e&#45;&gt;c24:w</title>
<path fill="none" stroke="black" d="M383.15,-109C414.07,-109 424.52,-109.1 450.64,-109.12"/>
<polygon fill="black" stroke="black" points="450.44,-112.62 460.45,-109.12 450.45,-105.62 450.44,-112.62"/>
</g>
<!-- c39 -->
<g id="node20" class="node">
<title>c39</title>
<polygon fill="none" stroke="black" points="461.96,-25.75 461.96,-68.25 601.46,-68.25 601.46,-25.75 461.96,-25.75"/>
<text text-anchor="middle" x="474.83" y="-42.45" font-family="Times,serif" font-size="14.00">A</text>
<polyline fill="none" stroke="black" points="487.71,-25.75 487.71,-68.25"/>
<text text-anchor="middle" x="532.08" y="-50.95" font-family="Times,serif" font-size="14.00">$2</text>
<text text-anchor="middle" x="532.08" y="-33.7" font-family="Times,serif" font-size="14.00">$logic_not</text>
<polyline fill="none" stroke="black" points="576.46,-25.75 576.46,-68.25"/>
<text text-anchor="middle" x="588.96" y="-42.45" font-family="Times,serif" font-size="14.00">Y</text>
</g>
<!-- n19&#45;&gt;c39 -->
<g id="edge17" class="edge">
<title>n19:e&#45;&gt;c39:w</title>
<path fill="none" stroke="black" d="M383.15,-109C423.5,-109 418.87,-58.18 450.79,-48.65"/>
<polygon fill="black" stroke="black" points="451.03,-52.15 460.46,-47.33 450.08,-45.22 451.03,-52.15"/>
</g>
<!-- n20 -->
<g id="node4" class="node">
<title>n20</title>
<polygon fill="none" stroke="black" points="730.46,-101.54 730.46,-116.46 714.64,-127 692.28,-127 676.46,-116.46 676.46,-101.54 692.28,-91 714.64,-91 730.46,-101.54"/>
<text text-anchor="middle" x="703.46" y="-104.33" font-family="Times,serif" font-size="14.00">o</text>
</g>
<!-- c23&#45;&gt;n20 -->
<g id="edge22" class="edge">
<title>c23:e&#45;&gt;n20:w</title>
<path fill="none" stroke="black" d="M601.46,-171.12C640.13,-171.12 634.16,-120.54 664.12,-110.66"/>
<polygon fill="black" stroke="black" points="664.34,-114.17 673.71,-109.22 663.3,-107.24 664.34,-114.17"/>
</g>
<!-- c24&#45;&gt;n20 -->
<g id="edge23" class="edge">
<title>c24:e&#45;&gt;n20:w</title>
<path fill="none" stroke="black" d="M601.46,-109.12C630.14,-109.12 640,-109.03 663.97,-109.01"/>
<polygon fill="black" stroke="black" points="663.69,-112.51 673.69,-109 663.69,-105.51 663.69,-112.51"/>
</g>
<!-- c25 -->
<g id="node7" class="node">
<title>c25</title>
<polygon fill="none" stroke="black" points="105.33,-601.75 105.33,-644.25 244.83,-644.25 244.83,-601.75 105.33,-601.75"/>
<text text-anchor="middle" x="118.21" y="-618.45" font-family="Times,serif" font-size="14.00">A</text>
<polyline fill="none" stroke="black" points="131.08,-601.75 131.08,-644.25"/>
<text text-anchor="middle" x="175.46" y="-626.95" font-family="Times,serif" font-size="14.00">$12</text>
<text text-anchor="middle" x="175.46" y="-609.7" font-family="Times,serif" font-size="14.00">$logic_not</text>
<polyline fill="none" stroke="black" points="219.83,-601.75 219.83,-644.25"/>
<text text-anchor="middle" x="232.33" y="-618.45" font-family="Times,serif" font-size="14.00">Y</text>
</g>
<!-- c31 -->
<g id="node12" class="node">
<title>c31</title>
<polygon fill="none" stroke="black" points="282.71,-536.75 282.71,-587.25 425.96,-587.25 425.96,-536.75 282.71,-536.75"/>
<text text-anchor="middle" x="295.96" y="-569.95" font-family="Times,serif" font-size="14.00">A</text>
<polyline fill="none" stroke="black" points="282.71,-562 309.21,-562"/>
<text text-anchor="middle" x="295.96" y="-544.7" font-family="Times,serif" font-size="14.00">B</text>
<polyline fill="none" stroke="black" points="309.21,-536.75 309.21,-587.25"/>
<text text-anchor="middle" x="355.08" y="-565.95" font-family="Times,serif" font-size="14.00">$22</text>
<text text-anchor="middle" x="355.08" y="-548.7" font-family="Times,serif" font-size="14.00">$logic_and</text>
<polyline fill="none" stroke="black" points="400.96,-536.75 400.96,-587.25"/>
<text text-anchor="middle" x="413.46" y="-557.45" font-family="Times,serif" font-size="14.00">Y</text>
</g>
<!-- c25&#45;&gt;c31 -->
<g id="edge31" class="edge">
<title>c25:e&#45;&gt;c31:w</title>
<path fill="none" stroke="black" d="M245.83,-623.12C268.26,-623.12 260.26,-589.86 272.23,-578.43"/>
<polygon fill="black" stroke="black" points="273.08,-581.84 281.29,-575.14 270.69,-575.26 273.08,-581.84"/>
</g>
<!-- c26 -->
<g id="node8" class="node">
<title>c26</title>
<polygon fill="none" stroke="black" points="105.33,-323.75 105.33,-366.25 244.83,-366.25 244.83,-323.75 105.33,-323.75"/>
<text text-anchor="middle" x="118.21" y="-340.45" font-family="Times,serif" font-size="14.00">A</text>
<polyline fill="none" stroke="black" points="131.08,-323.75 131.08,-366.25"/>
<text text-anchor="middle" x="175.46" y="-348.95" font-family="Times,serif" font-size="14.00">$14</text>
<text text-anchor="middle" x="175.46" y="-331.7" font-family="Times,serif" font-size="14.00">$logic_not</text>
<polyline fill="none" stroke="black" points="219.83,-323.75 219.83,-366.25"/>
<text text-anchor="middle" x="232.33" y="-340.45" font-family="Times,serif" font-size="14.00">Y</text>
</g>
<!-- c32 -->
<g id="node13" class="node">
<title>c32</title>
<polygon fill="none" stroke="black" points="282.71,-466.75 282.71,-517.25 425.96,-517.25 425.96,-466.75 282.71,-466.75"/>
<text text-anchor="middle" x="295.96" y="-499.95" font-family="Times,serif" font-size="14.00">A</text>
<polyline fill="none" stroke="black" points="282.71,-492 309.21,-492"/>
<text text-anchor="middle" x="295.96" y="-474.7" font-family="Times,serif" font-size="14.00">B</text>
<polyline fill="none" stroke="black" points="309.21,-466.75 309.21,-517.25"/>
<text text-anchor="middle" x="355.08" y="-495.95" font-family="Times,serif" font-size="14.00">$24</text>
<text text-anchor="middle" x="355.08" y="-478.7" font-family="Times,serif" font-size="14.00">$logic_and</text>
<polyline fill="none" stroke="black" points="400.96,-466.75 400.96,-517.25"/>
<text text-anchor="middle" x="413.46" y="-487.45" font-family="Times,serif" font-size="14.00">Y</text>
</g>
<!-- c26&#45;&gt;c32 -->
<g id="edge32" class="edge">
<title>c26:e&#45;&gt;c32:w</title>
<path fill="none" stroke="black" d="M245.83,-345.12C314.19,-345.12 222.44,-485.9 271.41,-502.94"/>
<polygon fill="black" stroke="black" points="270.81,-506.39 281.21,-504.4 271.84,-499.47 270.81,-506.39"/>
</g>
<!-- c27 -->
<g id="node9" class="node">
<title>c27</title>
<polygon fill="none" stroke="black" points="105.33,-261.75 105.33,-304.25 244.83,-304.25 244.83,-261.75 105.33,-261.75"/>
<text text-anchor="middle" x="118.21" y="-278.45" font-family="Times,serif" font-size="14.00">A</text>
<polyline fill="none" stroke="black" points="131.08,-261.75 131.08,-304.25"/>
<text text-anchor="middle" x="175.46" y="-286.95" font-family="Times,serif" font-size="14.00">$16</text>
<text text-anchor="middle" x="175.46" y="-269.7" font-family="Times,serif" font-size="14.00">$logic_not</text>
<polyline fill="none" stroke="black" points="219.83,-261.75 219.83,-304.25"/>
<text text-anchor="middle" x="232.33" y="-278.45" font-family="Times,serif" font-size="14.00">Y</text>
</g>
<!-- c34 -->
<g id="node15" class="node">
<title>c34</title>
<polygon fill="none" stroke="black" points="282.71,-245.75 282.71,-296.25 425.96,-296.25 425.96,-245.75 282.71,-245.75"/>
<text text-anchor="middle" x="295.96" y="-278.95" font-family="Times,serif" font-size="14.00">A</text>
<polyline fill="none" stroke="black" points="282.71,-271 309.21,-271"/>
<text text-anchor="middle" x="295.96" y="-253.7" font-family="Times,serif" font-size="14.00">B</text>
<polyline fill="none" stroke="black" points="309.21,-245.75 309.21,-296.25"/>
<text text-anchor="middle" x="355.08" y="-274.95" font-family="Times,serif" font-size="14.00">$28</text>
<text text-anchor="middle" x="355.08" y="-257.7" font-family="Times,serif" font-size="14.00">$logic_and</text>
<polyline fill="none" stroke="black" points="400.96,-245.75 400.96,-296.25"/>
<text text-anchor="middle" x="413.46" y="-266.45" font-family="Times,serif" font-size="14.00">Y</text>
</g>
<!-- c27&#45;&gt;c34 -->
<g id="edge33" class="edge">
<title>c27:e&#45;&gt;c34:w</title>
<path fill="none" stroke="black" d="M245.83,-283.12C257.61,-283.12 263.04,-283.38 271.25,-283.53"/>
<polygon fill="black" stroke="black" points="271.17,-287.03 281.2,-283.61 271.23,-280.03 271.17,-287.03"/>
</g>
<!-- c29 -->
<g id="node10" class="node">
<title>c29</title>
<polygon fill="none" stroke="black" points="103.46,-191.75 103.46,-242.25 246.71,-242.25 246.71,-191.75 103.46,-191.75"/>
<text text-anchor="middle" x="116.71" y="-224.95" font-family="Times,serif" font-size="14.00">A</text>
<polyline fill="none" stroke="black" points="103.46,-217 129.96,-217"/>
<text text-anchor="middle" x="116.71" y="-199.7" font-family="Times,serif" font-size="14.00">B</text>
<polyline fill="none" stroke="black" points="129.96,-191.75 129.96,-242.25"/>
<text text-anchor="middle" x="175.83" y="-220.95" font-family="Times,serif" font-size="14.00">$18</text>
<text text-anchor="middle" x="175.83" y="-203.7" font-family="Times,serif" font-size="14.00">$logic_and</text>
<polyline fill="none" stroke="black" points="221.71,-191.75 221.71,-242.25"/>
<text text-anchor="middle" x="234.21" y="-212.45" font-family="Times,serif" font-size="14.00">Y</text>
</g>
<!-- c35 -->
<g id="node16" class="node">
<title>c35</title>
<polygon fill="none" stroke="black" points="288.33,-396.75 288.33,-447.25 420.33,-447.25 420.33,-396.75 288.33,-396.75"/>
<text text-anchor="middle" x="301.58" y="-429.95" font-family="Times,serif" font-size="14.00">A</text>
<polyline fill="none" stroke="black" points="288.33,-422 314.83,-422"/>
<text text-anchor="middle" x="301.58" y="-404.7" font-family="Times,serif" font-size="14.00">B</text>
<polyline fill="none" stroke="black" points="314.83,-396.75 314.83,-447.25"/>
<text text-anchor="middle" x="355.08" y="-425.95" font-family="Times,serif" font-size="14.00">$30</text>
<text text-anchor="middle" x="355.08" y="-408.7" font-family="Times,serif" font-size="14.00">$logic_or</text>
<polyline fill="none" stroke="black" points="395.33,-396.75 395.33,-447.25"/>
<text text-anchor="middle" x="407.83" y="-417.45" font-family="Times,serif" font-size="14.00">Y</text>
</g>
<!-- c29&#45;&gt;c35 -->
<g id="edge34" class="edge">
<title>c29:e&#45;&gt;c35:w</title>
<path fill="none" stroke="black" d="M246.71,-217.12C340.82,-217.12 201.94,-416.34 276.03,-433.45"/>
<polygon fill="black" stroke="black" points="275.52,-436.92 285.83,-434.47 276.24,-429.96 275.52,-436.92"/>
</g>
<!-- c30 -->
<g id="node11" class="node">
<title>c30</title>
<polygon fill="none" stroke="black" points="103.46,-493.75 103.46,-544.25 246.71,-544.25 246.71,-493.75 103.46,-493.75"/>
<text text-anchor="middle" x="116.71" y="-526.95" font-family="Times,serif" font-size="14.00">A</text>
<polyline fill="none" stroke="black" points="103.46,-519 129.96,-519"/>
<text text-anchor="middle" x="116.71" y="-501.7" font-family="Times,serif" font-size="14.00">B</text>
<polyline fill="none" stroke="black" points="129.96,-493.75 129.96,-544.25"/>
<text text-anchor="middle" x="175.83" y="-522.95" font-family="Times,serif" font-size="14.00">$20</text>
<text text-anchor="middle" x="175.83" y="-505.7" font-family="Times,serif" font-size="14.00">$logic_and</text>
<polyline fill="none" stroke="black" points="221.71,-493.75 221.71,-544.25"/>
<text text-anchor="middle" x="234.21" y="-514.45" font-family="Times,serif" font-size="14.00">Y</text>
</g>
<!-- c30&#45;&gt;c35 -->
<g id="edge5" class="edge">
<title>c30:e&#45;&gt;c35:w</title>
<path fill="none" stroke="black" d="M246.71,-519.12C294.25,-519.12 245.37,-427.43 276.34,-411.67"/>
<polygon fill="black" stroke="black" points="276.78,-415.15 285.85,-409.68 275.35,-408.3 276.78,-415.15"/>
</g>
<!-- c36 -->
<g id="node17" class="node">
<title>c36</title>
<polygon fill="none" stroke="black" points="465.71,-478.75 465.71,-529.25 597.71,-529.25 597.71,-478.75 465.71,-478.75"/>
<text text-anchor="middle" x="478.96" y="-511.95" font-family="Times,serif" font-size="14.00">A</text>
<polyline fill="none" stroke="black" points="465.71,-504 492.21,-504"/>
<text text-anchor="middle" x="478.96" y="-486.7" font-family="Times,serif" font-size="14.00">B</text>
<polyline fill="none" stroke="black" points="492.21,-478.75 492.21,-529.25"/>
<text text-anchor="middle" x="532.46" y="-507.95" font-family="Times,serif" font-size="14.00">$32</text>
<text text-anchor="middle" x="532.46" y="-490.7" font-family="Times,serif" font-size="14.00">$logic_or</text>
<polyline fill="none" stroke="black" points="572.71,-478.75 572.71,-529.25"/>
<text text-anchor="middle" x="585.21" y="-499.45" font-family="Times,serif" font-size="14.00">Y</text>
</g>
<!-- c31&#45;&gt;c36 -->
<g id="edge6" class="edge">
<title>c31:e&#45;&gt;c36:w</title>
<path fill="none" stroke="black" d="M425.96,-562.12C447.75,-562.12 441.99,-531.51 453.88,-520.5"/>
<polygon fill="black" stroke="black" points="455.05,-523.8 463.28,-517.14 452.69,-517.21 455.05,-523.8"/>
</g>
<!-- c32&#45;&gt;c36 -->
<g id="edge7" class="edge">
<title>c32:e&#45;&gt;c36:w</title>
<path fill="none" stroke="black" d="M425.96,-492.12C438.61,-492.12 444.29,-491.72 453.23,-491.51"/>
<polygon fill="black" stroke="black" points="453.24,-495.01 463.2,-491.39 453.16,-488.01 453.24,-495.01"/>
</g>
<!-- c33 -->
<g id="node14" class="node">
<title>c33</title>
<polygon fill="none" stroke="black" points="103.46,-385.75 103.46,-436.25 246.71,-436.25 246.71,-385.75 103.46,-385.75"/>
<text text-anchor="middle" x="116.71" y="-418.95" font-family="Times,serif" font-size="14.00">A</text>
<polyline fill="none" stroke="black" points="103.46,-411 129.96,-411"/>
<text text-anchor="middle" x="116.71" y="-393.7" font-family="Times,serif" font-size="14.00">B</text>
<polyline fill="none" stroke="black" points="129.96,-385.75 129.96,-436.25"/>
<text text-anchor="middle" x="175.83" y="-414.95" font-family="Times,serif" font-size="14.00">$26</text>
<text text-anchor="middle" x="175.83" y="-397.7" font-family="Times,serif" font-size="14.00">$logic_and</text>
<polyline fill="none" stroke="black" points="221.71,-385.75 221.71,-436.25"/>
<text text-anchor="middle" x="234.21" y="-406.45" font-family="Times,serif" font-size="14.00">Y</text>
</g>
<!-- c37 -->
<g id="node18" class="node">
<title>c37</title>
<polygon fill="none" stroke="black" points="465.71,-369.75 465.71,-420.25 597.71,-420.25 597.71,-369.75 465.71,-369.75"/>
<text text-anchor="middle" x="478.96" y="-402.95" font-family="Times,serif" font-size="14.00">A</text>
<polyline fill="none" stroke="black" points="465.71,-395 492.21,-395"/>
<text text-anchor="middle" x="478.96" y="-377.7" font-family="Times,serif" font-size="14.00">B</text>
<polyline fill="none" stroke="black" points="492.21,-369.75 492.21,-420.25"/>
<text text-anchor="middle" x="532.46" y="-398.95" font-family="Times,serif" font-size="14.00">$33</text>
<text text-anchor="middle" x="532.46" y="-381.7" font-family="Times,serif" font-size="14.00">$logic_or</text>
<polyline fill="none" stroke="black" points="572.71,-369.75 572.71,-420.25"/>
<text text-anchor="middle" x="585.21" y="-390.45" font-family="Times,serif" font-size="14.00">Y</text>
</g>
<!-- c33&#45;&gt;c37 -->
<g id="edge8" class="edge">
<title>c33:e&#45;&gt;c37:w</title>
<path fill="none" stroke="black" d="M246.71,-411.12C265.97,-411.12 264.35,-392.84 282.71,-387 356.05,-363.68 381.33,-380.54 453.25,-382.24"/>
<polygon fill="black" stroke="black" points="453.15,-385.74 463.2,-382.36 453.24,-378.74 453.15,-385.74"/>
</g>
<!-- c38 -->
<g id="node19" class="node">
<title>c38</title>
<polygon fill="none" stroke="black" points="637.46,-441.75 637.46,-492.25 769.46,-492.25 769.46,-441.75 637.46,-441.75"/>
<text text-anchor="middle" x="650.71" y="-474.95" font-family="Times,serif" font-size="14.00">A</text>
<polyline fill="none" stroke="black" points="637.46,-467 663.96,-467"/>
<text text-anchor="middle" x="650.71" y="-449.7" font-family="Times,serif" font-size="14.00">B</text>
<polyline fill="none" stroke="black" points="663.96,-441.75 663.96,-492.25"/>
<text text-anchor="middle" x="704.21" y="-470.95" font-family="Times,serif" font-size="14.00">$34</text>
<text text-anchor="middle" x="704.21" y="-453.7" font-family="Times,serif" font-size="14.00">$logic_or</text>
<polyline fill="none" stroke="black" points="744.46,-441.75 744.46,-492.25"/>
<text text-anchor="middle" x="756.96" y="-462.45" font-family="Times,serif" font-size="14.00">Y</text>
</g>
<!-- c34&#45;&gt;c38 -->
<g id="edge9" class="edge">
<title>c34:e&#45;&gt;c38:w</title>
<path fill="none" stroke="black" d="M425.96,-271.12C513.39,-271.12 542.94,-295.04 601.46,-360 628.45,-389.97 599.76,-442.27 626.21,-452.58"/>
<polygon fill="black" stroke="black" points="625.54,-456.02 635.96,-454.14 626.64,-449.1 625.54,-456.02"/>
</g>
<!-- c35&#45;&gt;c37 -->
<g id="edge10" class="edge">
<title>c35:e&#45;&gt;c37:w</title>
<path fill="none" stroke="black" d="M421.33,-422.12C437.21,-422.12 442.35,-413.27 453.53,-409.4"/>
<polygon fill="black" stroke="black" points="453.89,-412.89 463.21,-407.86 452.79,-405.98 453.89,-412.89"/>
</g>
<!-- c36&#45;&gt;c38 -->
<g id="edge11" class="edge">
<title>c36:e&#45;&gt;c38:w</title>
<path fill="none" stroke="black" d="M598.71,-504.12C614.47,-504.12 616.84,-489.47 626.54,-482.83"/>
<polygon fill="black" stroke="black" points="627.4,-486.22 636.01,-480.05 625.43,-479.51 627.4,-486.22"/>
</g>
<!-- n4 -->
<g id="node25" class="node">
<title>n4</title>
<polygon fill="none" stroke="black" points="703.46,-413 669.73,-395 703.46,-377 737.19,-395 703.46,-413"/>
<text text-anchor="middle" x="703.46" y="-390.32" font-family="Times,serif" font-size="14.00">$9</text>
</g>
<!-- c37&#45;&gt;n4 -->
<g id="edge29" class="edge">
<title>c37:e&#45;&gt;n4:w</title>
<path fill="none" stroke="black" d="M598.71,-395.12C625.18,-395.12 634.52,-395.03 656.31,-395.01"/>
<polygon fill="black" stroke="black" points="656.2,-398.51 666.2,-395 656.2,-391.51 656.2,-398.51"/>
</g>
<!-- n5 -->
<g id="node26" class="node">
<title>n5</title>
<polygon fill="none" stroke="black" points="848.12,-485 805.46,-467 848.12,-449 890.77,-467 848.12,-485"/>
<text text-anchor="middle" x="848.12" y="-462.32" font-family="Times,serif" font-size="14.00">$10</text>
</g>
<!-- c38&#45;&gt;n5 -->
<g id="edge30" class="edge">
<title>c38:e&#45;&gt;n5:w</title>
<path fill="none" stroke="black" d="M769.46,-467.12C780.83,-467.12 786.14,-467.06 794.01,-467.03"/>
<polygon fill="black" stroke="black" points="793.95,-470.53 803.95,-467 793.94,-463.53 793.95,-470.53"/>
</g>
<!-- c39&#45;&gt;n20 -->
<g id="edge24" class="edge">
<title>c39:e&#45;&gt;n20:w</title>
<path fill="none" stroke="black" d="M601.46,-47.12C640.07,-47.12 634.21,-97.51 664.13,-107.34"/>
<polygon fill="black" stroke="black" points="663.3,-110.76 673.71,-108.78 664.34,-103.84 663.3,-110.76"/>
</g>
<!-- c43&#45;&gt;n19 -->
<g id="edge14" class="edge">
<title>c43:e&#45;&gt;n19:w</title>
<path fill="none" stroke="black" d="M234.96,-109.12C271.12,-109.12 282.92,-109.02 314.13,-109"/>
<polygon fill="black" stroke="black" points="314.01,-112.5 324.01,-109 314.01,-105.5 314.01,-112.5"/>
</g>
<!-- n1 -->
<g id="node22" class="node">
<title>n1</title>
<polygon fill="none" stroke="black" points="33.73,-570 0,-552 33.73,-534 67.46,-552 33.73,-570"/>
<text text-anchor="middle" x="33.73" y="-547.33" font-family="Times,serif" font-size="14.00">$6</text>
</g>
<!-- n1&#45;&gt;c25 -->
<g id="edge1" class="edge">
<title>n1:e&#45;&gt;c25:w</title>
<path fill="none" stroke="black" d="M67.46,-552C98.34,-552 76.61,-605.49 93.52,-619.69"/>
<polygon fill="black" stroke="black" points="92.3,-622.98 102.89,-622.67 94.42,-616.31 92.3,-622.98"/>
</g>
<!-- n1&#45;&gt;c30 -->
<g id="edge2" class="edge">
<title>n1:e&#45;&gt;c30:w</title>
<path fill="none" stroke="black" d="M67.46,-552C81.25,-552 84.26,-540.54 92.66,-534.81"/>
<polygon fill="black" stroke="black" points="93.41,-538.24 102.01,-532.05 91.43,-531.52 93.41,-538.24"/>
</g>
<!-- n1&#45;&gt;c32 -->
<g id="edge3" class="edge">
<title>n1:e&#45;&gt;c32:w</title>
<path fill="none" stroke="black" d="M67.46,-552C147.13,-552 179.23,-596.36 246.71,-554 274,-536.87 252.9,-492.58 271.87,-481.78"/>
<polygon fill="black" stroke="black" points="272.23,-485.28 281.23,-479.7 270.71,-478.45 272.23,-485.28"/>
</g>
<!-- n1&#45;&gt;c33 -->
<g id="edge4" class="edge">
<title>n1:e&#45;&gt;c33:w</title>
<path fill="none" stroke="black" d="M67.46,-552C122.32,-552 55.67,-441.97 92.49,-425.64"/>
<polygon fill="black" stroke="black" points="92.77,-429.15 101.97,-423.9 91.5,-422.26 92.77,-429.15"/>
</g>
<!-- n2 -->
<g id="node23" class="node">
<title>n2</title>
<polygon fill="none" stroke="black" points="33.73,-292 0,-274 33.73,-256 67.46,-274 33.73,-292"/>
<text text-anchor="middle" x="33.73" y="-269.32" font-family="Times,serif" font-size="14.00">$7</text>
</g>
<!-- n2&#45;&gt;c26 -->
<g id="edge18" class="edge">
<title>n2:e&#45;&gt;c26:w</title>
<path fill="none" stroke="black" d="M67.46,-274C98.34,-274 76.61,-327.49 93.52,-341.69"/>
<polygon fill="black" stroke="black" points="92.3,-344.98 102.89,-344.67 94.42,-338.31 92.3,-344.98"/>
</g>
<!-- n2&#45;&gt;c29 -->
<g id="edge19" class="edge">
<title>n2:e&#45;&gt;c29:w</title>
<path fill="none" stroke="black" d="M67.46,-274C88.09,-274 82.2,-244.71 92.88,-233.72"/>
<polygon fill="black" stroke="black" points="93.99,-237.05 102.05,-230.17 91.46,-230.52 93.99,-237.05"/>
</g>
<!-- n2&#45;&gt;c33 -->
<g id="edge20" class="edge">
<title>n2:e&#45;&gt;c33:w</title>
<path fill="none" stroke="black" d="M67.46,-274C120.51,-274 57.44,-379.7 92.34,-396.22"/>
<polygon fill="black" stroke="black" points="91.49,-399.62 101.97,-398.09 92.82,-392.74 91.49,-399.62"/>
</g>
<!-- n2&#45;&gt;c34 -->
<g id="edge21" class="edge">
<title>n2:e&#45;&gt;c34:w</title>
<path fill="none" stroke="black" d="M67.46,-274C111.37,-274 67.19,-206.75 103.46,-182 156.04,-146.11 192.94,-147.9 246.71,-182 274.44,-199.59 252.47,-244.87 271.69,-255.92"/>
<polygon fill="black" stroke="black" points="270.71,-259.29 281.23,-258.05 272.23,-252.45 270.71,-259.29"/>
</g>
<!-- n3 -->
<g id="node24" class="node">
<title>n3</title>
<polygon fill="none" stroke="black" points="33.73,-392 0,-374 33.73,-356 67.46,-374 33.73,-392"/>
<text text-anchor="middle" x="33.73" y="-369.32" font-family="Times,serif" font-size="14.00">$8</text>
</g>
<!-- n3&#45;&gt;c27 -->
<g id="edge25" class="edge">
<title>n3:e&#45;&gt;c27:w</title>
<path fill="none" stroke="black" d="M67.46,-374C106.45,-374 70.31,-301.28 93.46,-285.94"/>
<polygon fill="black" stroke="black" points="94.07,-289.4 102.87,-283.5 92.31,-282.63 94.07,-289.4"/>
</g>
<!-- n3&#45;&gt;c29 -->
<g id="edge26" class="edge">
<title>n3:e&#45;&gt;c29:w</title>
<path fill="none" stroke="black" d="M67.46,-374C140.16,-374 39.15,-223.05 92.17,-205.95"/>
<polygon fill="black" stroke="black" points="92.54,-209.43 101.96,-204.58 91.57,-202.5 92.54,-209.43"/>
</g>
<!-- n3&#45;&gt;c30 -->
<g id="edge27" class="edge">
<title>n3:e&#45;&gt;c30:w</title>
<path fill="none" stroke="black" d="M67.46,-374C123.9,-374 54.44,-487.45 92.19,-504.3"/>
<polygon fill="black" stroke="black" points="91.5,-507.73 101.97,-506.1 92.77,-500.84 91.5,-507.73"/>
</g>
<!-- n3&#45;&gt;c31 -->
<g id="edge28" class="edge">
<title>n3:e&#45;&gt;c31:w</title>
<path fill="none" stroke="black" d="M67.46,-374C103.24,-374 75.71,-423.41 103.46,-446 154.54,-487.58 194.81,-443.44 246.71,-484 269.17,-501.55 255.12,-537.22 271.77,-546.9"/>
<polygon fill="black" stroke="black" points="270.71,-550.25 281.23,-549.04 272.25,-543.42 270.71,-550.25"/>
</g>
</g>
</svg>
