<?xml version="1.0" encoding="UTF-8" standalone="no"?>
<!-- Generated by graphviz version 12.1.1 (0)
 -->

<!-- Title: not_triplicate Pages: 1 -->

<svg
   width="899pt"
   height="653pt"
   viewBox="0.00 0.00 898.77 652.75"
   version="1.1"
   id="svg111"
   sodipodi:docname="triplicate_graph.svg"
   inkscape:version="1.3.2 (091e20ef0f, 2023-11-25, custom)"
   xmlns:inkscape="http://www.inkscape.org/namespaces/inkscape"
   xmlns:sodipodi="http://sodipodi.sourceforge.net/DTD/sodipodi-0.dtd"
   xmlns="http://www.w3.org/2000/svg"
   xmlns:svg="http://www.w3.org/2000/svg">
  <defs
     id="defs111" />
  <sodipodi:namedview
     id="namedview111"
     pagecolor="#ffffff"
     bordercolor="#666666"
     borderopacity="1.0"
     inkscape:showpageshadow="2"
     inkscape:pageopacity="0.0"
     inkscape:pagecheckerboard="0"
     inkscape:deskcolor="#d1d1d1"
     inkscape:document-units="pt"
     inkscape:zoom="0.4838383"
     inkscape:cx="697.5471"
     inkscape:cy="454.69737"
     inkscape:window-width="1920"
     inkscape:window-height="1010"
     inkscape:window-x="0"
     inkscape:window-y="0"
     inkscape:window-maximized="1"
     inkscape:current-layer="svg111" />
  <text
     text-anchor="middle"
     x="449.39001"
     y="640.79999"
     font-family="Times, serif"
     font-size="14px"
     id="text1">not_triplicate</text>
  <g
     id="node1"
     class="node"
     transform="translate(4,648.75)">
    <title
       id="title2">n17</title>
    <polygon
       fill="none"
       stroke="#000000"
       points="44.91,-100 22.55,-100 6.73,-89.46 6.73,-74.54 22.55,-64 44.91,-64 60.73,-74.54 60.73,-89.46 "
       id="polygon2" />
    <text
       text-anchor="middle"
       x="33.73"
       y="-77.330002"
       font-family="Times, serif"
       font-size="14px"
       id="text2">a</text>
  </g>
  <g
     id="node21"
     class="node"
     transform="translate(4,648.75)">
    <title
       id="title3">c43</title>
    <polygon
       fill="none"
       stroke="#000000"
       points="233.96,-134.25 233.96,-83.75 116.21,-83.75 116.21,-134.25 "
       id="polygon3" />
    <text
       text-anchor="middle"
       x="139.21001"
       y="-116.95"
       font-family="Times, serif"
       font-size="14px"
       id="text3">CLK</text>
    <polyline
       fill="none"
       stroke="#000000"
       points="116.21,-109 162.21,-109"
       id="polyline3" />
    <text
       text-anchor="middle"
       x="139.21001"
       y="-91.699997"
       font-family="Times, serif"
       font-size="14px"
       id="text4">D</text>
    <polyline
       fill="none"
       stroke="#000000"
       points="162.21,-83.75 162.21,-134.25"
       id="polyline4" />
    <text
       text-anchor="middle"
       x="184.46001"
       y="-112.95"
       font-family="Times, serif"
       font-size="14px"
       id="text5">$3</text>
    <text
       text-anchor="middle"
       x="184.46001"
       y="-95.699997"
       font-family="Times, serif"
       font-size="14px"
       id="text6">$dff</text>
    <polyline
       fill="none"
       stroke="#000000"
       points="206.71,-83.75 206.71,-134.25"
       id="polyline6" />
    <text
       text-anchor="middle"
       x="220.33"
       y="-104.45"
       font-family="Times, serif"
       font-size="14px"
       id="text7">Q</text>
  </g>
  <g
     id="edge12"
     class="edge"
     transform="translate(4,648.75)">
    <title
       id="title7">n17:e-&gt;c43:w</title>
    <path
       fill="none"
       stroke="#000000"
       d="m 61.98,-82 c 20.29,0 26.68,-9.86 42.19,-13.25"
       id="path7" />
    <polygon
       fill="#000000"
       stroke="#000000"
       points="104.11,-91.72 103.4,-98.69 113.7,-96.22 "
       id="polygon7" />
  </g>
  <g
     id="node2"
     class="node"
     transform="translate(4,648.75)">
    <title
       id="title8">n18</title>
    <polygon
       fill="none"
       stroke="#000000"
       points="45.13,-154 22.33,-154 6.21,-143.46 6.21,-128.54 22.33,-118 45.13,-118 61.25,-128.54 61.25,-143.46 "
       id="polygon8" />
    <text
       text-anchor="middle"
       x="33.73"
       y="-131.32001"
       font-family="Times, serif"
       font-size="14px"
       id="text8">clk</text>
  </g>
  <g
     id="edge13"
     class="edge"
     transform="translate(4,648.75)">
    <title
       id="title9">n18:e-&gt;c43:w</title>
    <path
       fill="none"
       stroke="#000000"
       d="m 62.51,-136 c 19.92,0 26.28,9.67 41.33,13.15"
       id="path9" />
    <polygon
       fill="#000000"
       stroke="#000000"
       points="103.39,-119.38 104.14,-126.34 113.7,-121.79 "
       id="polygon9" />
  </g>
  <g
     id="node3"
     class="node"
     transform="translate(4,648.75)">
    <title
       id="title10">n19</title>
    <polygon
       fill="none"
       stroke="#000000"
       points="354.33,-91 381.33,-109 354.33,-127 327.33,-109 "
       id="polygon10" />
    <text
       text-anchor="middle"
       x="354.32999"
       y="-104.33"
       font-family="Times, serif"
       font-size="14px"
       id="text10">ff</text>
  </g>
  <g
     id="node5"
     class="node"
     transform="translate(4,648.75)">
    <title
       id="title11">c23</title>
    <polygon
       fill="none"
       stroke="#000000"
       points="601.46,-192.25 601.46,-149.75 461.96,-149.75 461.96,-192.25 "
       id="polygon11" />
    <text
       text-anchor="middle"
       x="474.82999"
       y="-166.45"
       font-family="Times, serif"
       font-size="14px"
       id="text11">A</text>
    <polyline
       fill="none"
       stroke="#000000"
       points="487.71,-149.75 487.71,-192.25"
       id="polyline11" />
    <text
       text-anchor="middle"
       x="532.08002"
       y="-174.95"
       font-family="Times, serif"
       font-size="14px"
       id="text12">$4</text>
    <text
       text-anchor="middle"
       x="532.08002"
       y="-157.7"
       font-family="Times, serif"
       font-size="14px"
       id="text13">$logic_not</text>
    <polyline
       fill="none"
       stroke="#000000"
       points="576.46,-149.75 576.46,-192.25"
       id="polyline13" />
    <text
       text-anchor="middle"
       x="588.96002"
       y="-166.45"
       font-family="Times, serif"
       font-size="14px"
       id="text14">Y</text>
  </g>
  <g
     id="edge15"
     class="edge"
     transform="translate(4,648.75)">
    <title
       id="title14">n19:e-&gt;c23:w</title>
    <path
       fill="none"
       stroke="#000000"
       d="m 383.15,-109 c 40.42,0 35.67,-51.02 67.62,-60.59"
       id="path14" />
    <polygon
       fill="#000000"
       stroke="#000000"
       points="451.03,-166.09 450.08,-173.03 460.46,-170.92 "
       id="polygon14" />
  </g>
  <g
     id="node6"
     class="node"
     transform="translate(4,648.75)">
    <title
       id="title15">c24</title>
    <polygon
       fill="none"
       stroke="#000000"
       points="601.46,-130.25 601.46,-87.75 461.96,-87.75 461.96,-130.25 "
       id="polygon15" />
    <text
       text-anchor="middle"
       x="474.82999"
       y="-104.45"
       font-family="Times, serif"
       font-size="14px"
       id="text15">A</text>
    <polyline
       fill="none"
       stroke="#000000"
       points="487.71,-87.75 487.71,-130.25"
       id="polyline15" />
    <text
       text-anchor="middle"
       x="532.08002"
       y="-112.95"
       font-family="Times, serif"
       font-size="14px"
       id="text16">$5</text>
    <text
       text-anchor="middle"
       x="532.08002"
       y="-95.699997"
       font-family="Times, serif"
       font-size="14px"
       id="text17">$logic_not</text>
    <polyline
       fill="none"
       stroke="#000000"
       points="576.46,-87.75 576.46,-130.25"
       id="polyline17" />
    <text
       text-anchor="middle"
       x="588.96002"
       y="-104.45"
       font-family="Times, serif"
       font-size="14px"
       id="text18">Y</text>
  </g>
  <g
     id="edge16"
     class="edge"
     transform="translate(4,648.75)">
    <title
       id="title18">n19:e-&gt;c24:w</title>
    <path
       fill="none"
       stroke="#000000"
       d="m 383.15,-109 c 30.92,0 41.37,-0.1 67.49,-0.12"
       id="path18" />
    <polygon
       fill="#000000"
       stroke="#000000"
       points="450.45,-105.62 450.44,-112.62 460.45,-109.12 "
       id="polygon18" />
  </g>
  <g
     id="node20"
     class="node"
     transform="translate(4,648.75)">
    <title
       id="title19">c39</title>
    <polygon
       fill="none"
       stroke="#000000"
       points="601.46,-68.25 601.46,-25.75 461.96,-25.75 461.96,-68.25 "
       id="polygon19" />
    <text
       text-anchor="middle"
       x="474.82999"
       y="-42.450001"
       font-family="Times, serif"
       font-size="14px"
       id="text19">A</text>
    <polyline
       fill="none"
       stroke="#000000"
       points="487.71,-25.75 487.71,-68.25"
       id="polyline19" />
    <text
       text-anchor="middle"
       x="532.08002"
       y="-50.950001"
       font-family="Times, serif"
       font-size="14px"
       id="text20">$2</text>
    <text
       text-anchor="middle"
       x="532.08002"
       y="-33.700001"
       font-family="Times, serif"
       font-size="14px"
       id="text21">$logic_not</text>
    <polyline
       fill="none"
       stroke="#000000"
       points="576.46,-25.75 576.46,-68.25"
       id="polyline21" />
    <text
       text-anchor="middle"
       x="588.96002"
       y="-42.450001"
       font-family="Times, serif"
       font-size="14px"
       id="text22">Y</text>
  </g>
  <g
     id="edge17"
     class="edge"
     transform="translate(4,648.75)">
    <title
       id="title22">n19:e-&gt;c39:w</title>
    <path
       fill="none"
       stroke="#000000"
       d="m 383.15,-109 c 40.35,0 35.72,50.82 67.64,60.35"
       id="path22" />
    <polygon
       fill="#000000"
       stroke="#000000"
       points="450.08,-45.22 451.03,-52.15 460.46,-47.33 "
       id="polygon22" />
  </g>
  <g
     id="node4"
     class="node"
     transform="translate(4,648.75)">
    <title
       id="title23">n20</title>
    <polygon
       fill="none"
       stroke="#000000"
       points="714.64,-127 692.28,-127 676.46,-116.46 676.46,-101.54 692.28,-91 714.64,-91 730.46,-101.54 730.46,-116.46 "
       id="polygon23" />
    <text
       text-anchor="middle"
       x="703.46002"
       y="-104.33"
       font-family="Times, serif"
       font-size="14px"
       id="text23">o</text>
  </g>
  <g
     id="edge22"
     class="edge"
     transform="translate(4,648.75)">
    <title
       id="title24">c23:e-&gt;n20:w</title>
    <path
       fill="none"
       stroke="#000000"
       d="m 601.46,-171.12 c 38.67,0 32.7,50.58 62.66,60.46"
       id="path24" />
    <polygon
       fill="#000000"
       stroke="#000000"
       points="663.3,-107.24 664.34,-114.17 673.71,-109.22 "
       id="polygon24" />
  </g>
  <g
     id="edge23"
     class="edge"
     transform="translate(4,648.75)">
    <title
       id="title25">c24:e-&gt;n20:w</title>
    <path
       fill="none"
       stroke="#000000"
       d="m 601.46,-109.12 c 28.68,0 38.54,0.09 62.51,0.11"
       id="path25" />
    <polygon
       fill="#000000"
       stroke="#000000"
       points="663.69,-105.51 663.69,-112.51 673.69,-109 "
       id="polygon25" />
  </g>
  <polygon
     fill="none"
     stroke="#000000"
     points="105.33,-601.75 105.33,-644.25 244.83,-644.25 244.83,-601.75 "
     id="polygon26"
     transform="translate(4,648.75)"
     style="fill:#aaccff" />
  <text
     text-anchor="middle"
     x="122.21"
     y="30.299988"
     font-family="Times, serif"
     font-size="14px"
     id="text26">A</text>
  <polyline
     fill="none"
     stroke="#000000"
     points="131.08,-601.75 131.08,-644.25"
     id="polyline26"
     transform="translate(4,648.75)" />
  <text
     text-anchor="middle"
     x="179.46001"
     y="21.799988"
     font-family="Times, serif"
     font-size="14px"
     id="text27">$12</text>
  <text
     text-anchor="middle"
     x="179.46001"
     y="39.049988"
     font-family="Times, serif"
     font-size="14px"
     id="text28">$logic_not</text>
  <polyline
     fill="none"
     stroke="#000000"
     points="219.83,-601.75 219.83,-644.25"
     id="polyline28"
     transform="translate(4,648.75)" />
  <text
     text-anchor="middle"
     x="236.33"
     y="30.299988"
     font-family="Times, serif"
     font-size="14px"
     id="text29">Y</text>
  <polygon
     fill="none"
     stroke="#000000"
     points="282.71,-536.75 282.71,-587.25 425.96,-587.25 425.96,-536.75 "
     id="polygon29"
     transform="translate(4,648.75)"
     style="fill:#aaccff" />
  <text
     text-anchor="middle"
     x="299.95999"
     y="78.799988"
     font-family="Times, serif"
     font-size="14px"
     id="text30">A</text>
  <polyline
     fill="none"
     stroke="#000000"
     points="282.71,-562 309.21,-562"
     id="polyline30"
     transform="translate(4,648.75)" />
  <text
     text-anchor="middle"
     x="299.95999"
     y="104.04999"
     font-family="Times, serif"
     font-size="14px"
     id="text31">B</text>
  <polyline
     fill="none"
     stroke="#000000"
     points="309.21,-536.75 309.21,-587.25"
     id="polyline31"
     transform="translate(4,648.75)" />
  <text
     text-anchor="middle"
     x="359.07999"
     y="82.799988"
     font-family="Times, serif"
     font-size="14px"
     id="text32">$22</text>
  <text
     text-anchor="middle"
     x="359.07999"
     y="100.04999"
     font-family="Times, serif"
     font-size="14px"
     id="text33">$logic_and</text>
  <polyline
     fill="none"
     stroke="#000000"
     points="400.96,-536.75 400.96,-587.25"
     id="polyline33"
     transform="translate(4,648.75)" />
  <text
     text-anchor="middle"
     x="417.45999"
     y="91.299988"
     font-family="Times, serif"
     font-size="14px"
     id="text34">Y</text>
  <path
     fill="none"
     stroke="#000000"
     d="m 249.83,25.63 c 22.43,0 14.43,33.26 26.4,44.69"
     id="path34" />
  <polygon
     fill="#000000"
     stroke="#000000"
     points="281.29,-575.14 270.69,-575.26 273.08,-581.84 "
     id="polygon34"
     transform="translate(4,648.75)" />
  <polygon
     fill="none"
     stroke="#000000"
     points="105.33,-323.75 105.33,-366.25 244.83,-366.25 244.83,-323.75 "
     id="polygon35"
     transform="translate(4,648.75)"
     style="fill:#aaccff" />
  <text
     text-anchor="middle"
     x="122.21"
     y="308.29999"
     font-family="Times, serif"
     font-size="14px"
     id="text35">A</text>
  <polyline
     fill="none"
     stroke="#000000"
     points="131.08,-323.75 131.08,-366.25"
     id="polyline35"
     transform="translate(4,648.75)" />
  <text
     text-anchor="middle"
     x="179.46001"
     y="299.79999"
     font-family="Times, serif"
     font-size="14px"
     id="text36">$14</text>
  <text
     text-anchor="middle"
     x="179.46001"
     y="317.04999"
     font-family="Times, serif"
     font-size="14px"
     id="text37">$logic_not</text>
  <polyline
     fill="none"
     stroke="#000000"
     points="219.83,-323.75 219.83,-366.25"
     id="polyline37"
     transform="translate(4,648.75)" />
  <text
     text-anchor="middle"
     x="236.33"
     y="308.29999"
     font-family="Times, serif"
     font-size="14px"
     id="text38">Y</text>
  <polygon
     fill="none"
     stroke="#000000"
     points="282.71,-466.75 282.71,-517.25 425.96,-517.25 425.96,-466.75 "
     id="polygon38"
     transform="translate(4,648.75)"
     style="fill:#aaccff" />
  <text
     text-anchor="middle"
     x="299.95999"
     y="148.79999"
     font-family="Times, serif"
     font-size="14px"
     id="text39">A</text>
  <polyline
     fill="none"
     stroke="#000000"
     points="282.71,-492 309.21,-492"
     id="polyline39"
     transform="translate(4,648.75)" />
  <text
     text-anchor="middle"
     x="299.95999"
     y="174.04999"
     font-family="Times, serif"
     font-size="14px"
     id="text40">B</text>
  <polyline
     fill="none"
     stroke="#000000"
     points="309.21,-466.75 309.21,-517.25"
     id="polyline40"
     transform="translate(4,648.75)" />
  <text
     text-anchor="middle"
     x="359.07999"
     y="152.79999"
     font-family="Times, serif"
     font-size="14px"
     id="text41">$24</text>
  <text
     text-anchor="middle"
     x="359.07999"
     y="170.04999"
     font-family="Times, serif"
     font-size="14px"
     id="text42">$logic_and</text>
  <polyline
     fill="none"
     stroke="#000000"
     points="400.96,-466.75 400.96,-517.25"
     id="polyline42"
     transform="translate(4,648.75)" />
  <text
     text-anchor="middle"
     x="417.45999"
     y="161.29999"
     font-family="Times, serif"
     font-size="14px"
     id="text43">Y</text>
  <path
     fill="none"
     stroke="#000000"
     d="m 249.83,303.63 c 68.36,0 -23.39,-140.78 25.58,-157.82"
     id="path43" />
  <polygon
     fill="#000000"
     stroke="#000000"
     points="281.21,-504.4 271.84,-499.47 270.81,-506.39 "
     id="polygon43"
     transform="translate(4,648.75)" />
  <polygon
     fill="none"
     stroke="#000000"
     points="105.33,-261.75 105.33,-304.25 244.83,-304.25 244.83,-261.75 "
     id="polygon44"
     transform="translate(4,648.75)"
     style="fill:#aaccff" />
  <text
     text-anchor="middle"
     x="122.21"
     y="370.29999"
     font-family="Times, serif"
     font-size="14px"
     id="text44">A</text>
  <polyline
     fill="none"
     stroke="#000000"
     points="131.08,-261.75 131.08,-304.25"
     id="polyline44"
     transform="translate(4,648.75)" />
  <text
     text-anchor="middle"
     x="179.46001"
     y="361.79999"
     font-family="Times, serif"
     font-size="14px"
     id="text45">$16</text>
  <text
     text-anchor="middle"
     x="179.46001"
     y="379.04999"
     font-family="Times, serif"
     font-size="14px"
     id="text46">$logic_not</text>
  <polyline
     fill="none"
     stroke="#000000"
     points="219.83,-261.75 219.83,-304.25"
     id="polyline46"
     transform="translate(4,648.75)" />
  <text
     text-anchor="middle"
     x="236.33"
     y="370.29999"
     font-family="Times, serif"
     font-size="14px"
     id="text47">Y</text>
  <polygon
     fill="none"
     stroke="#000000"
     points="282.71,-245.75 282.71,-296.25 425.96,-296.25 425.96,-245.75 "
     id="polygon47"
     transform="translate(4,648.75)"
     style="fill:#aaccff" />
  <text
     text-anchor="middle"
     x="299.95999"
     y="369.79999"
     font-family="Times, serif"
     font-size="14px"
     id="text48">A</text>
  <polyline
     fill="none"
     stroke="#000000"
     points="282.71,-271 309.21,-271"
     id="polyline48"
     transform="translate(4,648.75)" />
  <text
     text-anchor="middle"
     x="299.95999"
     y="395.04999"
     font-family="Times, serif"
     font-size="14px"
     id="text49">B</text>
  <polyline
     fill="none"
     stroke="#000000"
     points="309.21,-245.75 309.21,-296.25"
     id="polyline49"
     transform="translate(4,648.75)" />
  <text
     text-anchor="middle"
     x="359.07999"
     y="373.79999"
     font-family="Times, serif"
     font-size="14px"
     id="text50">$28</text>
  <text
     text-anchor="middle"
     x="359.07999"
     y="391.04999"
     font-family="Times, serif"
     font-size="14px"
     id="text51">$logic_and</text>
  <polyline
     fill="none"
     stroke="#000000"
     points="400.96,-245.75 400.96,-296.25"
     id="polyline51"
     transform="translate(4,648.75)"
     style="fill:#aaccff" />
  <text
     text-anchor="middle"
     x="417.45999"
     y="382.29999"
     font-family="Times, serif"
     font-size="14px"
     id="text52">Y</text>
  <path
     fill="none"
     stroke="#000000"
     d="m 249.83,365.63 c 11.78,0 17.21,-0.26 25.42,-0.41"
     id="path52" />
  <polygon
     fill="#000000"
     stroke="#000000"
     points="281.2,-283.61 271.23,-280.03 271.17,-287.03 "
     id="polygon52"
     transform="translate(4,648.75)" />
  <polygon
     fill="none"
     stroke="#000000"
     points="103.46,-191.75 103.46,-242.25 246.71,-242.25 246.71,-191.75 "
     id="polygon53"
     transform="translate(4,648.75)"
     style="fill:#aaccff" />
  <text
     text-anchor="middle"
     x="120.71"
     y="423.79999"
     font-family="Times, serif"
     font-size="14px"
     id="text53">A</text>
  <polyline
     fill="none"
     stroke="#000000"
     points="103.46,-217 129.96,-217"
     id="polyline53"
     transform="translate(4,648.75)" />
  <text
     text-anchor="middle"
     x="120.71"
     y="449.04999"
     font-family="Times, serif"
     font-size="14px"
     id="text54">B</text>
  <polyline
     fill="none"
     stroke="#000000"
     points="129.96,-191.75 129.96,-242.25"
     id="polyline54"
     transform="translate(4,648.75)" />
  <text
     text-anchor="middle"
     x="179.83"
     y="427.79999"
     font-family="Times, serif"
     font-size="14px"
     id="text55">$18</text>
  <text
     text-anchor="middle"
     x="179.83"
     y="445.04999"
     font-family="Times, serif"
     font-size="14px"
     id="text56">$logic_and</text>
  <polyline
     fill="none"
     stroke="#000000"
     points="221.71,-191.75 221.71,-242.25"
     id="polyline56"
     transform="translate(4,648.75)" />
  <text
     text-anchor="middle"
     x="238.21001"
     y="436.29999"
     font-family="Times, serif"
     font-size="14px"
     id="text57">Y</text>
  <polygon
     fill="none"
     stroke="#000000"
     points="288.33,-396.75 288.33,-447.25 420.33,-447.25 420.33,-396.75 "
     id="polygon57"
     transform="translate(4,648.75)"
     style="fill:#aaccff" />
  <text
     text-anchor="middle"
     x="305.57999"
     y="218.79999"
     font-family="Times, serif"
     font-size="14px"
     id="text58">A</text>
  <polyline
     fill="none"
     stroke="#000000"
     points="288.33,-422 314.83,-422"
     id="polyline58"
     transform="translate(4,648.75)" />
  <text
     text-anchor="middle"
     x="305.57999"
     y="244.04999"
     font-family="Times, serif"
     font-size="14px"
     id="text59">B</text>
  <polyline
     fill="none"
     stroke="#000000"
     points="314.83,-396.75 314.83,-447.25"
     id="polyline59"
     transform="translate(4,648.75)" />
  <text
     text-anchor="middle"
     x="359.07999"
     y="222.79999"
     font-family="Times, serif"
     font-size="14px"
     id="text60">$30</text>
  <text
     text-anchor="middle"
     x="359.07999"
     y="240.04999"
     font-family="Times, serif"
     font-size="14px"
     id="text61">$logic_or</text>
  <polyline
     fill="none"
     stroke="#000000"
     points="395.33,-396.75 395.33,-447.25"
     id="polyline61"
     transform="translate(4,648.75)"
     style="fill:#aaccff" />
  <text
     text-anchor="middle"
     x="411.82999"
     y="231.29999"
     font-family="Times, serif"
     font-size="14px"
     id="text62">Y</text>
  <path
     fill="none"
     stroke="#000000"
     d="m 250.71,431.63 c 94.11,0 -44.77,-199.22 29.32,-216.33"
     id="path62" />
  <polygon
     fill="#000000"
     stroke="#000000"
     points="285.83,-434.47 276.24,-429.96 275.52,-436.92 "
     id="polygon62"
     transform="translate(4,648.75)" />
  <polygon
     fill="none"
     stroke="#000000"
     points="103.46,-493.75 103.46,-544.25 246.71,-544.25 246.71,-493.75 "
     id="polygon63"
     transform="translate(4,648.75)"
     style="fill:#aaccff" />
  <text
     text-anchor="middle"
     x="120.71"
     y="121.79999"
     font-family="Times, serif"
     font-size="14px"
     id="text63">A</text>
  <polyline
     fill="none"
     stroke="#000000"
     points="103.46,-519 129.96,-519"
     id="polyline63"
     transform="translate(4,648.75)" />
  <text
     text-anchor="middle"
     x="120.71"
     y="147.04999"
     font-family="Times, serif"
     font-size="14px"
     id="text64">B</text>
  <polyline
     fill="none"
     stroke="#000000"
     points="129.96,-493.75 129.96,-544.25"
     id="polyline64"
     transform="translate(4,648.75)" />
  <text
     text-anchor="middle"
     x="179.83"
     y="125.79999"
     font-family="Times, serif"
     font-size="14px"
     id="text65">$20</text>
  <text
     text-anchor="middle"
     x="179.83"
     y="143.04999"
     font-family="Times, serif"
     font-size="14px"
     id="text66">$logic_and</text>
  <polyline
     fill="none"
     stroke="#000000"
     points="221.71,-493.75 221.71,-544.25"
     id="polyline66"
     transform="translate(4,648.75)" />
  <text
     text-anchor="middle"
     x="238.21001"
     y="134.29999"
     font-family="Times, serif"
     font-size="14px"
     id="text67">Y</text>
  <path
     fill="none"
     stroke="#000000"
     d="m 250.71,129.63 c 47.54,0 -1.34,91.69 29.63,107.45"
     id="path67" />
  <polygon
     fill="#000000"
     stroke="#000000"
     points="285.85,-409.68 275.35,-408.3 276.78,-415.15 "
     id="polygon67"
     transform="translate(4,648.75)" />
  <polygon
     fill="none"
     stroke="#000000"
     points="465.71,-478.75 465.71,-529.25 597.71,-529.25 597.71,-478.75 "
     id="polygon68"
     transform="translate(4,648.75)"
     style="fill:#aaccff" />
  <text
     text-anchor="middle"
     x="482.95999"
     y="136.79999"
     font-family="Times, serif"
     font-size="14px"
     id="text68">A</text>
  <polyline
     fill="none"
     stroke="#000000"
     points="465.71,-504 492.21,-504"
     id="polyline68"
     transform="translate(4,648.75)" />
  <text
     text-anchor="middle"
     x="482.95999"
     y="162.04999"
     font-family="Times, serif"
     font-size="14px"
     id="text69">B</text>
  <polyline
     fill="none"
     stroke="#000000"
     points="492.21,-478.75 492.21,-529.25"
     id="polyline69"
     transform="translate(4,648.75)" />
  <text
     text-anchor="middle"
     x="536.46002"
     y="140.79999"
     font-family="Times, serif"
     font-size="14px"
     id="text70">$32</text>
  <text
     text-anchor="middle"
     x="536.46002"
     y="158.04999"
     font-family="Times, serif"
     font-size="14px"
     id="text71">$logic_or</text>
  <polyline
     fill="none"
     stroke="#000000"
     points="572.71,-478.75 572.71,-529.25"
     id="polyline71"
     transform="translate(4,648.75)" />
  <text
     text-anchor="middle"
     x="589.21002"
     y="149.29999"
     font-family="Times, serif"
     font-size="14px"
     id="text72">Y</text>
  <path
     fill="none"
     stroke="#000000"
     d="m 429.96,86.63 c 21.79,0 16.03,30.61 27.92,41.62"
     id="path72" />
  <polygon
     fill="#000000"
     stroke="#000000"
     points="463.28,-517.14 452.69,-517.21 455.05,-523.8 "
     id="polygon72"
     transform="translate(4,648.75)" />
  <path
     fill="none"
     stroke="#000000"
     d="m 429.96,156.63 c 12.65,0 18.33,0.4 27.27,0.61"
     id="path73" />
  <polygon
     fill="#000000"
     stroke="#000000"
     points="463.2,-491.39 453.16,-488.01 453.24,-495.01 "
     id="polygon73"
     transform="translate(4,648.75)" />
  <polygon
     fill="none"
     stroke="#000000"
     points="103.46,-385.75 103.46,-436.25 246.71,-436.25 246.71,-385.75 "
     id="polygon74"
     transform="translate(4,648.75)"
     style="fill:#aaccff" />
  <text
     text-anchor="middle"
     x="120.71"
     y="229.79999"
     font-family="Times, serif"
     font-size="14px"
     id="text74">A</text>
  <polyline
     fill="none"
     stroke="#000000"
     points="103.46,-411 129.96,-411"
     id="polyline74"
     transform="translate(4,648.75)" />
  <text
     text-anchor="middle"
     x="120.71"
     y="255.04999"
     font-family="Times, serif"
     font-size="14px"
     id="text75">B</text>
  <polyline
     fill="none"
     stroke="#000000"
     points="129.96,-385.75 129.96,-436.25"
     id="polyline75"
     transform="translate(4,648.75)" />
  <text
     text-anchor="middle"
     x="179.83"
     y="233.79999"
     font-family="Times, serif"
     font-size="14px"
     id="text76">$26</text>
  <text
     text-anchor="middle"
     x="179.83"
     y="251.04999"
     font-family="Times, serif"
     font-size="14px"
     id="text77">$logic_and</text>
  <polyline
     fill="none"
     stroke="#000000"
     points="221.71,-385.75 221.71,-436.25"
     id="polyline77"
     transform="translate(4,648.75)" />
  <text
     text-anchor="middle"
     x="238.21001"
     y="242.29999"
     font-family="Times, serif"
     font-size="14px"
     id="text78">Y</text>
  <polygon
     fill="none"
     stroke="#000000"
     points="465.71,-369.75 465.71,-420.25 597.71,-420.25 597.71,-369.75 "
     id="polygon78"
     transform="translate(4,648.75)"
     style="fill:#aaccff" />
  <text
     text-anchor="middle"
     x="482.95999"
     y="245.79999"
     font-family="Times, serif"
     font-size="14px"
     id="text79">A</text>
  <polyline
     fill="none"
     stroke="#000000"
     points="465.71,-395 492.21,-395"
     id="polyline79"
     transform="translate(4,648.75)" />
  <text
     text-anchor="middle"
     x="482.95999"
     y="271.04999"
     font-family="Times, serif"
     font-size="14px"
     id="text80">B</text>
  <polyline
     fill="none"
     stroke="#000000"
     points="492.21,-369.75 492.21,-420.25"
     id="polyline80"
     transform="translate(4,648.75)" />
  <text
     text-anchor="middle"
     x="536.46002"
     y="249.79999"
     font-family="Times, serif"
     font-size="14px"
     id="text81">$33</text>
  <text
     text-anchor="middle"
     x="536.46002"
     y="267.04999"
     font-family="Times, serif"
     font-size="14px"
     id="text82">$logic_or</text>
  <polyline
     fill="none"
     stroke="#000000"
     points="572.71,-369.75 572.71,-420.25"
     id="polyline82"
     transform="translate(4,648.75)" />
  <text
     text-anchor="middle"
     x="589.21002"
     y="258.29999"
     font-family="Times, serif"
     font-size="14px"
     id="text83">Y</text>
  <g
     id="edge8"
     class="edge"
     transform="translate(4,648.75)">
    <title
       id="title83">c33:e-&gt;c37:w</title>
    <path
       fill="none"
       stroke="#000000"
       d="m 246.71,-411.12 c 19.26,0 17.64,18.28 36,24.12 73.34,23.32 98.62,6.46 170.54,4.76"
       id="path83" />
    <polygon
       fill="#000000"
       stroke="#000000"
       points="453.24,-378.74 453.15,-385.74 463.2,-382.36 "
       id="polygon83" />
  </g>
  <polygon
     fill="none"
     stroke="#000000"
     points="637.46,-441.75 637.46,-492.25 769.46,-492.25 769.46,-441.75 "
     id="polygon84"
     transform="translate(4,648.75)"
     style="fill:#aaccff" />
  <text
     text-anchor="middle"
     x="654.71002"
     y="173.79999"
     font-family="Times, serif"
     font-size="14px"
     id="text84">A</text>
  <polyline
     fill="none"
     stroke="#000000"
     points="637.46,-467 663.96,-467"
     id="polyline84"
     transform="translate(4,648.75)" />
  <text
     text-anchor="middle"
     x="654.71002"
     y="199.04999"
     font-family="Times, serif"
     font-size="14px"
     id="text85">B</text>
  <polyline
     fill="none"
     stroke="#000000"
     points="663.96,-441.75 663.96,-492.25"
     id="polyline85"
     transform="translate(4,648.75)" />
  <text
     text-anchor="middle"
     x="708.21002"
     y="177.79999"
     font-family="Times, serif"
     font-size="14px"
     id="text86">$34</text>
  <text
     text-anchor="middle"
     x="708.21002"
     y="195.04999"
     font-family="Times, serif"
     font-size="14px"
     id="text87">$logic_or</text>
  <polyline
     fill="none"
     stroke="#000000"
     points="744.46,-441.75 744.46,-492.25"
     id="polyline87"
     transform="translate(4,648.75)" />
  <text
     text-anchor="middle"
     x="760.96002"
     y="186.29999"
     font-family="Times, serif"
     font-size="14px"
     id="text88">Y</text>
  <g
     id="edge9"
     class="edge"
     transform="translate(4,648.75)">
    <title
       id="title88">c34:e-&gt;c38:w</title>
    <path
       fill="none"
       stroke="#000000"
       d="m 425.96,-271.12 c 87.43,0 116.98,-23.92 175.5,-88.88 26.99,-29.97 -1.7,-82.27 24.75,-92.58"
       id="path88" />
    <polygon
       fill="#000000"
       stroke="#000000"
       points="626.64,-449.1 625.54,-456.02 635.96,-454.14 "
       id="polygon88" />
  </g>
  <path
     fill="none"
     stroke="#000000"
     d="m 425.33,226.63 c 15.88,0 21.02,8.85 32.2,12.72"
     id="path89" />
  <polygon
     fill="#000000"
     stroke="#000000"
     points="463.21,-407.86 452.79,-405.98 453.89,-412.89 "
     id="polygon89"
     transform="translate(4,648.75)" />
  <path
     fill="none"
     stroke="#000000"
     d="m 602.71,144.63 c 15.76,0 18.13,14.65 27.83,21.29"
     id="path90" />
  <polygon
     fill="#000000"
     stroke="#000000"
     points="636.01,-480.05 625.43,-479.51 627.4,-486.22 "
     id="polygon90"
     transform="translate(4,648.75)" />
  <polygon
     fill="none"
     stroke="#000000"
     points="703.46,-413 669.73,-395 703.46,-377 737.19,-395 "
     id="polygon91"
     transform="translate(4,648.75)"
     style="fill:#aaccff" />
  <text
     text-anchor="middle"
     x="707.46002"
     y="258.42999"
     font-family="Times, serif"
     font-size="14px"
     id="text91">$9</text>
  <path
     fill="none"
     stroke="#000000"
     d="m 602.71,253.63 c 26.47,0 35.81,0.09 57.6,0.11"
     id="path92" />
  <polygon
     fill="#000000"
     stroke="#000000"
     points="666.2,-395 656.2,-391.51 656.2,-398.51 "
     id="polygon92"
     transform="translate(4,648.75)" />
  <polygon
     fill="none"
     stroke="#000000"
     points="848.12,-485 805.46,-467 848.12,-449 890.77,-467 "
     id="polygon93"
     transform="translate(4,648.75)"
     style="fill:#aaccff" />
  <text
     text-anchor="middle"
     x="852.12"
     y="186.42999"
     font-family="Times, serif"
     font-size="14px"
     id="text93">$10</text>
  <path
     fill="none"
     stroke="#000000"
     d="m 773.46,181.63 c 11.37,0 16.68,0.06 24.55,0.09"
     id="path94" />
  <polygon
     fill="#000000"
     stroke="#000000"
     points="803.95,-467 793.94,-463.53 793.95,-470.53 "
     id="polygon94"
     transform="translate(4,648.75)" />
  <g
     id="edge24"
     class="edge"
     transform="translate(4,648.75)">
    <title
       id="title95">c39:e-&gt;n20:w</title>
    <path
       fill="none"
       stroke="#000000"
       d="m 601.46,-47.12 c 38.61,0 32.75,-50.39 62.67,-60.22"
       id="path95" />
    <polygon
       fill="#000000"
       stroke="#000000"
       points="664.34,-103.84 663.3,-110.76 673.71,-108.78 "
       id="polygon95" />
  </g>
  <g
     id="edge14"
     class="edge"
     transform="translate(4,648.75)">
    <title
       id="title96">c43:e-&gt;n19:w</title>
    <path
       fill="none"
       stroke="#000000"
       d="m 234.96,-109.12 c 36.16,0 47.96,0.1 79.17,0.12"
       id="path96" />
    <polygon
       fill="#000000"
       stroke="#000000"
       points="314.01,-105.5 314.01,-112.5 324.01,-109 "
       id="polygon96" />
  </g>
  <polygon
     fill="none"
     stroke="#000000"
     points="33.73,-570 0,-552 33.73,-534 67.46,-552 "
     id="polygon97"
     transform="translate(4,648.75)"
     style="fill:#aaccff" />
  <text
     text-anchor="middle"
     x="37.73"
     y="101.41998"
     font-family="Times, serif"
     font-size="14px"
     id="text97">$6</text>
  <path
     fill="none"
     stroke="#000000"
     d="m 71.46,96.75 c 30.88,0 9.15,-53.49 26.06,-67.69"
     id="path98" />
  <polygon
     fill="#000000"
     stroke="#000000"
     points="102.89,-622.67 94.42,-616.31 92.3,-622.98 "
     id="polygon98"
     transform="translate(4,648.75)" />
  <path
     fill="none"
     stroke="#000000"
     d="m 71.46,96.75 c 13.79,0 16.8,11.46 25.2,17.19"
     id="path99" />
  <polygon
     fill="#000000"
     stroke="#000000"
     points="102.01,-532.05 91.43,-531.52 93.41,-538.24 "
     id="polygon99"
     transform="translate(4,648.75)" />
  <path
     fill="none"
     stroke="#000000"
     d="m 71.46,96.75 c 79.67,0 111.77,-44.36 179.25,-2 27.29,17.13 6.19,61.42 25.16,72.22"
     id="path100" />
  <polygon
     fill="#000000"
     stroke="#000000"
     points="281.23,-479.7 270.71,-478.45 272.23,-485.28 "
     id="polygon100"
     transform="translate(4,648.75)" />
  <path
     fill="none"
     stroke="#000000"
     d="m 71.46,96.75 c 54.86,0 -11.79,110.03 25.03,126.36"
     id="path101" />
  <polygon
     fill="#000000"
     stroke="#000000"
     points="101.97,-423.9 91.5,-422.26 92.77,-429.15 "
     id="polygon101"
     transform="translate(4,648.75)" />
  <polygon
     fill="none"
     stroke="#000000"
     points="33.73,-292 0,-274 33.73,-256 67.46,-274 "
     id="polygon102"
     transform="translate(4,648.75)"
     style="fill:#aaccff" />
  <text
     text-anchor="middle"
     x="37.73"
     y="379.42999"
     font-family="Times, serif"
     font-size="14px"
     id="text102">$7</text>
  <path
     fill="none"
     stroke="#000000"
     d="m 71.46,374.75 c 30.88,0 9.15,-53.49 26.06,-67.69"
     id="path103" />
  <polygon
     fill="#000000"
     stroke="#000000"
     points="102.89,-344.67 94.42,-338.31 92.3,-344.98 "
     id="polygon103"
     transform="translate(4,648.75)" />
  <path
     fill="none"
     stroke="#000000"
     d="m 71.46,374.75 c 20.63,0 14.74,29.29 25.42,40.28"
     id="path104" />
  <polygon
     fill="#000000"
     stroke="#000000"
     points="102.05,-230.17 91.46,-230.52 93.99,-237.05 "
     id="polygon104"
     transform="translate(4,648.75)" />
  <path
     fill="none"
     stroke="#000000"
     d="m 71.46,374.75 c 53.05,0 -10.02,-105.7 24.88,-122.22"
     id="path105" />
  <polygon
     fill="#000000"
     stroke="#000000"
     points="101.97,-398.09 92.82,-392.74 91.49,-399.62 "
     id="polygon105"
     transform="translate(4,648.75)" />
  <g
     id="edge21"
     class="edge"
     transform="translate(4,648.75)">
    <title
       id="title106">n2:e-&gt;c34:w</title>
    <path
       fill="none"
       stroke="#000000"
       d="m 67.46,-274 c 43.91,0 -0.27,67.25 36,92 52.58,35.89 89.48,34.1 143.25,0 27.73,-17.59 5.76,-62.87 24.98,-73.92"
       id="path106" />
    <polygon
       fill="#000000"
       stroke="#000000"
       points="272.23,-252.45 270.71,-259.29 281.23,-258.05 "
       id="polygon106" />
  </g>
  <polygon
     fill="none"
     stroke="#000000"
     points="33.73,-392 0,-374 33.73,-356 67.46,-374 "
     id="polygon107"
     transform="translate(4,648.75)"
     style="fill:#aaccff" />
  <text
     text-anchor="middle"
     x="37.73"
     y="279.42999"
     font-family="Times, serif"
     font-size="14px"
     id="text107">$8</text>
  <path
     fill="none"
     stroke="#000000"
     d="m 71.46,274.75 c 38.99,0 2.85,72.72 26,88.06"
     id="path108" />
  <polygon
     fill="#000000"
     stroke="#000000"
     points="102.87,-283.5 92.31,-282.63 94.07,-289.4 "
     id="polygon108"
     transform="translate(4,648.75)" />
  <path
     fill="none"
     stroke="#000000"
     d="m 71.46,274.75 c 72.7,0 -28.31,150.95 24.71,168.05"
     id="path109" />
  <polygon
     fill="#000000"
     stroke="#000000"
     points="101.96,-204.58 91.57,-202.5 92.54,-209.43 "
     id="polygon109"
     transform="translate(4,648.75)" />
  <path
     fill="none"
     stroke="#000000"
     d="m 71.46,274.75 c 56.44,0 -13.02,-113.45 24.73,-130.3"
     id="path110" />
  <polygon
     fill="#000000"
     stroke="#000000"
     points="101.97,-506.1 92.77,-500.84 91.5,-507.73 "
     id="polygon110"
     transform="translate(4,648.75)" />
  <path
     fill="none"
     stroke="#000000"
     d="m 71.46,274.75 c 35.78,0 8.25,-49.41 36,-72 51.08,-41.58 91.35,2.56 143.25,-38 22.46,-17.55 8.41,-53.22 25.06,-62.9"
     id="path111" />
  <polygon
     fill="#000000"
     stroke="#000000"
     points="281.23,-549.04 272.25,-543.42 270.71,-550.25 "
     id="polygon111"
     transform="translate(4,648.75)" />
  <rect
     style="fill:none;fill-opacity:1;stroke:#ff0000;stroke-width:5.99847"
     id="rect111"
     width="178.64851"
     height="191.4922"
     x="448.9072"
     y="441.93002" />
  <text
     xml:space="preserve"
     style="font-style:normal;font-variant:normal;font-weight:normal;font-stretch:normal;font-size:29.9923px;line-height:1.25;font-family:'Nimbus Sans';-inkscape-font-specification:'Nimbus Sans';letter-spacing:0px;word-spacing:0px;fill:#000000;fill-opacity:1;stroke:none;stroke-width:0.749808"
     x="447.09088"
     y="427.16644"
     id="text9"><tspan
       sodipodi:role="line"
       id="tspan1"
       style="fill:#ff0000;stroke-width:0.749808"
       x="447.09088"
       y="427.16644">Replicated NOT gate</tspan></text>
  <text
     xml:space="preserve"
     style="font-style:normal;font-variant:normal;font-weight:normal;font-stretch:normal;font-size:41.0231px;line-height:1.25;font-family:'Nimbus Sans';-inkscape-font-specification:'Nimbus Sans';letter-spacing:0px;word-spacing:0px;fill:#0055d4;fill-opacity:1;stroke:none;stroke-width:1.02558"
     x="633.5025"
     y="112.58114"
     id="text24"><tspan
       sodipodi:role="line"
       id="tspan9"
       style="fill:#0055d4;stroke-width:1.02558"
       x="633.5025"
       y="112.58114">Voter circuit</tspan></text>
  <text
     xml:space="preserve"
     style="font-style:normal;font-variant:normal;font-weight:normal;font-stretch:normal;font-size:41.0231px;line-height:1.25;font-family:'Nimbus Sans';-inkscape-font-specification:'Nimbus Sans';letter-spacing:0px;word-spacing:0px;fill:#000000;fill-opacity:1;stroke:none;stroke-width:1.02558"
     x="828.0274"
     y="237.28714"
     id="text90"><tspan
       sodipodi:role="line"
       id="tspan89"
       style="fill:#ff0000;stroke-width:1.02558"
       x="828.0274"
       y="237.28714" /></text>
</svg>
