<?xml version="1.0" encoding="UTF-8" standalone="no"?>
<!DOCTYPE svg PUBLIC "-//W3C//DTD SVG 1.1//EN"
 "http://www.w3.org/Graphics/SVG/1.1/DTD/svg11.dtd">
<!-- Generated by graphviz version 12.2.1 (0)
 -->
<!-- Title: cones Pages: 1 -->
<svg width="1182pt" height="135pt"
 viewBox="0.00 0.00 1181.67 135.00" xmlns="http://www.w3.org/2000/svg" xmlns:xlink="http://www.w3.org/1999/xlink">
<g id="graph0" class="graph" transform="scale(1 1) rotate(0) translate(4 131)">
<title>cones</title>
<polygon fill="white" stroke="none" points="-4,4 -4,-131 1177.67,-131 1177.67,4 -4,4"/>
<text text-anchor="middle" x="586.83" y="-7.95" font-family="Times,serif" font-size="14.00">cones</text>
<!-- n3 -->
<g id="node1" class="node">
<title>n3</title>
<polygon fill="none" stroke="black" points="54,-39.54 54,-54.46 38.18,-65 15.82,-65 0,-54.46 0,-39.54 15.82,-29 38.18,-29 54,-39.54"/>
<text text-anchor="middle" x="27" y="-42.33" font-family="Times,serif" font-size="14.00">a</text>
</g>
<!-- c10 -->
<g id="node6" class="node">
<title>c10</title>
<polygon fill="none" stroke="black" points="90,-25.75 90,-68.25 229.5,-68.25 229.5,-25.75 90,-25.75"/>
<text text-anchor="middle" x="102.88" y="-42.45" font-family="Times,serif" font-size="14.00">A</text>
<polyline fill="none" stroke="black" points="115.75,-25.75 115.75,-68.25"/>
<text text-anchor="middle" x="160.13" y="-50.95" font-family="Times,serif" font-size="14.00">$2</text>
<text text-anchor="middle" x="160.13" y="-33.7" font-family="Times,serif" font-size="14.00">$logic_not</text>
<polyline fill="none" stroke="black" points="204.5,-25.75 204.5,-68.25"/>
<text text-anchor="middle" x="217" y="-42.45" font-family="Times,serif" font-size="14.00">Y</text>
</g>
<!-- n3&#45;&gt;c10 -->
<g id="edge3" class="edge">
<title>n3:e&#45;&gt;c10:w</title>
<path fill="none" stroke="#7570b3" d="M54,-47C65.38,-47 70.68,-47.06 78.55,-47.1"/>
<polygon fill="#7570b3" stroke="#7570b3" points="78.48,-50.6 88.49,-47.12 78.49,-43.6 78.48,-50.6"/>
</g>
<!-- n4 -->
<g id="node2" class="node">
<title>n4</title>
<polygon fill="none" stroke="black" points="187.27,-101.54 187.27,-116.46 171.15,-127 148.35,-127 132.23,-116.46 132.23,-101.54 148.35,-91 171.15,-91 187.27,-101.54"/>
<text text-anchor="middle" x="159.75" y="-104.33" font-family="Times,serif" font-size="14.00">clk</text>
</g>
<!-- c15 -->
<g id="node8" class="node">
<title>c15</title>
<polygon fill="none" stroke="black" points="757.73,-61.75 757.73,-112.25 875.48,-112.25 875.48,-61.75 757.73,-61.75"/>
<text text-anchor="middle" x="780.73" y="-94.95" font-family="Times,serif" font-size="14.00">CLK</text>
<polyline fill="none" stroke="black" points="757.73,-87 803.73,-87"/>
<text text-anchor="middle" x="780.73" y="-69.7" font-family="Times,serif" font-size="14.00">D</text>
<polyline fill="none" stroke="black" points="803.73,-61.75 803.73,-112.25"/>
<text text-anchor="middle" x="825.98" y="-90.95" font-family="Times,serif" font-size="14.00">$12</text>
<text text-anchor="middle" x="825.98" y="-73.7" font-family="Times,serif" font-size="14.00">$dff</text>
<polyline fill="none" stroke="black" points="848.23,-61.75 848.23,-112.25"/>
<text text-anchor="middle" x="861.86" y="-82.45" font-family="Times,serif" font-size="14.00">Q</text>
</g>
<!-- n4&#45;&gt;c15 -->
<g id="edge4" class="edge">
<title>n4:e&#45;&gt;c15:w</title>
<path fill="none" stroke="#a6761d" d="M188.53,-109C437.71,-109 502.76,-99.91 746.37,-99.63"/>
<polygon fill="#a6761d" stroke="#a6761d" points="746.22,-103.13 756.22,-99.63 746.22,-96.13 746.22,-103.13"/>
</g>
<!-- c16 -->
<g id="node9" class="node">
<title>c16</title>
<polygon fill="none" stroke="black" points="265.5,-33.75 265.5,-84.25 383.25,-84.25 383.25,-33.75 265.5,-33.75"/>
<text text-anchor="middle" x="288.5" y="-66.95" font-family="Times,serif" font-size="14.00">CLK</text>
<polyline fill="none" stroke="black" points="265.5,-59 311.5,-59"/>
<text text-anchor="middle" x="288.5" y="-41.7" font-family="Times,serif" font-size="14.00">D</text>
<polyline fill="none" stroke="black" points="311.5,-33.75 311.5,-84.25"/>
<text text-anchor="middle" x="333.75" y="-62.95" font-family="Times,serif" font-size="14.00">$13</text>
<text text-anchor="middle" x="333.75" y="-45.7" font-family="Times,serif" font-size="14.00">$dff</text>
<polyline fill="none" stroke="black" points="356,-33.75 356,-84.25"/>
<text text-anchor="middle" x="369.63" y="-54.45" font-family="Times,serif" font-size="14.00">Q</text>
</g>
<!-- n4&#45;&gt;c16 -->
<g id="edge5" class="edge">
<title>n4:e&#45;&gt;c16:w</title>
<path fill="none" stroke="#a6761d" d="M188.53,-109C222.4,-109 226.83,-79.35 254.26,-72.87"/>
<polygon fill="#a6761d" stroke="#a6761d" points="254.44,-76.37 264,-71.79 253.67,-69.41 254.44,-76.37"/>
</g>
<!-- n5 -->
<g id="node3" class="node">
<title>n5</title>
<polygon fill="none" stroke="black" points="1173.67,-79.54 1173.67,-94.46 1156.21,-105 1131.52,-105 1114.06,-94.46 1114.06,-79.54 1131.52,-69 1156.21,-69 1173.67,-79.54"/>
<text text-anchor="middle" x="1143.86" y="-82.33" font-family="Times,serif" font-size="14.00">out</text>
</g>
<!-- n6 -->
<g id="node4" class="node">
<title>n6</title>
<polygon fill="none" stroke="black" points="482.74,-79 419.25,-61 482.74,-43 546.23,-61 482.74,-79"/>
<text text-anchor="middle" x="482.74" y="-56.33" font-family="Times,serif" font-size="14.00">stage1</text>
</g>
<!-- c11 -->
<g id="node7" class="node">
<title>c11</title>
<polygon fill="none" stroke="black" points="582.23,-40.75 582.23,-83.25 721.73,-83.25 721.73,-40.75 582.23,-40.75"/>
<text text-anchor="middle" x="595.11" y="-57.45" font-family="Times,serif" font-size="14.00">A</text>
<polyline fill="none" stroke="black" points="607.98,-40.75 607.98,-83.25"/>
<text text-anchor="middle" x="652.36" y="-65.95" font-family="Times,serif" font-size="14.00">$4</text>
<text text-anchor="middle" x="652.36" y="-48.7" font-family="Times,serif" font-size="14.00">$logic_not</text>
<polyline fill="none" stroke="black" points="696.73,-40.75 696.73,-83.25"/>
<text text-anchor="middle" x="709.23" y="-57.45" font-family="Times,serif" font-size="14.00">Y</text>
</g>
<!-- n6&#45;&gt;c11 -->
<g id="edge8" class="edge">
<title>n6:e&#45;&gt;c11:w</title>
<path fill="none" stroke="#e6ab02" d="M546.23,-61C557.61,-61 562.92,-61.57 570.78,-61.9"/>
<polygon fill="#e6ab02" stroke="#e6ab02" points="570.65,-65.4 580.72,-62.09 570.79,-58.4 570.65,-65.4"/>
</g>
<!-- n7 -->
<g id="node5" class="node">
<title>n7</title>
<polygon fill="none" stroke="black" points="974.97,-105 911.48,-87 974.97,-69 1038.46,-87 974.97,-105"/>
<text text-anchor="middle" x="974.97" y="-82.33" font-family="Times,serif" font-size="14.00">stage2</text>
</g>
<!-- x0 -->
<g id="node10" class="node">
<title>x0</title>
<ellipse fill="black" stroke="black" cx="1076.26" cy="-87" rx="1.8" ry="1.8"/>
</g>
<!-- n7&#45;&gt;x0 -->
<g id="edge10" class="edge">
<title>n7:e&#45;&gt;x0:w</title>
<path fill="none" stroke="#e6ab02" d="M1038.46,-87C1049.84,-87 1055.15,-87 1063.02,-87"/>
<polygon fill="#e6ab02" stroke="#e6ab02" points="1062.95,-90.5 1072.95,-87 1062.95,-83.5 1062.95,-90.5"/>
</g>
<!-- c10&#45;&gt;c16 -->
<g id="edge1" class="edge">
<title>c10:e&#45;&gt;c16:w</title>
<path fill="none" stroke="#e7298a" d="M229.5,-47.12C240.88,-47.12 246.18,-46.75 254.05,-46.53"/>
<polygon fill="#e7298a" stroke="#e7298a" points="254.03,-50.03 263.99,-46.4 253.94,-43.03 254.03,-50.03"/>
</g>
<!-- c11&#45;&gt;c15 -->
<g id="edge2" class="edge">
<title>c11:e&#45;&gt;c15:w</title>
<path fill="none" stroke="#7570b3" d="M721.73,-62.12C734.01,-62.12 738.53,-68.59 746.56,-72.13"/>
<polygon fill="#7570b3" stroke="#7570b3" points="745.75,-75.54 756.25,-74.08 747.13,-68.67 745.75,-75.54"/>
</g>
<!-- c15&#45;&gt;n7 -->
<g id="edge9" class="edge">
<title>c15:e&#45;&gt;n7:w</title>
<path fill="none" stroke="#e6ab02" d="M875.48,-87.12C886.86,-87.12 892.17,-87.06 900.03,-87.03"/>
<polygon fill="#e6ab02" stroke="#e6ab02" points="899.98,-90.53 909.97,-87 899.96,-83.53 899.98,-90.53"/>
</g>
<!-- c16&#45;&gt;n6 -->
<g id="edge7" class="edge">
<title>c16:e&#45;&gt;n6:w</title>
<path fill="none" stroke="#e6ab02" d="M383.25,-59.12C394.64,-59.12 399.93,-60.07 407.8,-60.62"/>
<polygon fill="#e6ab02" stroke="#e6ab02" points="407.63,-64.12 417.74,-60.95 407.86,-57.12 407.63,-64.12"/>
</g>
<!-- x0&#45;&gt;n5 -->
<g id="edge6" class="edge">
<title>x0:e&#45;&gt;n5:w</title>
<path fill="none" stroke="#d95f02" d="M1078.06,-87C1089.44,-87 1094.75,-87 1102.62,-87"/>
<polygon fill="#d95f02" stroke="#d95f02" points="1102.55,-90.5 1112.55,-87 1102.55,-83.5 1102.55,-90.5"/>
</g>
</g>
</svg>
