<?xml version="1.0" encoding="UTF-8" standalone="no"?>
<!DOCTYPE svg PUBLIC "-//W3C//DTD SVG 1.1//EN"
 "http://www.w3.org/Graphics/SVG/1.1/DTD/svg11.dtd">
<!-- Generated by graphviz version 12.2.1 (0)
 -->
<!-- Title: cones_min Pages: 1 -->
<svg width="825pt" height="131pt"
 viewBox="0.00 0.00 825.33 131.00" xmlns="http://www.w3.org/2000/svg" xmlns:xlink="http://www.w3.org/1999/xlink">
<g id="graph0" class="graph" transform="scale(1 1) rotate(0) translate(4 127)">
<title>cones_min</title>
<polygon fill="white" stroke="none" points="-4,4 -4,-127 821.33,-127 821.33,4 -4,4"/>
<text text-anchor="middle" x="408.67" y="-7.95" font-family="Times,serif" font-size="14.00">cones_min</text>
<!-- n2 -->
<g id="node1" class="node">
<title>n2</title>
<polygon fill="none" stroke="black" points="54,-39.54 54,-54.46 38.18,-65 15.82,-65 0,-54.46 0,-39.54 15.82,-29 38.18,-29 54,-39.54"/>
<text text-anchor="middle" x="27" y="-42.33" font-family="Times,serif" font-size="14.00">a</text>
</g>
<!-- c8 -->
<g id="node5" class="node">
<title>c8</title>
<polygon fill="none" stroke="black" points="90,-25.75 90,-68.25 229.5,-68.25 229.5,-25.75 90,-25.75"/>
<text text-anchor="middle" x="102.88" y="-42.45" font-family="Times,serif" font-size="14.00">A</text>
<polyline fill="none" stroke="black" points="115.75,-25.75 115.75,-68.25"/>
<text text-anchor="middle" x="160.12" y="-50.95" font-family="Times,serif" font-size="14.00">$6</text>
<text text-anchor="middle" x="160.12" y="-33.7" font-family="Times,serif" font-size="14.00">$logic_not</text>
<polyline fill="none" stroke="black" points="204.5,-25.75 204.5,-68.25"/>
<text text-anchor="middle" x="217" y="-42.45" font-family="Times,serif" font-size="14.00">Y</text>
</g>
<!-- n2&#45;&gt;c8 -->
<g id="edge2" class="edge">
<title>n2:e&#45;&gt;c8:w</title>
<path fill="none" stroke="#7570b3" d="M54,-47C65.38,-47 70.68,-47.06 78.55,-47.1"/>
<polygon fill="#7570b3" stroke="#7570b3" points="78.48,-50.6 88.49,-47.12 78.49,-43.6 78.48,-50.6"/>
</g>
<!-- n3 -->
<g id="node2" class="node">
<title>n3</title>
<polygon fill="none" stroke="black" points="187.27,-97.54 187.27,-112.46 171.15,-123 148.35,-123 132.23,-112.46 132.23,-97.54 148.35,-87 171.15,-87 187.27,-97.54"/>
<text text-anchor="middle" x="159.75" y="-100.33" font-family="Times,serif" font-size="14.00">clk</text>
</g>
<!-- c13 -->
<g id="node7" class="node">
<title>c13</title>
<polygon fill="none" stroke="black" points="265.5,-50.75 265.5,-101.25 383.25,-101.25 383.25,-50.75 265.5,-50.75"/>
<text text-anchor="middle" x="288.5" y="-83.95" font-family="Times,serif" font-size="14.00">CLK</text>
<polyline fill="none" stroke="black" points="265.5,-76 311.5,-76"/>
<text text-anchor="middle" x="288.5" y="-58.7" font-family="Times,serif" font-size="14.00">D</text>
<polyline fill="none" stroke="black" points="311.5,-50.75 311.5,-101.25"/>
<text text-anchor="middle" x="333.75" y="-79.95" font-family="Times,serif" font-size="14.00">$12</text>
<text text-anchor="middle" x="333.75" y="-62.7" font-family="Times,serif" font-size="14.00">$dff</text>
<polyline fill="none" stroke="black" points="356,-50.75 356,-101.25"/>
<text text-anchor="middle" x="369.62" y="-71.45" font-family="Times,serif" font-size="14.00">Q</text>
</g>
<!-- n3&#45;&gt;c13 -->
<g id="edge3" class="edge">
<title>n3:e&#45;&gt;c13:w</title>
<path fill="none" stroke="#7570b3" d="M188.53,-105C219.41,-105 228.5,-92.24 254.27,-89.25"/>
<polygon fill="#7570b3" stroke="#7570b3" points="254.2,-92.76 263.99,-88.71 253.81,-85.77 254.2,-92.76"/>
</g>
<!-- n4 -->
<g id="node3" class="node">
<title>n4</title>
<polygon fill="none" stroke="black" points="817.33,-68.54 817.33,-83.46 799.88,-94 775.19,-94 757.73,-83.46 757.73,-68.54 775.19,-58 799.88,-58 817.33,-68.54"/>
<text text-anchor="middle" x="787.53" y="-71.33" font-family="Times,serif" font-size="14.00">out</text>
</g>
<!-- n5 -->
<g id="node4" class="node">
<title>n5</title>
<polygon fill="none" stroke="black" points="482.74,-94 419.25,-76 482.74,-58 546.23,-76 482.74,-94"/>
<text text-anchor="middle" x="482.74" y="-71.33" font-family="Times,serif" font-size="14.00">stage1</text>
</g>
<!-- c9 -->
<g id="node6" class="node">
<title>c9</title>
<polygon fill="none" stroke="black" points="582.23,-54.75 582.23,-97.25 721.73,-97.25 721.73,-54.75 582.23,-54.75"/>
<text text-anchor="middle" x="595.11" y="-71.45" font-family="Times,serif" font-size="14.00">A</text>
<polyline fill="none" stroke="black" points="607.98,-54.75 607.98,-97.25"/>
<text text-anchor="middle" x="652.36" y="-79.95" font-family="Times,serif" font-size="14.00">$7</text>
<text text-anchor="middle" x="652.36" y="-62.7" font-family="Times,serif" font-size="14.00">$logic_not</text>
<polyline fill="none" stroke="black" points="696.73,-54.75 696.73,-97.25"/>
<text text-anchor="middle" x="709.23" y="-71.45" font-family="Times,serif" font-size="14.00">Y</text>
</g>
<!-- n5&#45;&gt;c9 -->
<g id="edge6" class="edge">
<title>n5:e&#45;&gt;c9:w</title>
<path fill="none" stroke="#d95f02" d="M546.23,-76C557.61,-76 562.92,-76.06 570.78,-76.1"/>
<polygon fill="#d95f02" stroke="#d95f02" points="570.71,-79.6 580.72,-76.12 570.73,-72.6 570.71,-79.6"/>
</g>
<!-- c8&#45;&gt;c13 -->
<g id="edge1" class="edge">
<title>c8:e&#45;&gt;c13:w</title>
<path fill="none" stroke="#e7298a" d="M229.5,-47.12C242.39,-47.12 246.3,-55.89 254.41,-60.54"/>
<polygon fill="#e7298a" stroke="#e7298a" points="253.48,-63.92 264.03,-63 255.21,-57.14 253.48,-63.92"/>
</g>
<!-- c9&#45;&gt;n4 -->
<g id="edge4" class="edge">
<title>c9:e&#45;&gt;n4:w</title>
<path fill="none" stroke="#a6761d" d="M721.73,-76.12C733.11,-76.12 738.42,-76.06 746.28,-76.03"/>
<polygon fill="#a6761d" stroke="#a6761d" points="746.23,-79.53 756.22,-76 746.21,-72.53 746.23,-79.53"/>
</g>
<!-- c13&#45;&gt;n5 -->
<g id="edge5" class="edge">
<title>c13:e&#45;&gt;n5:w</title>
<path fill="none" stroke="#d95f02" d="M383.25,-76.12C394.63,-76.12 399.93,-76.06 407.8,-76.03"/>
<polygon fill="#d95f02" stroke="#d95f02" points="407.74,-79.53 417.74,-76 407.73,-72.53 407.74,-79.53"/>
</g>
</g>
</svg>
