<?xml version="1.0" encoding="UTF-8" standalone="no"?>
<!DOCTYPE svg PUBLIC "-//W3C//DTD SVG 1.1//EN"
 "http://www.w3.org/Graphics/SVG/1.1/DTD/svg11.dtd">
<!-- Generated by graphviz version 12.2.1 (0)
 -->
<!-- Title: cones_2bit Pages: 1 -->
<svg width="1101pt" height="135pt"
 viewBox="0.00 0.00 1100.67 135.00" xmlns="http://www.w3.org/2000/svg" xmlns:xlink="http://www.w3.org/1999/xlink">
<g id="graph0" class="graph" transform="scale(1 1) rotate(0) translate(4 131)">
<title>cones_2bit</title>
<polygon fill="white" stroke="none" points="-4,4 -4,-131 1096.67,-131 1096.67,4 -4,4"/>
<text text-anchor="middle" x="546.33" y="-7.95" font-family="Times,serif" font-size="14.00">cones_2bit</text>
<!-- n3 -->
<g id="node1" class="node">
<title>n3</title>
<polygon fill="none" stroke="black" points="54,-39.54 54,-54.46 38.18,-65 15.82,-65 0,-54.46 0,-39.54 15.82,-29 38.18,-29 54,-39.54"/>
<text text-anchor="middle" x="27" y="-42.33" font-family="Times,serif" font-size="14.00">a</text>
</g>
<!-- c10 -->
<g id="node6" class="node">
<title>c10</title>
<polygon fill="none" stroke="black" points="90,-25.75 90,-68.25 189,-68.25 189,-25.75 90,-25.75"/>
<text text-anchor="middle" x="102.88" y="-42.45" font-family="Times,serif" font-size="14.00">A</text>
<polyline fill="none" stroke="black" points="115.75,-25.75 115.75,-68.25"/>
<text text-anchor="middle" x="139.88" y="-50.95" font-family="Times,serif" font-size="14.00">$9</text>
<text text-anchor="middle" x="139.88" y="-33.7" font-family="Times,serif" font-size="14.00">$not</text>
<polyline fill="none" stroke="black" points="164,-25.75 164,-68.25"/>
<text text-anchor="middle" x="176.5" y="-42.45" font-family="Times,serif" font-size="14.00">Y</text>
</g>
<!-- n3&#45;&gt;c10 -->
<g id="edge3" class="edge">
<title>n3:e&#45;&gt;c10:w</title>
<path fill="none" stroke="#7570b3" stroke-width="3" d="M54,-47C65.38,-47 70.68,-47.06 78.55,-47.1"/>
<polygon fill="#7570b3" stroke="#7570b3" stroke-width="3" points="75.45,-50.59 85.46,-47.11 75.47,-43.59 75.45,-50.59"/>
</g>
<!-- n4 -->
<g id="node2" class="node">
<title>n4</title>
<polygon fill="none" stroke="black" points="167.02,-101.54 167.02,-116.46 150.9,-127 128.1,-127 111.98,-116.46 111.98,-101.54 128.1,-91 150.9,-91 167.02,-101.54"/>
<text text-anchor="middle" x="139.5" y="-104.33" font-family="Times,serif" font-size="14.00">clk</text>
</g>
<!-- c15 -->
<g id="node8" class="node">
<title>c15</title>
<polygon fill="none" stroke="black" points="676.73,-61.75 676.73,-112.25 794.48,-112.25 794.48,-61.75 676.73,-61.75"/>
<text text-anchor="middle" x="699.73" y="-94.95" font-family="Times,serif" font-size="14.00">CLK</text>
<polyline fill="none" stroke="black" points="676.73,-87 722.73,-87"/>
<text text-anchor="middle" x="699.73" y="-69.7" font-family="Times,serif" font-size="14.00">D</text>
<polyline fill="none" stroke="black" points="722.73,-61.75 722.73,-112.25"/>
<text text-anchor="middle" x="744.98" y="-90.95" font-family="Times,serif" font-size="14.00">$12</text>
<text text-anchor="middle" x="744.98" y="-73.7" font-family="Times,serif" font-size="14.00">$dff</text>
<polyline fill="none" stroke="black" points="767.23,-61.75 767.23,-112.25"/>
<text text-anchor="middle" x="780.86" y="-82.45" font-family="Times,serif" font-size="14.00">Q</text>
</g>
<!-- n4&#45;&gt;c15 -->
<g id="edge4" class="edge">
<title>n4:e&#45;&gt;c15:w</title>
<path fill="none" stroke="#a6761d" d="M168.28,-109C390.44,-109 448.74,-99.94 665.29,-99.63"/>
<polygon fill="#a6761d" stroke="#a6761d" points="665.22,-103.13 675.22,-99.63 665.22,-96.13 665.22,-103.13"/>
</g>
<!-- c16 -->
<g id="node9" class="node">
<title>c16</title>
<polygon fill="none" stroke="black" points="225,-33.75 225,-84.25 342.75,-84.25 342.75,-33.75 225,-33.75"/>
<text text-anchor="middle" x="248" y="-66.95" font-family="Times,serif" font-size="14.00">CLK</text>
<polyline fill="none" stroke="black" points="225,-59 271,-59"/>
<text text-anchor="middle" x="248" y="-41.7" font-family="Times,serif" font-size="14.00">D</text>
<polyline fill="none" stroke="black" points="271,-33.75 271,-84.25"/>
<text text-anchor="middle" x="293.25" y="-62.95" font-family="Times,serif" font-size="14.00">$13</text>
<text text-anchor="middle" x="293.25" y="-45.7" font-family="Times,serif" font-size="14.00">$dff</text>
<polyline fill="none" stroke="black" points="315.5,-33.75 315.5,-84.25"/>
<text text-anchor="middle" x="329.13" y="-54.45" font-family="Times,serif" font-size="14.00">Q</text>
</g>
<!-- n4&#45;&gt;c16 -->
<g id="edge5" class="edge">
<title>n4:e&#45;&gt;c16:w</title>
<path fill="none" stroke="#a6761d" d="M168.28,-109C194.11,-109 195.16,-81.65 213.83,-73.74"/>
<polygon fill="#a6761d" stroke="#a6761d" points="214.34,-77.21 223.51,-71.91 213.04,-70.33 214.34,-77.21"/>
</g>
<!-- n5 -->
<g id="node3" class="node">
<title>n5</title>
<polygon fill="none" stroke="black" points="1092.67,-79.54 1092.67,-94.46 1075.21,-105 1050.52,-105 1033.06,-94.46 1033.06,-79.54 1050.52,-69 1075.21,-69 1092.67,-79.54"/>
<text text-anchor="middle" x="1062.86" y="-82.33" font-family="Times,serif" font-size="14.00">out</text>
</g>
<!-- n6 -->
<g id="node4" class="node">
<title>n6</title>
<polygon fill="none" stroke="black" points="442.24,-79 378.75,-61 442.24,-43 505.73,-61 442.24,-79"/>
<text text-anchor="middle" x="442.24" y="-56.33" font-family="Times,serif" font-size="14.00">stage1</text>
</g>
<!-- c11 -->
<g id="node7" class="node">
<title>c11</title>
<polygon fill="none" stroke="black" points="541.73,-40.75 541.73,-83.25 640.73,-83.25 640.73,-40.75 541.73,-40.75"/>
<text text-anchor="middle" x="554.61" y="-57.45" font-family="Times,serif" font-size="14.00">A</text>
<polyline fill="none" stroke="black" points="567.48,-40.75 567.48,-83.25"/>
<text text-anchor="middle" x="591.61" y="-65.95" font-family="Times,serif" font-size="14.00">$11</text>
<text text-anchor="middle" x="591.61" y="-48.7" font-family="Times,serif" font-size="14.00">$not</text>
<polyline fill="none" stroke="black" points="615.73,-40.75 615.73,-83.25"/>
<text text-anchor="middle" x="628.23" y="-57.45" font-family="Times,serif" font-size="14.00">Y</text>
</g>
<!-- n6&#45;&gt;c11 -->
<g id="edge8" class="edge">
<title>n6:e&#45;&gt;c11:w</title>
<path fill="none" stroke="#e6ab02" stroke-width="3" d="M505.73,-61C517.11,-61 522.42,-61.57 530.28,-61.9"/>
<polygon fill="#e6ab02" stroke="#e6ab02" stroke-width="3" points="527.12,-65.34 537.19,-62.03 527.26,-58.34 527.12,-65.34"/>
</g>
<!-- n7 -->
<g id="node5" class="node">
<title>n7</title>
<polygon fill="none" stroke="black" points="893.97,-105 830.48,-87 893.97,-69 957.46,-87 893.97,-105"/>
<text text-anchor="middle" x="893.97" y="-82.33" font-family="Times,serif" font-size="14.00">stage2</text>
</g>
<!-- x0 -->
<g id="node10" class="node">
<title>x0</title>
<ellipse fill="black" stroke="black" cx="995.26" cy="-87" rx="1.8" ry="1.8"/>
</g>
<!-- n7&#45;&gt;x0 -->
<g id="edge10" class="edge">
<title>n7:e&#45;&gt;x0:w</title>
<path fill="none" stroke="#e6ab02" stroke-width="3" d="M957.46,-87C968.84,-87 974.15,-87 982.02,-87"/>
<polygon fill="#e6ab02" stroke="#e6ab02" stroke-width="3" points="978.92,-90.5 988.92,-87 978.92,-83.5 978.92,-90.5"/>
</g>
<!-- c10&#45;&gt;c16 -->
<g id="edge1" class="edge">
<title>c10:e&#45;&gt;c16:w</title>
<path fill="none" stroke="#e7298a" stroke-width="3" d="M189,-47.12C200.38,-47.12 205.68,-46.75 213.55,-46.53"/>
<polygon fill="#e7298a" stroke="#e7298a" stroke-width="3" points="210.51,-50.07 220.46,-46.44 210.41,-43.07 210.51,-50.07"/>
</g>
<!-- c11&#45;&gt;c15 -->
<g id="edge2" class="edge">
<title>c11:e&#45;&gt;c15:w</title>
<path fill="none" stroke="#7570b3" stroke-width="3" d="M640.73,-62.12C653.01,-62.12 657.53,-68.59 665.56,-72.13"/>
<polygon fill="#7570b3" stroke="#7570b3" stroke-width="3" points="661.79,-74.94 672.28,-73.48 663.17,-68.08 661.79,-74.94"/>
</g>
<!-- c15&#45;&gt;n7 -->
<g id="edge9" class="edge">
<title>c15:e&#45;&gt;n7:w</title>
<path fill="none" stroke="#e6ab02" stroke-width="3" d="M794.48,-87.12C805.86,-87.12 811.17,-87.06 819.03,-87.03"/>
<polygon fill="#e6ab02" stroke="#e6ab02" stroke-width="3" points="815.95,-90.53 825.94,-87.01 815.93,-83.53 815.95,-90.53"/>
</g>
<!-- c16&#45;&gt;n6 -->
<g id="edge7" class="edge">
<title>c16:e&#45;&gt;n6:w</title>
<path fill="none" stroke="#e6ab02" stroke-width="3" d="M342.75,-59.12C354.14,-59.12 359.43,-60.07 367.3,-60.62"/>
<polygon fill="#e6ab02" stroke="#e6ab02" stroke-width="3" points="364.1,-64.02 374.21,-60.85 364.33,-57.02 364.1,-64.02"/>
</g>
<!-- x0&#45;&gt;n5 -->
<g id="edge6" class="edge">
<title>x0:e&#45;&gt;n5:w</title>
<path fill="none" stroke="#d95f02" stroke-width="3" d="M997.06,-87C1008.44,-87 1013.75,-87 1021.62,-87"/>
<polygon fill="#d95f02" stroke="#d95f02" stroke-width="3" points="1018.52,-90.5 1028.52,-87 1018.52,-83.5 1018.52,-90.5"/>
</g>
</g>
</svg>
