<?xml version="1.0" encoding="UTF-8" standalone="no"?>
<!DOCTYPE svg PUBLIC "-//W3C//DTD SVG 1.1//EN"
 "http://www.w3.org/Graphics/SVG/1.1/DTD/svg11.dtd">
<!-- Generated by graphviz version 12.2.1 (0)
 -->
<!-- Title: crc_const_variant3 Pages: 1 -->
<svg width="583pt" height="207pt"
 viewBox="0.00 0.00 583.25 207.25" xmlns="http://www.w3.org/2000/svg" xmlns:xlink="http://www.w3.org/1999/xlink">
<g id="graph0" class="graph" transform="scale(1 1) rotate(0) translate(4 203.25)">
<title>crc_const_variant3</title>
<polygon fill="white" stroke="none" points="-4,4 -4,-203.25 579.25,-203.25 579.25,4 -4,4"/>
<text text-anchor="middle" x="287.63" y="-7.95" font-family="Times,serif" font-size="14.00">crc_const_variant3</text>
<!-- n1 -->
<g id="node1" class="node">
<title>n1</title>
<polygon fill="none" stroke="black" points="54,-94.79 54,-109.71 38.18,-120.25 15.82,-120.25 0,-109.71 0,-94.79 15.82,-84.25 38.18,-84.25 54,-94.79"/>
<text text-anchor="middle" x="27" y="-97.58" font-family="Times,serif" font-size="14.00">in</text>
</g>
<!-- x0 -->
<g id="node5" class="node">
<title>x0</title>
<path fill="none" stroke="#1b9e77" d="M102,-112.25C102,-112.25 152.5,-112.25 152.5,-112.25 158.5,-112.25 164.5,-118.25 164.5,-124.25 164.5,-124.25 164.5,-136.25 164.5,-136.25 164.5,-142.25 158.5,-148.25 152.5,-148.25 152.5,-148.25 102,-148.25 102,-148.25 96,-148.25 90,-142.25 90,-136.25 90,-136.25 90,-124.25 90,-124.25 90,-118.25 96,-112.25 102,-112.25"/>
<text text-anchor="middle" x="127.25" y="-125.95" font-family="Times,serif" font-size="14.00" fill="#1b9e77">0:0 &#45; 0:0</text>
</g>
<!-- n1&#45;&gt;x0 -->
<g id="edge4" class="edge">
<title>n1:e&#45;&gt;x0:w</title>
<path fill="none" stroke="#a6761d" d="M54,-102.25C69.76,-102.25 70.49,-119.22 79.44,-126.92"/>
<polygon fill="#a6761d" stroke="#a6761d" points="77.98,-130.11 88.57,-130.12 80.3,-123.51 77.98,-130.11"/>
</g>
<!-- x1 -->
<g id="node6" class="node">
<title>x1</title>
<path fill="none" stroke="#e7298a" d="M102,-57.25C102,-57.25 152.5,-57.25 152.5,-57.25 158.5,-57.25 164.5,-63.25 164.5,-69.25 164.5,-69.25 164.5,-81.25 164.5,-81.25 164.5,-87.25 158.5,-93.25 152.5,-93.25 152.5,-93.25 102,-93.25 102,-93.25 96,-93.25 90,-87.25 90,-81.25 90,-81.25 90,-69.25 90,-69.25 90,-63.25 96,-57.25 102,-57.25"/>
<text text-anchor="middle" x="127.25" y="-70.95" font-family="Times,serif" font-size="14.00" fill="#e7298a">1:1 &#45; 0:0</text>
</g>
<!-- n1&#45;&gt;x1 -->
<g id="edge5" class="edge">
<title>n1:e&#45;&gt;x1:w</title>
<path fill="none" stroke="#a6761d" d="M54,-102.25C69.24,-102.25 70.58,-86.64 79.3,-79.33"/>
<polygon fill="#a6761d" stroke="#a6761d" points="80.26,-82.7 88.57,-76.12 77.97,-76.08 80.26,-82.7"/>
</g>
<!-- n2 -->
<g id="node2" class="node">
<title>n2</title>
<polygon fill="none" stroke="black" points="575.25,-65.79 575.25,-80.71 557.79,-91.25 533.1,-91.25 515.65,-80.71 515.65,-65.79 533.1,-55.25 557.79,-55.25 575.25,-65.79"/>
<text text-anchor="middle" x="545.45" y="-68.58" font-family="Times,serif" font-size="14.00">out</text>
</g>
<!-- n3 -->
<g id="node3" class="node">
<title>n3</title>
<polygon fill="none" stroke="black" points="284.82,-199.25 200.5,-181.25 284.82,-163.25 369.15,-181.25 284.82,-199.25"/>
<text text-anchor="middle" x="284.82" y="-176.57" font-family="Times,serif" font-size="14.00">zero_wire</text>
</g>
<!-- c7 -->
<g id="node4" class="node">
<title>c7</title>
<polygon fill="none" stroke="black" points="234.95,-80 234.95,-130.5 334.7,-130.5 334.7,-80 234.95,-80"/>
<text text-anchor="middle" x="248.2" y="-113.2" font-family="Times,serif" font-size="14.00">A</text>
<polyline fill="none" stroke="black" points="234.95,-105.25 261.45,-105.25"/>
<text text-anchor="middle" x="248.2" y="-87.95" font-family="Times,serif" font-size="14.00">B</text>
<polyline fill="none" stroke="black" points="261.45,-80 261.45,-130.5"/>
<text text-anchor="middle" x="285.57" y="-109.2" font-family="Times,serif" font-size="14.00">$2</text>
<text text-anchor="middle" x="285.57" y="-91.95" font-family="Times,serif" font-size="14.00">$xor</text>
<polyline fill="none" stroke="black" points="309.7,-80 309.7,-130.5"/>
<text text-anchor="middle" x="322.2" y="-100.7" font-family="Times,serif" font-size="14.00">Y</text>
</g>
<!-- x2 -->
<g id="node7" class="node">
<title>x2</title>
<path fill="none" stroke="#7570b3" d="M417.15,-85.25C417.15,-85.25 467.65,-85.25 467.65,-85.25 473.65,-85.25 479.65,-91.25 479.65,-97.25 479.65,-97.25 479.65,-109.25 479.65,-109.25 479.65,-115.25 473.65,-121.25 467.65,-121.25 467.65,-121.25 417.15,-121.25 417.15,-121.25 411.15,-121.25 405.15,-115.25 405.15,-109.25 405.15,-109.25 405.15,-97.25 405.15,-97.25 405.15,-91.25 411.15,-85.25 417.15,-85.25"/>
<text text-anchor="middle" x="442.4" y="-98.95" font-family="Times,serif" font-size="14.00" fill="#7570b3">0:0 &#45; 1:1</text>
</g>
<!-- c7&#45;&gt;x2 -->
<g id="edge3" class="edge">
<title>c7:e&#45;&gt;x2:w</title>
<path fill="none" stroke="#7570b3" d="M348.65,-105.24C365.79,-104.85 375.3,-103.76 392.54,-103.38"/>
<polygon fill="none" stroke="#7570b3" points="348.6,-105.24 342.64,-109.3 336.6,-105.37 342.56,-101.3 348.6,-105.24"/>
<polygon fill="none" stroke="#7570b3" points="392.25,-103.38 398.2,-99.32 404.25,-103.26 398.29,-107.32 392.25,-103.38"/>
</g>
<!-- x0&#45;&gt;c7 -->
<g id="edge1" class="edge">
<title>x0:e&#45;&gt;c7:w</title>
<path fill="none" stroke="#e7298a" d="M177.29,-129.48C194.67,-127.25 203.78,-120.87 221.16,-118.65"/>
<polygon fill="none" stroke="#e7298a" points="177.38,-129.47 171.63,-133.83 165.4,-130.2 171.15,-125.84 177.38,-129.47"/>
<polygon fill="none" stroke="#e7298a" points="221.07,-118.65 226.82,-114.3 233.05,-117.93 227.3,-122.28 221.07,-118.65"/>
</g>
<!-- x1&#45;&gt;c7 -->
<g id="edge2" class="edge">
<title>x1:e&#45;&gt;c7:w</title>
<path fill="none" stroke="#7570b3" d="M177.41,-76.34C194.87,-79.46 203.58,-88.42 221.04,-91.54"/>
<polygon fill="none" stroke="#7570b3" points="177.36,-76.33 171.04,-79.81 165.4,-75.33 171.71,-71.84 177.36,-76.33"/>
<polygon fill="none" stroke="#7570b3" points="221.09,-91.54 227.41,-88.06 233.05,-92.55 226.74,-96.03 221.09,-91.54"/>
</g>
<!-- x2&#45;&gt;n2 -->
<g id="edge6" class="edge">
<title>x2:e&#45;&gt;n2:w</title>
<path fill="none" stroke="#d95f02" d="M479.65,-103.62C495.84,-103.62 496,-85.45 504.92,-77.22"/>
<polygon fill="#d95f02" stroke="#d95f02" points="506.07,-80.53 514.23,-73.78 503.63,-73.97 506.07,-80.53"/>
</g>
<!-- v3 -->
<g id="node8" class="node">
<title>v3</title>
<ellipse fill="none" stroke="black" cx="284.82" cy="-43.25" rx="27" ry="18"/>
<text text-anchor="middle" x="284.82" y="-38.58" font-family="Times,serif" font-size="14.00">1&#39;0</text>
</g>
<!-- x4 -->
<g id="node9" class="node">
<title>x4</title>
<path fill="none" stroke="#7570b3" d="M417.15,-28.25C417.15,-28.25 467.65,-28.25 467.65,-28.25 473.65,-28.25 479.65,-34.25 479.65,-40.25 479.65,-40.25 479.65,-52.25 479.65,-52.25 479.65,-58.25 473.65,-64.25 467.65,-64.25 467.65,-64.25 417.15,-64.25 417.15,-64.25 411.15,-64.25 405.15,-58.25 405.15,-52.25 405.15,-52.25 405.15,-40.25 405.15,-40.25 405.15,-34.25 411.15,-28.25 417.15,-28.25"/>
<text text-anchor="middle" x="442.4" y="-41.95" font-family="Times,serif" font-size="14.00" fill="#7570b3">0:0 &#45; 0:0</text>
</g>
<!-- v3&#45;&gt;x4 -->
<g id="edge9" class="edge">
<title>v3:e&#45;&gt;x4:w</title>
<path fill="none" stroke="#e6ab02" d="M313.08,-43.25C350.02,-43.25 361.92,-45.69 393.98,-46.17"/>
<polygon fill="#e6ab02" stroke="#e6ab02" points="393.61,-49.67 403.63,-46.24 393.66,-42.67 393.61,-49.67"/>
</g>
<!-- x4&#45;&gt;n2 -->
<g id="edge7" class="edge">
<title>x4:e&#45;&gt;n2:w</title>
<path fill="none" stroke="#d95f02" d="M479.65,-46.62C494.88,-46.62 496.23,-62.23 504.95,-69.55"/>
<polygon fill="#d95f02" stroke="#d95f02" points="503.62,-72.79 514.22,-72.75 505.91,-66.18 503.62,-72.79"/>
</g>
<!-- v5 -->
<g id="node10" class="node">
<title>v5</title>
<ellipse fill="none" stroke="black" cx="27" cy="-181.25" rx="27" ry="18"/>
<text text-anchor="middle" x="27" y="-176.57" font-family="Times,serif" font-size="14.00">1&#39;0</text>
</g>
<!-- x6 -->
<g id="node11" class="node">
<title>x6</title>
<ellipse fill="black" stroke="black" cx="127.25" cy="-181.25" rx="1.8" ry="1.8"/>
</g>
<!-- v5&#45;&gt;x6 -->
<g id="edge10" class="edge">
<title>v5:e&#45;&gt;x6:w</title>
<path fill="none" stroke="#d95f02" d="M54,-181.25C80.97,-181.25 90.4,-181.25 112.71,-181.25"/>
<polygon fill="#d95f02" stroke="#d95f02" points="112.46,-184.75 122.46,-181.25 112.46,-177.75 112.46,-184.75"/>
</g>
<!-- x6&#45;&gt;n3 -->
<g id="edge8" class="edge">
<title>x6:e&#45;&gt;n3:w</title>
<path fill="none" stroke="#e6ab02" d="M130.53,-181.25C157.5,-181.25 166.92,-181.25 189.23,-181.25"/>
<polygon fill="#e6ab02" stroke="#e6ab02" points="188.99,-184.75 198.99,-181.25 188.99,-177.75 188.99,-184.75"/>
</g>
</g>
</svg>
