<?xml version="1.0" encoding="UTF-8" standalone="no"?>
<!DOCTYPE svg PUBLIC "-//W3C//DTD SVG 1.1//EN"
 "http://www.w3.org/Graphics/SVG/1.1/DTD/svg11.dtd">
<!-- Generated by graphviz version 12.2.1 (0)
 -->
<!-- Title: crc_const_variant4 Pages: 1 -->
<svg width="514pt" height="159pt"
 viewBox="0.00 0.00 514.35 158.75" xmlns="http://www.w3.org/2000/svg" xmlns:xlink="http://www.w3.org/1999/xlink">
<g id="graph0" class="graph" transform="scale(1 1) rotate(0) translate(4 154.75)">
<title>crc_const_variant4</title>
<polygon fill="white" stroke="none" points="-4,4 -4,-154.75 510.35,-154.75 510.35,4 -4,4"/>
<text text-anchor="middle" x="253.18" y="-7.95" font-family="Times,serif" font-size="14.00">crc_const_variant4</text>
<!-- n1 -->
<g id="node1" class="node">
<title>n1</title>
<polygon fill="none" stroke="black" points="54,-96.79 54,-111.71 38.18,-122.25 15.82,-122.25 0,-111.71 0,-96.79 15.82,-86.25 38.18,-86.25 54,-96.79"/>
<text text-anchor="middle" x="27" y="-99.58" font-family="Times,serif" font-size="14.00">in</text>
</g>
<!-- x0 -->
<g id="node4" class="node">
<title>x0</title>
<path fill="none" stroke="#1b9e77" d="M102,-114.25C102,-114.25 152.5,-114.25 152.5,-114.25 158.5,-114.25 164.5,-120.25 164.5,-126.25 164.5,-126.25 164.5,-138.25 164.5,-138.25 164.5,-144.25 158.5,-150.25 152.5,-150.25 152.5,-150.25 102,-150.25 102,-150.25 96,-150.25 90,-144.25 90,-138.25 90,-138.25 90,-126.25 90,-126.25 90,-120.25 96,-114.25 102,-114.25"/>
<text text-anchor="middle" x="127.25" y="-127.95" font-family="Times,serif" font-size="14.00" fill="#1b9e77">0:0 &#45; 0:0</text>
</g>
<!-- n1&#45;&gt;x0 -->
<g id="edge4" class="edge">
<title>n1:e&#45;&gt;x0:w</title>
<path fill="none" stroke="#a6761d" d="M54,-104.25C69.76,-104.25 70.49,-121.22 79.44,-128.92"/>
<polygon fill="#a6761d" stroke="#a6761d" points="77.98,-132.11 88.57,-132.12 80.3,-125.51 77.98,-132.11"/>
</g>
<!-- x1 -->
<g id="node5" class="node">
<title>x1</title>
<path fill="none" stroke="#e7298a" d="M102,-59.25C102,-59.25 152.5,-59.25 152.5,-59.25 158.5,-59.25 164.5,-65.25 164.5,-71.25 164.5,-71.25 164.5,-83.25 164.5,-83.25 164.5,-89.25 158.5,-95.25 152.5,-95.25 152.5,-95.25 102,-95.25 102,-95.25 96,-95.25 90,-89.25 90,-83.25 90,-83.25 90,-71.25 90,-71.25 90,-65.25 96,-59.25 102,-59.25"/>
<text text-anchor="middle" x="127.25" y="-72.95" font-family="Times,serif" font-size="14.00" fill="#e7298a">1:1 &#45; 0:0</text>
</g>
<!-- n1&#45;&gt;x1 -->
<g id="edge5" class="edge">
<title>n1:e&#45;&gt;x1:w</title>
<path fill="none" stroke="#a6761d" d="M54,-104.25C69.24,-104.25 70.58,-88.64 79.3,-81.33"/>
<polygon fill="#a6761d" stroke="#a6761d" points="80.26,-84.7 88.57,-78.12 77.97,-78.08 80.26,-84.7"/>
</g>
<!-- n2 -->
<g id="node2" class="node">
<title>n2</title>
<polygon fill="none" stroke="black" points="506.35,-65.79 506.35,-80.71 488.9,-91.25 464.21,-91.25 446.75,-80.71 446.75,-65.79 464.21,-55.25 488.9,-55.25 506.35,-65.79"/>
<text text-anchor="middle" x="476.55" y="-68.58" font-family="Times,serif" font-size="14.00">out</text>
</g>
<!-- c6 -->
<g id="node3" class="node">
<title>c6</title>
<polygon fill="none" stroke="black" points="200.5,-80 200.5,-130.5 300.25,-130.5 300.25,-80 200.5,-80"/>
<text text-anchor="middle" x="213.75" y="-113.2" font-family="Times,serif" font-size="14.00">A</text>
<polyline fill="none" stroke="black" points="200.5,-105.25 227,-105.25"/>
<text text-anchor="middle" x="213.75" y="-87.95" font-family="Times,serif" font-size="14.00">B</text>
<polyline fill="none" stroke="black" points="227,-80 227,-130.5"/>
<text text-anchor="middle" x="251.13" y="-109.2" font-family="Times,serif" font-size="14.00">$3</text>
<text text-anchor="middle" x="251.13" y="-91.95" font-family="Times,serif" font-size="14.00">$xor</text>
<polyline fill="none" stroke="black" points="275.25,-80 275.25,-130.5"/>
<text text-anchor="middle" x="287.75" y="-100.7" font-family="Times,serif" font-size="14.00">Y</text>
</g>
<!-- x2 -->
<g id="node6" class="node">
<title>x2</title>
<path fill="none" stroke="#7570b3" d="M348.25,-85.25C348.25,-85.25 398.75,-85.25 398.75,-85.25 404.75,-85.25 410.75,-91.25 410.75,-97.25 410.75,-97.25 410.75,-109.25 410.75,-109.25 410.75,-115.25 404.75,-121.25 398.75,-121.25 398.75,-121.25 348.25,-121.25 348.25,-121.25 342.25,-121.25 336.25,-115.25 336.25,-109.25 336.25,-109.25 336.25,-97.25 336.25,-97.25 336.25,-91.25 342.25,-85.25 348.25,-85.25"/>
<text text-anchor="middle" x="373.5" y="-98.95" font-family="Times,serif" font-size="14.00" fill="#7570b3">0:0 &#45; 1:1</text>
</g>
<!-- c6&#45;&gt;x2 -->
<g id="edge3" class="edge">
<title>c6:e&#45;&gt;x2:w</title>
<path fill="none" stroke="#7570b3" d="M312.98,-104.84C316.57,-104.52 319.7,-104.13 323.27,-103.81"/>
<polygon fill="none" stroke="#7570b3" points="313.14,-104.83 307.31,-109.08 301.15,-105.34 306.98,-101.09 313.14,-104.83"/>
<polygon fill="none" stroke="#7570b3" points="323.36,-103.8 329.18,-99.55 335.35,-103.29 329.53,-107.54 323.36,-103.8"/>
</g>
<!-- x0&#45;&gt;c6 -->
<g id="edge1" class="edge">
<title>x0:e&#45;&gt;c6:w</title>
<path fill="none" stroke="#e7298a" d="M177.01,-128.92C180.96,-126.59 184.07,-123.51 188.02,-121.19"/>
<polygon fill="none" stroke="#e7298a" points="176.97,-128.93 172.2,-134.34 165.37,-132.02 170.14,-126.61 176.97,-128.93"/>
<polygon fill="none" stroke="#e7298a" points="188.03,-121.19 192.8,-115.78 199.63,-118.11 194.86,-123.51 188.03,-121.19"/>
</g>
<!-- x1&#45;&gt;c6 -->
<g id="edge2" class="edge">
<title>x1:e&#45;&gt;c6:w</title>
<path fill="none" stroke="#7570b3" d="M177.05,-80.82C180.98,-83.3 184.05,-86.6 187.98,-89.08"/>
<polygon fill="none" stroke="#7570b3" points="176.91,-80.78 170.05,-82.98 165.37,-77.5 172.23,-75.29 176.91,-80.78"/>
<polygon fill="none" stroke="#7570b3" points="188.09,-89.11 194.95,-86.9 199.63,-92.38 192.77,-94.59 188.09,-89.11"/>
</g>
<!-- x2&#45;&gt;n2 -->
<g id="edge6" class="edge">
<title>x2:e&#45;&gt;n2:w</title>
<path fill="none" stroke="#d95f02" d="M410.75,-103.62C426.94,-103.62 427.1,-85.45 436.03,-77.22"/>
<polygon fill="#d95f02" stroke="#d95f02" points="437.17,-80.53 445.33,-73.78 434.74,-73.97 437.17,-80.53"/>
</g>
<!-- v3 -->
<g id="node7" class="node">
<title>v3</title>
<ellipse fill="none" stroke="black" cx="250.38" cy="-43.25" rx="27" ry="18"/>
<text text-anchor="middle" x="250.38" y="-38.58" font-family="Times,serif" font-size="14.00">1&#39;0</text>
</g>
<!-- x4 -->
<g id="node8" class="node">
<title>x4</title>
<path fill="none" stroke="#7570b3" d="M348.25,-28.25C348.25,-28.25 398.75,-28.25 398.75,-28.25 404.75,-28.25 410.75,-34.25 410.75,-40.25 410.75,-40.25 410.75,-52.25 410.75,-52.25 410.75,-58.25 404.75,-64.25 398.75,-64.25 398.75,-64.25 348.25,-64.25 348.25,-64.25 342.25,-64.25 336.25,-58.25 336.25,-52.25 336.25,-52.25 336.25,-40.25 336.25,-40.25 336.25,-34.25 342.25,-28.25 348.25,-28.25"/>
<text text-anchor="middle" x="373.5" y="-41.95" font-family="Times,serif" font-size="14.00" fill="#7570b3">0:0 &#45; 0:0</text>
</g>
<!-- v3&#45;&gt;x4 -->
<g id="edge8" class="edge">
<title>v3:e&#45;&gt;x4:w</title>
<path fill="none" stroke="#e6ab02" d="M278.63,-43.25C300.07,-43.25 308.01,-45.35 325.02,-46.03"/>
<polygon fill="#e6ab02" stroke="#e6ab02" points="324.67,-49.53 334.74,-46.22 324.81,-42.53 324.67,-49.53"/>
</g>
<!-- x4&#45;&gt;n2 -->
<g id="edge7" class="edge">
<title>x4:e&#45;&gt;n2:w</title>
<path fill="none" stroke="#d95f02" d="M410.75,-46.62C425.99,-46.62 427.33,-62.23 436.05,-69.55"/>
<polygon fill="#d95f02" stroke="#d95f02" points="434.72,-72.79 445.32,-72.75 437.01,-66.18 434.72,-72.79"/>
</g>
</g>
</svg>
