<?xml version="1.0" encoding="UTF-8" standalone="no"?>
<!-- Generated by graphviz version 12.2.1 (0)
 -->

<!-- Title: not_dff_tmr Pages: 1 -->

<svg
   width="1285.6233pt"
   height="210.62355pt"
   viewBox="0 0 1285.7724 210.62355"
   version="1.1"
   id="svg68"
   sodipodi:docname="fix_walker_after.svg"
   inkscape:version="1.4.1 (93de688d07, 2025-03-30)"
   xmlns:inkscape="http://www.inkscape.org/namespaces/inkscape"
   xmlns:sodipodi="http://sodipodi.sourceforge.net/DTD/sodipodi-0.dtd"
   xmlns="http://www.w3.org/2000/svg"
   xmlns:svg="http://www.w3.org/2000/svg">
  <defs
     id="defs68" />
  <sodipodi:namedview
     id="namedview68"
     pagecolor="#ffffff"
     bordercolor="#666666"
     borderopacity="1.0"
     inkscape:showpageshadow="2"
     inkscape:pageopacity="0.0"
     inkscape:pagecheckerboard="0"
     inkscape:deskcolor="#d1d1d1"
     inkscape:document-units="pt"
     inkscape:zoom="0.57184278"
     inkscape:cx="1199.6304"
     inkscape:cy="71.698028"
     inkscape:window-width="1920"
     inkscape:window-height="1010"
     inkscape:window-x="0"
     inkscape:window-y="0"
     inkscape:window-maximized="1"
     inkscape:current-layer="svg68" />
  <text
     text-anchor="middle"
     x="1047.28"
     y="208.78777"
     font-family="Times, serif"
     font-size="14px"
     id="text1">not_dff_tmr</text>
  <g
     id="node1"
     class="node"
     transform="translate(-112.85,216.73779)">
    <title
       id="title2">n14</title>
    <polygon
       fill="none"
       stroke="#000000"
       points="129.69,-76 152.05,-76 167.87,-86.54 167.87,-101.46 152.05,-112 129.69,-112 113.87,-101.46 113.87,-86.54 "
       id="polygon2" />
    <text
       text-anchor="middle"
       x="140.87"
       y="-89.330002"
       font-family="Times, serif"
       font-size="14px"
       id="text2">a</text>
  </g>
  <g
     id="node10"
     class="node"
     transform="translate(-112.85,216.73779)">
    <title
       id="title3">c32</title>
    <polygon
       fill="none"
       stroke="#006400"
       points="600.49,-146.25 600.49,-95.75 317.74,-95.75 317.74,-146.25 "
       id="polygon3" />
    <text
       text-anchor="middle"
       x="340.73999"
       y="-128.95"
       font-family="Times, serif"
       font-size="14px"
       fill="#006400"
       id="text3">CLK</text>
    <polyline
       fill="none"
       stroke="#006400"
       points="317.74,-121 363.74,-121"
       id="polyline3" />
    <text
       text-anchor="middle"
       x="340.73999"
       y="-103.7"
       font-family="Times, serif"
       font-size="14px"
       fill="#006400"
       id="text4">D</text>
    <polyline
       fill="none"
       stroke="#006400"
       points="363.74,-95.75 363.74,-146.25"
       id="polyline4" />
    <text
       text-anchor="middle"
       x="468.48999"
       y="-124.95"
       font-family="Times, serif"
       font-size="14px"
       fill="#006400"
       id="text5">$procdff$6$replica2_cone0</text>
    <text
       text-anchor="middle"
       x="468.48999"
       y="-107.7"
       font-family="Times, serif"
       font-size="14px"
       fill="#006400"
       id="text6">$dff</text>
    <polyline
       fill="none"
       stroke="#006400"
       points="573.24,-95.75 573.24,-146.25"
       id="polyline6" />
    <text
       text-anchor="middle"
       x="586.87"
       y="-116.45"
       font-family="Times, serif"
       font-size="14px"
       fill="#006400"
       id="text7">Q</text>
  </g>
  <g
     id="edge6"
     class="edge"
     transform="translate(-112.85,216.73779)">
    <title
       id="title7">n14:e-&gt;c32:w</title>
    <path
       fill="none"
       stroke="#e6ab02"
       d="m 169.12,-94 c 62.47,0 80.22,-12.74 137.45,-14.23"
       id="path7" />
    <polygon
       fill="#e6ab02"
       stroke="#e6ab02"
       points="306.18,-111.73 316.23,-108.36 306.27,-104.73 "
       id="polygon7" />
  </g>
  <g
     id="node11"
     class="node"
     transform="translate(-112.85,216.73779)">
    <title
       id="title8">c33</title>
    <polygon
       fill="none"
       stroke="#006400"
       points="600.49,-216.25 600.49,-165.75 317.74,-165.75 317.74,-216.25 "
       id="polygon8" />
    <text
       text-anchor="middle"
       x="340.73999"
       y="-198.95"
       font-family="Times, serif"
       font-size="14px"
       fill="#006400"
       id="text8">CLK</text>
    <polyline
       fill="none"
       stroke="#006400"
       points="317.74,-191 363.74,-191"
       id="polyline8" />
    <text
       text-anchor="middle"
       x="340.73999"
       y="-173.7"
       font-family="Times, serif"
       font-size="14px"
       fill="#006400"
       id="text9">D</text>
    <polyline
       fill="none"
       stroke="#006400"
       points="363.74,-165.75 363.74,-216.25"
       id="polyline9" />
    <text
       text-anchor="middle"
       x="468.48999"
       y="-194.95"
       font-family="Times, serif"
       font-size="14px"
       fill="#006400"
       id="text10">$procdff$6$replica1_cone0</text>
    <text
       text-anchor="middle"
       x="468.48999"
       y="-177.7"
       font-family="Times, serif"
       font-size="14px"
       fill="#006400"
       id="text11">$dff</text>
    <polyline
       fill="none"
       stroke="#006400"
       points="573.24,-165.75 573.24,-216.25"
       id="polyline11" />
    <text
       text-anchor="middle"
       x="586.87"
       y="-186.45"
       font-family="Times, serif"
       font-size="14px"
       fill="#006400"
       id="text12">Q</text>
  </g>
  <g
     id="edge7"
     class="edge"
     transform="translate(-112.85,216.73779)">
    <title
       id="title12">n14:e-&gt;c33:w</title>
    <path
       fill="none"
       stroke="#e6ab02"
       d="m 169.12,-94 c 51.47,0 70.82,3.03 112.62,-27 20.63,-14.82 10.64,-45.48 25.1,-54.7"
       id="path12" />
    <polygon
       fill="#e6ab02"
       stroke="#e6ab02"
       points="305.72,-179.02 316.27,-178.01 307.4,-172.23 "
       id="polygon12" />
  </g>
  <g
     id="node15"
     class="node"
     transform="translate(-112.85,216.73779)">
    <title
       id="title13">c37</title>
    <polygon
       fill="none"
       stroke="#006400"
       points="542.74,-76.25 542.74,-25.75 375.49,-25.75 375.49,-76.25 "
       id="polygon13" />
    <text
       text-anchor="middle"
       x="398.48999"
       y="-58.950001"
       font-family="Times, serif"
       font-size="14px"
       fill="#006400"
       id="text13">CLK</text>
    <polyline
       fill="none"
       stroke="#006400"
       points="375.49,-51 421.49,-51"
       id="polyline13" />
    <text
       text-anchor="middle"
       x="398.48999"
       y="-33.700001"
       font-family="Times, serif"
       font-size="14px"
       fill="#006400"
       id="text14">D</text>
    <polyline
       fill="none"
       stroke="#006400"
       points="421.49,-25.75 421.49,-76.25"
       id="polyline14" />
    <text
       text-anchor="middle"
       x="468.48999"
       y="-54.950001"
       font-family="Times, serif"
       font-size="14px"
       fill="#006400"
       id="text15">$procdff$6</text>
    <text
       text-anchor="middle"
       x="468.48999"
       y="-37.700001"
       font-family="Times, serif"
       font-size="14px"
       fill="#006400"
       id="text16">$dff</text>
    <polyline
       fill="none"
       stroke="#006400"
       points="515.49,-25.75 515.49,-76.25"
       id="polyline16" />
    <text
       text-anchor="middle"
       x="529.12"
       y="-46.450001"
       font-family="Times, serif"
       font-size="14px"
       fill="#006400"
       id="text17">Q</text>
  </g>
  <g
     id="edge8"
     class="edge"
     transform="translate(-112.85,216.73779)">
    <title
       id="title17">n14:e-&gt;c37:w</title>
    <path
       fill="none"
       stroke="#e6ab02"
       d="m 169.12,-94 c 90.69,0 109.34,51.16 194.12,55.35"
       id="path17" />
    <polygon
       fill="#e6ab02"
       stroke="#e6ab02"
       points="363.06,-42.15 372.98,-38.41 362.89,-35.16 "
       id="polygon17" />
  </g>
  <g
     id="node2"
     class="node"
     transform="translate(-112.85,216.73779)">
    <title
       id="title18">n15</title>
    <polygon
       fill="none"
       stroke="#000000"
       points="129.47,-130 152.27,-130 168.39,-140.54 168.39,-155.46 152.27,-166 129.47,-166 113.35,-155.46 113.35,-140.54 "
       id="polygon18" />
    <text
       text-anchor="middle"
       x="140.87"
       y="-143.32001"
       font-family="Times, serif"
       font-size="14px"
       id="text18">clk</text>
  </g>
  <g
     id="edge9"
     class="edge"
     transform="translate(-112.85,216.73779)">
    <title
       id="title19">n15:e-&gt;c32:w</title>
    <path
       fill="none"
       stroke="#e6ab02"
       d="m 169.65,-148 c 62.12,0 79.86,12.69 136.61,14.22"
       id="path19" />
    <polygon
       fill="#e6ab02"
       stroke="#e6ab02"
       points="306.27,-137.28 316.23,-133.65 306.18,-130.28 "
       id="polygon19" />
  </g>
  <g
     id="edge10"
     class="edge"
     transform="translate(-112.85,216.73779)">
    <title
       id="title20">n15:e-&gt;c33:w</title>
    <path
       fill="none"
       stroke="#e6ab02"
       d="m 169.65,-148 c 51.24,0 66.04,-4.52 112.09,-27 14.06,-6.86 15.71,-20 24.89,-25.78"
       id="path20" />
    <polygon
       fill="#e6ab02"
       stroke="#e6ab02"
       points="305.72,-204.16 316.27,-203.25 307.46,-197.38 "
       id="polygon20" />
  </g>
  <g
     id="edge11"
     class="edge"
     transform="translate(-112.85,216.73779)">
    <title
       id="title21">n15:e-&gt;c37:w</title>
    <path
       fill="none"
       stroke="#e6ab02"
       d="m 169.65,-148 c 51.24,0 67.22,2.26 112.09,27 19.54,10.77 17.25,22.89 36,35 19.22,12.41 27.1,19.81 45.39,21.82"
       id="path21" />
    <polygon
       fill="#e6ab02"
       stroke="#e6ab02"
       points="363.16,-67.69 372.98,-63.7 362.82,-60.7 "
       id="polygon21" />
  </g>
  <g
     id="node4"
     class="node"
     transform="translate(-340.4302,214.77024)">
    <title
       id="title23">n17</title>
    <polygon
       fill="none"
       stroke="#006400"
       points="919.99,-57 892.99,-75 865.99,-57 892.99,-39 "
       id="polygon23" />
    <text
       text-anchor="middle"
       x="892.98999"
       y="-52.330002"
       font-family="Times, serif"
       font-size="14px"
       fill="#006400"
       id="text23">ff</text>
  </g>
  <g
     id="node12"
     class="node"
     transform="translate(-333.21584,221.9846)">
    <title
       id="title24">c34</title>
    <polygon
       fill="none"
       stroke="#006400"
       points="1582.99,-42.75 1185.49,-42.75 1185.49,-85.25 1582.99,-85.25 "
       id="polygon24" />
    <text
       text-anchor="middle"
       x="1198.37"
       y="-59.450001"
       font-family="Times, serif"
       font-size="14px"
       fill="#006400"
       id="text24">A</text>
    <polyline
       fill="none"
       stroke="#006400"
       points="1211.24,-42.75 1211.24,-85.25"
       id="polyline24" />
    <text
       text-anchor="middle"
       x="1384.62"
       y="-67.949997"
       font-family="Times, serif"
       font-size="14px"
       fill="#006400"
       id="text25">$logic_not$../tests/verilog/not_dff_tmr.sv:21$2</text>
    <text
       text-anchor="middle"
       x="1384.62"
       y="-50.700001"
       font-family="Times, serif"
       font-size="14px"
       fill="#006400"
       id="text26">$logic_not</text>
    <polyline
       fill="none"
       stroke="#006400"
       points="1557.99,-42.75 1557.99,-85.25"
       id="polyline26" />
    <text
       text-anchor="middle"
       x="1570.49"
       y="-59.450001"
       font-family="Times, serif"
       font-size="14px"
       fill="#006400"
       id="text27">Y</text>
  </g>
  <g
     id="edge14"
     class="edge"
     transform="translate(-338.23565,219.52033)">
    <title
       id="title27">n17:e-&gt;c34:w</title>
    <path
       fill="none"
       stroke="#006400"
       d="m 921.8,-57 c 113.35,0 144.42,-6.66 252.3,-7.1"
       id="path27" />
    <polygon
       fill="#006400"
       stroke="#006400"
       points="1183.98,-64.12 1173.98,-60.6 1173.97,-67.6 "
       id="polygon27" />
  </g>
  <g
     id="node14"
     class="node"
     transform="translate(-112.85,216.73779)">
    <title
       id="title46">c36</title>
    <polygon
       fill="none"
       stroke="#006400"
       points="1149.49,-142.25 1149.49,-99.75 636.49,-99.75 636.49,-142.25 "
       id="polygon46" />
    <text
       text-anchor="middle"
       x="649.37"
       y="-116.45"
       font-family="Times, serif"
       font-size="14px"
       fill="#006400"
       id="text46">A</text>
    <polyline
       fill="none"
       stroke="#006400"
       points="662.24,-99.75 662.24,-142.25"
       id="polyline46" />
    <text
       text-anchor="middle"
       x="893.37"
       y="-124.95"
       font-family="Times, serif"
       font-size="14px"
       fill="#006400"
       id="text47">$logic_not$../tests/verilog/not_dff_tmr.sv:21$2$replica2_cone0</text>
    <text
       text-anchor="middle"
       x="893.37"
       y="-107.7"
       font-family="Times, serif"
       font-size="14px"
       fill="#006400"
       id="text48">$logic_not</text>
    <polyline
       fill="none"
       stroke="#006400"
       points="1124.49,-99.75 1124.49,-142.25"
       id="polyline48" />
    <text
       text-anchor="middle"
       x="1136.99"
       y="-116.45"
       font-family="Times, serif"
       font-size="14px"
       fill="#006400"
       id="text49">Y</text>
  </g>
  <g
     id="edge1"
     class="edge"
     transform="translate(-112.85,216.73779)">
    <title
       id="title49">c32:e-&gt;c36:w</title>
    <path
       fill="none"
       stroke="#e7298a"
       d="m 600.49,-121.12 c 11.38,0 16.68,0 24.55,0"
       id="path49" />
    <polygon
       fill="#e7298a"
       stroke="#e7298a"
       points="624.98,-124.63 634.98,-121.13 624.98,-117.63 "
       id="polygon49" />
  </g>
  <g
     id="node13"
     class="node"
     transform="translate(-112.85,216.73779)">
    <title
       id="title50">c35</title>
    <polygon
       fill="none"
       stroke="#006400"
       points="1149.49,-208.25 1149.49,-165.75 636.49,-165.75 636.49,-208.25 "
       id="polygon50" />
    <text
       text-anchor="middle"
       x="649.37"
       y="-182.45"
       font-family="Times, serif"
       font-size="14px"
       fill="#006400"
       id="text50">A</text>
    <polyline
       fill="none"
       stroke="#006400"
       points="662.24,-165.75 662.24,-208.25"
       id="polyline50" />
    <text
       text-anchor="middle"
       x="893.37"
       y="-190.95"
       font-family="Times, serif"
       font-size="14px"
       fill="#006400"
       id="text51">$logic_not$../tests/verilog/not_dff_tmr.sv:21$2$replica1_cone0</text>
    <text
       text-anchor="middle"
       x="893.37"
       y="-173.7"
       font-family="Times, serif"
       font-size="14px"
       fill="#006400"
       id="text52">$logic_not</text>
    <polyline
       fill="none"
       stroke="#006400"
       points="1124.49,-165.75 1124.49,-208.25"
       id="polyline52" />
    <text
       text-anchor="middle"
       x="1136.99"
       y="-182.45"
       font-family="Times, serif"
       font-size="14px"
       fill="#006400"
       id="text53">Y</text>
  </g>
  <g
     id="edge15"
     class="edge"
     transform="translate(-112.85,216.73779)">
    <title
       id="title53">c33:e-&gt;c35:w</title>
    <path
       fill="none"
       stroke="#d95f02"
       d="m 600.49,-191.12 c 11.45,0 16.68,2.02 24.53,3.19"
       id="path53" />
    <polygon
       fill="#d95f02"
       stroke="#d95f02"
       points="625.25,-191.43 634.98,-187.23 624.76,-184.44 "
       id="polygon53" />
  </g>
  <g
     id="edge2"
     class="edge"
     transform="translate(-333.21584,227.2314)">
    <title
       id="title55">c34:e-&gt;x2:w</title>
    <path
       fill="none"
       stroke="#7570b3"
       d="m 1582.99,-64.12 c 12.84,0 16.81,-8.57 24.93,-13.11"
       id="path55" />
    <polygon
       fill="#7570b3"
       stroke="#7570b3"
       points="1617.52,-79.63 1608.67,-73.81 1606.97,-80.6 "
       id="polygon55" />
  </g>
  <g
     id="node16"
     class="node"
     transform="translate(-112.85,216.73779)">
    <title
       id="title56">x0</title>
    <circle
       fill="#000000"
       stroke="#000000"
       cx="1384.24"
       cy="-169"
       id="ellipse56"
       r="1.8" />
  </g>
  <g
     id="edge4"
     class="edge"
     transform="translate(-112.85,216.73779)">
    <title
       id="title57">c35:e-&gt;x0:w</title>
    <path
       fill="none"
       stroke="#a6761d"
       d="m 1149.49,-187.12 c 99.26,0 126.26,16.77 220.01,18.04"
       id="path57" />
    <polygon
       fill="#a6761d"
       stroke="#a6761d"
       points="1369.47,-172.58 1379.45,-169.01 1369.43,-165.58 "
       id="polygon57" />
  </g>
  <g
     id="edge3"
     class="edge"
     transform="matrix(0.48242234,0,0,1.0598914,482.27023,223.98465)">
    <title
       id="title59">c36:e-&gt;x1:w</title>
    <path
       fill="none"
       stroke="#7570b3"
       d="m 1149.49,-121.12 c 204.79,-0.01 258.84,0.12 458.04,0.12"
       id="path59" />
    <polygon
       fill="#7570b3"
       stroke="#7570b3"
       points="1617.48,-121 1607.48,-117.5 1607.48,-124.5 "
       id="polygon59" />
  </g>
  <g
     id="edge13"
     class="edge"
     transform="matrix(0.28660537,0,0,1.0654703,275.2307,220.39805)">
    <title
       id="title60">c37:e-&gt;n17:w</title>
    <path
       fill="none"
       stroke="#006400"
       d="m 543.74,-51.12 c 138.55,-0.01 175.97,-5.56 308.99,-5.87"
       id="path60" />
    <polygon
       fill="#006400"
       stroke="#006400"
       points="862.66,-57 852.67,-53.49 852.66,-60.49 "
       id="polygon60" />
  </g>
</svg>
