<?xml version="1.0" encoding="UTF-8" standalone="no"?>
<!-- Generated by graphviz version 12.2.1 (0)
 -->

<!-- Title: not_dff_tmr Pages: 1 -->

<svg
   width="1168.6122pt"
   height="214.38672pt"
   viewBox="0 0 1168.6736 214.38672"
   version="1.1"
   id="svg47"
   sodipodi:docname="fix_walker_before.svg"
   inkscape:version="1.4.1 (93de688d07, 2025-03-30)"
   xmlns:inkscape="http://www.inkscape.org/namespaces/inkscape"
   xmlns:sodipodi="http://sodipodi.sourceforge.net/DTD/sodipodi-0.dtd"
   xmlns="http://www.w3.org/2000/svg"
   xmlns:svg="http://www.w3.org/2000/svg">
  <defs
     id="defs47" />
  <sodipodi:namedview
     id="namedview47"
     pagecolor="#ffffff"
     bordercolor="#666666"
     borderopacity="1.0"
     inkscape:showpageshadow="2"
     inkscape:pageopacity="0.0"
     inkscape:pagecheckerboard="0"
     inkscape:deskcolor="#d1d1d1"
     inkscape:document-units="pt"
     inkscape:zoom="0.61848614"
     inkscape:cx="674.22691"
     inkscape:cy="179.47047"
     inkscape:window-width="1920"
     inkscape:window-height="1010"
     inkscape:window-x="0"
     inkscape:window-y="0"
     inkscape:window-maximized="1"
     inkscape:current-layer="svg47" />
  <text
     text-anchor="middle"
     x="645.32996"
     y="212.53975"
     font-family="Times, serif"
     font-size="14px"
     id="text1">not_dff_tmr</text>
  <g
     id="node1"
     class="node"
     transform="translate(-111.71,220.48975)">
    <title
       id="title2">n5</title>
    <polygon
       fill="none"
       stroke="#000000"
       points="113.87,-101.46 113.87,-86.54 129.69,-76 152.05,-76 167.87,-86.54 167.87,-101.46 152.05,-112 129.69,-112 "
       id="polygon2" />
    <text
       text-anchor="middle"
       x="140.87"
       y="-89.330002"
       font-family="Times, serif"
       font-size="14px"
       id="text2">a</text>
  </g>
  <g
     id="node8"
     class="node"
     transform="translate(-111.71,220.48975)">
    <title
       id="title3">c15</title>
    <polygon
       fill="none"
       stroke="#006400"
       points="317.74,-165.75 317.74,-216.25 600.49,-216.25 600.49,-165.75 "
       id="polygon3" />
    <text
       text-anchor="middle"
       x="340.73999"
       y="-198.95"
       font-family="Times, serif"
       font-size="14px"
       fill="#006400"
       id="text3">CLK</text>
    <polyline
       fill="none"
       stroke="#006400"
       points="317.74,-191 363.74,-191"
       id="polyline3" />
    <text
       text-anchor="middle"
       x="340.73999"
       y="-173.7"
       font-family="Times, serif"
       font-size="14px"
       fill="#006400"
       id="text4">D</text>
    <polyline
       fill="none"
       stroke="#006400"
       points="363.74,-165.75 363.74,-216.25"
       id="polyline4" />
    <text
       text-anchor="middle"
       x="468.48999"
       y="-194.95"
       font-family="Times, serif"
       font-size="14px"
       fill="#006400"
       id="text5">$procdff$6$replica2_cone0</text>
    <text
       text-anchor="middle"
       x="468.48999"
       y="-177.7"
       font-family="Times, serif"
       font-size="14px"
       fill="#006400"
       id="text6">$dff</text>
    <polyline
       fill="none"
       stroke="#006400"
       points="573.24,-165.75 573.24,-216.25"
       id="polyline6" />
    <text
       text-anchor="middle"
       x="586.87"
       y="-186.45"
       font-family="Times, serif"
       font-size="14px"
       fill="#006400"
       id="text7">Q</text>
  </g>
  <g
     id="edge4"
     class="edge"
     transform="translate(-111.71,220.48975)">
    <title
       id="title7">n5:e-&gt;c15:w</title>
    <path
       fill="none"
       stroke="#a6761d"
       d="m 169.12,-94 c 51.47,0 70.82,3.03 112.62,-27 20.63,-14.82 10.64,-45.48 25.1,-54.7"
       id="path7" />
    <polygon
       fill="#a6761d"
       stroke="#a6761d"
       points="316.27,-178.01 307.4,-172.23 305.72,-179.02 "
       id="polygon7" />
  </g>
  <g
     id="node9"
     class="node"
     transform="translate(-111.71,220.48975)">
    <title
       id="title8">c16</title>
    <polygon
       fill="none"
       stroke="#006400"
       points="317.74,-95.75 317.74,-146.25 600.49,-146.25 600.49,-95.75 "
       id="polygon8" />
    <text
       text-anchor="middle"
       x="340.73999"
       y="-128.95"
       font-family="Times, serif"
       font-size="14px"
       fill="#006400"
       id="text8">CLK</text>
    <polyline
       fill="none"
       stroke="#006400"
       points="317.74,-121 363.74,-121"
       id="polyline8" />
    <text
       text-anchor="middle"
       x="340.73999"
       y="-103.7"
       font-family="Times, serif"
       font-size="14px"
       fill="#006400"
       id="text9">D</text>
    <polyline
       fill="none"
       stroke="#006400"
       points="363.74,-95.75 363.74,-146.25"
       id="polyline9" />
    <text
       text-anchor="middle"
       x="468.48999"
       y="-124.95"
       font-family="Times, serif"
       font-size="14px"
       fill="#006400"
       id="text10">$procdff$6$replica1_cone0</text>
    <text
       text-anchor="middle"
       x="468.48999"
       y="-107.7"
       font-family="Times, serif"
       font-size="14px"
       fill="#006400"
       id="text11">$dff</text>
    <polyline
       fill="none"
       stroke="#006400"
       points="573.24,-95.75 573.24,-146.25"
       id="polyline11" />
    <text
       text-anchor="middle"
       x="586.87"
       y="-116.45"
       font-family="Times, serif"
       font-size="14px"
       fill="#006400"
       id="text12">Q</text>
  </g>
  <g
     id="edge5"
     class="edge"
     transform="translate(-111.71,220.48975)">
    <title
       id="title12">n5:e-&gt;c16:w</title>
    <path
       fill="none"
       stroke="#a6761d"
       d="m 169.12,-94 c 62.47,0 80.22,-12.74 137.45,-14.23"
       id="path12" />
    <polygon
       fill="#a6761d"
       stroke="#a6761d"
       points="316.23,-108.36 306.27,-104.73 306.18,-111.73 "
       id="polygon12" />
  </g>
  <g
     id="node13"
     class="node"
     transform="translate(-111.71,220.48975)">
    <title
       id="title13">c22</title>
    <polygon
       fill="none"
       stroke="#006400"
       points="375.49,-25.75 375.49,-76.25 542.74,-76.25 542.74,-25.75 "
       id="polygon13" />
    <text
       text-anchor="middle"
       x="398.48999"
       y="-58.950001"
       font-family="Times, serif"
       font-size="14px"
       fill="#006400"
       id="text13">CLK</text>
    <polyline
       fill="none"
       stroke="#006400"
       points="375.49,-51 421.49,-51"
       id="polyline13" />
    <text
       text-anchor="middle"
       x="398.48999"
       y="-33.700001"
       font-family="Times, serif"
       font-size="14px"
       fill="#006400"
       id="text14">D</text>
    <polyline
       fill="none"
       stroke="#006400"
       points="421.49,-25.75 421.49,-76.25"
       id="polyline14" />
    <text
       text-anchor="middle"
       x="468.48999"
       y="-54.950001"
       font-family="Times, serif"
       font-size="14px"
       fill="#006400"
       id="text15">$procdff$6</text>
    <text
       text-anchor="middle"
       x="468.48999"
       y="-37.700001"
       font-family="Times, serif"
       font-size="14px"
       fill="#006400"
       id="text16">$dff</text>
    <polyline
       fill="none"
       stroke="#006400"
       points="515.49,-25.75 515.49,-76.25"
       id="polyline16" />
    <text
       text-anchor="middle"
       x="529.12"
       y="-46.450001"
       font-family="Times, serif"
       font-size="14px"
       fill="#006400"
       id="text17">Q</text>
  </g>
  <g
     id="edge6"
     class="edge"
     transform="translate(-111.71,220.48975)">
    <title
       id="title17">n5:e-&gt;c22:w</title>
    <path
       fill="none"
       stroke="#a6761d"
       d="m 169.12,-94 c 90.69,0 109.34,51.16 194.12,55.35"
       id="path17" />
    <polygon
       fill="#a6761d"
       stroke="#a6761d"
       points="372.98,-38.41 362.89,-35.16 363.06,-42.15 "
       id="polygon17" />
  </g>
  <g
     id="node2"
     class="node"
     transform="translate(-111.71,220.48975)">
    <title
       id="title18">n6</title>
    <polygon
       fill="none"
       stroke="#000000"
       points="113.35,-155.46 113.35,-140.54 129.47,-130 152.27,-130 168.39,-140.54 168.39,-155.46 152.27,-166 129.47,-166 "
       id="polygon18" />
    <text
       text-anchor="middle"
       x="140.87"
       y="-143.32001"
       font-family="Times, serif"
       font-size="14px"
       id="text18">clk</text>
  </g>
  <g
     id="edge7"
     class="edge"
     transform="translate(-111.71,220.48975)">
    <title
       id="title19">n6:e-&gt;c15:w</title>
    <path
       fill="none"
       stroke="#d95f02"
       d="m 169.65,-148 c 51.24,0 66.04,-4.52 112.09,-27 14.06,-6.86 15.71,-20 24.89,-25.78"
       id="path19" />
    <polygon
       fill="#d95f02"
       stroke="#d95f02"
       points="316.27,-203.25 307.46,-197.38 305.72,-204.16 "
       id="polygon19" />
  </g>
  <g
     id="edge8"
     class="edge"
     transform="translate(-111.71,220.48975)">
    <title
       id="title20">n6:e-&gt;c16:w</title>
    <path
       fill="none"
       stroke="#d95f02"
       d="m 169.65,-148 c 62.12,0 79.86,12.69 136.61,14.22"
       id="path20" />
    <polygon
       fill="#d95f02"
       stroke="#d95f02"
       points="316.23,-133.65 306.18,-130.28 306.27,-137.28 "
       id="polygon20" />
  </g>
  <g
     id="edge9"
     class="edge"
     transform="translate(-111.71,220.48975)">
    <title
       id="title21">n6:e-&gt;c22:w</title>
    <path
       fill="none"
       stroke="#d95f02"
       d="m 169.65,-148 c 51.24,0 67.22,2.26 112.09,27 19.54,10.77 17.25,22.89 36,35 19.22,12.41 27.1,19.81 45.39,21.82"
       id="path21" />
    <polygon
       fill="#d95f02"
       stroke="#d95f02"
       points="372.98,-63.7 362.82,-60.7 363.16,-67.69 "
       id="polygon21" />
  </g>
  <g
     id="node3"
     class="node"
     transform="translate(-111.71,220.48975)">
    <title
       id="title22">n7</title>
    <polygon
       fill="none"
       stroke="#000000"
       points="112.21,-209.46 112.21,-194.54 129,-184 152.74,-184 169.53,-194.54 169.53,-209.46 152.74,-220 129,-220 "
       id="polygon22" />
    <text
       text-anchor="middle"
       x="140.87"
       y="-197.32001"
       font-family="Times, serif"
       font-size="14px"
       id="text22">err</text>
  </g>
  <g
     id="node4"
     class="node"
     transform="translate(-111.71,220.48975)">
    <title
       id="title23">n8</title>
    <polygon
       fill="none"
       stroke="#006400"
       points="663.49,-139 636.49,-121 663.49,-103 690.49,-121 "
       id="polygon23" />
    <text
       text-anchor="middle"
       x="663.48999"
       y="-116.33"
       font-family="Times, serif"
       font-size="14px"
       fill="#006400"
       id="text23">ff</text>
  </g>
  <g
     id="node10"
     class="node"
     transform="translate(-111.71,220.48975)">
    <title
       id="title24">c19</title>
    <polygon
       fill="none"
       stroke="#006400"
       points="784.24,-161.75 784.24,-204.25 1181.74,-204.25 1181.74,-161.75 "
       id="polygon24" />
    <text
       text-anchor="middle"
       x="797.12"
       y="-178.45"
       font-family="Times, serif"
       font-size="14px"
       fill="#006400"
       id="text24">A</text>
    <polyline
       fill="none"
       stroke="#006400"
       points="809.99,-161.75 809.99,-204.25"
       id="polyline24" />
    <text
       text-anchor="middle"
       x="983.37"
       y="-186.95"
       font-family="Times, serif"
       font-size="14px"
       fill="#006400"
       id="text25">$logic_not$../tests/verilog/not_dff_tmr.sv:21$2</text>
    <text
       text-anchor="middle"
       x="983.37"
       y="-169.7"
       font-family="Times, serif"
       font-size="14px"
       fill="#006400"
       id="text26">$logic_not</text>
    <polyline
       fill="none"
       stroke="#006400"
       points="1156.74,-161.75 1156.74,-204.25"
       id="polyline26" />
    <text
       text-anchor="middle"
       x="1169.24"
       y="-178.45"
       font-family="Times, serif"
       font-size="14px"
       fill="#006400"
       id="text27">Y</text>
  </g>
  <g
     id="edge13"
     class="edge"
     transform="translate(-111.71,220.48975)">
    <title
       id="title27">n8:e-&gt;c19:w</title>
    <path
       fill="none"
       stroke="#006400"
       d="m 690.49,-121 c 21.11,0 18.65,-18.97 36,-31 20.13,-13.96 26.27,-26.71 45.41,-30.19"
       id="path27" />
    <polygon
       fill="#006400"
       stroke="#006400"
       points="781.73,-183 772.05,-178.69 771.48,-185.67 "
       id="polygon27" />
  </g>
  <g
     id="node11"
     class="node"
     transform="translate(-111.71,220.48975)">
    <title
       id="title28">c20</title>
    <polygon
       fill="none"
       stroke="#006400"
       points="726.49,-99.75 726.49,-142.25 1239.49,-142.25 1239.49,-99.75 "
       id="polygon28" />
    <text
       text-anchor="middle"
       x="739.37"
       y="-116.45"
       font-family="Times, serif"
       font-size="14px"
       fill="#006400"
       id="text28">A</text>
    <polyline
       fill="none"
       stroke="#006400"
       points="752.24,-99.75 752.24,-142.25"
       id="polyline28" />
    <text
       text-anchor="middle"
       x="983.37"
       y="-124.95"
       font-family="Times, serif"
       font-size="14px"
       fill="#006400"
       id="text29">$logic_not$../tests/verilog/not_dff_tmr.sv:21$2$replica1_cone0</text>
    <text
       text-anchor="middle"
       x="983.37"
       y="-107.7"
       font-family="Times, serif"
       font-size="14px"
       fill="#006400"
       id="text30">$logic_not</text>
    <polyline
       fill="none"
       stroke="#006400"
       points="1214.49,-99.75 1214.49,-142.25"
       id="polyline30" />
    <text
       text-anchor="middle"
       x="1226.99"
       y="-116.45"
       font-family="Times, serif"
       font-size="14px"
       fill="#006400"
       id="text31">Y</text>
  </g>
  <g
     id="edge14"
     class="edge"
     transform="translate(-111.71,220.48975)">
    <title
       id="title31">n8:e-&gt;c20:w</title>
    <path
       fill="none"
       stroke="#006400"
       d="m 690.49,-121 c 11.38,0 16.68,-0.06 24.55,-0.1"
       id="path31" />
    <polygon
       fill="#006400"
       stroke="#006400"
       points="724.98,-121.12 714.98,-117.6 714.97,-124.6 "
       id="polygon31" />
  </g>
  <g
     id="node12"
     class="node"
     transform="translate(-111.71,220.48975)">
    <title
       id="title32">c21</title>
    <polygon
       fill="none"
       stroke="#006400"
       points="726.49,-37.75 726.49,-80.25 1239.49,-80.25 1239.49,-37.75 "
       id="polygon32" />
    <text
       text-anchor="middle"
       x="739.37"
       y="-54.450001"
       font-family="Times, serif"
       font-size="14px"
       fill="#006400"
       id="text32">A</text>
    <polyline
       fill="none"
       stroke="#006400"
       points="752.24,-37.75 752.24,-80.25"
       id="polyline32" />
    <text
       text-anchor="middle"
       x="983.37"
       y="-62.950001"
       font-family="Times, serif"
       font-size="14px"
       fill="#006400"
       id="text33">$logic_not$../tests/verilog/not_dff_tmr.sv:21$2$replica2_cone0</text>
    <text
       text-anchor="middle"
       x="983.37"
       y="-45.700001"
       font-family="Times, serif"
       font-size="14px"
       fill="#006400"
       id="text34">$logic_not</text>
    <polyline
       fill="none"
       stroke="#006400"
       points="1214.49,-37.75 1214.49,-80.25"
       id="polyline34" />
    <text
       text-anchor="middle"
       x="1226.99"
       y="-54.450001"
       font-family="Times, serif"
       font-size="14px"
       fill="#006400"
       id="text35">Y</text>
  </g>
  <g
     id="edge15"
     class="edge"
     transform="translate(-111.71,220.48975)">
    <title
       id="title35">n8:e-&gt;c21:w</title>
    <path
       fill="none"
       stroke="#006400"
       d="m 690.49,-121 c 27.09,0 11.08,44.87 25.37,58.19"
       id="path35" />
    <polygon
       fill="#006400"
       stroke="#006400"
       points="725.06,-59.62 714.47,-59.59 716.76,-66.2 "
       id="polygon35" />
  </g>
  <g
     id="edge10"
     class="edge"
     transform="translate(-111.71,220.48975)">
    <title
       id="title39">c15:e-&gt;n8:w</title>
    <path
       fill="none"
       stroke="#006400"
       d="m 600.49,-191.12 c 30.38,0 8.8,52.73 25.37,66.74"
       id="path39" />
    <polygon
       fill="#006400"
       stroke="#006400"
       points="635.05,-121.46 624.46,-121.16 626.58,-127.83 "
       id="polygon39" />
  </g>
  <g
     id="edge11"
     class="edge"
     transform="translate(-111.71,220.48975)">
    <title
       id="title40">c16:e-&gt;n8:w</title>
    <path
       fill="none"
       stroke="#006400"
       d="m 600.49,-121.12 c 11.38,0 16.68,0.06 24.55,0.09"
       id="path40" />
    <polygon
       fill="#006400"
       stroke="#006400"
       points="634.98,-121 624.97,-117.53 624.98,-124.53 "
       id="polygon40" />
  </g>
  <g
     id="edge1"
     class="edge"
     transform="translate(-111.71,220.48975)">
    <title
       id="title42">c19:e-&gt;n1:w</title>
    <path
       fill="none"
       stroke="#e7298a"
       d="m 1182.74,-183.12 c 37.2,0 49.22,0.1 81.5,0.12"
       id="path42" />
    <polygon
       fill="#e7298a"
       stroke="#e7298a"
       points="1273.98,-183 1263.98,-179.5 1263.98,-186.5 "
       id="polygon42" />
  </g>
  <g
     id="edge3"
     class="edge"
     transform="translate(-111.71,220.48975)">
    <title
       id="title44">c20:e-&gt;n3:w</title>
    <path
       fill="none"
       stroke="#7570b3"
       d="m 1239.49,-121.12 c 13.63,0 19.59,0.07 29.39,0.1"
       id="path44" />
    <polygon
       fill="#7570b3"
       stroke="#7570b3"
       points="1278.87,-121 1268.86,-117.52 1268.88,-124.52 "
       id="polygon44" />
  </g>
  <g
     id="edge2"
     class="edge"
     transform="translate(-111.71,220.48975)">
    <title
       id="title46">c21:e-&gt;n2:w</title>
    <path
       fill="none"
       stroke="#7570b3"
       d="m 1239.49,-59.12 c 13.63,0 19.59,0.07 29.39,0.1"
       id="path46" />
    <polygon
       fill="#7570b3"
       stroke="#7570b3"
       points="1278.87,-59 1268.86,-55.52 1268.88,-62.52 "
       id="polygon46" />
  </g>
  <g
     id="edge12"
     class="edge"
     transform="translate(-111.71,220.48975)">
    <title
       id="title47">c22:e-&gt;n8:w</title>
    <path
       fill="none"
       stroke="#006400"
       d="m 543.74,-51.12 c 29.6,0 33.38,-16.7 56.75,-34.88 13.9,-10.81 14.38,-26.35 24.93,-32.43"
       id="path47" />
    <polygon
       fill="#006400"
       stroke="#006400"
       points="635.02,-120.66 626.07,-114.98 624.48,-121.8 "
       id="polygon47" />
  </g>
</svg>
