<?xml version="1.0" encoding="UTF-8" standalone="no"?>
<!DOCTYPE svg PUBLIC "-//W3C//DTD SVG 1.1//EN"
 "http://www.w3.org/Graphics/SVG/1.1/DTD/svg11.dtd">
<!-- Generated by graphviz version 12.2.1 (0)
 -->
<!-- Title: mux_1bit Pages: 1 -->
<svg width="296pt" height="177pt"
 viewBox="0.00 0.00 296.30 177.25" xmlns="http://www.w3.org/2000/svg" xmlns:xlink="http://www.w3.org/1999/xlink">
<g id="graph0" class="graph" transform="scale(1 1) rotate(0) translate(4 173.25)">
<title>mux_1bit</title>
<polygon fill="white" stroke="none" points="-4,4 -4,-173.25 292.3,-173.25 292.3,4 -4,4"/>
<text text-anchor="middle" x="144.15" y="-7.95" font-family="Times,serif" font-size="14.00">mux_1bit</text>
<!-- n1 -->
<g id="node1" class="node">
<title>n1</title>
<polygon fill="none" stroke="black" points="54.52,-89.79 54.52,-104.71 38.71,-115.25 16.34,-115.25 0.52,-104.71 0.52,-89.79 16.34,-79.25 38.71,-79.25 54.52,-89.79"/>
<text text-anchor="middle" x="27.52" y="-92.58" font-family="Times,serif" font-size="14.00">a</text>
</g>
<!-- c9 -->
<g id="node5" class="node">
<title>c9</title>
<polygon fill="none" stroke="black" points="91.05,-59.38 91.05,-135.12 198.3,-135.12 198.3,-59.38 91.05,-59.38"/>
<text text-anchor="middle" x="104.3" y="-117.83" font-family="Times,serif" font-size="14.00">A</text>
<polyline fill="none" stroke="black" points="91.05,-109.88 117.55,-109.88"/>
<text text-anchor="middle" x="104.3" y="-92.58" font-family="Times,serif" font-size="14.00">B</text>
<polyline fill="none" stroke="black" points="91.05,-84.62 117.55,-84.62"/>
<text text-anchor="middle" x="104.3" y="-67.33" font-family="Times,serif" font-size="14.00">S</text>
<polyline fill="none" stroke="black" points="117.55,-59.38 117.55,-135.12"/>
<text text-anchor="middle" x="145.42" y="-101.2" font-family="Times,serif" font-size="14.00">$1</text>
<text text-anchor="middle" x="145.42" y="-83.95" font-family="Times,serif" font-size="14.00">$mux</text>
<polyline fill="none" stroke="black" points="173.3,-59.38 173.3,-135.12"/>
<text text-anchor="middle" x="185.8" y="-92.83" font-family="Times,serif" font-size="14.00">Y</text>
</g>
<!-- n1&#45;&gt;c9 -->
<g id="edge1" class="edge">
<title>n1:e&#45;&gt;c9:w</title>
<path fill="none" stroke="#e7298a" d="M55.05,-97.25C66.42,-97.25 71.73,-97.25 79.6,-97.25"/>
<polygon fill="#e7298a" stroke="#e7298a" points="79.53,-100.75 89.53,-97.25 79.53,-93.75 79.53,-100.75"/>
</g>
<!-- n2 -->
<g id="node2" class="node">
<title>n2</title>
<polygon fill="none" stroke="black" points="54.52,-143.79 54.52,-158.71 38.71,-169.25 16.34,-169.25 0.52,-158.71 0.52,-143.79 16.34,-133.25 38.71,-133.25 54.52,-143.79"/>
<text text-anchor="middle" x="27.52" y="-146.57" font-family="Times,serif" font-size="14.00">b</text>
</g>
<!-- n2&#45;&gt;c9 -->
<g id="edge2" class="edge">
<title>n2:e&#45;&gt;c9:w</title>
<path fill="none" stroke="#7570b3" d="M55.05,-151.25C70.88,-151.25 71.51,-134.05 80.45,-126.26"/>
<polygon fill="#7570b3" stroke="#7570b3" points="81.37,-129.65 89.62,-123.01 79.03,-123.05 81.37,-129.65"/>
</g>
<!-- n3 -->
<g id="node3" class="node">
<title>n3</title>
<polygon fill="none" stroke="black" points="288.3,-89.79 288.3,-104.71 272.48,-115.25 250.11,-115.25 234.3,-104.71 234.3,-89.79 250.11,-79.25 272.48,-79.25 288.3,-89.79"/>
<text text-anchor="middle" x="261.3" y="-92.58" font-family="Times,serif" font-size="14.00">o</text>
</g>
<!-- n4 -->
<g id="node4" class="node">
<title>n4</title>
<polygon fill="none" stroke="black" points="55.05,-35.79 55.05,-50.71 38.92,-61.25 16.12,-61.25 0,-50.71 0,-35.79 16.12,-25.25 38.92,-25.25 55.05,-35.79"/>
<text text-anchor="middle" x="27.52" y="-38.58" font-family="Times,serif" font-size="14.00">sel</text>
</g>
<!-- n4&#45;&gt;c9 -->
<g id="edge4" class="edge">
<title>n4:e&#45;&gt;c9:w</title>
<path fill="none" stroke="#a6761d" d="M55.05,-43.25C70.88,-43.25 71.51,-60.45 80.45,-68.24"/>
<polygon fill="#a6761d" stroke="#a6761d" points="79.03,-71.45 89.62,-71.49 81.37,-64.85 79.03,-71.45"/>
</g>
<!-- c9&#45;&gt;n3 -->
<g id="edge3" class="edge">
<title>c9:e&#45;&gt;n3:w</title>
<path fill="none" stroke="#7570b3" d="M198.3,-97.5C209.67,-97.5 214.98,-97.37 222.85,-97.3"/>
<polygon fill="#7570b3" stroke="#7570b3" points="222.8,-100.8 232.78,-97.26 222.77,-93.8 222.8,-100.8"/>
</g>
</g>
</svg>
