<?xml version="1.0" encoding="UTF-8" standalone="no"?>
<!DOCTYPE svg PUBLIC "-//W3C//DTD SVG 1.1//EN"
 "http://www.w3.org/Graphics/SVG/1.1/DTD/svg11.dtd">
<!-- Generated by graphviz version 12.2.1 (0)
 -->
<!-- Title: inverter Pages: 1 -->
<svg width="331pt" height="127pt"
 viewBox="0.00 0.00 330.83 127.00" xmlns="http://www.w3.org/2000/svg" xmlns:xlink="http://www.w3.org/1999/xlink">
<g id="graph0" class="graph" transform="scale(1 1) rotate(0) translate(4 123)">
<title>inverter</title>
<polygon fill="white" stroke="none" points="-4,4 -4,-123 326.83,-123 326.83,4 -4,4"/>
<text text-anchor="middle" x="161.41" y="-7.95" font-family="Times,serif" font-size="14.00">inverter</text>
<!-- n1 -->
<g id="node1" class="node">
<title>n1</title>
<polygon fill="none" stroke="black" points="54,-39.54 54,-54.46 38.18,-65 15.82,-65 0,-54.46 0,-39.54 15.82,-29 38.18,-29 54,-39.54"/>
<text text-anchor="middle" x="27" y="-42.33" font-family="Times,serif" font-size="14.00">a</text>
</g>
<!-- c6 -->
<g id="node4" class="node">
<title>c6</title>
<polygon fill="none" stroke="black" points="90,-25.75 90,-68.25 229.5,-68.25 229.5,-25.75 90,-25.75"/>
<text text-anchor="middle" x="102.88" y="-42.45" font-family="Times,serif" font-size="14.00">A</text>
<polyline fill="none" stroke="black" points="115.75,-25.75 115.75,-68.25"/>
<text text-anchor="middle" x="160.12" y="-50.95" font-family="Times,serif" font-size="14.00">$1</text>
<text text-anchor="middle" x="160.12" y="-33.7" font-family="Times,serif" font-size="14.00">$logic_not</text>
<polyline fill="none" stroke="black" points="204.5,-25.75 204.5,-68.25"/>
<text text-anchor="middle" x="217" y="-42.45" font-family="Times,serif" font-size="14.00">Y</text>
</g>
<!-- n1&#45;&gt;c6 -->
<g id="edge1" class="edge">
<title>n1:e&#45;&gt;c6:w</title>
<path fill="none" stroke="#e7298a" d="M54,-47C65.38,-47 70.68,-47.06 78.55,-47.1"/>
<polygon fill="#e7298a" stroke="#e7298a" points="78.48,-50.6 88.49,-47.12 78.49,-43.6 78.48,-50.6"/>
</g>
<!-- n2 -->
<g id="node2" class="node">
<title>n2</title>
<polygon fill="none" stroke="black" points="322.83,-93.54 322.83,-108.46 306.04,-119 282.29,-119 265.5,-108.46 265.5,-93.54 282.29,-83 306.04,-83 322.83,-93.54"/>
<text text-anchor="middle" x="294.16" y="-96.33" font-family="Times,serif" font-size="14.00">err</text>
</g>
<!-- n3 -->
<g id="node3" class="node">
<title>n3</title>
<polygon fill="none" stroke="black" points="321.16,-39.54 321.16,-54.46 305.35,-65 282.98,-65 267.16,-54.46 267.16,-39.54 282.98,-29 305.35,-29 321.16,-39.54"/>
<text text-anchor="middle" x="294.16" y="-42.33" font-family="Times,serif" font-size="14.00">o</text>
</g>
<!-- c6&#45;&gt;n3 -->
<g id="edge3" class="edge">
<title>c6:e&#45;&gt;n3:w</title>
<path fill="none" stroke="#7570b3" d="M229.5,-47.12C241.13,-47.12 246.49,-47.06 254.6,-47.02"/>
<polygon fill="#7570b3" stroke="#7570b3" points="254.4,-50.52 264.4,-47 254.39,-43.52 254.4,-50.52"/>
</g>
<!-- v0 -->
<g id="node5" class="node">
<title>v0</title>
<ellipse fill="none" stroke="black" cx="27" cy="-101" rx="27" ry="18"/>
<text text-anchor="middle" x="27" y="-96.33" font-family="Times,serif" font-size="14.00">1&#39;0</text>
</g>
<!-- x1 -->
<g id="node6" class="node">
<title>x1</title>
<ellipse fill="black" stroke="black" cx="159.75" cy="-101" rx="1.8" ry="1.8"/>
</g>
<!-- v0&#45;&gt;x1 -->
<g id="edge4" class="edge">
<title>v0:e&#45;&gt;x1:w</title>
<path fill="none" stroke="#a6761d" d="M54,-101C95.45,-101 108.61,-101 144.97,-101"/>
<polygon fill="#a6761d" stroke="#a6761d" points="144.96,-104.5 154.96,-101 144.96,-97.5 144.96,-104.5"/>
</g>
<!-- x1&#45;&gt;n2 -->
<g id="edge2" class="edge">
<title>x1:e&#45;&gt;n2:w</title>
<path fill="none" stroke="#7570b3" d="M163.03,-101C204.48,-101 217.64,-101 254,-101"/>
<polygon fill="#7570b3" stroke="#7570b3" points="253.99,-104.5 263.99,-101 253.99,-97.5 253.99,-104.5"/>
</g>
</g>
</svg>
