<?xml version="1.0" encoding="UTF-8" standalone="no"?>
<!DOCTYPE svg PUBLIC "-//W3C//DTD SVG 1.1//EN"
 "http://www.w3.org/Graphics/SVG/1.1/DTD/svg11.dtd">
<!-- Generated by graphviz version 12.2.1 (0)
 -->
<!-- Title: not_dff_tmr Pages: 1 -->
<svg width="576pt" height="177pt"
 viewBox="0.00 0.00 575.62 177.25" xmlns="http://www.w3.org/2000/svg" xmlns:xlink="http://www.w3.org/1999/xlink">
<g id="graph0" class="graph" transform="scale(1 1) rotate(0) translate(4 173.25)">
<title>not_dff_tmr</title>
<polygon fill="white" stroke="none" points="-4,4 -4,-173.25 571.62,-173.25 571.62,4 -4,4"/>
<text text-anchor="middle" x="283.81" y="-7.95" font-family="Times,serif" font-size="14.00">not_dff_tmr</text>
<!-- n1 -->
<g id="node1" class="node">
<title>n1</title>
<polygon fill="none" stroke="black" points="54.52,-35.79 54.52,-50.71 38.71,-61.25 16.34,-61.25 0.52,-50.71 0.52,-35.79 16.34,-25.25 38.71,-25.25 54.52,-35.79"/>
<text text-anchor="middle" x="27.52" y="-38.58" font-family="Times,serif" font-size="14.00">a</text>
</g>
<!-- c12 -->
<g id="node7" class="node">
<title>c12</title>
<polygon fill="none" stroke="black" points="91.05,-45 91.05,-95.5 208.8,-95.5 208.8,-45 91.05,-45"/>
<text text-anchor="middle" x="114.05" y="-78.2" font-family="Times,serif" font-size="14.00">CLK</text>
<polyline fill="none" stroke="black" points="91.05,-70.25 137.05,-70.25"/>
<text text-anchor="middle" x="114.05" y="-52.95" font-family="Times,serif" font-size="14.00">D</text>
<polyline fill="none" stroke="black" points="137.05,-45 137.05,-95.5"/>
<text text-anchor="middle" x="159.3" y="-74.2" font-family="Times,serif" font-size="14.00">$6</text>
<text text-anchor="middle" x="159.3" y="-56.95" font-family="Times,serif" font-size="14.00">$dff</text>
<polyline fill="none" stroke="black" points="181.55,-45 181.55,-95.5"/>
<text text-anchor="middle" x="195.17" y="-65.7" font-family="Times,serif" font-size="14.00">Q</text>
</g>
<!-- n1&#45;&gt;c12 -->
<g id="edge1" class="edge">
<title>n1:e&#45;&gt;c12:w</title>
<path fill="none" stroke="#e7298a" d="M55.05,-43.25C67.7,-43.25 71.89,-51 80.05,-55.12"/>
<polygon fill="#e7298a" stroke="#e7298a" points="79.04,-58.48 89.57,-57.29 80.6,-51.66 79.04,-58.48"/>
</g>
<!-- n2 -->
<g id="node2" class="node">
<title>n2</title>
<polygon fill="none" stroke="black" points="55.05,-89.79 55.05,-104.71 38.92,-115.25 16.12,-115.25 0,-104.71 0,-89.79 16.12,-79.25 38.92,-79.25 55.05,-89.79"/>
<text text-anchor="middle" x="27.52" y="-92.58" font-family="Times,serif" font-size="14.00">clk</text>
</g>
<!-- n2&#45;&gt;c12 -->
<g id="edge2" class="edge">
<title>n2:e&#45;&gt;c12:w</title>
<path fill="none" stroke="#7570b3" d="M55.05,-97.25C67.7,-97.25 71.89,-89.5 80.05,-85.38"/>
<polygon fill="#7570b3" stroke="#7570b3" points="80.6,-88.84 89.57,-83.21 79.04,-82.02 80.6,-88.84"/>
</g>
<!-- n3 -->
<g id="node3" class="node">
<title>n3</title>
<polygon fill="none" stroke="black" points="302.12,-143.79 302.12,-158.71 285.33,-169.25 261.59,-169.25 244.8,-158.71 244.8,-143.79 261.59,-133.25 285.33,-133.25 302.12,-143.79"/>
<text text-anchor="middle" x="273.46" y="-146.57" font-family="Times,serif" font-size="14.00">err</text>
</g>
<!-- n4 -->
<g id="node4" class="node">
<title>n4</title>
<polygon fill="none" stroke="black" points="273.46,-88.25 246.46,-70.25 273.46,-52.25 300.46,-70.25 273.46,-88.25"/>
<text text-anchor="middle" x="273.46" y="-65.58" font-family="Times,serif" font-size="14.00">ff</text>
</g>
<!-- c8 -->
<g id="node6" class="node">
<title>c8</title>
<polygon fill="none" stroke="black" points="338.12,-49 338.12,-91.5 477.62,-91.5 477.62,-49 338.12,-49"/>
<text text-anchor="middle" x="351" y="-65.7" font-family="Times,serif" font-size="14.00">A</text>
<polyline fill="none" stroke="black" points="363.87,-49 363.87,-91.5"/>
<text text-anchor="middle" x="408.25" y="-74.2" font-family="Times,serif" font-size="14.00">$2</text>
<text text-anchor="middle" x="408.25" y="-56.95" font-family="Times,serif" font-size="14.00">$logic_not</text>
<polyline fill="none" stroke="black" points="452.62,-49 452.62,-91.5"/>
<text text-anchor="middle" x="465.12" y="-65.7" font-family="Times,serif" font-size="14.00">Y</text>
</g>
<!-- n4&#45;&gt;c8 -->
<g id="edge5" class="edge">
<title>n4:e&#45;&gt;c8:w</title>
<path fill="none" stroke="#a6761d" d="M302.12,-70.25C313.5,-70.25 318.81,-70.31 326.68,-70.35"/>
<polygon fill="#a6761d" stroke="#a6761d" points="326.6,-73.85 336.61,-70.37 326.62,-66.85 326.6,-73.85"/>
</g>
<!-- n5 -->
<g id="node5" class="node">
<title>n5</title>
<polygon fill="none" stroke="black" points="567.62,-62.79 567.62,-77.71 551.81,-88.25 529.44,-88.25 513.62,-77.71 513.62,-62.79 529.44,-52.25 551.81,-52.25 567.62,-62.79"/>
<text text-anchor="middle" x="540.62" y="-65.58" font-family="Times,serif" font-size="14.00">o</text>
</g>
<!-- c8&#45;&gt;n5 -->
<g id="edge6" class="edge">
<title>c8:e&#45;&gt;n5:w</title>
<path fill="none" stroke="#d95f02" d="M477.62,-70.38C489,-70.38 494.31,-70.31 502.18,-70.28"/>
<polygon fill="#d95f02" stroke="#d95f02" points="502.12,-73.78 512.11,-70.25 502.1,-66.78 502.12,-73.78"/>
</g>
<!-- c12&#45;&gt;n4 -->
<g id="edge4" class="edge">
<title>c12:e&#45;&gt;n4:w</title>
<path fill="none" stroke="#a6761d" d="M208.8,-70.38C220.17,-70.38 225.48,-70.31 233.35,-70.28"/>
<polygon fill="#a6761d" stroke="#a6761d" points="233.29,-73.78 243.28,-70.25 233.28,-66.78 233.29,-73.78"/>
</g>
<!-- v0 -->
<g id="node8" class="node">
<title>v0</title>
<ellipse fill="none" stroke="black" cx="27.52" cy="-151.25" rx="27" ry="18"/>
<text text-anchor="middle" x="27.52" y="-146.57" font-family="Times,serif" font-size="14.00">1&#39;0</text>
</g>
<!-- x1 -->
<g id="node9" class="node">
<title>x1</title>
<ellipse fill="black" stroke="black" cx="149.92" cy="-151.25" rx="1.8" ry="1.8"/>
</g>
<!-- v0&#45;&gt;x1 -->
<g id="edge7" class="edge">
<title>v0:e&#45;&gt;x1:w</title>
<path fill="none" stroke="#e6ab02" d="M55.05,-151.25C91.78,-151.25 103.66,-151.25 135.53,-151.25"/>
<polygon fill="#e6ab02" stroke="#e6ab02" points="135.13,-154.75 145.13,-151.25 135.13,-147.75 135.13,-154.75"/>
</g>
<!-- x1&#45;&gt;n3 -->
<g id="edge3" class="edge">
<title>x1:e&#45;&gt;n3:w</title>
<path fill="none" stroke="#7570b3" d="M153.2,-151.25C189.93,-151.25 201.81,-151.25 233.69,-151.25"/>
<polygon fill="#7570b3" stroke="#7570b3" points="233.28,-154.75 243.28,-151.25 233.28,-147.75 233.28,-154.75"/>
</g>
</g>
</svg>
