<?xml version="1.0" encoding="UTF-8" standalone="no"?>
<!DOCTYPE svg PUBLIC "-//W3C//DTD SVG 1.1//EN"
 "http://www.w3.org/Graphics/SVG/1.1/DTD/svg11.dtd">
<!-- Generated by graphviz version 12.2.1 (0)
 -->
<!-- Title: not_slice Pages: 1 -->
<svg width="447pt" height="189pt"
 viewBox="0.00 0.00 446.93 189.00" xmlns="http://www.w3.org/2000/svg" xmlns:xlink="http://www.w3.org/1999/xlink">
<g id="graph0" class="graph" transform="scale(1 1) rotate(0) translate(4 185)">
<title>not_slice</title>
<polygon fill="white" stroke="none" points="-4,4 -4,-185 442.93,-185 442.93,4 -4,4"/>
<text text-anchor="middle" x="219.46" y="-7.95" font-family="Times,serif" font-size="14.00">not_slice</text>
<!-- n1 -->
<g id="node1" class="node">
<title>n1</title>
<polygon fill="none" stroke="black" points="55.66,-101.54 55.66,-116.46 39.85,-127 17.48,-127 1.66,-116.46 1.66,-101.54 17.48,-91 39.85,-91 55.66,-101.54"/>
<text text-anchor="middle" x="28.66" y="-104.33" font-family="Times,serif" font-size="14.00">a</text>
</g>
<!-- c8 -->
<g id="node7" class="node">
<title>c8</title>
<polygon fill="none" stroke="black" points="93.33,-87.75 93.33,-130.25 232.83,-130.25 232.83,-87.75 93.33,-87.75"/>
<text text-anchor="middle" x="106.2" y="-104.45" font-family="Times,serif" font-size="14.00">A</text>
<polyline fill="none" stroke="black" points="119.08,-87.75 119.08,-130.25"/>
<text text-anchor="middle" x="163.45" y="-112.95" font-family="Times,serif" font-size="14.00">$2</text>
<text text-anchor="middle" x="163.45" y="-95.7" font-family="Times,serif" font-size="14.00">$logic_not</text>
<polyline fill="none" stroke="black" points="207.83,-87.75 207.83,-130.25"/>
<text text-anchor="middle" x="220.33" y="-104.45" font-family="Times,serif" font-size="14.00">Y</text>
</g>
<!-- n1&#45;&gt;c8 -->
<g id="edge3" class="edge">
<title>n1:e&#45;&gt;c8:w</title>
<path fill="none" stroke="#7570b3" d="M56.92,-109C68.55,-109 73.91,-109.06 82.01,-109.1"/>
<polygon fill="#7570b3" stroke="#7570b3" points="81.8,-112.6 91.81,-109.12 81.82,-105.6 81.8,-112.6"/>
</g>
<!-- n2 -->
<g id="node2" class="node">
<title>n2</title>
<polygon fill="none" stroke="black" points="55.66,-39.54 55.66,-54.46 39.85,-65 17.48,-65 1.66,-54.46 1.66,-39.54 17.48,-29 39.85,-29 55.66,-39.54"/>
<text text-anchor="middle" x="28.66" y="-42.33" font-family="Times,serif" font-size="14.00">b</text>
</g>
<!-- c7 -->
<g id="node5" class="node">
<title>c7</title>
<polygon fill="none" stroke="black" points="93.33,-25.75 93.33,-68.25 232.83,-68.25 232.83,-25.75 93.33,-25.75"/>
<text text-anchor="middle" x="106.2" y="-42.45" font-family="Times,serif" font-size="14.00">A</text>
<polyline fill="none" stroke="black" points="119.08,-25.75 119.08,-68.25"/>
<text text-anchor="middle" x="163.45" y="-50.95" font-family="Times,serif" font-size="14.00">$1</text>
<text text-anchor="middle" x="163.45" y="-33.7" font-family="Times,serif" font-size="14.00">$logic_not</text>
<polyline fill="none" stroke="black" points="207.83,-25.75 207.83,-68.25"/>
<text text-anchor="middle" x="220.33" y="-42.45" font-family="Times,serif" font-size="14.00">Y</text>
</g>
<!-- n2&#45;&gt;c7 -->
<g id="edge4" class="edge">
<title>n2:e&#45;&gt;c7:w</title>
<path fill="none" stroke="#a6761d" d="M56.92,-47C68.55,-47 73.91,-47.06 82.01,-47.1"/>
<polygon fill="#a6761d" stroke="#a6761d" points="81.8,-50.6 91.81,-47.12 81.82,-43.6 81.8,-50.6"/>
</g>
<!-- n3 -->
<g id="node3" class="node">
<title>n3</title>
<polygon fill="none" stroke="black" points="57.33,-155.54 57.33,-170.46 40.54,-181 16.79,-181 0,-170.46 0,-155.54 16.79,-145 40.54,-145 57.33,-155.54"/>
<text text-anchor="middle" x="28.66" y="-158.32" font-family="Times,serif" font-size="14.00">err</text>
</g>
<!-- n4 -->
<g id="node4" class="node">
<title>n4</title>
<polygon fill="none" stroke="black" points="438.93,-69.54 438.93,-84.46 421.47,-95 396.78,-95 379.33,-84.46 379.33,-69.54 396.78,-59 421.47,-59 438.93,-69.54"/>
<text text-anchor="middle" x="409.13" y="-72.33" font-family="Times,serif" font-size="14.00">out</text>
</g>
<!-- x0 -->
<g id="node6" class="node">
<title>x0</title>
<path fill="none" stroke="#1b9e77" d="M280.83,-32C280.83,-32 331.33,-32 331.33,-32 337.33,-32 343.33,-38 343.33,-44 343.33,-44 343.33,-56 343.33,-56 343.33,-62 337.33,-68 331.33,-68 331.33,-68 280.83,-68 280.83,-68 274.83,-68 268.83,-62 268.83,-56 268.83,-56 268.83,-44 268.83,-44 268.83,-38 274.83,-32 280.83,-32"/>
<text text-anchor="middle" x="306.08" y="-45.7" font-family="Times,serif" font-size="14.00" fill="#1b9e77">0:0 &#45; 0:0</text>
</g>
<!-- c7&#45;&gt;x0 -->
<g id="edge1" class="edge">
<title>c7:e&#45;&gt;x0:w</title>
<path fill="none" stroke="#e7298a" d="M245.56,-47.85C249.15,-48.28 252.27,-48.81 255.84,-49.24"/>
<polygon fill="none" stroke="#e7298a" points="245.71,-47.86 239.49,-51.51 233.73,-47.18 239.94,-43.52 245.71,-47.86"/>
<polygon fill="none" stroke="#e7298a" points="255.95,-49.25 262.17,-45.61 267.93,-49.95 261.7,-53.59 255.95,-49.25"/>
</g>
<!-- x0&#45;&gt;n4 -->
<g id="edge5" class="edge">
<title>x0:e&#45;&gt;n4:w</title>
<path fill="none" stroke="#d95f02" d="M343.33,-50.38C358.56,-50.38 359.9,-65.98 368.63,-73.3"/>
<polygon fill="#d95f02" stroke="#d95f02" points="367.3,-76.54 377.9,-76.5 369.59,-69.93 367.3,-76.54"/>
</g>
<!-- x1 -->
<g id="node8" class="node">
<title>x1</title>
<path fill="none" stroke="#e7298a" d="M280.83,-89C280.83,-89 331.33,-89 331.33,-89 337.33,-89 343.33,-95 343.33,-101 343.33,-101 343.33,-113 343.33,-113 343.33,-119 337.33,-125 331.33,-125 331.33,-125 280.83,-125 280.83,-125 274.83,-125 268.83,-119 268.83,-113 268.83,-113 268.83,-101 268.83,-101 268.83,-95 274.83,-89 280.83,-89"/>
<text text-anchor="middle" x="306.08" y="-102.7" font-family="Times,serif" font-size="14.00" fill="#e7298a">0:0 &#45; 1:1</text>
</g>
<!-- c8&#45;&gt;x1 -->
<g id="edge2" class="edge">
<title>c8:e&#45;&gt;x1:w</title>
<path fill="none" stroke="#7570b3" d="M245.55,-108.59C249.15,-108.27 252.27,-107.88 255.85,-107.56"/>
<polygon fill="none" stroke="#7570b3" points="245.72,-108.58 239.89,-112.83 233.73,-109.09 239.55,-104.84 245.72,-108.58"/>
<polygon fill="none" stroke="#7570b3" points="255.94,-107.55 261.76,-103.3 267.92,-107.04 262.1,-111.29 255.94,-107.55"/>
</g>
<!-- x1&#45;&gt;n4 -->
<g id="edge6" class="edge">
<title>x1:e&#45;&gt;n4:w</title>
<path fill="none" stroke="#d95f02" d="M343.33,-107.38C359.52,-107.38 359.67,-89.2 368.6,-80.97"/>
<polygon fill="#d95f02" stroke="#d95f02" points="369.74,-84.28 377.91,-77.53 367.31,-77.72 369.74,-84.28"/>
</g>
</g>
</svg>
