<?xml version="1.0" encoding="UTF-8" standalone="no"?>
<!DOCTYPE svg PUBLIC "-//W3C//DTD SVG 1.1//EN"
 "http://www.w3.org/Graphics/SVG/1.1/DTD/svg11.dtd">
<!-- Generated by graphviz version 12.2.1 (0)
 -->
<!-- Title: not_swizzle_high Pages: 1 -->
<svg width="447pt" height="181pt"
 viewBox="0.00 0.00 446.93 181.25" xmlns="http://www.w3.org/2000/svg" xmlns:xlink="http://www.w3.org/1999/xlink">
<g id="graph0" class="graph" transform="scale(1 1) rotate(0) translate(4 177.25)">
<title>not_swizzle_high</title>
<polygon fill="white" stroke="none" points="-4,4 -4,-177.25 442.93,-177.25 442.93,4 -4,4"/>
<text text-anchor="middle" x="219.46" y="-7.95" font-family="Times,serif" font-size="14.00">not_swizzle_high</text>
<!-- n1 -->
<g id="node1" class="node">
<title>n1</title>
<polygon fill="none" stroke="black" points="55.66,-93.79 55.66,-108.71 39.85,-119.25 17.48,-119.25 1.66,-108.71 1.66,-93.79 17.48,-83.25 39.85,-83.25 55.66,-93.79"/>
<text text-anchor="middle" x="28.66" y="-96.58" font-family="Times,serif" font-size="14.00">a</text>
</g>
<!-- c6 -->
<g id="node4" class="node">
<title>c6</title>
<polygon fill="none" stroke="black" points="93.33,-80 93.33,-122.5 232.83,-122.5 232.83,-80 93.33,-80"/>
<text text-anchor="middle" x="106.2" y="-96.7" font-family="Times,serif" font-size="14.00">A</text>
<polyline fill="none" stroke="black" points="119.08,-80 119.08,-122.5"/>
<text text-anchor="middle" x="163.45" y="-105.2" font-family="Times,serif" font-size="14.00">$12</text>
<text text-anchor="middle" x="163.45" y="-87.95" font-family="Times,serif" font-size="14.00">$logic_not</text>
<polyline fill="none" stroke="black" points="207.83,-80 207.83,-122.5"/>
<text text-anchor="middle" x="220.33" y="-96.7" font-family="Times,serif" font-size="14.00">Y</text>
</g>
<!-- n1&#45;&gt;c6 -->
<g id="edge2" class="edge">
<title>n1:e&#45;&gt;c6:w</title>
<path fill="none" stroke="#7570b3" d="M56.92,-101.25C68.55,-101.25 73.91,-101.31 82.01,-101.35"/>
<polygon fill="#7570b3" stroke="#7570b3" points="81.8,-104.85 91.81,-101.37 81.82,-97.85 81.8,-104.85"/>
</g>
<!-- n2 -->
<g id="node2" class="node">
<title>n2</title>
<polygon fill="none" stroke="black" points="57.33,-147.79 57.33,-162.71 40.54,-173.25 16.79,-173.25 0,-162.71 0,-147.79 16.79,-137.25 40.54,-137.25 57.33,-147.79"/>
<text text-anchor="middle" x="28.66" y="-150.57" font-family="Times,serif" font-size="14.00">err</text>
</g>
<!-- n3 -->
<g id="node3" class="node">
<title>n3</title>
<polygon fill="none" stroke="black" points="438.93,-63.79 438.93,-78.71 421.47,-89.25 396.78,-89.25 379.33,-78.71 379.33,-63.79 396.78,-53.25 421.47,-53.25 438.93,-63.79"/>
<text text-anchor="middle" x="409.13" y="-66.58" font-family="Times,serif" font-size="14.00">out</text>
</g>
<!-- x0 -->
<g id="node5" class="node">
<title>x0</title>
<path fill="none" stroke="#1b9e77" d="M280.83,-82.25C280.83,-82.25 331.33,-82.25 331.33,-82.25 337.33,-82.25 343.33,-88.25 343.33,-94.25 343.33,-94.25 343.33,-106.25 343.33,-106.25 343.33,-112.25 337.33,-118.25 331.33,-118.25 331.33,-118.25 280.83,-118.25 280.83,-118.25 274.83,-118.25 268.83,-112.25 268.83,-106.25 268.83,-106.25 268.83,-94.25 268.83,-94.25 268.83,-88.25 274.83,-82.25 280.83,-82.25"/>
<text text-anchor="middle" x="306.08" y="-95.95" font-family="Times,serif" font-size="14.00" fill="#1b9e77">0:0 &#45; 0:0</text>
</g>
<!-- c6&#45;&gt;x0 -->
<g id="edge1" class="edge">
<title>c6:e&#45;&gt;x0:w</title>
<path fill="none" stroke="#e7298a" d="M245.55,-101.09C249.15,-100.92 252.28,-100.71 255.85,-100.55"/>
<polygon fill="none" stroke="#e7298a" points="245.72,-101.09 239.81,-105.22 233.73,-101.35 239.64,-97.22 245.72,-101.09"/>
<polygon fill="none" stroke="#e7298a" points="255.93,-100.54 261.83,-96.41 267.92,-100.27 262.02,-104.41 255.93,-100.54"/>
</g>
<!-- x0&#45;&gt;n3 -->
<g id="edge3" class="edge">
<title>x0:e&#45;&gt;n3:w</title>
<path fill="none" stroke="#7570b3" d="M343.33,-100.62C359.3,-100.62 359.74,-83.05 368.68,-75.09"/>
<polygon fill="#7570b3" stroke="#7570b3" points="369.68,-78.45 377.9,-71.76 367.31,-71.87 369.68,-78.45"/>
</g>
<!-- v1 -->
<g id="node6" class="node">
<title>v1</title>
<ellipse fill="none" stroke="black" cx="163.08" cy="-43.25" rx="27" ry="18"/>
<text text-anchor="middle" x="163.08" y="-38.58" font-family="Times,serif" font-size="14.00">1&#39;0</text>
</g>
<!-- x2 -->
<g id="node7" class="node">
<title>x2</title>
<path fill="none" stroke="#e7298a" d="M280.83,-26.25C280.83,-26.25 331.33,-26.25 331.33,-26.25 337.33,-26.25 343.33,-32.25 343.33,-38.25 343.33,-38.25 343.33,-50.25 343.33,-50.25 343.33,-56.25 337.33,-62.25 331.33,-62.25 331.33,-62.25 280.83,-62.25 280.83,-62.25 274.83,-62.25 268.83,-56.25 268.83,-50.25 268.83,-50.25 268.83,-38.25 268.83,-38.25 268.83,-32.25 274.83,-26.25 280.83,-26.25"/>
<text text-anchor="middle" x="306.08" y="-39.95" font-family="Times,serif" font-size="14.00" fill="#e7298a">0:0 &#45; 1:1</text>
</g>
<!-- v1&#45;&gt;x2 -->
<g id="edge5" class="edge">
<title>v1:e&#45;&gt;x2:w</title>
<path fill="none" stroke="#a6761d" d="M191.33,-43.25C221.6,-43.25 231.92,-44.02 257.36,-44.21"/>
<polygon fill="#a6761d" stroke="#a6761d" points="257.3,-47.71 267.31,-44.24 257.32,-40.71 257.3,-47.71"/>
</g>
<!-- x2&#45;&gt;n3 -->
<g id="edge4" class="edge">
<title>x2:e&#45;&gt;n3:w</title>
<path fill="none" stroke="#7570b3" d="M343.33,-44.62C358.56,-44.62 359.9,-60.23 368.63,-67.55"/>
<polygon fill="#7570b3" stroke="#7570b3" points="367.3,-70.79 377.9,-70.75 369.59,-64.18 367.3,-70.79"/>
</g>
</g>
</svg>
