<?xml version="1.0" encoding="UTF-8" standalone="no"?>
<!DOCTYPE svg PUBLIC "-//W3C//DTD SVG 1.1//EN"
 "http://www.w3.org/Graphics/SVG/1.1/DTD/svg11.dtd">
<!-- Generated by graphviz version 12.2.1 (0)
 -->
<!-- Title: recurrent_dff Pages: 1 -->
<svg width="457pt" height="111pt"
 viewBox="0.00 0.00 457.08 110.99" xmlns="http://www.w3.org/2000/svg" xmlns:xlink="http://www.w3.org/1999/xlink">
<g id="graph0" class="graph" transform="scale(1 1) rotate(0) translate(4 106.99)">
<title>recurrent_dff</title>
<polygon fill="white" stroke="none" points="-4,4 -4,-106.99 453.08,-106.99 453.08,4 -4,4"/>
<text text-anchor="middle" x="224.54" y="-7.95" font-family="Times,serif" font-size="14.00">recurrent_dff</text>
<!-- n2 -->
<g id="node1" class="node">
<title>n2</title>
<polygon fill="none" stroke="black" points="55.05,-72.53 55.05,-87.44 38.92,-97.99 16.12,-97.99 0,-87.44 0,-72.53 16.12,-61.99 38.92,-61.99 55.05,-72.53"/>
<text text-anchor="middle" x="27.52" y="-75.31" font-family="Times,serif" font-size="14.00">clk</text>
</g>
<!-- c10 -->
<g id="node4" class="node">
<title>c10</title>
<polygon fill="none" stroke="black" points="91.05,-42.74 91.05,-93.24 208.8,-93.24 208.8,-42.74 91.05,-42.74"/>
<text text-anchor="middle" x="114.05" y="-75.94" font-family="Times,serif" font-size="14.00">CLK</text>
<polyline fill="none" stroke="black" points="91.05,-67.99 137.05,-67.99"/>
<text text-anchor="middle" x="114.05" y="-50.69" font-family="Times,serif" font-size="14.00">D</text>
<polyline fill="none" stroke="black" points="137.05,-42.74 137.05,-93.24"/>
<text text-anchor="middle" x="159.3" y="-71.94" font-family="Times,serif" font-size="14.00">$3</text>
<text text-anchor="middle" x="159.3" y="-54.69" font-family="Times,serif" font-size="14.00">$dff</text>
<polyline fill="none" stroke="black" points="181.55,-42.74 181.55,-93.24"/>
<text text-anchor="middle" x="195.17" y="-63.44" font-family="Times,serif" font-size="14.00">Q</text>
</g>
<!-- n2&#45;&gt;c10 -->
<g id="edge2" class="edge">
<title>n2:e&#45;&gt;c10:w</title>
<path fill="none" stroke="#7570b3" d="M55.05,-79.99C66.42,-79.99 71.73,-80.3 79.6,-80.49"/>
<polygon fill="#7570b3" stroke="#7570b3" points="79.5,-83.99 89.53,-80.6 79.57,-76.99 79.5,-83.99"/>
</g>
<!-- n3 -->
<g id="node2" class="node">
<title>n3</title>
<polygon fill="none" stroke="black" points="298.8,-77.53 298.8,-92.44 282.98,-102.99 260.61,-102.99 244.8,-92.44 244.8,-77.53 260.61,-66.99 282.98,-66.99 298.8,-77.53"/>
<text text-anchor="middle" x="271.8" y="-80.31" font-family="Times,serif" font-size="14.00">q</text>
</g>
<!-- c6 -->
<g id="node3" class="node">
<title>c6</title>
<polygon fill="none" stroke="black" points="334.8,-40.74 334.8,-83.24 433.8,-83.24 433.8,-40.74 334.8,-40.74"/>
<text text-anchor="middle" x="347.67" y="-57.44" font-family="Times,serif" font-size="14.00">A</text>
<polyline fill="none" stroke="black" points="360.55,-40.74 360.55,-83.24"/>
<text text-anchor="middle" x="384.67" y="-65.94" font-family="Times,serif" font-size="14.00">$2</text>
<text text-anchor="middle" x="384.67" y="-48.69" font-family="Times,serif" font-size="14.00">$not</text>
<polyline fill="none" stroke="black" points="408.8,-40.74 408.8,-83.24"/>
<text text-anchor="middle" x="421.3" y="-57.44" font-family="Times,serif" font-size="14.00">Y</text>
</g>
<!-- n3&#45;&gt;c6 -->
<g id="edge4" class="edge">
<title>n3:e&#45;&gt;c6:w</title>
<path fill="none" stroke="#7570b3" d="M298.8,-84.99C313.16,-84.99 315.54,-71.85 324.1,-65.49"/>
<polygon fill="#7570b3" stroke="#7570b3" points="324.87,-68.92 333.35,-62.57 322.76,-62.24 324.87,-68.92"/>
</g>
<!-- c6&#45;&gt;c10 -->
<g id="edge1" class="edge">
<title>c6:e&#45;&gt;c10:w</title>
<path fill="none" stroke="#e7298a" d="M434.8,-62.11C459.71,-62.11 464.49,-125.35 334.8,-83.74 316.07,-77.73 316.94,-65.6 298.8,-57.99 261.35,-42.28 249.25,-45.75 208.8,-42.24 156.66,-37.71 129.43,-6.67 91.05,-42.24 90.51,-42.73 90,-43.31 89.53,-43.94"/>
<polygon fill="#e7298a" stroke="#e7298a" points="86.03,-44.02 89.98,-53.85 93.03,-43.7 86.03,-44.02"/>
</g>
<!-- c10&#45;&gt;n3 -->
<g id="edge3" class="edge">
<title>c10:e&#45;&gt;n3:w</title>
<path fill="none" stroke="#7570b3" d="M208.8,-68.11C221.77,-68.11 225.58,-77.21 233.68,-82.05"/>
<polygon fill="#7570b3" stroke="#7570b3" points="232.77,-85.43 243.33,-84.6 234.56,-78.66 232.77,-85.43"/>
</g>
</g>
</svg>
