<?xml version="1.0" encoding="UTF-8" standalone="no"?>
<!DOCTYPE svg PUBLIC "-//W3C//DTD SVG 1.1//EN"
 "http://www.w3.org/Graphics/SVG/1.1/DTD/svg11.dtd">
<!-- Generated by graphviz version 12.2.1 (0)
 -->
<!-- Title: $auto$tamara_debug.cpp:57:execute$1 Pages: 1 -->
<svg width="1199pt" height="523pt"
 viewBox="0.00 0.00 1199.23 522.75" xmlns="http://www.w3.org/2000/svg" xmlns:xlink="http://www.w3.org/1999/xlink">
<g id="graph0" class="graph" transform="scale(1 1) rotate(0) translate(4 518.75)">
<title>$auto$tamara_debug.cpp:57:execute$1</title>
<polygon fill="white" stroke="none" points="-4,4 -4,-518.75 1195.23,-518.75 1195.23,4 -4,4"/>
<text text-anchor="middle" x="595.61" y="-7.95" font-family="Times,serif" font-size="14.00">$auto$tamara_debug.cpp:57:execute$1</text>
<!-- n19 -->
<g id="node1" class="node">
<title>n19</title>
<polygon fill="none" stroke="black" points="54,-414.55 54,-429.46 38.18,-440 15.82,-440 0,-429.46 0,-414.55 15.82,-404 38.18,-404 54,-414.55"/>
<text text-anchor="middle" x="27" y="-417.33" font-family="Times,serif" font-size="14.00">a</text>
</g>
<!-- x0 -->
<g id="node20" class="node">
<title>x0</title>
<ellipse fill="black" stroke="black" cx="91.8" cy="-422" rx="1.8" ry="1.8"/>
</g>
<!-- n19&#45;&gt;x0 -->
<g id="edge15" class="edge">
<title>n19:e&#45;&gt;x0:w</title>
<path fill="none" stroke="#a6761d" d="M54,-422C65.38,-422 70.68,-422 78.55,-422"/>
<polygon fill="#a6761d" stroke="#a6761d" points="78.49,-425.5 88.49,-422 78.49,-418.5 78.49,-425.5"/>
</g>
<!-- n20 -->
<g id="node2" class="node">
<title>n20</title>
<polygon fill="none" stroke="black" points="54,-149.55 54,-164.46 38.18,-175 15.82,-175 0,-164.46 0,-149.55 15.82,-139 38.18,-139 54,-149.55"/>
<text text-anchor="middle" x="27" y="-152.33" font-family="Times,serif" font-size="14.00">b</text>
</g>
<!-- x1 -->
<g id="node21" class="node">
<title>x1</title>
<ellipse fill="black" stroke="black" cx="91.8" cy="-157" rx="1.8" ry="1.8"/>
</g>
<!-- n20&#45;&gt;x1 -->
<g id="edge21" class="edge">
<title>n20:e&#45;&gt;x1:w</title>
<path fill="none" stroke="#a6761d" d="M54,-157C65.38,-157 70.68,-157 78.55,-157"/>
<polygon fill="#a6761d" stroke="#a6761d" points="78.49,-160.5 88.49,-157 78.49,-153.5 78.49,-160.5"/>
</g>
<!-- n21 -->
<g id="node3" class="node">
<title>n21</title>
<polygon fill="none" stroke="black" points="54,-265.55 54,-280.46 38.18,-291 15.82,-291 0,-280.46 0,-265.55 15.82,-255 38.18,-255 54,-265.55"/>
<text text-anchor="middle" x="27" y="-268.33" font-family="Times,serif" font-size="14.00">c</text>
</g>
<!-- x2 -->
<g id="node22" class="node">
<title>x2</title>
<ellipse fill="black" stroke="black" cx="91.8" cy="-273" rx="1.8" ry="1.8"/>
</g>
<!-- n21&#45;&gt;x2 -->
<g id="edge22" class="edge">
<title>n21:e&#45;&gt;x2:w</title>
<path fill="none" stroke="#66a61e" d="M54,-273C65.38,-273 70.68,-273 78.55,-273"/>
<polygon fill="#66a61e" stroke="#66a61e" points="78.49,-276.5 88.49,-273 78.49,-269.5 78.49,-276.5"/>
</g>
<!-- n22 -->
<g id="node4" class="node">
<title>n22</title>
<polygon fill="none" stroke="black" points="1191.23,-198.55 1191.23,-213.46 1174.44,-224 1150.69,-224 1133.9,-213.46 1133.9,-198.55 1150.69,-188 1174.44,-188 1191.23,-198.55"/>
<text text-anchor="middle" x="1162.57" y="-201.33" font-family="Times,serif" font-size="14.00">err</text>
</g>
<!-- n23 -->
<g id="node5" class="node">
<title>n23</title>
<polygon fill="none" stroke="black" points="923.3,-257.55 923.3,-272.46 905.85,-283 881.16,-283 863.7,-272.46 863.7,-257.55 881.16,-247 905.85,-247 923.3,-257.55"/>
<text text-anchor="middle" x="893.5" y="-260.33" font-family="Times,serif" font-size="14.00">out</text>
</g>
<!-- c26 -->
<g id="node6" class="node">
<title>c26</title>
<polygon fill="none" stroke="black" points="959.3,-184.75 959.3,-227.25 1058.3,-227.25 1058.3,-184.75 959.3,-184.75"/>
<text text-anchor="middle" x="972.18" y="-201.45" font-family="Times,serif" font-size="14.00">A</text>
<polyline fill="none" stroke="black" points="985.05,-184.75 985.05,-227.25"/>
<text text-anchor="middle" x="1009.18" y="-209.95" font-family="Times,serif" font-size="14.00">$33</text>
<text text-anchor="middle" x="1009.18" y="-192.7" font-family="Times,serif" font-size="14.00">$buf</text>
<polyline fill="none" stroke="black" points="1033.3,-184.75 1033.3,-227.25"/>
<text text-anchor="middle" x="1045.8" y="-201.45" font-family="Times,serif" font-size="14.00">Y</text>
</g>
<!-- x5 -->
<g id="node25" class="node">
<title>x5</title>
<ellipse fill="black" stroke="black" cx="1096.1" cy="-206" rx="1.8" ry="1.8"/>
</g>
<!-- c26&#45;&gt;x5 -->
<g id="edge32" class="edge">
<title>c26:e&#45;&gt;x5:w</title>
<path fill="none" stroke="#e6ab02" d="M1058.3,-206.13C1069.68,-206.13 1074.99,-206.07 1082.86,-206.03"/>
<polygon fill="#e6ab02" stroke="#e6ab02" points="1082.8,-209.53 1092.79,-206.01 1082.78,-202.53 1082.8,-209.53"/>
</g>
<!-- c28 -->
<g id="node7" class="node">
<title>c28</title>
<polygon fill="none" stroke="black" points="169.2,-61.75 169.2,-112.25 312.45,-112.25 312.45,-61.75 169.2,-61.75"/>
<text text-anchor="middle" x="182.45" y="-94.95" font-family="Times,serif" font-size="14.00">A</text>
<polyline fill="none" stroke="black" points="169.2,-87 195.7,-87"/>
<text text-anchor="middle" x="182.45" y="-69.7" font-family="Times,serif" font-size="14.00">B</text>
<polyline fill="none" stroke="black" points="195.7,-61.75 195.7,-112.25"/>
<text text-anchor="middle" x="241.57" y="-90.95" font-family="Times,serif" font-size="14.00">$15</text>
<text text-anchor="middle" x="241.57" y="-73.7" font-family="Times,serif" font-size="14.00">$logic_and</text>
<polyline fill="none" stroke="black" points="287.45,-61.75 287.45,-112.25"/>
<text text-anchor="middle" x="299.95" y="-82.45" font-family="Times,serif" font-size="14.00">Y</text>
</g>
<!-- c37 -->
<g id="node16" class="node">
<title>c37</title>
<polygon fill="none" stroke="black" points="354.07,-266.75 354.07,-317.25 486.07,-317.25 486.07,-266.75 354.07,-266.75"/>
<text text-anchor="middle" x="367.32" y="-299.95" font-family="Times,serif" font-size="14.00">A</text>
<polyline fill="none" stroke="black" points="354.07,-292 380.57,-292"/>
<text text-anchor="middle" x="367.32" y="-274.7" font-family="Times,serif" font-size="14.00">B</text>
<polyline fill="none" stroke="black" points="380.57,-266.75 380.57,-317.25"/>
<text text-anchor="middle" x="420.82" y="-295.95" font-family="Times,serif" font-size="14.00">$27</text>
<text text-anchor="middle" x="420.82" y="-278.7" font-family="Times,serif" font-size="14.00">$logic_or</text>
<polyline fill="none" stroke="black" points="461.07,-266.75 461.07,-317.25"/>
<text text-anchor="middle" x="473.57" y="-287.45" font-family="Times,serif" font-size="14.00">Y</text>
</g>
<!-- c28&#45;&gt;c37 -->
<g id="edge34" class="edge">
<title>c28:e&#45;&gt;c37:w</title>
<path fill="none" stroke="#a6761d" d="M312.45,-87.13C406.56,-87.13 267.68,-286.34 341.77,-303.46"/>
<polygon fill="#a6761d" stroke="#a6761d" points="341.26,-306.93 351.57,-304.47 341.98,-299.96 341.26,-306.93"/>
</g>
<!-- c29 -->
<g id="node8" class="node">
<title>c29</title>
<polygon fill="none" stroke="black" points="169.2,-363.75 169.2,-414.25 312.45,-414.25 312.45,-363.75 169.2,-363.75"/>
<text text-anchor="middle" x="182.45" y="-396.95" font-family="Times,serif" font-size="14.00">A</text>
<polyline fill="none" stroke="black" points="169.2,-389 195.7,-389"/>
<text text-anchor="middle" x="182.45" y="-371.7" font-family="Times,serif" font-size="14.00">B</text>
<polyline fill="none" stroke="black" points="195.7,-363.75 195.7,-414.25"/>
<text text-anchor="middle" x="241.57" y="-392.95" font-family="Times,serif" font-size="14.00">$17</text>
<text text-anchor="middle" x="241.57" y="-375.7" font-family="Times,serif" font-size="14.00">$logic_and</text>
<polyline fill="none" stroke="black" points="287.45,-363.75 287.45,-414.25"/>
<text text-anchor="middle" x="299.95" y="-384.45" font-family="Times,serif" font-size="14.00">Y</text>
</g>
<!-- c29&#45;&gt;c37 -->
<g id="edge35" class="edge">
<title>c29:e&#45;&gt;c37:w</title>
<path fill="none" stroke="#7570b3" d="M312.45,-389.13C359.99,-389.13 311.11,-297.43 342.08,-281.67"/>
<polygon fill="#7570b3" stroke="#7570b3" points="342.52,-285.15 351.59,-279.69 341.09,-278.3 342.52,-285.15"/>
</g>
<!-- c30 -->
<g id="node9" class="node">
<title>c30</title>
<polygon fill="none" stroke="black" points="348.45,-406.75 348.45,-457.25 491.7,-457.25 491.7,-406.75 348.45,-406.75"/>
<text text-anchor="middle" x="361.7" y="-439.95" font-family="Times,serif" font-size="14.00">A</text>
<polyline fill="none" stroke="black" points="348.45,-432 374.95,-432"/>
<text text-anchor="middle" x="361.7" y="-414.7" font-family="Times,serif" font-size="14.00">B</text>
<polyline fill="none" stroke="black" points="374.95,-406.75 374.95,-457.25"/>
<text text-anchor="middle" x="420.82" y="-435.95" font-family="Times,serif" font-size="14.00">$19</text>
<text text-anchor="middle" x="420.82" y="-418.7" font-family="Times,serif" font-size="14.00">$logic_and</text>
<polyline fill="none" stroke="black" points="466.7,-406.75 466.7,-457.25"/>
<text text-anchor="middle" x="479.2" y="-427.45" font-family="Times,serif" font-size="14.00">Y</text>
</g>
<!-- c38 -->
<g id="node17" class="node">
<title>c38</title>
<polygon fill="none" stroke="black" points="527.7,-348.75 527.7,-399.25 659.7,-399.25 659.7,-348.75 527.7,-348.75"/>
<text text-anchor="middle" x="540.95" y="-381.95" font-family="Times,serif" font-size="14.00">A</text>
<polyline fill="none" stroke="black" points="527.7,-374 554.2,-374"/>
<text text-anchor="middle" x="540.95" y="-356.7" font-family="Times,serif" font-size="14.00">B</text>
<polyline fill="none" stroke="black" points="554.2,-348.75 554.2,-399.25"/>
<text text-anchor="middle" x="594.45" y="-377.95" font-family="Times,serif" font-size="14.00">$29</text>
<text text-anchor="middle" x="594.45" y="-360.7" font-family="Times,serif" font-size="14.00">$logic_or</text>
<polyline fill="none" stroke="black" points="634.7,-348.75 634.7,-399.25"/>
<text text-anchor="middle" x="647.2" y="-369.45" font-family="Times,serif" font-size="14.00">Y</text>
</g>
<!-- c30&#45;&gt;c38 -->
<g id="edge6" class="edge">
<title>c30:e&#45;&gt;c38:w</title>
<path fill="none" stroke="#7570b3" d="M491.7,-432.13C512.65,-432.13 506.3,-402.09 517.01,-390.83"/>
<polygon fill="#7570b3" stroke="#7570b3" points="518.26,-394.1 526.29,-387.18 515.7,-387.58 518.26,-394.1"/>
</g>
<!-- c31 -->
<g id="node10" class="node">
<title>c31</title>
<polygon fill="none" stroke="black" points="348.45,-336.75 348.45,-387.25 491.7,-387.25 491.7,-336.75 348.45,-336.75"/>
<text text-anchor="middle" x="361.7" y="-369.95" font-family="Times,serif" font-size="14.00">A</text>
<polyline fill="none" stroke="black" points="348.45,-362 374.95,-362"/>
<text text-anchor="middle" x="361.7" y="-344.7" font-family="Times,serif" font-size="14.00">B</text>
<polyline fill="none" stroke="black" points="374.95,-336.75 374.95,-387.25"/>
<text text-anchor="middle" x="420.82" y="-365.95" font-family="Times,serif" font-size="14.00">$21</text>
<text text-anchor="middle" x="420.82" y="-348.7" font-family="Times,serif" font-size="14.00">$logic_and</text>
<polyline fill="none" stroke="black" points="466.7,-336.75 466.7,-387.25"/>
<text text-anchor="middle" x="479.2" y="-357.45" font-family="Times,serif" font-size="14.00">Y</text>
</g>
<!-- c31&#45;&gt;c38 -->
<g id="edge7" class="edge">
<title>c31:e&#45;&gt;c38:w</title>
<path fill="none" stroke="#7570b3" d="M491.7,-362.13C503.08,-362.13 508.38,-361.75 516.25,-361.53"/>
<polygon fill="#7570b3" stroke="#7570b3" points="516.23,-365.03 526.19,-361.4 516.14,-358.03 516.23,-365.03"/>
</g>
<!-- c32 -->
<g id="node11" class="node">
<title>c32</title>
<polygon fill="none" stroke="black" points="169.2,-255.75 169.2,-306.25 312.45,-306.25 312.45,-255.75 169.2,-255.75"/>
<text text-anchor="middle" x="182.45" y="-288.95" font-family="Times,serif" font-size="14.00">A</text>
<polyline fill="none" stroke="black" points="169.2,-281 195.7,-281"/>
<text text-anchor="middle" x="182.45" y="-263.7" font-family="Times,serif" font-size="14.00">B</text>
<polyline fill="none" stroke="black" points="195.7,-255.75 195.7,-306.25"/>
<text text-anchor="middle" x="241.57" y="-284.95" font-family="Times,serif" font-size="14.00">$23</text>
<text text-anchor="middle" x="241.57" y="-267.7" font-family="Times,serif" font-size="14.00">$logic_and</text>
<polyline fill="none" stroke="black" points="287.45,-255.75 287.45,-306.25"/>
<text text-anchor="middle" x="299.95" y="-276.45" font-family="Times,serif" font-size="14.00">Y</text>
</g>
<!-- c39 -->
<g id="node18" class="node">
<title>c39</title>
<polygon fill="none" stroke="black" points="527.7,-239.75 527.7,-290.25 659.7,-290.25 659.7,-239.75 527.7,-239.75"/>
<text text-anchor="middle" x="540.95" y="-272.95" font-family="Times,serif" font-size="14.00">A</text>
<polyline fill="none" stroke="black" points="527.7,-265 554.2,-265"/>
<text text-anchor="middle" x="540.95" y="-247.7" font-family="Times,serif" font-size="14.00">B</text>
<polyline fill="none" stroke="black" points="554.2,-239.75 554.2,-290.25"/>
<text text-anchor="middle" x="594.45" y="-268.95" font-family="Times,serif" font-size="14.00">$30</text>
<text text-anchor="middle" x="594.45" y="-251.7" font-family="Times,serif" font-size="14.00">$logic_or</text>
<polyline fill="none" stroke="black" points="634.7,-239.75 634.7,-290.25"/>
<text text-anchor="middle" x="647.2" y="-260.45" font-family="Times,serif" font-size="14.00">Y</text>
</g>
<!-- c32&#45;&gt;c39 -->
<g id="edge8" class="edge">
<title>c32:e&#45;&gt;c39:w</title>
<path fill="none" stroke="#a6761d" d="M312.45,-281.13C331.71,-281.13 330.1,-262.84 348.45,-257 420.68,-234.02 445.58,-250.58 516.41,-252.25"/>
<polygon fill="#a6761d" stroke="#a6761d" points="516.15,-255.74 526.19,-252.36 516.23,-248.74 516.15,-255.74"/>
</g>
<!-- c33 -->
<g id="node12" class="node">
<title>c33</title>
<polygon fill="none" stroke="black" points="348.45,-115.75 348.45,-166.25 491.7,-166.25 491.7,-115.75 348.45,-115.75"/>
<text text-anchor="middle" x="361.7" y="-148.95" font-family="Times,serif" font-size="14.00">A</text>
<polyline fill="none" stroke="black" points="348.45,-141 374.95,-141"/>
<text text-anchor="middle" x="361.7" y="-123.7" font-family="Times,serif" font-size="14.00">B</text>
<polyline fill="none" stroke="black" points="374.95,-115.75 374.95,-166.25"/>
<text text-anchor="middle" x="420.82" y="-144.95" font-family="Times,serif" font-size="14.00">$25</text>
<text text-anchor="middle" x="420.82" y="-127.7" font-family="Times,serif" font-size="14.00">$logic_and</text>
<polyline fill="none" stroke="black" points="466.7,-115.75 466.7,-166.25"/>
<text text-anchor="middle" x="479.2" y="-136.45" font-family="Times,serif" font-size="14.00">Y</text>
</g>
<!-- c40 -->
<g id="node19" class="node">
<title>c40</title>
<polygon fill="none" stroke="black" points="695.7,-180.75 695.7,-231.25 827.7,-231.25 827.7,-180.75 695.7,-180.75"/>
<text text-anchor="middle" x="708.95" y="-213.95" font-family="Times,serif" font-size="14.00">A</text>
<polyline fill="none" stroke="black" points="695.7,-206 722.2,-206"/>
<text text-anchor="middle" x="708.95" y="-188.7" font-family="Times,serif" font-size="14.00">B</text>
<polyline fill="none" stroke="black" points="722.2,-180.75 722.2,-231.25"/>
<text text-anchor="middle" x="762.45" y="-209.95" font-family="Times,serif" font-size="14.00">$31</text>
<text text-anchor="middle" x="762.45" y="-192.7" font-family="Times,serif" font-size="14.00">$logic_or</text>
<polyline fill="none" stroke="black" points="802.7,-180.75 802.7,-231.25"/>
<text text-anchor="middle" x="815.2" y="-201.45" font-family="Times,serif" font-size="14.00">Y</text>
</g>
<!-- c33&#45;&gt;c40 -->
<g id="edge9" class="edge">
<title>c33:e&#45;&gt;c40:w</title>
<path fill="none" stroke="#d95f02" d="M491.7,-141.13C581.36,-141.13 600.56,-189.08 684.3,-193.11"/>
<polygon fill="#d95f02" stroke="#d95f02" points="684.11,-196.61 694.19,-193.34 684.27,-189.61 684.11,-196.61"/>
</g>
<!-- c34 -->
<g id="node13" class="node">
<title>c34</title>
<polygon fill="none" stroke="black" points="171.07,-471.75 171.07,-514.25 310.57,-514.25 310.57,-471.75 171.07,-471.75"/>
<text text-anchor="middle" x="183.95" y="-488.45" font-family="Times,serif" font-size="14.00">A</text>
<polyline fill="none" stroke="black" points="196.82,-471.75 196.82,-514.25"/>
<text text-anchor="middle" x="241.2" y="-496.95" font-family="Times,serif" font-size="14.00">$9</text>
<text text-anchor="middle" x="241.2" y="-479.7" font-family="Times,serif" font-size="14.00">$logic_not</text>
<polyline fill="none" stroke="black" points="285.57,-471.75 285.57,-514.25"/>
<text text-anchor="middle" x="298.07" y="-488.45" font-family="Times,serif" font-size="14.00">Y</text>
</g>
<!-- c34&#45;&gt;c30 -->
<g id="edge10" class="edge">
<title>c34:e&#45;&gt;c30:w</title>
<path fill="none" stroke="#e6ab02" d="M311.57,-493.13C334,-493.13 326,-459.87 337.97,-448.43"/>
<polygon fill="#e6ab02" stroke="#e6ab02" points="338.82,-451.85 347.03,-445.15 336.43,-445.27 338.82,-451.85"/>
</g>
<!-- c35 -->
<g id="node14" class="node">
<title>c35</title>
<polygon fill="none" stroke="black" points="171.07,-193.75 171.07,-236.25 310.57,-236.25 310.57,-193.75 171.07,-193.75"/>
<text text-anchor="middle" x="183.95" y="-210.45" font-family="Times,serif" font-size="14.00">A</text>
<polyline fill="none" stroke="black" points="196.82,-193.75 196.82,-236.25"/>
<text text-anchor="middle" x="241.2" y="-218.95" font-family="Times,serif" font-size="14.00">$11</text>
<text text-anchor="middle" x="241.2" y="-201.7" font-family="Times,serif" font-size="14.00">$logic_not</text>
<polyline fill="none" stroke="black" points="285.57,-193.75 285.57,-236.25"/>
<text text-anchor="middle" x="298.07" y="-210.45" font-family="Times,serif" font-size="14.00">Y</text>
</g>
<!-- c35&#45;&gt;c31 -->
<g id="edge11" class="edge">
<title>c35:e&#45;&gt;c31:w</title>
<path fill="none" stroke="#e6ab02" d="M311.57,-215.13C379.93,-215.13 288.18,-355.9 337.15,-372.95"/>
<polygon fill="#e6ab02" stroke="#e6ab02" points="336.55,-376.39 346.95,-374.41 337.58,-369.47 336.55,-376.39"/>
</g>
<!-- c36 -->
<g id="node15" class="node">
<title>c36</title>
<polygon fill="none" stroke="black" points="171.07,-131.75 171.07,-174.25 310.57,-174.25 310.57,-131.75 171.07,-131.75"/>
<text text-anchor="middle" x="183.95" y="-148.45" font-family="Times,serif" font-size="14.00">A</text>
<polyline fill="none" stroke="black" points="196.82,-131.75 196.82,-174.25"/>
<text text-anchor="middle" x="241.2" y="-156.95" font-family="Times,serif" font-size="14.00">$13</text>
<text text-anchor="middle" x="241.2" y="-139.7" font-family="Times,serif" font-size="14.00">$logic_not</text>
<polyline fill="none" stroke="black" points="285.57,-131.75 285.57,-174.25"/>
<text text-anchor="middle" x="298.07" y="-148.45" font-family="Times,serif" font-size="14.00">Y</text>
</g>
<!-- c36&#45;&gt;c33 -->
<g id="edge12" class="edge">
<title>c36:e&#45;&gt;c33:w</title>
<path fill="none" stroke="#d95f02" d="M311.57,-153.13C323.36,-153.13 328.78,-153.39 336.99,-153.53"/>
<polygon fill="#d95f02" stroke="#d95f02" points="336.91,-157.03 346.94,-153.62 336.97,-150.03 336.91,-157.03"/>
</g>
<!-- c37&#45;&gt;c39 -->
<g id="edge13" class="edge">
<title>c37:e&#45;&gt;c39:w</title>
<path fill="none" stroke="#1b9e77" d="M487.07,-292.13C501.75,-292.13 506.53,-283.63 516.57,-279.65"/>
<polygon fill="#1b9e77" stroke="#1b9e77" points="516.99,-283.13 526.21,-277.9 515.75,-276.24 516.99,-283.13"/>
</g>
<!-- c38&#45;&gt;c40 -->
<g id="edge14" class="edge">
<title>c38:e&#45;&gt;c40:w</title>
<path fill="none" stroke="#d95f02" d="M659.7,-374.13C726.21,-374.13 637.31,-237.46 684.38,-220.38"/>
<polygon fill="#d95f02" stroke="#d95f02" points="684.86,-223.84 694.2,-218.86 683.79,-216.93 684.86,-223.84"/>
</g>
<!-- x3 -->
<g id="node23" class="node">
<title>x3</title>
<ellipse fill="black" stroke="black" cx="761.7" cy="-265" rx="1.8" ry="1.8"/>
</g>
<!-- c39&#45;&gt;x3 -->
<g id="edge33" class="edge">
<title>c39:e&#45;&gt;x3:w</title>
<path fill="none" stroke="#a6761d" d="M659.7,-265.13C699.63,-265.13 712.31,-265.03 747.34,-265.01"/>
<polygon fill="#a6761d" stroke="#a6761d" points="746.91,-268.51 756.91,-265 746.91,-261.51 746.91,-268.51"/>
</g>
<!-- x4 -->
<g id="node24" class="node">
<title>x4</title>
<ellipse fill="black" stroke="black" cx="893.5" cy="-206" rx="1.8" ry="1.8"/>
</g>
<!-- c40&#45;&gt;x4 -->
<g id="edge30" class="edge">
<title>c40:e&#45;&gt;x4:w</title>
<path fill="none" stroke="#e6ab02" d="M827.7,-206.13C851.25,-206.13 859.83,-206.04 878.83,-206.01"/>
<polygon fill="#e6ab02" stroke="#e6ab02" points="878.71,-209.51 888.71,-206.01 878.71,-202.51 878.71,-209.51"/>
</g>
<!-- n1 -->
<g id="node26" class="node">
<title>n1</title>
<ellipse fill="black" stroke="black" cx="131.4" cy="-422" rx="1.8" ry="1.8"/>
</g>
<!-- x0&#45;&gt;n1 -->
<g id="edge1" class="edge">
<title>x0:e&#45;&gt;n1:w</title>
<path fill="none" stroke="#e7298a" d="M93.6,-422C104.97,-422 110.28,-422 118.15,-422"/>
<polygon fill="#e7298a" stroke="#e7298a" points="118.09,-425.5 128.09,-422 118.09,-418.5 118.09,-425.5"/>
</g>
<!-- n2 -->
<g id="node27" class="node">
<title>n2</title>
<ellipse fill="black" stroke="black" cx="131.4" cy="-157" rx="1.8" ry="1.8"/>
</g>
<!-- x1&#45;&gt;n2 -->
<g id="edge16" class="edge">
<title>x1:e&#45;&gt;n2:w</title>
<path fill="none" stroke="#66a61e" d="M93.6,-157C104.97,-157 110.28,-157 118.15,-157"/>
<polygon fill="#66a61e" stroke="#66a61e" points="118.09,-160.5 128.09,-157 118.09,-153.5 118.09,-160.5"/>
</g>
<!-- n3 -->
<g id="node28" class="node">
<title>n3</title>
<ellipse fill="black" stroke="black" cx="131.4" cy="-273" rx="1.8" ry="1.8"/>
</g>
<!-- x2&#45;&gt;n3 -->
<g id="edge25" class="edge">
<title>x2:e&#45;&gt;n3:w</title>
<path fill="none" stroke="#7570b3" d="M93.6,-273C104.97,-273 110.28,-273 118.15,-273"/>
<polygon fill="#7570b3" stroke="#7570b3" points="118.09,-276.5 128.09,-273 118.09,-269.5 118.09,-276.5"/>
</g>
<!-- x3&#45;&gt;n23 -->
<g id="edge24" class="edge">
<title>x3:e&#45;&gt;n23:w</title>
<path fill="none" stroke="#666666" d="M764.98,-265C804.91,-265 817.59,-265 852.62,-265"/>
<polygon fill="#666666" stroke="#666666" points="852.19,-268.5 862.19,-265 852.19,-261.5 852.19,-268.5"/>
</g>
<!-- x4&#45;&gt;c26 -->
<g id="edge31" class="edge">
<title>x4:e&#45;&gt;c26:w</title>
<path fill="none" stroke="#7570b3" d="M896.78,-206C920.33,-206 928.91,-206.09 947.91,-206.12"/>
<polygon fill="#7570b3" stroke="#7570b3" points="947.79,-209.62 957.79,-206.13 947.79,-202.62 947.79,-209.62"/>
</g>
<!-- x5&#45;&gt;n22 -->
<g id="edge23" class="edge">
<title>x5:e&#45;&gt;n22:w</title>
<path fill="none" stroke="#d95f02" d="M1097.9,-206C1109.28,-206 1114.59,-206 1122.46,-206"/>
<polygon fill="#d95f02" stroke="#d95f02" points="1122.39,-209.5 1132.39,-206 1122.39,-202.5 1122.39,-209.5"/>
</g>
<!-- n1&#45;&gt;c29 -->
<g id="edge2" class="edge">
<title>n1:e&#45;&gt;c29:w</title>
<path fill="none" stroke="#e7298a" d="M133.2,-422C146.99,-422 150,-410.54 158.4,-404.81"/>
<polygon fill="#e7298a" stroke="#e7298a" points="159.15,-408.24 167.75,-402.06 157.17,-401.53 159.15,-408.24"/>
</g>
<!-- n1&#45;&gt;c31 -->
<g id="edge3" class="edge">
<title>n1:e&#45;&gt;c31:w</title>
<path fill="none" stroke="#e7298a" d="M133.2,-422C212.87,-422 244.98,-466.37 312.45,-424 339.74,-406.87 318.64,-362.59 337.61,-351.78"/>
<polygon fill="#e7298a" stroke="#e7298a" points="337.97,-355.29 346.97,-349.71 336.45,-348.45 337.97,-355.29"/>
</g>
<!-- n1&#45;&gt;c32 -->
<g id="edge4" class="edge">
<title>n1:e&#45;&gt;c32:w</title>
<path fill="none" stroke="#e7298a" d="M133.2,-422C188.06,-422 121.41,-311.98 158.23,-295.65"/>
<polygon fill="#e7298a" stroke="#e7298a" points="158.51,-299.15 167.71,-293.9 157.24,-292.27 158.51,-299.15"/>
</g>
<!-- n1&#45;&gt;c34 -->
<g id="edge5" class="edge">
<title>n1:e&#45;&gt;c34:w</title>
<path fill="none" stroke="#e7298a" d="M133.2,-422C164.08,-422 142.36,-475.49 159.26,-489.7"/>
<polygon fill="#e7298a" stroke="#e7298a" points="158.04,-492.98 168.63,-492.67 160.16,-486.31 158.04,-492.98"/>
</g>
<!-- n2&#45;&gt;c28 -->
<g id="edge17" class="edge">
<title>n2:e&#45;&gt;c28:w</title>
<path fill="none" stroke="#66a61e" d="M133.2,-157C158.6,-157 145.34,-116.16 158.65,-103.39"/>
<polygon fill="#66a61e" stroke="#66a61e" points="159.53,-106.8 167.77,-100.14 157.18,-100.2 159.53,-106.8"/>
</g>
<!-- n2&#45;&gt;c32 -->
<g id="edge18" class="edge">
<title>n2:e&#45;&gt;c32:w</title>
<path fill="none" stroke="#66a61e" d="M133.2,-157C180.75,-157 127.99,-250.06 158.3,-266.05"/>
<polygon fill="#66a61e" stroke="#66a61e" points="157.21,-269.4 167.72,-268.06 158.67,-262.55 157.21,-269.4"/>
</g>
<!-- n2&#45;&gt;c33 -->
<g id="edge19" class="edge">
<title>n2:e&#45;&gt;c33:w</title>
<path fill="none" stroke="#66a61e" d="M133.2,-157C182.53,-157 129.06,-80.68 169.2,-52 221.01,-15 258.68,-17.91 312.45,-52 340.18,-69.59 318.21,-114.88 337.43,-125.92"/>
<polygon fill="#66a61e" stroke="#66a61e" points="336.45,-129.29 346.97,-128.05 337.97,-122.46 336.45,-129.29"/>
</g>
<!-- n2&#45;&gt;c35 -->
<g id="edge20" class="edge">
<title>n2:e&#45;&gt;c35:w</title>
<path fill="none" stroke="#66a61e" d="M133.2,-157C159.01,-157 145.74,-198.38 159.34,-211.32"/>
<polygon fill="#66a61e" stroke="#66a61e" points="158.05,-214.57 168.65,-214.62 160.4,-207.98 158.05,-214.57"/>
</g>
<!-- n3&#45;&gt;c28 -->
<g id="edge26" class="edge">
<title>n3:e&#45;&gt;c28:w</title>
<path fill="none" stroke="#7570b3" d="M133.2,-273C218.71,-273 92.42,-92.56 158.07,-75.65"/>
<polygon fill="#7570b3" stroke="#7570b3" points="158.16,-79.16 167.7,-74.55 157.36,-72.21 158.16,-79.16"/>
</g>
<!-- n3&#45;&gt;c29 -->
<g id="edge27" class="edge">
<title>n3:e&#45;&gt;c29:w</title>
<path fill="none" stroke="#7570b3" d="M133.2,-273C177.29,-273 131.08,-357.91 158.23,-373.82"/>
<polygon fill="#7570b3" stroke="#7570b3" points="157.19,-377.17 167.73,-376.04 158.78,-370.36 157.19,-377.17"/>
</g>
<!-- n3&#45;&gt;c30 -->
<g id="edge28" class="edge">
<title>n3:e&#45;&gt;c30:w</title>
<path fill="none" stroke="#7570b3" d="M133.2,-273C158.12,-273 148.17,-302.63 169.2,-316 224.78,-351.36 260.55,-313.44 312.45,-354 334.91,-371.56 320.86,-407.22 337.51,-416.91"/>
<polygon fill="#7570b3" stroke="#7570b3" points="336.45,-420.25 346.97,-419.05 337.99,-413.43 336.45,-420.25"/>
</g>
<!-- n3&#45;&gt;c36 -->
<g id="edge29" class="edge">
<title>n3:e&#45;&gt;c36:w</title>
<path fill="none" stroke="#7570b3" d="M133.2,-273C184.37,-273 125.7,-171.99 158.84,-155.42"/>
<polygon fill="#7570b3" stroke="#7570b3" points="159.49,-158.86 168.59,-153.43 158.09,-152 159.49,-158.86"/>
</g>
</g>
</svg>
