<?xml version="1.0" encoding="UTF-8" standalone="no"?>
<!-- Generated by graphviz version 12.2.1 (0)
 -->

<!-- Title: not_tmr Pages: 1 -->

<svg
   width="1912pt"
   height="467pt"
   viewBox="0.00 0.00 1911.68 466.67"
   version="1.1"
   id="svg106"
   sodipodi:docname="mutation.svg"
   inkscape:version="1.4.2 (ebf0e940d0, 2025-05-08)"
   xmlns:inkscape="http://www.inkscape.org/namespaces/inkscape"
   xmlns:sodipodi="http://sodipodi.sourceforge.net/DTD/sodipodi-0.dtd"
   xmlns="http://www.w3.org/2000/svg"
   xmlns:svg="http://www.w3.org/2000/svg">
  <defs
     id="defs106" />
  <sodipodi:namedview
     id="namedview106"
     pagecolor="#ffffff"
     bordercolor="#666666"
     borderopacity="1.0"
     inkscape:showpageshadow="2"
     inkscape:pageopacity="0.0"
     inkscape:pagecheckerboard="0"
     inkscape:deskcolor="#d1d1d1"
     inkscape:document-units="pt"
     inkscape:zoom="0.34813023"
     inkscape:cx="853.12901"
     inkscape:cy="195.3292"
     inkscape:window-width="1920"
     inkscape:window-height="1010"
     inkscape:window-x="0"
     inkscape:window-y="0"
     inkscape:window-maximized="1"
     inkscape:current-layer="svg106" />
  <g
     id="node1"
     class="node"
     transform="translate(4,462.67)">
    <title
       id="title2">n17</title>
    <polygon
       fill="none"
       stroke="#000000"
       points="38.18,-294.92 15.82,-294.92 0,-284.38 0,-269.47 15.82,-258.92 38.18,-258.92 54,-269.47 54,-284.38 "
       id="polygon2" />
    <text
       text-anchor="middle"
       x="27"
       y="-272.25"
       font-family="Times, serif"
       font-size="14px"
       id="text2">a</text>
  </g>
  <g
     id="node5"
     class="node"
     transform="translate(4,462.67)">
    <title
       id="title3">c23</title>
    <polygon
       fill="none"
       stroke="#000000"
       points="519,-363.17 519,-320.67 147.75,-320.67 147.75,-363.17 "
       id="polygon3" />
    <text
       text-anchor="middle"
       x="160.62"
       y="-337.37"
       font-family="Times, serif"
       font-size="14px"
       id="text3">A</text>
    <polyline
       fill="none"
       stroke="#000000"
       points="173.5,-320.67 173.5,-363.17"
       id="polyline3" />
    <text
       text-anchor="middle"
       x="333.75"
       y="-345.87"
       font-family="Times, serif"
       font-size="14px"
       id="text4">$logic_not$../tests/verilog/not_tmr.sv:13$1</text>
    <text
       text-anchor="middle"
       x="333.75"
       y="-328.62"
       font-family="Times, serif"
       font-size="14px"
       id="text5">$logic_not</text>
    <polyline
       fill="none"
       stroke="#000000"
       points="494,-320.67 494,-363.17"
       id="polyline5" />
    <text
       text-anchor="middle"
       x="506.5"
       y="-337.37"
       font-family="Times, serif"
       font-size="14px"
       id="text6">Y</text>
  </g>
  <g
     id="edge9"
     class="edge"
     transform="translate(4,462.67)">
    <title
       id="title6">n17:e-&gt;c23:w</title>
    <path
       fill="none"
       stroke="#1b9e77"
       d="m 54,-276.92 c 21.11,0 18.89,-18.63 36,-31 20.4,-14.76 25.89,-29.24 45.48,-33.12"
       id="path6" />
    <polygon
       fill="#1b9e77"
       stroke="#1b9e77"
       points="135.59,-337.54 134.97,-344.51 145.24,-341.91 "
       id="polygon6" />
  </g>
  <g
     id="node6"
     class="node"
     transform="translate(4,462.67)">
    <title
       id="title7">c24</title>
    <polygon
       fill="none"
       stroke="#000000"
       points="576.75,-298.17 576.75,-255.67 90,-255.67 90,-298.17 "
       id="polygon7" />
    <text
       text-anchor="middle"
       x="102.88"
       y="-272.37"
       font-family="Times, serif"
       font-size="14px"
       id="text7">A</text>
    <polyline
       fill="none"
       stroke="#000000"
       points="115.75,-255.67 115.75,-298.17"
       id="polyline7" />
    <text
       text-anchor="middle"
       x="333.75"
       y="-280.87"
       font-family="Times, serif"
       font-size="14px"
       id="text8">$logic_not$../tests/verilog/not_tmr.sv:13$1$replica1_cone0</text>
    <text
       text-anchor="middle"
       x="333.75"
       y="-263.62"
       font-family="Times, serif"
       font-size="14px"
       id="text9">$logic_not</text>
    <polyline
       fill="none"
       stroke="#000000"
       points="551.75,-255.67 551.75,-298.17"
       id="polyline9" />
    <text
       text-anchor="middle"
       x="564.25"
       y="-272.37"
       font-family="Times, serif"
       font-size="14px"
       id="text10">Y</text>
  </g>
  <g
     id="edge10"
     class="edge"
     transform="translate(4,462.67)">
    <title
       id="title10">n17:e-&gt;c24:w</title>
    <path
       fill="none"
       stroke="#1b9e77"
       d="m 54,-276.92 c 11.38,0 16.68,-0.07 24.55,-0.1"
       id="path10" />
    <polygon
       fill="#1b9e77"
       stroke="#1b9e77"
       points="78.49,-273.52 78.48,-280.52 88.49,-277.04 "
       id="polygon10" />
  </g>
  <g
     id="node7"
     class="node"
     transform="translate(4,462.67)">
    <title
       id="title11">c25</title>
    <polygon
       fill="none"
       stroke="#000000"
       points="576.75,-213.17 576.75,-170.67 90,-170.67 90,-213.17 "
       id="polygon11" />
    <text
       text-anchor="middle"
       x="102.88"
       y="-187.37"
       font-family="Times, serif"
       font-size="14px"
       id="text11">A</text>
    <polyline
       fill="none"
       stroke="#000000"
       points="115.75,-170.67 115.75,-213.17"
       id="polyline11" />
    <text
       text-anchor="middle"
       x="333.75"
       y="-195.87"
       font-family="Times, serif"
       font-size="14px"
       id="text12">$logic_not$../tests/verilog/not_tmr.sv:13$1$replica2_cone0</text>
    <text
       text-anchor="middle"
       x="333.75"
       y="-178.62"
       font-family="Times, serif"
       font-size="14px"
       id="text13">$logic_not</text>
    <polyline
       fill="none"
       stroke="#000000"
       points="551.75,-170.67 551.75,-213.17"
       id="polyline13" />
    <text
       text-anchor="middle"
       x="564.25"
       y="-187.37"
       font-family="Times, serif"
       font-size="14px"
       id="text14">Y</text>
  </g>
  <g
     id="edge11"
     class="edge"
     transform="translate(4,462.67)">
    <title
       id="title14">n17:e-&gt;c25:w</title>
    <path
       fill="none"
       stroke="#1b9e77"
       d="m 54,-276.92 c 36.33,0 4.32,66.73 25.17,81.85"
       id="path14" />
    <polygon
       fill="#1b9e77"
       stroke="#1b9e77"
       points="77.97,-191.77 79.85,-198.51 88.54,-192.45 "
       id="polygon14" />
  </g>
  <g
     id="node2"
     class="node"
     transform="translate(4,462.67)">
    <title
       id="title15">n18</title>
    <polygon
       fill="none"
       stroke="#000000"
       points="1886.89,-372.92 1863.14,-372.92 1846.35,-362.38 1846.35,-347.47 1863.14,-336.92 1886.89,-336.92 1903.68,-347.47 1903.68,-362.38 "
       id="polygon15" />
    <text
       text-anchor="middle"
       x="1875.01"
       y="-350.25"
       font-family="Times, serif"
       font-size="14px"
       id="text15">err</text>
  </g>
  <g
     id="node3"
     class="node"
     transform="translate(4,462.67)">
    <title
       id="title16">n19</title>
    <polygon
       fill="none"
       stroke="#000000"
       points="1886.2,-180.92 1863.83,-180.92 1848.01,-170.38 1848.01,-155.47 1863.83,-144.92 1886.2,-144.92 1902.01,-155.47 1902.01,-170.38 "
       id="polygon16" />
    <text
       text-anchor="middle"
       x="1875.01"
       y="-158.25"
       font-family="Times, serif"
       font-size="14px"
       id="text16">o</text>
  </g>
  <polygon
     fill="none"
     stroke="#000000"
     points="612.75,-321.67 612.75,-364.17 942,-364.17 942,-321.67 "
     id="polygon17"
     transform="translate(4,462.67)"
     style="fill:#ff0000" />
  <text
     text-anchor="middle"
     x="629.62"
     y="124.3"
     font-family="Times, serif"
     font-size="14px"
     id="text17">A</text>
  <polyline
     fill="none"
     stroke="#000000"
     points="638.5,-321.67 638.5,-364.17"
     id="polyline17"
     transform="translate(4,462.67)" />
  <text
     text-anchor="middle"
     x="781.75"
     y="115.8"
     font-family="Times, serif"
     font-size="14px"
     id="text18">$auto$mutate.cc:662:mutate_inv$39</text>
  <text
     text-anchor="middle"
     x="781.75"
     y="133.05"
     font-family="Times, serif"
     font-size="14px"
     id="text19">$not</text>
  <polyline
     fill="none"
     stroke="#000000"
     points="917,-321.67 917,-364.17"
     id="polyline19"
     transform="translate(4,462.67)" />
  <text
     text-anchor="middle"
     x="933.5"
     y="124.3"
     font-family="Times, serif"
     font-size="14px"
     id="text20">Y</text>
  <g
     id="node21"
     class="node"
     transform="translate(4,462.67)">
    <title
       id="title20">x0</title>
    <circle
       fill="#000000"
       stroke="#000000"
       cx="979.79999"
       cy="-343.92001"
       id="ellipse20"
       r="1.8" />
  </g>
  <g
     id="edge1"
     class="edge"
     transform="translate(4,462.67)">
    <title
       id="title21">c22:e-&gt;x0:w</title>
    <path
       fill="none"
       stroke="#e7298a"
       d="m 942,-343.05 c 11.38,0 16.68,-0.44 24.55,-0.7"
       id="path21" />
    <polygon
       fill="#e7298a"
       stroke="#e7298a"
       points="966.54,-340.24 966.43,-347.24 976.49,-343.9 "
       id="polygon21" />
  </g>
  <g
     id="edge14"
     class="edge"
     transform="translate(4,462.67)">
    <title
       id="title22">c23:e-&gt;c22:w</title>
    <path
       fill="none"
       stroke="#66a61e"
       d="m 520,-342.05 c 37.2,0 49.22,-0.81 81.5,-0.97"
       id="path22" />
    <polygon
       fill="#66a61e"
       stroke="#66a61e"
       points="601.24,-339.52 601.23,-346.52 611.24,-343.04 "
       id="polygon22" />
  </g>
  <g
     id="node22"
     class="node"
     transform="translate(4,462.67)">
    <title
       id="title23">n3</title>
    <circle
       fill="#000000"
       stroke="#000000"
       cx="979.79999"
       cy="-276.92001"
       id="ellipse23"
       r="1.8" />
  </g>
  <g
     id="edge15"
     class="edge"
     transform="translate(4,462.67)">
    <title
       id="title24">c24:e-&gt;n3:w</title>
    <path
       fill="none"
       stroke="#a6761d"
       d="m 576.75,-277.05 c 174.5,0 220.94,0.12 389.94,0.13"
       id="path24" />
    <polygon
       fill="#a6761d"
       stroke="#a6761d"
       points="966.49,-273.42 966.49,-280.42 976.49,-276.92 "
       id="polygon24" />
  </g>
  <g
     id="node23"
     class="node"
     transform="translate(4,462.67)">
    <title
       id="title25">n4</title>
    <circle
       fill="#000000"
       stroke="#000000"
       cx="979.79999"
       cy="-168.92"
       id="ellipse25"
       r="1.8" />
  </g>
  <g
     id="edge20"
     class="edge"
     transform="translate(4,462.67)">
    <title
       id="title26">c25:e-&gt;n4:w</title>
    <path
       fill="none"
       stroke="#66a61e"
       d="m 576.75,-192.05 c 174.79,0 220.67,22.14 389.92,23.1"
       id="path26" />
    <polygon
       fill="#66a61e"
       stroke="#66a61e"
       points="966.48,-165.45 966.5,-172.45 976.49,-168.93 "
       id="polygon26" />
  </g>
  <g
     id="node8"
     class="node"
     transform="translate(4,462.67)">
    <title
       id="title27">c27</title>
    <polygon
       fill="none"
       stroke="#000000"
       points="1401.6,-256.17 1401.6,-205.67 1227.6,-205.67 1227.6,-256.17 "
       id="polygon27" />
    <text
       text-anchor="middle"
       x="1240.85"
       y="-238.87"
       font-family="Times, serif"
       font-size="14px"
       id="text27">A</text>
    <polyline
       fill="none"
       stroke="#000000"
       points="1227.6,-230.92 1254.1,-230.92"
       id="polyline27" />
    <text
       text-anchor="middle"
       x="1240.85"
       y="-213.62"
       font-family="Times, serif"
       font-size="14px"
       id="text28">B</text>
    <polyline
       fill="none"
       stroke="#000000"
       points="1254.1,-205.67 1254.1,-256.17"
       id="polyline28" />
    <text
       text-anchor="middle"
       x="1315.35"
       y="-234.87"
       font-family="Times, serif"
       font-size="14px"
       id="text29">$tmr$and0$19</text>
    <text
       text-anchor="middle"
       x="1315.35"
       y="-217.62"
       font-family="Times, serif"
       font-size="14px"
       id="text30">$logic_and</text>
    <polyline
       fill="none"
       stroke="#000000"
       points="1376.6,-205.67 1376.6,-256.17"
       id="polyline30" />
    <text
       text-anchor="middle"
       x="1389.1"
       y="-226.37"
       font-family="Times, serif"
       font-size="14px"
       id="text31">Y</text>
  </g>
  <g
     id="node17"
     class="node"
     transform="translate(4,462.67)">
    <title
       id="title31">c36</title>
    <polygon
       fill="none"
       stroke="#000000"
       points="1605.97,-244.17 1605.97,-193.67 1443.22,-193.67 1443.22,-244.17 "
       id="polygon31" />
    <text
       text-anchor="middle"
       x="1456.47"
       y="-226.87"
       font-family="Times, serif"
       font-size="14px"
       id="text32">A</text>
    <polyline
       fill="none"
       stroke="#000000"
       points="1443.22,-218.92 1469.72,-218.92"
       id="polyline32" />
    <text
       text-anchor="middle"
       x="1456.47"
       y="-201.62"
       font-family="Times, serif"
       font-size="14px"
       id="text33">B</text>
    <polyline
       fill="none"
       stroke="#000000"
       points="1469.72,-193.67 1469.72,-244.17"
       id="polyline33" />
    <text
       text-anchor="middle"
       x="1525.35"
       y="-222.87"
       font-family="Times, serif"
       font-size="14px"
       id="text34">$tmr$or0$31</text>
    <text
       text-anchor="middle"
       x="1525.35"
       y="-205.62"
       font-family="Times, serif"
       font-size="14px"
       id="text35">$logic_or</text>
    <polyline
       fill="none"
       stroke="#000000"
       points="1580.97,-193.67 1580.97,-244.17"
       id="polyline35" />
    <text
       text-anchor="middle"
       x="1593.47"
       y="-214.37"
       font-family="Times, serif"
       font-size="14px"
       id="text36">Y</text>
  </g>
  <g
     id="edge30"
     class="edge"
     transform="translate(4,462.67)">
    <title
       id="title36">c27:e-&gt;c36:w</title>
    <path
       fill="none"
       stroke="#666666"
       d="m 1401.6,-231.05 c 13.54,0 19.47,-0.28 29.2,-0.42"
       id="path36" />
    <polygon
       fill="#666666"
       stroke="#666666"
       points="1430.74,-227.97 1430.69,-234.97 1440.71,-231.54 "
       id="polygon36" />
  </g>
  <g
     id="node9"
     class="node"
     transform="translate(4,462.67)">
    <title
       id="title37">c28</title>
    <polygon
       fill="none"
       stroke="#000000"
       points="1401.6,-326.17 1401.6,-275.67 1227.6,-275.67 1227.6,-326.17 "
       id="polygon37" />
    <text
       text-anchor="middle"
       x="1240.85"
       y="-308.87"
       font-family="Times, serif"
       font-size="14px"
       id="text37">A</text>
    <polyline
       fill="none"
       stroke="#000000"
       points="1227.6,-300.92 1254.1,-300.92"
       id="polyline37" />
    <text
       text-anchor="middle"
       x="1240.85"
       y="-283.62"
       font-family="Times, serif"
       font-size="14px"
       id="text38">B</text>
    <polyline
       fill="none"
       stroke="#000000"
       points="1254.1,-275.67 1254.1,-326.17"
       id="polyline38" />
    <text
       text-anchor="middle"
       x="1315.35"
       y="-304.87"
       font-family="Times, serif"
       font-size="14px"
       id="text39">$tmr$and1$21</text>
    <text
       text-anchor="middle"
       x="1315.35"
       y="-287.62"
       font-family="Times, serif"
       font-size="14px"
       id="text40">$logic_and</text>
    <polyline
       fill="none"
       stroke="#000000"
       points="1376.6,-275.67 1376.6,-326.17"
       id="polyline40" />
    <text
       text-anchor="middle"
       x="1389.1"
       y="-296.37"
       font-family="Times, serif"
       font-size="14px"
       id="text41">Y</text>
  </g>
  <g
     id="edge31"
     class="edge"
     transform="translate(4,462.67)">
    <title
       id="title41">c28:e-&gt;c36:w</title>
    <path
       fill="none"
       stroke="#7570b3"
       d="m 1401.6,-301.05 c 41.17,0 4.17,76.48 29.46,92.02"
       id="path41" />
    <polygon
       fill="#7570b3"
       stroke="#7570b3"
       points="1430.21,-205.64 1431.87,-212.43 1440.75,-206.66 "
       id="polygon41" />
  </g>
  <g
     id="node10"
     class="node"
     transform="translate(4,462.67)">
    <title
       id="title42">c29</title>
    <polygon
       fill="none"
       stroke="#000000"
       points="1401.6,-458.17 1401.6,-407.67 1227.6,-407.67 1227.6,-458.17 "
       id="polygon42" />
    <text
       text-anchor="middle"
       x="1240.85"
       y="-440.87"
       font-family="Times, serif"
       font-size="14px"
       id="text42">A</text>
    <polyline
       fill="none"
       stroke="#000000"
       points="1227.6,-432.92 1254.1,-432.92"
       id="polyline42" />
    <text
       text-anchor="middle"
       x="1240.85"
       y="-415.62"
       font-family="Times, serif"
       font-size="14px"
       id="text43">B</text>
    <polyline
       fill="none"
       stroke="#000000"
       points="1254.1,-407.67 1254.1,-458.17"
       id="polyline43" />
    <text
       text-anchor="middle"
       x="1315.35"
       y="-436.87"
       font-family="Times, serif"
       font-size="14px"
       id="text44">$tmr$and2$23</text>
    <text
       text-anchor="middle"
       x="1315.35"
       y="-419.62"
       font-family="Times, serif"
       font-size="14px"
       id="text45">$logic_and</text>
    <polyline
       fill="none"
       stroke="#000000"
       points="1376.6,-407.67 1376.6,-458.17"
       id="polyline45" />
    <text
       text-anchor="middle"
       x="1389.1"
       y="-428.37"
       font-family="Times, serif"
       font-size="14px"
       id="text46">Y</text>
  </g>
  <g
     id="node18"
     class="node"
     transform="translate(4,462.67)">
    <title
       id="title46">c37</title>
    <polygon
       fill="none"
       stroke="#000000"
       points="1605.97,-415.17 1605.97,-364.67 1443.22,-364.67 1443.22,-415.17 "
       id="polygon46" />
    <text
       text-anchor="middle"
       x="1456.47"
       y="-397.87"
       font-family="Times, serif"
       font-size="14px"
       id="text47">A</text>
    <polyline
       fill="none"
       stroke="#000000"
       points="1443.22,-389.92 1469.72,-389.92"
       id="polyline47" />
    <text
       text-anchor="middle"
       x="1456.47"
       y="-372.62"
       font-family="Times, serif"
       font-size="14px"
       id="text48">B</text>
    <polyline
       fill="none"
       stroke="#000000"
       points="1469.72,-364.67 1469.72,-415.17"
       id="polyline48" />
    <text
       text-anchor="middle"
       x="1525.35"
       y="-393.87"
       font-family="Times, serif"
       font-size="14px"
       id="text49">$tmr$or1$33</text>
    <text
       text-anchor="middle"
       x="1525.35"
       y="-376.62"
       font-family="Times, serif"
       font-size="14px"
       id="text50">$logic_or</text>
    <polyline
       fill="none"
       stroke="#000000"
       points="1580.97,-364.67 1580.97,-415.17"
       id="polyline50" />
    <text
       text-anchor="middle"
       x="1593.47"
       y="-385.37"
       font-family="Times, serif"
       font-size="14px"
       id="text51">Y</text>
  </g>
  <g
     id="edge32"
     class="edge"
     transform="translate(4,462.67)">
    <title
       id="title51">c29:e-&gt;c37:w</title>
    <path
       fill="none"
       stroke="#e6ab02"
       d="m 1401.6,-433.05 c 17.99,0 18.77,19.37 29.77,27.24"
       id="path51" />
    <polygon
       fill="#e6ab02"
       stroke="#e6ab02"
       points="1430.19,-402.51 1432.21,-409.21 1440.78,-402.98 "
       id="polygon51" />
  </g>
  <g
     id="node11"
     class="node"
     transform="translate(4,462.67)">
    <title
       id="title52">c30</title>
    <polygon
       fill="none"
       stroke="#000000"
       points="1401.6,-186.17 1401.6,-135.67 1227.6,-135.67 1227.6,-186.17 "
       id="polygon52" />
    <text
       text-anchor="middle"
       x="1240.85"
       y="-168.87"
       font-family="Times, serif"
       font-size="14px"
       id="text52">A</text>
    <polyline
       fill="none"
       stroke="#000000"
       points="1227.6,-160.92 1254.1,-160.92"
       id="polyline52" />
    <text
       text-anchor="middle"
       x="1240.85"
       y="-143.62"
       font-family="Times, serif"
       font-size="14px"
       id="text53">B</text>
    <polyline
       fill="none"
       stroke="#000000"
       points="1254.1,-135.67 1254.1,-186.17"
       id="polyline53" />
    <text
       text-anchor="middle"
       x="1315.35"
       y="-164.87"
       font-family="Times, serif"
       font-size="14px"
       id="text54">$tmr$and3$25</text>
    <text
       text-anchor="middle"
       x="1315.35"
       y="-147.62"
       font-family="Times, serif"
       font-size="14px"
       id="text55">$logic_and</text>
    <polyline
       fill="none"
       stroke="#000000"
       points="1376.6,-135.67 1376.6,-186.17"
       id="polyline55" />
    <text
       text-anchor="middle"
       x="1389.1"
       y="-156.37"
       font-family="Times, serif"
       font-size="14px"
       id="text56">Y</text>
  </g>
  <g
     id="edge33"
     class="edge"
     transform="translate(4,462.67)">
    <title
       id="title56">c30:e-&gt;c37:w</title>
    <path
       fill="none"
       stroke="#7570b3"
       d="m 1401.6,-161.05 c 93.59,0 -44.32,-198.06 29.38,-215.08"
       id="path56" />
    <polygon
       fill="#7570b3"
       stroke="#7570b3"
       points="1431.13,-372.63 1430.41,-379.59 1440.72,-377.14 "
       id="polygon56" />
  </g>
  <g
     id="node12"
     class="node"
     transform="translate(4,462.67)">
    <title
       id="title57">c31</title>
    <polygon
       fill="none"
       stroke="#000000"
       points="1191.6,-248.17 1191.6,-197.67 1017.6,-197.67 1017.6,-248.17 "
       id="polygon57" />
    <text
       text-anchor="middle"
       x="1030.85"
       y="-230.87"
       font-family="Times, serif"
       font-size="14px"
       id="text57">A</text>
    <polyline
       fill="none"
       stroke="#000000"
       points="1017.6,-222.92 1044.1,-222.92"
       id="polyline57" />
    <text
       text-anchor="middle"
       x="1030.85"
       y="-205.62"
       font-family="Times, serif"
       font-size="14px"
       id="text58">B</text>
    <polyline
       fill="none"
       stroke="#000000"
       points="1044.1,-197.67 1044.1,-248.17"
       id="polyline58" />
    <text
       text-anchor="middle"
       x="1105.35"
       y="-226.87"
       font-family="Times, serif"
       font-size="14px"
       id="text59">$tmr$and4$27</text>
    <text
       text-anchor="middle"
       x="1105.35"
       y="-209.62"
       font-family="Times, serif"
       font-size="14px"
       id="text60">$logic_and</text>
    <polyline
       fill="none"
       stroke="#000000"
       points="1166.6,-197.67 1166.6,-248.17"
       id="polyline60" />
    <text
       text-anchor="middle"
       x="1179.1"
       y="-218.37"
       font-family="Times, serif"
       font-size="14px"
       id="text61">Y</text>
  </g>
  <g
     id="node19"
     class="node"
     transform="translate(4,462.67)">
    <title
       id="title61">c38</title>
    <polygon
       fill="none"
       stroke="#000000"
       points="1810.35,-188.17 1810.35,-137.67 1647.6,-137.67 1647.6,-188.17 "
       id="polygon61" />
    <text
       text-anchor="middle"
       x="1660.85"
       y="-170.87"
       font-family="Times, serif"
       font-size="14px"
       id="text62">A</text>
    <polyline
       fill="none"
       stroke="#000000"
       points="1647.6,-162.92 1674.1,-162.92"
       id="polyline62" />
    <text
       text-anchor="middle"
       x="1660.85"
       y="-145.62"
       font-family="Times, serif"
       font-size="14px"
       id="text63">B</text>
    <polyline
       fill="none"
       stroke="#000000"
       points="1674.1,-137.67 1674.1,-188.17"
       id="polyline63" />
    <text
       text-anchor="middle"
       x="1729.72"
       y="-166.87"
       font-family="Times, serif"
       font-size="14px"
       id="text64">$tmr$or2$34</text>
    <text
       text-anchor="middle"
       x="1729.72"
       y="-149.62"
       font-family="Times, serif"
       font-size="14px"
       id="text65">$logic_or</text>
    <polyline
       fill="none"
       stroke="#000000"
       points="1785.35,-137.67 1785.35,-188.17"
       id="polyline65" />
    <text
       text-anchor="middle"
       x="1797.85"
       y="-158.37"
       font-family="Times, serif"
       font-size="14px"
       id="text66">Y</text>
  </g>
  <g
     id="edge2"
     class="edge"
     transform="translate(4,462.67)">
    <title
       id="title66">c31:e-&gt;c38:w</title>
    <path
       fill="none"
       stroke="#7570b3"
       d="m 1191.6,-223.05 c 46.04,0 -1.79,70.83 36,97.13 37.42,26.03 343.17,-16.65 408.8,-23.48"
       id="path66" />
    <polygon
       fill="#7570b3"
       stroke="#7570b3"
       points="1636.4,-145.89 1635.84,-152.86 1646.09,-150.18 "
       id="polygon66" />
  </g>
  <g
     id="node13"
     class="node"
     transform="translate(4,462.67)">
    <title
       id="title67">c32</title>
    <polygon
       fill="none"
       stroke="#000000"
       points="1611.6,-345.17 1611.6,-294.67 1437.6,-294.67 1437.6,-345.17 "
       id="polygon67" />
    <text
       text-anchor="middle"
       x="1450.85"
       y="-327.87"
       font-family="Times, serif"
       font-size="14px"
       id="text67">A</text>
    <polyline
       fill="none"
       stroke="#000000"
       points="1437.6,-319.92 1464.1,-319.92"
       id="polyline67" />
    <text
       text-anchor="middle"
       x="1450.85"
       y="-302.62"
       font-family="Times, serif"
       font-size="14px"
       id="text68">B</text>
    <polyline
       fill="none"
       stroke="#000000"
       points="1464.1,-294.67 1464.1,-345.17"
       id="polyline68" />
    <text
       text-anchor="middle"
       x="1525.35"
       y="-323.87"
       font-family="Times, serif"
       font-size="14px"
       id="text69">$tmr$and5$29</text>
    <text
       text-anchor="middle"
       x="1525.35"
       y="-306.62"
       font-family="Times, serif"
       font-size="14px"
       id="text70">$logic_and</text>
    <polyline
       fill="none"
       stroke="#000000"
       points="1586.6,-294.67 1586.6,-345.17"
       id="polyline70" />
    <text
       text-anchor="middle"
       x="1599.1"
       y="-315.37"
       font-family="Times, serif"
       font-size="14px"
       id="text71">Y</text>
  </g>
  <g
     id="node20"
     class="node"
     transform="translate(4,462.67)">
    <title
       id="title71">c39</title>
    <polygon
       fill="none"
       stroke="#000000"
       points="1810.35,-380.17 1810.35,-329.67 1647.6,-329.67 1647.6,-380.17 "
       id="polygon71" />
    <text
       text-anchor="middle"
       x="1660.85"
       y="-362.87"
       font-family="Times, serif"
       font-size="14px"
       id="text72">A</text>
    <polyline
       fill="none"
       stroke="#000000"
       points="1647.6,-354.92 1674.1,-354.92"
       id="polyline72" />
    <text
       text-anchor="middle"
       x="1660.85"
       y="-337.62"
       font-family="Times, serif"
       font-size="14px"
       id="text73">B</text>
    <polyline
       fill="none"
       stroke="#000000"
       points="1674.1,-329.67 1674.1,-380.17"
       id="polyline73" />
    <text
       text-anchor="middle"
       x="1729.72"
       y="-358.87"
       font-family="Times, serif"
       font-size="14px"
       id="text74">$tmr$or3$35</text>
    <text
       text-anchor="middle"
       x="1729.72"
       y="-341.62"
       font-family="Times, serif"
       font-size="14px"
       id="text75">$logic_or</text>
    <polyline
       fill="none"
       stroke="#000000"
       points="1785.35,-329.67 1785.35,-380.17"
       id="polyline75" />
    <text
       text-anchor="middle"
       x="1797.85"
       y="-350.37"
       font-family="Times, serif"
       font-size="14px"
       id="text76">Y</text>
  </g>
  <g
     id="edge3"
     class="edge"
     transform="translate(4,462.67)">
    <title
       id="title76">c32:e-&gt;c39:w</title>
    <path
       fill="none"
       stroke="#7570b3"
       d="m 1611.6,-320.05 c 14.11,0 16.72,-12.51 25.08,-18.77"
       id="path76" />
    <polygon
       fill="#7570b3"
       stroke="#7570b3"
       points="1637.69,-335.47 1635.57,-342.14 1646.16,-341.84 "
       id="polygon76" />
  </g>
  <g
     id="node14"
     class="node"
     transform="translate(4,462.67)">
    <title
       id="title77">c33</title>
    <polygon
       fill="none"
       stroke="#000000"
       points="1189.72,-437.17 1189.72,-394.67 1019.47,-394.67 1019.47,-437.17 "
       id="polygon77" />
    <text
       text-anchor="middle"
       x="1032.35"
       y="-411.37"
       font-family="Times, serif"
       font-size="14px"
       id="text77">A</text>
    <polyline
       fill="none"
       stroke="#000000"
       points="1045.22,-394.67 1045.22,-437.17"
       id="polyline77" />
    <text
       text-anchor="middle"
       x="1104.97"
       y="-419.87"
       font-family="Times, serif"
       font-size="14px"
       id="text78">$tmr$not0$13</text>
    <text
       text-anchor="middle"
       x="1104.97"
       y="-402.62"
       font-family="Times, serif"
       font-size="14px"
       id="text79">$logic_not</text>
    <polyline
       fill="none"
       stroke="#000000"
       points="1164.72,-394.67 1164.72,-437.17"
       id="polyline79" />
    <text
       text-anchor="middle"
       x="1177.22"
       y="-411.37"
       font-family="Times, serif"
       font-size="14px"
       id="text80">Y</text>
  </g>
  <g
     id="edge4"
     class="edge"
     transform="translate(4,462.67)">
    <title
       id="title80">c33:e-&gt;c29:w</title>
    <path
       fill="none"
       stroke="#a6761d"
       d="m 1190.72,-416.05 c 16.4,0 16.88,-18 26.31,-25.88"
       id="path80" />
    <polygon
       fill="#a6761d"
       stroke="#a6761d"
       points="1217.84,-438.51 1215.57,-445.13 1226.17,-445.06 "
       id="polygon80" />
  </g>
  <g
     id="node15"
     class="node"
     transform="translate(4,462.67)">
    <title
       id="title81">c34</title>
    <polygon
       fill="none"
       stroke="#000000"
       points="1189.72,-140.17 1189.72,-97.67 1019.47,-97.67 1019.47,-140.17 "
       id="polygon81" />
    <text
       text-anchor="middle"
       x="1032.35"
       y="-114.37"
       font-family="Times, serif"
       font-size="14px"
       id="text81">A</text>
    <polyline
       fill="none"
       stroke="#000000"
       points="1045.22,-97.67 1045.22,-140.17"
       id="polyline81" />
    <text
       text-anchor="middle"
       x="1104.97"
       y="-122.87"
       font-family="Times, serif"
       font-size="14px"
       id="text82">$tmr$not1$15</text>
    <text
       text-anchor="middle"
       x="1104.97"
       y="-105.62"
       font-family="Times, serif"
       font-size="14px"
       id="text83">$logic_not</text>
    <polyline
       fill="none"
       stroke="#000000"
       points="1164.72,-97.67 1164.72,-140.17"
       id="polyline83" />
    <text
       text-anchor="middle"
       x="1177.22"
       y="-114.37"
       font-family="Times, serif"
       font-size="14px"
       id="text84">Y</text>
  </g>
  <g
     id="edge5"
     class="edge"
     transform="translate(4,462.67)">
    <title
       id="title84">c34:e-&gt;c30:w</title>
    <path
       fill="none"
       stroke="#d95f02"
       d="m 1190.72,-119.05 c 24.45,0 13.36,-38.08 26.14,-50.58"
       id="path84" />
    <polygon
       fill="#d95f02"
       stroke="#d95f02"
       points="1217.98,-166.31 1215.58,-172.89 1226.18,-173.03 "
       id="polygon84" />
  </g>
  <g
     id="node16"
     class="node"
     transform="translate(4,462.67)">
    <title
       id="title85">c35</title>
    <polygon
       fill="none"
       stroke="#000000"
       points="1399.72,-388.17 1399.72,-345.67 1229.47,-345.67 1229.47,-388.17 "
       id="polygon85" />
    <text
       text-anchor="middle"
       x="1242.35"
       y="-362.37"
       font-family="Times, serif"
       font-size="14px"
       id="text85">A</text>
    <polyline
       fill="none"
       stroke="#000000"
       points="1255.22,-345.67 1255.22,-388.17"
       id="polyline85" />
    <text
       text-anchor="middle"
       x="1314.97"
       y="-370.87"
       font-family="Times, serif"
       font-size="14px"
       id="text86">$tmr$not2$17</text>
    <text
       text-anchor="middle"
       x="1314.97"
       y="-353.62"
       font-family="Times, serif"
       font-size="14px"
       id="text87">$logic_not</text>
    <polyline
       fill="none"
       stroke="#000000"
       points="1374.72,-345.67 1374.72,-388.17"
       id="polyline87" />
    <text
       text-anchor="middle"
       x="1387.22"
       y="-362.37"
       font-family="Times, serif"
       font-size="14px"
       id="text88">Y</text>
  </g>
  <g
     id="edge6"
     class="edge"
     transform="translate(4,462.67)">
    <title
       id="title88">c35:e-&gt;c32:w</title>
    <path
       fill="none"
       stroke="#e6ab02"
       d="m 1400.72,-367.05 c 17.71,0 16.46,21.48 26.17,30.55"
       id="path88" />
    <polygon
       fill="#e6ab02"
       stroke="#e6ab02"
       points="1425.59,-333.26 1428.01,-339.82 1436.18,-333.07 "
       id="polygon88" />
  </g>
  <g
     id="edge7"
     class="edge"
     transform="translate(4,462.67)">
    <title
       id="title89">c36:e-&gt;c38:w</title>
    <path
       fill="none"
       stroke="#e6ab02"
       d="m 1606.97,-219.05 c 21.91,0 17.25,29.83 30.03,40.09"
       id="path89" />
    <polygon
       fill="#e6ab02"
       stroke="#e6ab02"
       points="1635.57,-175.74 1637.71,-182.41 1646.16,-176.01 "
       id="polygon89" />
  </g>
  <g
     id="edge8"
     class="edge"
     transform="translate(4,462.67)">
    <title
       id="title90">c37:e-&gt;c39:w</title>
    <path
       fill="none"
       stroke="#d95f02"
       d="m 1606.97,-390.05 c 16.13,0 19.26,13.74 29.7,19.74"
       id="path90" />
    <polygon
       fill="#d95f02"
       stroke="#d95f02"
       points="1635.58,-366.97 1637.29,-373.76 1646.13,-367.92 "
       id="polygon90" />
  </g>
  <g
     id="edge13"
     class="edge"
     transform="translate(4,462.67)">
    <title
       id="title91">c38:e-&gt;n19:w</title>
    <path
       fill="none"
       stroke="#a6761d"
       d="m 1810.35,-163.05 c 11.63,0 16.99,0.07 25.1,0.1"
       id="path91" />
    <polygon
       fill="#a6761d"
       stroke="#a6761d"
       points="1835.24,-159.45 1835.25,-166.45 1845.25,-162.93 "
       id="polygon91" />
  </g>
  <g
     id="edge12"
     class="edge"
     transform="translate(4,462.67)">
    <title
       id="title92">c39:e-&gt;n18:w</title>
    <path
       fill="none"
       stroke="#d95f02"
       d="m 1810.35,-355.05 c 11.38,0 16.68,0.07 24.55,0.1"
       id="path92" />
    <polygon
       fill="#d95f02"
       stroke="#d95f02"
       points="1834.83,-351.45 1834.84,-358.45 1844.84,-354.93 "
       id="polygon92" />
  </g>
  <g
     id="node24"
     class="node"
     transform="translate(4,462.67)">
    <title
       id="title93">n5</title>
    <circle
       fill="#000000"
       stroke="#000000"
       cx="1104.6"
       cy="-344.92001"
       id="ellipse93"
       r="1.8" />
  </g>
  <g
     id="edge25"
     class="edge"
     transform="translate(4,462.67)">
    <title
       id="title94">x0:e-&gt;n5:w</title>
    <path
       fill="none"
       stroke="#d95f02"
       d="m 981.6,-343.92 c 49.16,0 64.25,-0.86 108.22,-0.99"
       id="path94" />
    <polygon
       fill="#d95f02"
       stroke="#d95f02"
       points="1089.81,-341.41 1089.8,-348.41 1099.81,-344.92 "
       id="polygon94" />
  </g>
  <g
     id="edge16"
     class="edge"
     transform="translate(4,462.67)">
    <title
       id="title95">n3:e-&gt;c28:w</title>
    <path
       fill="none"
       stroke="#a6761d"
       d="m 981.6,-276.92 c 17.17,0 19.32,-9.94 36,-14 87.37,-21.3 113.92,-22.56 198.53,-22.62"
       id="path95" />
    <polygon
       fill="#a6761d"
       stroke="#a6761d"
       points="1216.09,-310.04 1216.09,-317.04 1226.09,-313.55 "
       id="polygon95" />
  </g>
  <g
     id="edge17"
     class="edge"
     transform="translate(4,462.67)">
    <title
       id="title96">n3:e-&gt;c30:w</title>
    <path
       fill="none"
       stroke="#a6761d"
       d="m 981.6,-276.92 c 93.71,0 136.65,-39.33 210,19 36.69,29.17 -6.46,96.61 25.01,107.98"
       id="path96" />
    <polygon
       fill="#a6761d"
       stroke="#a6761d"
       points="1215.7,-146.54 1216.73,-153.46 1226.1,-148.52 "
       id="polygon96" />
  </g>
  <g
     id="edge18"
     class="edge"
     transform="translate(4,462.67)">
    <title
       id="title97">n3:e-&gt;c31:w</title>
    <path
       fill="none"
       stroke="#a6761d"
       d="m 981.6,-276.92 c 19.61,0 15.19,26.79 25.41,37.25"
       id="path97" />
    <polygon
       fill="#a6761d"
       stroke="#a6761d"
       points="1005.6,-236.46 1008.14,-242.98 1016.19,-236.1 "
       id="polygon97" />
  </g>
  <g
     id="edge19"
     class="edge"
     transform="translate(4,462.67)">
    <title
       id="title98">n3:e-&gt;c33:w</title>
    <path
       fill="none"
       stroke="#a6761d"
       d="m 981.6,-276.92 c 59.47,0 -15.05,-120.25 25.57,-137.16"
       id="path98" />
    <polygon
       fill="#a6761d"
       stroke="#a6761d"
       points="1007.73,-410.63 1006.53,-417.52 1016.98,-415.79 "
       id="polygon98" />
  </g>
  <g
     id="edge21"
     class="edge"
     transform="translate(4,462.67)">
    <title
       id="title99">n4:e-&gt;c27:w</title>
    <path
       fill="none"
       stroke="#66a61e"
       d="m 981.6,-168.92 c 93.71,0 129.78,29.45 210,-19 21.07,-12.73 11.49,-43.05 24.98,-52.65"
       id="path99" />
    <polygon
       fill="#66a61e"
       stroke="#66a61e"
       points="1217.4,-237.17 1215.57,-243.93 1226.14,-243.15 "
       id="polygon99" />
  </g>
  <g
     id="edge22"
     class="edge"
     transform="translate(4,462.67)">
    <title
       id="title100">n4:e-&gt;c31:w</title>
    <path
       fill="none"
       stroke="#66a61e"
       d="m 981.6,-168.92 c 19.61,0 15.19,-26.79 25.41,-37.26"
       id="path100" />
    <polygon
       fill="#66a61e"
       stroke="#66a61e"
       points="1008.14,-202.86 1005.6,-209.38 1016.19,-209.75 "
       id="polygon100" />
  </g>
  <g
     id="edge23"
     class="edge"
     transform="translate(4,462.67)">
    <title
       id="title101">n4:e-&gt;c32:w</title>
    <path
       fill="none"
       stroke="#66a61e"
       d="m 981.6,-168.92 c 39.4,0 2.97,59.53 36,81 143.8,93.45 261.71,82.24 384,-38 55.63,-54.7 -35.96,-168.98 24.88,-180.44"
       id="path101" />
    <polygon
       fill="#66a61e"
       stroke="#66a61e"
       points="1426.42,-302.85 1425.83,-309.82 1436.09,-307.17 "
       id="polygon101" />
  </g>
  <g
     id="edge24"
     class="edge"
     transform="translate(4,462.67)">
    <title
       id="title102">n4:e-&gt;c34:w</title>
    <path
       fill="none"
       stroke="#66a61e"
       d="m 981.6,-168.92 c 22.83,0 14.23,34.2 26.26,45.96"
       id="path102" />
    <polygon
       fill="#66a61e"
       stroke="#66a61e"
       points="1006.46,-119.74 1008.88,-126.31 1017.05,-119.57 "
       id="polygon102" />
  </g>
  <g
     id="edge26"
     class="edge"
     transform="translate(4,462.67)">
    <title
       id="title103">n5:e-&gt;c27:w</title>
    <path
       fill="none"
       stroke="#d95f02"
       d="m 1107.88,-344.92 c 44.28,0 54.22,20.98 83.72,54 20.91,23.4 5.37,61.14 24.83,70.48"
       id="path103" />
    <polygon
       fill="#d95f02"
       stroke="#d95f02"
       points="1215.63,-217.03 1216.95,-223.9 1226.11,-218.58 "
       id="polygon103" />
  </g>
  <g
     id="edge27"
     class="edge"
     transform="translate(4,462.67)">
    <title
       id="title104">n5:e-&gt;c28:w</title>
    <path
       fill="none"
       stroke="#d95f02"
       d="m 1107.88,-344.92 c 37.88,0 50.79,-2.74 83.72,16 16.87,9.6 14.28,30.05 25.19,37.68"
       id="path104" />
    <polygon
       fill="#d95f02"
       stroke="#d95f02"
       points="1215.57,-287.95 1217.41,-294.7 1226.14,-288.7 "
       id="polygon104" />
  </g>
  <g
     id="edge28"
     class="edge"
     transform="translate(4,462.67)">
    <title
       id="title105">n5:e-&gt;c29:w</title>
    <path
       fill="none"
       stroke="#d95f02"
       d="m 1107.88,-344.92 c 41.24,0 49.95,-16.34 83.72,-40 14.5,-10.16 14.56,-26.31 24.97,-32.68"
       id="path105" />
    <polygon
       fill="#d95f02"
       stroke="#d95f02"
       points="1217.25,-414.16 1215.58,-420.96 1226.13,-419.94 "
       id="polygon105" />
  </g>
  <g
     id="edge29"
     class="edge"
     transform="translate(4,462.67)">
    <title
       id="title106">n5:e-&gt;c35:w</title>
    <path
       fill="none"
       stroke="#d95f02"
       d="m 1107.88,-344.92 c 50.45,0 64.14,-18.96 109.14,-21.78"
       id="path106" />
    <polygon
       fill="#d95f02"
       stroke="#d95f02"
       points="1217.07,-363.2 1216.86,-370.2 1226.96,-367 "
       id="polygon106" />
  </g>
</svg>
