<?xml version="1.0" encoding="UTF-8" standalone="no"?>
<!DOCTYPE svg PUBLIC "-//W3C//DTD SVG 1.1//EN"
 "http://www.w3.org/Graphics/SVG/1.1/DTD/svg11.dtd">
<!-- Generated by graphviz version 12.2.1 (0)
 -->
<!-- Title: mux_1bit Pages: 1 -->
<svg width="927pt" height="300pt"
 viewBox="0.00 0.00 926.90 300.00" xmlns="http://www.w3.org/2000/svg" xmlns:xlink="http://www.w3.org/1999/xlink">
<g id="graph0" class="graph" transform="scale(1 1) rotate(0) translate(4 296)">
<title>mux_1bit</title>
<polygon fill="white" stroke="none" points="-4,4 -4,-296 922.9,-296 922.9,4 -4,4"/>
<text text-anchor="middle" x="459.45" y="-7.95" font-family="Times,serif" font-size="14.00">mux_1bit</text>
<!-- n8 -->
<g id="node1" class="node">
<title>n8</title>
<polygon fill="none" stroke="black" points="54.52,-151.17 54.52,-166.08 38.71,-176.62 16.34,-176.62 0.52,-166.08 0.52,-151.17 16.34,-140.62 38.71,-140.62 54.52,-151.17"/>
<text text-anchor="middle" x="27.52" y="-153.95" font-family="Times,serif" font-size="14.00">a</text>
</g>
<!-- c16 -->
<g id="node5" class="node">
<title>c16</title>
<polygon fill="none" stroke="black" points="128.92,-25.75 128.92,-101.5 236.17,-101.5 236.17,-25.75 128.92,-25.75"/>
<text text-anchor="middle" x="142.17" y="-84.2" font-family="Times,serif" font-size="14.00">A</text>
<polyline fill="none" stroke="black" points="128.92,-76.25 155.42,-76.25"/>
<text text-anchor="middle" x="142.17" y="-58.95" font-family="Times,serif" font-size="14.00">B</text>
<polyline fill="none" stroke="black" points="128.92,-51 155.42,-51"/>
<text text-anchor="middle" x="142.17" y="-33.7" font-family="Times,serif" font-size="14.00">S</text>
<polyline fill="none" stroke="black" points="155.42,-25.75 155.42,-101.5"/>
<text text-anchor="middle" x="183.3" y="-67.58" font-family="Times,serif" font-size="14.00">$1</text>
<text text-anchor="middle" x="183.3" y="-50.33" font-family="Times,serif" font-size="14.00">$mux</text>
<polyline fill="none" stroke="black" points="211.17,-25.75 211.17,-101.5"/>
<text text-anchor="middle" x="223.67" y="-59.2" font-family="Times,serif" font-size="14.00">Y</text>
</g>
<!-- n8&#45;&gt;c16 -->
<g id="edge18" class="edge">
<title>n8:e&#45;&gt;c16:w</title>
<path fill="none" stroke="#d95f02" d="M55.05,-158.62C81.36,-158.62 75.03,-132.5 91.05,-111.62 104.61,-93.95 102.55,-72.63 116.72,-65.82"/>
<polygon fill="#d95f02" stroke="#d95f02" points="117.3,-69.28 126.44,-63.92 115.95,-62.41 117.3,-69.28"/>
</g>
<!-- c17 -->
<g id="node6" class="node">
<title>c17</title>
<polygon fill="none" stroke="black" points="91.05,-215.75 91.05,-291.5 274.05,-291.5 274.05,-215.75 91.05,-215.75"/>
<text text-anchor="middle" x="104.3" y="-274.2" font-family="Times,serif" font-size="14.00">A</text>
<polyline fill="none" stroke="black" points="91.05,-266.25 117.55,-266.25"/>
<text text-anchor="middle" x="104.3" y="-248.95" font-family="Times,serif" font-size="14.00">B</text>
<polyline fill="none" stroke="black" points="91.05,-241 117.55,-241"/>
<text text-anchor="middle" x="104.3" y="-223.7" font-family="Times,serif" font-size="14.00">S</text>
<polyline fill="none" stroke="black" points="117.55,-215.75 117.55,-291.5"/>
<text text-anchor="middle" x="183.3" y="-257.57" font-family="Times,serif" font-size="14.00">$replica1_cone0</text>
<text text-anchor="middle" x="183.3" y="-240.32" font-family="Times,serif" font-size="14.00">$mux</text>
<polyline fill="none" stroke="black" points="249.05,-215.75 249.05,-291.5"/>
<text text-anchor="middle" x="261.55" y="-249.2" font-family="Times,serif" font-size="14.00">Y</text>
</g>
<!-- n8&#45;&gt;c17 -->
<g id="edge19" class="edge">
<title>n8:e&#45;&gt;c17:w</title>
<path fill="none" stroke="#d95f02" d="M55.05,-158.62C95.61,-158.62 55.9,-235.31 80.16,-250.88"/>
<polygon fill="#d95f02" stroke="#d95f02" points="79.03,-254.21 89.58,-253.26 80.74,-247.42 79.03,-254.21"/>
</g>
<!-- c18 -->
<g id="node7" class="node">
<title>c18</title>
<polygon fill="none" stroke="black" points="91.05,-120.75 91.05,-196.5 274.05,-196.5 274.05,-120.75 91.05,-120.75"/>
<text text-anchor="middle" x="104.3" y="-179.2" font-family="Times,serif" font-size="14.00">A</text>
<polyline fill="none" stroke="black" points="91.05,-171.25 117.55,-171.25"/>
<text text-anchor="middle" x="104.3" y="-153.95" font-family="Times,serif" font-size="14.00">B</text>
<polyline fill="none" stroke="black" points="91.05,-146 117.55,-146"/>
<text text-anchor="middle" x="104.3" y="-128.7" font-family="Times,serif" font-size="14.00">S</text>
<polyline fill="none" stroke="black" points="117.55,-120.75 117.55,-196.5"/>
<text text-anchor="middle" x="183.3" y="-162.57" font-family="Times,serif" font-size="14.00">$replica2_cone0</text>
<text text-anchor="middle" x="183.3" y="-145.32" font-family="Times,serif" font-size="14.00">$mux</text>
<polyline fill="none" stroke="black" points="249.05,-120.75 249.05,-196.5"/>
<text text-anchor="middle" x="261.55" y="-154.2" font-family="Times,serif" font-size="14.00">Y</text>
</g>
<!-- n8&#45;&gt;c18 -->
<g id="edge20" class="edge">
<title>n8:e&#45;&gt;c18:w</title>
<path fill="none" stroke="#d95f02" d="M55.05,-158.62C66.42,-158.62 71.73,-158.62 79.6,-158.62"/>
<polygon fill="#d95f02" stroke="#d95f02" points="79.53,-162.13 89.53,-158.63 79.53,-155.13 79.53,-162.13"/>
</g>
<!-- n9 -->
<g id="node2" class="node">
<title>n9</title>
<polygon fill="none" stroke="black" points="54.52,-205.17 54.52,-220.08 38.71,-230.62 16.34,-230.62 0.52,-220.08 0.52,-205.17 16.34,-194.62 38.71,-194.62 54.52,-205.17"/>
<text text-anchor="middle" x="27.52" y="-207.95" font-family="Times,serif" font-size="14.00">b</text>
</g>
<!-- n9&#45;&gt;c16 -->
<g id="edge21" class="edge">
<title>n9:e&#45;&gt;c16:w</title>
<path fill="none" stroke="#a6761d" d="M55.05,-212.62C102.7,-212.62 61.07,-148.67 91.05,-111.62 100.42,-100.05 105.83,-92.77 116.71,-90.07"/>
<polygon fill="#a6761d" stroke="#a6761d" points="116.84,-93.57 126.42,-89.03 116.1,-86.61 116.84,-93.57"/>
</g>
<!-- n9&#45;&gt;c17 -->
<g id="edge22" class="edge">
<title>n9:e&#45;&gt;c17:w</title>
<path fill="none" stroke="#a6761d" d="M55.05,-212.62C83.85,-212.62 64.99,-261.55 80.38,-275.31"/>
<polygon fill="#a6761d" stroke="#a6761d" points="79.02,-278.55 89.61,-278.4 81.24,-271.91 79.02,-278.55"/>
</g>
<!-- n9&#45;&gt;c18 -->
<g id="edge23" class="edge">
<title>n9:e&#45;&gt;c18:w</title>
<path fill="none" stroke="#a6761d" d="M55.05,-212.62C70.88,-212.62 71.51,-195.43 80.45,-187.63"/>
<polygon fill="#a6761d" stroke="#a6761d" points="81.37,-191.02 89.62,-184.38 79.03,-184.43 81.37,-191.02"/>
</g>
<!-- n10 -->
<g id="node3" class="node">
<title>n10</title>
<polygon fill="none" stroke="black" points="918.9,-191.17 918.9,-206.08 903.08,-216.62 880.71,-216.62 864.9,-206.08 864.9,-191.17 880.71,-180.62 903.08,-180.62 918.9,-191.17"/>
<text text-anchor="middle" x="891.9" y="-193.95" font-family="Times,serif" font-size="14.00">o</text>
</g>
<!-- n11 -->
<g id="node4" class="node">
<title>n11</title>
<polygon fill="none" stroke="black" points="55.05,-97.17 55.05,-112.08 38.92,-122.62 16.12,-122.62 0,-112.08 0,-97.17 16.12,-86.62 38.92,-86.62 55.05,-97.17"/>
<text text-anchor="middle" x="27.52" y="-99.95" font-family="Times,serif" font-size="14.00">sel</text>
</g>
<!-- n11&#45;&gt;c16 -->
<g id="edge5" class="edge">
<title>n11:e&#45;&gt;c16:w</title>
<path fill="none" stroke="#7570b3" d="M55.05,-104.62C94.55,-104.62 86.46,-50.68 116.66,-40.15"/>
<polygon fill="#7570b3" stroke="#7570b3" points="117.09,-43.62 126.43,-38.61 116,-36.71 117.09,-43.62"/>
</g>
<!-- n11&#45;&gt;c17 -->
<g id="edge6" class="edge">
<title>n11:e&#45;&gt;c17:w</title>
<path fill="none" stroke="#7570b3" d="M55.05,-104.62C107.85,-104.62 45.21,-209.79 79.98,-226.23"/>
<polygon fill="#7570b3" stroke="#7570b3" points="79.08,-229.62 89.56,-228.09 80.41,-222.75 79.08,-229.62"/>
</g>
<!-- n11&#45;&gt;c18 -->
<g id="edge7" class="edge">
<title>n11:e&#45;&gt;c18:w</title>
<path fill="none" stroke="#7570b3" d="M55.05,-104.62C70.88,-104.62 71.51,-121.82 80.45,-129.62"/>
<polygon fill="#7570b3" stroke="#7570b3" points="79.03,-132.82 89.62,-132.87 81.37,-126.23 79.03,-132.82"/>
</g>
<!-- n3 -->
<g id="node15" class="node">
<title>n3</title>
<ellipse fill="black" stroke="black" cx="311.85" cy="-76.62" rx="1.8" ry="1.8"/>
</g>
<!-- c16&#45;&gt;n3 -->
<g id="edge11" class="edge">
<title>c16:e&#45;&gt;n3:w</title>
<path fill="none" stroke="#d95f02" d="M237.17,-63.88C265.94,-63.88 274.99,-73.64 298.82,-76.08"/>
<polygon fill="#d95f02" stroke="#d95f02" points="298.38,-79.56 308.54,-76.55 298.72,-72.57 298.38,-79.56"/>
</g>
<!-- n1 -->
<g id="node13" class="node">
<title>n1</title>
<ellipse fill="black" stroke="black" cx="311.85" cy="-240.62" rx="1.8" ry="1.8"/>
</g>
<!-- c17&#45;&gt;n1 -->
<g id="edge1" class="edge">
<title>c17:e&#45;&gt;n1:w</title>
<path fill="none" stroke="#e7298a" d="M274.05,-253.88C286.43,-253.88 290.83,-246.88 298.84,-243.06"/>
<polygon fill="#e7298a" stroke="#e7298a" points="299.54,-246.49 308.57,-240.95 298.05,-239.64 299.54,-246.49"/>
</g>
<!-- n2 -->
<g id="node14" class="node">
<title>n2</title>
<ellipse fill="black" stroke="black" cx="311.85" cy="-158.62" rx="1.8" ry="1.8"/>
</g>
<!-- c18&#45;&gt;n2 -->
<g id="edge8" class="edge">
<title>c18:e&#45;&gt;n2:w</title>
<path fill="none" stroke="#a6761d" d="M274.05,-158.88C285.42,-158.88 290.73,-158.75 298.6,-158.68"/>
<polygon fill="#a6761d" stroke="#a6761d" points="298.55,-162.18 308.53,-158.63 298.52,-155.18 298.55,-162.18"/>
</g>
<!-- c19 -->
<g id="node8" class="node">
<title>c19</title>
<polygon fill="none" stroke="black" points="349.65,-63.38 349.65,-113.88 492.9,-113.88 492.9,-63.38 349.65,-63.38"/>
<text text-anchor="middle" x="362.9" y="-96.58" font-family="Times,serif" font-size="14.00">A</text>
<polyline fill="none" stroke="black" points="349.65,-88.62 376.15,-88.62"/>
<text text-anchor="middle" x="362.9" y="-71.33" font-family="Times,serif" font-size="14.00">B</text>
<polyline fill="none" stroke="black" points="376.15,-63.38 376.15,-113.88"/>
<text text-anchor="middle" x="422.02" y="-92.58" font-family="Times,serif" font-size="14.00">$25</text>
<text text-anchor="middle" x="422.02" y="-75.33" font-family="Times,serif" font-size="14.00">$logic_and</text>
<polyline fill="none" stroke="black" points="467.9,-63.38 467.9,-113.88"/>
<text text-anchor="middle" x="480.4" y="-84.08" font-family="Times,serif" font-size="14.00">Y</text>
</g>
<!-- c22 -->
<g id="node11" class="node">
<title>c22</title>
<polygon fill="none" stroke="black" points="528.9,-145.38 528.9,-195.88 660.9,-195.88 660.9,-145.38 528.9,-145.38"/>
<text text-anchor="middle" x="542.15" y="-178.57" font-family="Times,serif" font-size="14.00">A</text>
<polyline fill="none" stroke="black" points="528.9,-170.62 555.4,-170.62"/>
<text text-anchor="middle" x="542.15" y="-153.32" font-family="Times,serif" font-size="14.00">B</text>
<polyline fill="none" stroke="black" points="555.4,-145.38 555.4,-195.88"/>
<text text-anchor="middle" x="595.65" y="-174.57" font-family="Times,serif" font-size="14.00">$37</text>
<text text-anchor="middle" x="595.65" y="-157.32" font-family="Times,serif" font-size="14.00">$logic_or</text>
<polyline fill="none" stroke="black" points="635.9,-145.38 635.9,-195.88"/>
<text text-anchor="middle" x="648.4" y="-166.07" font-family="Times,serif" font-size="14.00">Y</text>
</g>
<!-- c19&#45;&gt;c22 -->
<g id="edge14" class="edge">
<title>c19:e&#45;&gt;c22:w</title>
<path fill="none" stroke="#e6ab02" d="M492.9,-88.75C533.28,-88.75 493.88,-165.03 518.05,-180.52"/>
<polygon fill="#e6ab02" stroke="#e6ab02" points="516.88,-183.84 527.43,-182.88 518.59,-177.05 516.88,-183.84"/>
</g>
<!-- c20 -->
<g id="node9" class="node">
<title>c20</title>
<polygon fill="none" stroke="black" points="349.65,-133.38 349.65,-183.88 492.9,-183.88 492.9,-133.38 349.65,-133.38"/>
<text text-anchor="middle" x="362.9" y="-166.57" font-family="Times,serif" font-size="14.00">A</text>
<polyline fill="none" stroke="black" points="349.65,-158.62 376.15,-158.62"/>
<text text-anchor="middle" x="362.9" y="-141.32" font-family="Times,serif" font-size="14.00">B</text>
<polyline fill="none" stroke="black" points="376.15,-133.38 376.15,-183.88"/>
<text text-anchor="middle" x="422.02" y="-162.57" font-family="Times,serif" font-size="14.00">$27</text>
<text text-anchor="middle" x="422.02" y="-145.32" font-family="Times,serif" font-size="14.00">$logic_and</text>
<polyline fill="none" stroke="black" points="467.9,-133.38 467.9,-183.88"/>
<text text-anchor="middle" x="480.4" y="-154.07" font-family="Times,serif" font-size="14.00">Y</text>
</g>
<!-- c20&#45;&gt;c22 -->
<g id="edge15" class="edge">
<title>c20:e&#45;&gt;c22:w</title>
<path fill="none" stroke="#e6ab02" d="M492.9,-158.75C504.28,-158.75 509.58,-158.37 517.45,-158.15"/>
<polygon fill="#e6ab02" stroke="#e6ab02" points="517.43,-161.65 527.38,-158.02 517.34,-154.65 517.43,-161.65"/>
</g>
<!-- c21 -->
<g id="node10" class="node">
<title>c21</title>
<polygon fill="none" stroke="black" points="349.65,-203.38 349.65,-253.88 492.9,-253.88 492.9,-203.38 349.65,-203.38"/>
<text text-anchor="middle" x="362.9" y="-236.57" font-family="Times,serif" font-size="14.00">A</text>
<polyline fill="none" stroke="black" points="349.65,-228.62 376.15,-228.62"/>
<text text-anchor="middle" x="362.9" y="-211.32" font-family="Times,serif" font-size="14.00">B</text>
<polyline fill="none" stroke="black" points="376.15,-203.38 376.15,-253.88"/>
<text text-anchor="middle" x="422.02" y="-232.57" font-family="Times,serif" font-size="14.00">$33</text>
<text text-anchor="middle" x="422.02" y="-215.32" font-family="Times,serif" font-size="14.00">$logic_and</text>
<polyline fill="none" stroke="black" points="467.9,-203.38 467.9,-253.88"/>
<text text-anchor="middle" x="480.4" y="-224.07" font-family="Times,serif" font-size="14.00">Y</text>
</g>
<!-- c23 -->
<g id="node12" class="node">
<title>c23</title>
<polygon fill="none" stroke="black" points="696.9,-173.38 696.9,-223.88 828.9,-223.88 828.9,-173.38 696.9,-173.38"/>
<text text-anchor="middle" x="710.15" y="-206.57" font-family="Times,serif" font-size="14.00">A</text>
<polyline fill="none" stroke="black" points="696.9,-198.62 723.4,-198.62"/>
<text text-anchor="middle" x="710.15" y="-181.32" font-family="Times,serif" font-size="14.00">B</text>
<polyline fill="none" stroke="black" points="723.4,-173.38 723.4,-223.88"/>
<text text-anchor="middle" x="763.65" y="-202.57" font-family="Times,serif" font-size="14.00">$40</text>
<text text-anchor="middle" x="763.65" y="-185.32" font-family="Times,serif" font-size="14.00">$logic_or</text>
<polyline fill="none" stroke="black" points="803.9,-173.38 803.9,-223.88"/>
<text text-anchor="middle" x="816.4" y="-194.07" font-family="Times,serif" font-size="14.00">Y</text>
</g>
<!-- c21&#45;&gt;c23 -->
<g id="edge16" class="edge">
<title>c21:e&#45;&gt;c23:w</title>
<path fill="none" stroke="#d95f02" d="M492.9,-228.75C568.27,-228.75 589.3,-229.19 660.9,-205.62 673.74,-201.4 677.31,-192.63 685.75,-188.4"/>
<polygon fill="#d95f02" stroke="#d95f02" points="686.38,-191.84 695.42,-186.32 684.91,-185 686.38,-191.84"/>
</g>
<!-- c22&#45;&gt;c23 -->
<g id="edge17" class="edge">
<title>c22:e&#45;&gt;c23:w</title>
<path fill="none" stroke="#1b9e77" d="M660.9,-170.75C680.28,-170.75 676.18,-196.97 686.39,-207.22"/>
<polygon fill="#1b9e77" stroke="#1b9e77" points="684.89,-210.39 695.48,-210.71 687.4,-203.86 684.89,-210.39"/>
</g>
<!-- c23&#45;&gt;n10 -->
<g id="edge4" class="edge">
<title>c23:e&#45;&gt;n10:w</title>
<path fill="none" stroke="#7570b3" d="M828.9,-198.75C840.27,-198.75 845.58,-198.69 853.45,-198.65"/>
<polygon fill="#7570b3" stroke="#7570b3" points="853.39,-202.15 863.38,-198.63 853.38,-195.15 853.39,-202.15"/>
</g>
<!-- n1&#45;&gt;c20 -->
<g id="edge2" class="edge">
<title>n1:e&#45;&gt;c20:w</title>
<path fill="none" stroke="#e7298a" d="M313.65,-240.62C343.77,-240.62 322.6,-188.45 339.1,-174.6"/>
<polygon fill="#e7298a" stroke="#e7298a" points="339.73,-178.07 348.2,-171.71 337.61,-171.39 339.73,-178.07"/>
</g>
<!-- n1&#45;&gt;c21 -->
<g id="edge3" class="edge">
<title>n1:e&#45;&gt;c21:w</title>
<path fill="none" stroke="#e7298a" d="M313.65,-240.62C325.02,-240.62 330.33,-240.94 338.2,-241.12"/>
<polygon fill="#e7298a" stroke="#e7298a" points="338.1,-244.62 348.13,-241.23 338.17,-237.62 338.1,-244.62"/>
</g>
<!-- n2&#45;&gt;c19 -->
<g id="edge9" class="edge">
<title>n2:e&#45;&gt;c19:w</title>
<path fill="none" stroke="#a6761d" d="M313.65,-158.62C339.05,-158.62 325.78,-117.78 339.1,-105.01"/>
<polygon fill="#a6761d" stroke="#a6761d" points="339.98,-108.42 348.22,-101.76 337.63,-101.82 339.98,-108.42"/>
</g>
<!-- n2&#45;&gt;c21 -->
<g id="edge10" class="edge">
<title>n2:e&#45;&gt;c21:w</title>
<path fill="none" stroke="#a6761d" d="M313.65,-158.62C339.05,-158.62 325.78,-199.47 339.1,-212.24"/>
<polygon fill="#a6761d" stroke="#a6761d" points="337.63,-215.43 348.22,-215.49 339.98,-208.83 337.63,-215.43"/>
</g>
<!-- n3&#45;&gt;c19 -->
<g id="edge12" class="edge">
<title>n3:e&#45;&gt;c19:w</title>
<path fill="none" stroke="#d95f02" d="M313.65,-76.62C325.02,-76.62 330.33,-76.31 338.2,-76.13"/>
<polygon fill="#d95f02" stroke="#d95f02" points="338.17,-79.63 348.13,-76.02 338.1,-72.63 338.17,-79.63"/>
</g>
<!-- n3&#45;&gt;c20 -->
<g id="edge13" class="edge">
<title>n3:e&#45;&gt;c20:w</title>
<path fill="none" stroke="#d95f02" d="M313.65,-76.62C343.77,-76.62 322.6,-128.8 339.1,-142.65"/>
<polygon fill="#d95f02" stroke="#d95f02" points="337.61,-145.86 348.2,-145.54 339.73,-139.18 337.61,-145.86"/>
</g>
</g>
</svg>
