<?xml version="1.0" encoding="UTF-8" standalone="no"?>
<!-- Generated by graphviz version 12.2.1 (0)
 -->

<!-- Title: mux_2bit Pages: 1 -->

<svg
   width="1140.9994pt"
   height="401.53497pt"
   viewBox="0 0 1140.9 401.30421"
   version="1.1"
   id="svg118"
   sodipodi:docname="mux_2bit_tmr.svg"
   inkscape:version="1.4.1 (93de688d07, 2025-03-30)"
   xmlns:inkscape="http://www.inkscape.org/namespaces/inkscape"
   xmlns:sodipodi="http://sodipodi.sourceforge.net/DTD/sodipodi-0.dtd"
   xmlns="http://www.w3.org/2000/svg"
   xmlns:svg="http://www.w3.org/2000/svg">
  <defs
     id="defs118" />
  <sodipodi:namedview
     id="namedview118"
     pagecolor="#ffffff"
     bordercolor="#666666"
     borderopacity="1.0"
     inkscape:showpageshadow="2"
     inkscape:pageopacity="0.0"
     inkscape:pagecheckerboard="0"
     inkscape:deskcolor="#d1d1d1"
     inkscape:document-units="pt"
     inkscape:zoom="0.4099895"
     inkscape:cx="718.31108"
     inkscape:cy="651.23619"
     inkscape:window-width="1920"
     inkscape:window-height="1010"
     inkscape:window-x="0"
     inkscape:window-y="0"
     inkscape:window-maximized="1"
     inkscape:current-layer="svg118" />
  <g
     id="node1"
     class="node"
     transform="translate(0.5,426.64394)">
    <title
       id="title2">n15</title>
    <polygon
       fill="none"
       stroke="#000000"
       points="0.52,-233.46 0.52,-218.54 16.34,-208 38.71,-208 54.52,-218.54 54.52,-233.46 38.71,-244 16.34,-244 "
       id="polygon2" />
    <text
       text-anchor="middle"
       x="27.52"
       y="-221.32001"
       font-family="Times, serif"
       font-size="14px"
       id="text2">a</text>
  </g>
  <g
     id="node5"
     class="node"
     transform="translate(0.5,426.64394)">
    <title
       id="title3">c23</title>
    <polygon
       fill="none"
       stroke="#000000"
       points="128.92,-93.12 128.92,-168.88 236.17,-168.88 236.17,-93.12 "
       id="polygon3" />
    <text
       text-anchor="middle"
       x="142.17"
       y="-151.57001"
       font-family="Times, serif"
       font-size="14px"
       id="text3">A</text>
    <polyline
       fill="none"
       stroke="#000000"
       points="128.92,-143.62 155.42,-143.62"
       id="polyline3" />
    <text
       text-anchor="middle"
       x="142.17"
       y="-126.33"
       font-family="Times, serif"
       font-size="14px"
       id="text4">B</text>
    <polyline
       fill="none"
       stroke="#000000"
       points="128.92,-118.38 155.42,-118.38"
       id="polyline4" />
    <text
       text-anchor="middle"
       x="142.17"
       y="-101.08"
       font-family="Times, serif"
       font-size="14px"
       id="text5">S</text>
    <polyline
       fill="none"
       stroke="#000000"
       points="155.42,-93.12 155.42,-168.88"
       id="polyline5" />
    <text
       text-anchor="middle"
       x="183.3"
       y="-134.95"
       font-family="Times, serif"
       font-size="14px"
       id="text6">$2</text>
    <text
       text-anchor="middle"
       x="183.3"
       y="-117.7"
       font-family="Times, serif"
       font-size="14px"
       id="text7">$mux</text>
    <polyline
       fill="none"
       stroke="#000000"
       points="211.17,-93.12 211.17,-168.88"
       id="polyline7" />
    <text
       text-anchor="middle"
       x="223.67"
       y="-126.58"
       font-family="Times, serif"
       font-size="14px"
       id="text8">Y</text>
  </g>
  <g
     id="edge14"
     class="edge"
     transform="translate(0.5,426.64394)">
    <title
       id="title8">n15:e-&gt;c23:w</title>
    <path
       fill="none"
       stroke="#66a61e"
       stroke-width="3"
       d="m 55.05,-226 c 26.31,0 19.98,26.12 36,47 13.56,17.68 11.5,38.99 25.67,45.8"
       id="path8" />
    <polygon
       fill="#66a61e"
       stroke="#66a61e"
       stroke-width="3"
       points="123.47,-131.87 112.98,-130.37 114.33,-137.24 "
       id="polygon8" />
  </g>
  <g
     id="node7"
     class="node"
     transform="translate(0.5,426.64394)">
    <title
       id="title9">c24</title>
    <polygon
       fill="none"
       stroke="#000000"
       points="91.05,-283.12 91.05,-358.88 274.05,-358.88 274.05,-283.12 "
       id="polygon9" />
    <text
       text-anchor="middle"
       x="104.3"
       y="-341.57001"
       font-family="Times, serif"
       font-size="14px"
       id="text9">A</text>
    <polyline
       fill="none"
       stroke="#000000"
       points="91.05,-333.62 117.55,-333.62"
       id="polyline9" />
    <text
       text-anchor="middle"
       x="104.3"
       y="-316.32001"
       font-family="Times, serif"
       font-size="14px"
       id="text10">B</text>
    <polyline
       fill="none"
       stroke="#000000"
       points="91.05,-308.38 117.55,-308.38"
       id="polyline10" />
    <text
       text-anchor="middle"
       x="104.3"
       y="-291.07001"
       font-family="Times, serif"
       font-size="14px"
       id="text11">S</text>
    <polyline
       fill="none"
       stroke="#000000"
       points="117.55,-283.12 117.55,-358.88"
       id="polyline11" />
    <text
       text-anchor="middle"
       x="183.3"
       y="-324.95001"
       font-family="Times, serif"
       font-size="14px"
       id="text12">$replica1_cone0</text>
    <text
       text-anchor="middle"
       x="183.3"
       y="-307.70001"
       font-family="Times, serif"
       font-size="14px"
       id="text13">$mux</text>
    <polyline
       fill="none"
       stroke="#000000"
       points="249.05,-283.12 249.05,-358.88"
       id="polyline13" />
    <text
       text-anchor="middle"
       x="261.54999"
       y="-316.57001"
       font-family="Times, serif"
       font-size="14px"
       id="text14">Y</text>
  </g>
  <g
     id="edge15"
     class="edge"
     transform="translate(0.5,426.64394)">
    <title
       id="title14">n15:e-&gt;c24:w</title>
    <path
       fill="none"
       stroke="#66a61e"
       stroke-width="3"
       d="m 55.05,-226 c 40.56,0 0.85,-76.68 25.11,-92.26"
       id="path14" />
    <polygon
       fill="#66a61e"
       stroke="#66a61e"
       stroke-width="3"
       points="86.64,-319.89 77.8,-314.06 76.09,-320.84 "
       id="polygon14" />
  </g>
  <g
     id="node9"
     class="node"
     transform="translate(0.5,426.64394)">
    <title
       id="title15">c25</title>
    <polygon
       fill="none"
       stroke="#000000"
       points="91.05,-188.12 91.05,-263.88 274.05,-263.88 274.05,-188.12 "
       id="polygon15" />
    <text
       text-anchor="middle"
       x="104.3"
       y="-246.57001"
       font-family="Times, serif"
       font-size="14px"
       id="text15">A</text>
    <polyline
       fill="none"
       stroke="#000000"
       points="91.05,-238.62 117.55,-238.62"
       id="polyline15" />
    <text
       text-anchor="middle"
       x="104.3"
       y="-221.32001"
       font-family="Times, serif"
       font-size="14px"
       id="text16">B</text>
    <polyline
       fill="none"
       stroke="#000000"
       points="91.05,-213.38 117.55,-213.38"
       id="polyline16" />
    <text
       text-anchor="middle"
       x="104.3"
       y="-196.07001"
       font-family="Times, serif"
       font-size="14px"
       id="text17">S</text>
    <polyline
       fill="none"
       stroke="#000000"
       points="117.55,-188.12 117.55,-263.88"
       id="polyline17" />
    <text
       text-anchor="middle"
       x="183.3"
       y="-229.95"
       font-family="Times, serif"
       font-size="14px"
       id="text18">$replica2_cone0</text>
    <text
       text-anchor="middle"
       x="183.3"
       y="-212.7"
       font-family="Times, serif"
       font-size="14px"
       id="text19">$mux</text>
    <polyline
       fill="none"
       stroke="#000000"
       points="249.05,-188.12 249.05,-263.88"
       id="polyline19" />
    <text
       text-anchor="middle"
       x="261.54999"
       y="-221.57001"
       font-family="Times, serif"
       font-size="14px"
       id="text20">Y</text>
  </g>
  <g
     id="edge16"
     class="edge"
     transform="translate(0.5,426.64394)">
    <title
       id="title20">n15:e-&gt;c25:w</title>
    <path
       fill="none"
       stroke="#66a61e"
       stroke-width="3"
       d="m 55.05,-226 c 11.37,0 16.68,0 24.55,0"
       id="path20" />
    <polygon
       fill="#66a61e"
       stroke="#66a61e"
       stroke-width="3"
       points="86.51,-226 76.51,-222.5 76.51,-229.5 "
       id="polygon20" />
  </g>
  <g
     id="node2"
     class="node"
     transform="translate(0.5,426.64394)">
    <title
       id="title21">n16</title>
    <polygon
       fill="none"
       stroke="#000000"
       points="0.52,-287.46 0.52,-272.54 16.34,-262 38.71,-262 54.52,-272.54 54.52,-287.46 38.71,-298 16.34,-298 "
       id="polygon21" />
    <text
       text-anchor="middle"
       x="27.52"
       y="-275.32001"
       font-family="Times, serif"
       font-size="14px"
       id="text21">b</text>
  </g>
  <g
     id="edge17"
     class="edge"
     transform="translate(0.5,426.64394)">
    <title
       id="title22">n16:e-&gt;c23:w</title>
    <path
       fill="none"
       stroke="#a6761d"
       stroke-width="3"
       d="m 55.05,-280 c 47.65,0 6.02,63.95 36,101 9.37,11.58 14.78,18.86 25.66,21.56"
       id="path22" />
    <polygon
       fill="#a6761d"
       stroke="#a6761d"
       stroke-width="3"
       points="123.41,-156.73 113.09,-154.31 113.83,-161.27 "
       id="polygon22" />
  </g>
  <g
     id="edge18"
     class="edge"
     transform="translate(0.5,426.64394)">
    <title
       id="title23">n16:e-&gt;c24:w</title>
    <path
       fill="none"
       stroke="#a6761d"
       stroke-width="3"
       d="m 55.05,-280 c 28.8,0 9.94,-48.93 25.33,-62.69"
       id="path23" />
    <polygon
       fill="#a6761d"
       stroke="#a6761d"
       stroke-width="3"
       points="86.74,-344.81 78.36,-338.33 76.15,-344.96 "
       id="polygon23" />
  </g>
  <g
     id="edge19"
     class="edge"
     transform="translate(0.5,426.64394)">
    <title
       id="title24">n16:e-&gt;c25:w</title>
    <path
       fill="none"
       stroke="#a6761d"
       stroke-width="3"
       d="m 55.05,-280 c 15.83,0 16.46,17.2 25.4,24.99"
       id="path24" />
    <polygon
       fill="#a6761d"
       stroke="#a6761d"
       stroke-width="3"
       points="86.77,-252.77 76.17,-252.81 78.51,-259.41 "
       id="polygon24" />
  </g>
  <g
     id="node3"
     class="node"
     transform="translate(0.5,426.64394)">
    <title
       id="title25">n17</title>
    <polygon
       fill="none"
       stroke="#000000"
       points="1085.9,-252.46 1085.9,-237.54 1101.71,-227 1124.08,-227 1139.9,-237.54 1139.9,-252.46 1124.08,-263 1101.71,-263 "
       id="polygon25" />
    <text
       text-anchor="middle"
       x="1112.9"
       y="-240.32001"
       font-family="Times, serif"
       font-size="14px"
       id="text25">o</text>
  </g>
  <g
     id="node4"
     class="node"
     transform="translate(0.5,426.64394)">
    <title
       id="title26">n18</title>
    <polygon
       fill="none"
       stroke="#000000"
       points="0,-179.46 0,-164.54 16.12,-154 38.92,-154 55.05,-164.54 55.05,-179.46 38.92,-190 16.12,-190 "
       id="polygon26" />
    <text
       text-anchor="middle"
       x="27.52"
       y="-167.32001"
       font-family="Times, serif"
       font-size="14px"
       id="text26">sel</text>
  </g>
  <g
     id="edge22"
     class="edge"
     transform="translate(0.5,426.64394)">
    <title
       id="title27">n18:e-&gt;c23:w</title>
    <path
       fill="none"
       stroke="#d95f02"
       d="m 55.05,-172 c 39.5,0 31.41,53.94 61.61,64.48"
       id="path27" />
    <polygon
       fill="#d95f02"
       stroke="#d95f02"
       points="126.43,-105.99 116,-104.08 117.09,-111 "
       id="polygon27" />
  </g>
  <g
     id="edge23"
     class="edge"
     transform="translate(0.5,426.64394)">
    <title
       id="title28">n18:e-&gt;c24:w</title>
    <path
       fill="none"
       stroke="#d95f02"
       d="m 55.05,-172 c 52.8,0 -9.84,-105.17 24.93,-121.6"
       id="path28" />
    <polygon
       fill="#d95f02"
       stroke="#d95f02"
       points="89.56,-295.46 80.41,-290.12 79.08,-296.99 "
       id="polygon28" />
  </g>
  <g
     id="edge24"
     class="edge"
     transform="translate(0.5,426.64394)">
    <title
       id="title29">n18:e-&gt;c25:w</title>
    <path
       fill="none"
       stroke="#d95f02"
       d="m 55.05,-172 c 15.83,0 16.46,-17.2 25.4,-24.99"
       id="path29" />
    <polygon
       fill="#d95f02"
       stroke="#d95f02"
       points="89.62,-200.24 81.37,-193.6 79.03,-200.2 "
       id="polygon29" />
  </g>
  <g
     id="node6"
     class="node"
     transform="translate(0.5,426.64394)">
    <title
       id="title30">x0</title>
    <path
       fill="none"
       stroke="#1b9e77"
       d="m 322.05,-105.75 c 0,0 50.5,0 50.5,0 6,0 12,-6 12,-12 0,0 0,-26.5 0,-26.5 0,-6 -6,-12 -12,-12 0,0 -50.5,0 -50.5,0 -6,0 -12,6 -12,12 0,0 0,26.5 0,26.5 0,6 6,12 12,12"
       id="path30" />
    <text
       text-anchor="middle"
       x="347.29999"
       y="-138.95"
       font-family="Times, serif"
       font-size="14px"
       fill="#1b9e77"
       id="text30">1:1 - 0:0</text>
    <polyline
       fill="none"
       stroke="#1b9e77"
       points="310.05,-131 384.55,-131"
       id="polyline30" />
    <text
       text-anchor="middle"
       x="347.29999"
       y="-113.7"
       font-family="Times, serif"
       font-size="14px"
       fill="#1b9e77"
       id="text31">0:0 - 0:0</text>
  </g>
  <g
     id="edge1"
     class="edge"
     transform="translate(0.5,426.64394)">
    <title
       id="title31">c23:e-&gt;x0:w</title>
    <path
       fill="none"
       stroke="#e7298a"
       stroke-width="3"
       d="m 250.15,-131.24 c 18.51,0.05 28.52,0.18 47.08,0.23"
       id="path31" />
    <polygon
       fill="none"
       stroke="#e7298a"
       stroke-width="3"
       points="251.88,-131.23 245.88,-135.24 239.88,-131.25 245.87,-127.24 "
       id="polygon31" />
    <polygon
       fill="none"
       stroke="#e7298a"
       stroke-width="3"
       points="295.34,-131.02 301.34,-127.01 307.34,-131 301.35,-135.01 "
       id="polygon32" />
  </g>
  <g
     id="node27"
     class="node"
     transform="translate(0.5,426.64394)">
    <title
       id="title32">n5</title>
    <circle
       fill="#000000"
       stroke="#000000"
       cx="422.35001"
       cy="-109"
       id="ellipse32"
       r="1.8" />
  </g>
  <g
     id="edge34"
     class="edge"
     transform="translate(0.5,426.64394)">
    <title
       id="title33">x0:e-&gt;n5:w</title>
    <path
       fill="none"
       stroke="#7570b3"
       d="m 384.55,-118.38 c 11.88,0 16.74,4.85 24.67,7.57"
       id="path33" />
    <polygon
       fill="#7570b3"
       stroke="#7570b3"
       points="419.05,-109.24 408.63,-107.36 409.73,-114.27 "
       id="polygon33" />
  </g>
  <g
     id="node28"
     class="node"
     transform="translate(0.5,426.64394)">
    <title
       id="title34">n6</title>
    <circle
       fill="#000000"
       stroke="#000000"
       cx="422.35001"
       cy="-249"
       id="ellipse34"
       r="1.8" />
  </g>
  <g
     id="edge37"
     class="edge"
     transform="translate(0.5,426.64394)">
    <title
       id="title35">x0:e-&gt;n6:w</title>
    <path
       fill="none"
       stroke="#e6ab02"
       d="m 384.55,-143.62 c 44.85,0 -2.67,-86.55 24.86,-102.78"
       id="path35" />
    <polygon
       fill="#e6ab02"
       stroke="#e6ab02"
       points="419.07,-248.66 410.13,-242.97 408.54,-249.79 "
       id="polygon35" />
  </g>
  <g
     id="node8"
     class="node"
     transform="translate(0.5,426.64394)">
    <title
       id="title36">x1</title>
    <path
       fill="none"
       stroke="#e7298a"
       d="m 322.05,-295.75 c 0,0 50.5,0 50.5,0 6,0 12,-6 12,-12 0,0 0,-26.5 0,-26.5 0,-6 -6,-12 -12,-12 0,0 -50.5,0 -50.5,0 -6,0 -12,6 -12,12 0,0 0,26.5 0,26.5 0,6 6,12 12,12"
       id="path36" />
    <text
       text-anchor="middle"
       x="347.29999"
       y="-328.95001"
       font-family="Times, serif"
       font-size="14px"
       fill="#e7298a"
       id="text36">1:1 - 0:0</text>
    <polyline
       fill="none"
       stroke="#e7298a"
       points="310.05,-321 384.55,-321"
       id="polyline36" />
    <text
       text-anchor="middle"
       x="347.29999"
       y="-303.70001"
       font-family="Times, serif"
       font-size="14px"
       fill="#e7298a"
       id="text37">0:0 - 0:0</text>
  </g>
  <g
     id="edge2"
     class="edge"
     transform="translate(0.5,426.64394)">
    <title
       id="title37">c24:e-&gt;x1:w</title>
    <path
       fill="none"
       stroke="#7570b3"
       stroke-width="3"
       d="m 286.77,-321.19 c 3.6,0.04 6.73,0.09 10.31,0.12"
       id="path37" />
    <polygon
       fill="none"
       stroke="#7570b3"
       stroke-width="3"
       points="288.75,-321.18 282.77,-325.21 276.75,-321.24 282.73,-317.21 "
       id="polygon37" />
    <polygon
       fill="none"
       stroke="#7570b3"
       stroke-width="3"
       points="295.34,-321.07 301.32,-317.04 307.34,-321.01 301.36,-325.04 "
       id="polygon38" />
  </g>
  <g
     id="node23"
     class="node"
     transform="translate(0.5,426.64394)">
    <title
       id="title38">n1</title>
    <circle
       fill="#000000"
       stroke="#000000"
       cx="422.35001"
       cy="-343"
       id="ellipse38"
       r="1.8" />
  </g>
  <g
     id="edge6"
     class="edge"
     transform="translate(0.5,426.64394)">
    <title
       id="title39">x1:e-&gt;n1:w</title>
    <path
       fill="none"
       stroke="#e6ab02"
       d="m 384.55,-333.62 c 11.88,0 16.74,-4.85 24.67,-7.57"
       id="path39" />
    <polygon
       fill="#e6ab02"
       stroke="#e6ab02"
       points="419.05,-342.76 409.73,-337.73 408.63,-344.64 "
       id="polygon39" />
  </g>
  <g
     id="node24"
     class="node"
     transform="translate(0.5,426.64394)">
    <title
       id="title40">n2</title>
    <circle
       fill="#000000"
       stroke="#000000"
       cx="422.35001"
       cy="-203"
       id="ellipse40"
       r="1.8" />
  </g>
  <g
     id="edge25"
     class="edge"
     transform="translate(0.5,426.64394)">
    <title
       id="title41">x1:e-&gt;n2:w</title>
    <path
       fill="none"
       stroke="#666666"
       d="m 384.55,-308.38 c 44.85,0 -2.67,86.55 24.86,102.78"
       id="path41" />
    <polygon
       fill="#666666"
       stroke="#666666"
       points="419.07,-203.34 408.54,-202.21 410.13,-209.03 "
       id="polygon41" />
  </g>
  <g
     id="node10"
     class="node"
     transform="translate(0.5,426.64394)">
    <title
       id="title42">x2</title>
    <path
       fill="none"
       stroke="#7570b3"
       d="m 322.05,-200.75 c 0,0 50.5,0 50.5,0 6,0 12,-6 12,-12 0,0 0,-26.5 0,-26.5 0,-6 -6,-12 -12,-12 0,0 -50.5,0 -50.5,0 -6,0 -12,6 -12,12 0,0 0,26.5 0,26.5 0,6 6,12 12,12"
       id="path42" />
    <text
       text-anchor="middle"
       x="347.29999"
       y="-233.95"
       font-family="Times, serif"
       font-size="14px"
       fill="#7570b3"
       id="text42">1:1 - 0:0</text>
    <polyline
       fill="none"
       stroke="#7570b3"
       points="310.05,-226 384.55,-226"
       id="polyline42" />
    <text
       text-anchor="middle"
       x="347.29999"
       y="-208.7"
       font-family="Times, serif"
       font-size="14px"
       fill="#7570b3"
       id="text43">0:0 - 0:0</text>
  </g>
  <g
     id="edge3"
     class="edge"
     transform="translate(0.5,426.64394)">
    <title
       id="title43">c25:e-&gt;x2:w</title>
    <path
       fill="none"
       stroke="#7570b3"
       stroke-width="3"
       d="m 286.77,-226.19 c 3.6,0.04 6.73,0.09 10.31,0.12"
       id="path43" />
    <polygon
       fill="none"
       stroke="#7570b3"
       stroke-width="3"
       points="288.75,-226.18 282.77,-230.21 276.75,-226.24 282.73,-222.21 "
       id="polygon43" />
    <polygon
       fill="none"
       stroke="#7570b3"
       stroke-width="3"
       points="295.34,-226.07 301.32,-222.04 307.34,-226.01 301.36,-230.04 "
       id="polygon44" />
  </g>
  <g
     id="node25"
     class="node"
     transform="translate(0.5,426.64394)">
    <title
       id="title44">n3</title>
    <circle
       fill="#000000"
       stroke="#000000"
       cx="422.35001"
       cy="-273"
       id="ellipse44"
       r="1.8" />
  </g>
  <g
     id="edge28"
     class="edge"
     transform="translate(0.5,426.64394)">
    <title
       id="title45">x2:e-&gt;n3:w</title>
    <path
       fill="none"
       stroke="#7570b3"
       d="m 384.55,-238.62 c 17.45,0 16,-21.41 25.48,-30.44"
       id="path45" />
    <polygon
       fill="#7570b3"
       stroke="#7570b3"
       points="419.13,-272.47 411,-265.68 408.54,-272.23 "
       id="polygon45" />
  </g>
  <g
     id="node26"
     class="node"
     transform="translate(0.5,426.64394)">
    <title
       id="title46">n4</title>
    <circle
       fill="#000000"
       stroke="#000000"
       cx="422.35001"
       cy="-179"
       id="ellipse46"
       r="1.8" />
  </g>
  <g
     id="edge31"
     class="edge"
     transform="translate(0.5,426.64394)">
    <title
       id="title47">x2:e-&gt;n4:w</title>
    <path
       fill="none"
       stroke="#e6ab02"
       d="m 384.55,-213.38 c 17.45,0 16,21.41 25.48,30.44"
       id="path47" />
    <polygon
       fill="#e6ab02"
       stroke="#e6ab02"
       points="419.13,-179.53 408.54,-179.77 411,-186.32 "
       id="polygon47" />
  </g>
  <g
     id="node11"
     class="node"
     transform="translate(0.5,426.64394)">
    <title
       id="title48">c26</title>
    <polygon
       fill="none"
       stroke="#000000"
       points="460.15,-25.75 460.15,-76.25 603.4,-76.25 603.4,-25.75 "
       id="polygon48" />
    <text
       text-anchor="middle"
       x="473.39999"
       y="-58.950001"
       font-family="Times, serif"
       font-size="14px"
       id="text48">A</text>
    <polyline
       fill="none"
       stroke="#000000"
       points="460.15,-51 486.65,-51"
       id="polyline48" />
    <text
       text-anchor="middle"
       x="473.39999"
       y="-33.700001"
       font-family="Times, serif"
       font-size="14px"
       id="text49">B</text>
    <polyline
       fill="none"
       stroke="#000000"
       points="486.65,-25.75 486.65,-76.25"
       id="polyline49" />
    <text
       text-anchor="middle"
       x="532.52002"
       y="-54.950001"
       font-family="Times, serif"
       font-size="14px"
       id="text50">$20</text>
    <text
       text-anchor="middle"
       x="532.52002"
       y="-37.700001"
       font-family="Times, serif"
       font-size="14px"
       id="text51">$logic_and</text>
    <polyline
       fill="none"
       stroke="#000000"
       points="578.4,-25.75 578.4,-76.25"
       id="polyline51" />
    <text
       text-anchor="middle"
       x="590.90002"
       y="-46.450001"
       font-family="Times, serif"
       font-size="14px"
       id="text52">Y</text>
  </g>
  <g
     id="node17"
     class="node"
     transform="translate(0.5,426.64394)">
    <title
       id="title52">c32</title>
    <polygon
       fill="none"
       stroke="#000000"
       points="639.4,-107.75 639.4,-158.25 771.4,-158.25 771.4,-107.75 "
       id="polygon52" />
    <text
       text-anchor="middle"
       x="652.65002"
       y="-140.95"
       font-family="Times, serif"
       font-size="14px"
       id="text53">A</text>
    <polyline
       fill="none"
       stroke="#000000"
       points="639.4,-133 665.9,-133"
       id="polyline53" />
    <text
       text-anchor="middle"
       x="652.65002"
       y="-115.7"
       font-family="Times, serif"
       font-size="14px"
       id="text54">B</text>
    <polyline
       fill="none"
       stroke="#000000"
       points="665.9,-107.75 665.9,-158.25"
       id="polyline54" />
    <text
       text-anchor="middle"
       x="706.15002"
       y="-136.95"
       font-family="Times, serif"
       font-size="14px"
       id="text55">$32</text>
    <text
       text-anchor="middle"
       x="706.15002"
       y="-119.7"
       font-family="Times, serif"
       font-size="14px"
       id="text56">$logic_or</text>
    <polyline
       fill="none"
       stroke="#000000"
       points="746.4,-107.75 746.4,-158.25"
       id="polyline56" />
    <text
       text-anchor="middle"
       x="758.90002"
       y="-128.45"
       font-family="Times, serif"
       font-size="14px"
       id="text57">Y</text>
  </g>
  <g
     id="edge40"
     class="edge"
     transform="translate(0.5,426.64394)">
    <title
       id="title57">c26:e-&gt;c32:w</title>
    <path
       fill="none"
       stroke="#a6761d"
       d="m 603.4,-51.12 c 40.38,0 0.98,-76.28 25.15,-91.78"
       id="path57" />
    <polygon
       fill="#a6761d"
       stroke="#a6761d"
       points="637.93,-145.26 629.09,-139.42 627.38,-146.21 "
       id="polygon57" />
  </g>
  <g
     id="node12"
     class="node"
     transform="translate(0.5,426.64394)">
    <title
       id="title58">c27</title>
    <polygon
       fill="none"
       stroke="#000000"
       points="460.15,-235.75 460.15,-286.25 603.4,-286.25 603.4,-235.75 "
       id="polygon58" />
    <text
       text-anchor="middle"
       x="473.39999"
       y="-268.95001"
       font-family="Times, serif"
       font-size="14px"
       id="text58">A</text>
    <polyline
       fill="none"
       stroke="#000000"
       points="460.15,-261 486.65,-261"
       id="polyline58" />
    <text
       text-anchor="middle"
       x="473.39999"
       y="-243.7"
       font-family="Times, serif"
       font-size="14px"
       id="text59">B</text>
    <polyline
       fill="none"
       stroke="#000000"
       points="486.65,-235.75 486.65,-286.25"
       id="polyline59" />
    <text
       text-anchor="middle"
       x="532.52002"
       y="-264.95001"
       font-family="Times, serif"
       font-size="14px"
       id="text60">$49</text>
    <text
       text-anchor="middle"
       x="532.52002"
       y="-247.7"
       font-family="Times, serif"
       font-size="14px"
       id="text61">$logic_and</text>
    <polyline
       fill="none"
       stroke="#000000"
       points="578.4,-235.75 578.4,-286.25"
       id="polyline61" />
    <text
       text-anchor="middle"
       x="590.90002"
       y="-256.45001"
       font-family="Times, serif"
       font-size="14px"
       id="text62">Y</text>
  </g>
  <g
     id="node18"
     class="node"
     transform="translate(0.5,426.64394)">
    <title
       id="title62">c33</title>
    <polygon
       fill="none"
       stroke="#000000"
       points="639.4,-274.75 639.4,-325.25 771.4,-325.25 771.4,-274.75 "
       id="polygon62" />
    <text
       text-anchor="middle"
       x="652.65002"
       y="-307.95001"
       font-family="Times, serif"
       font-size="14px"
       id="text63">A</text>
    <polyline
       fill="none"
       stroke="#000000"
       points="639.4,-300 665.9,-300"
       id="polyline63" />
    <text
       text-anchor="middle"
       x="652.65002"
       y="-282.70001"
       font-family="Times, serif"
       font-size="14px"
       id="text64">B</text>
    <polyline
       fill="none"
       stroke="#000000"
       points="665.9,-274.75 665.9,-325.25"
       id="polyline64" />
    <text
       text-anchor="middle"
       x="706.15002"
       y="-303.95001"
       font-family="Times, serif"
       font-size="14px"
       id="text65">$61</text>
    <text
       text-anchor="middle"
       x="706.15002"
       y="-286.70001"
       font-family="Times, serif"
       font-size="14px"
       id="text66">$logic_or</text>
    <polyline
       fill="none"
       stroke="#000000"
       points="746.4,-274.75 746.4,-325.25"
       id="polyline66" />
    <text
       text-anchor="middle"
       x="758.90002"
       y="-295.45001"
       font-family="Times, serif"
       font-size="14px"
       id="text67">Y</text>
  </g>
  <g
     id="edge41"
     class="edge"
     transform="translate(0.5,426.64394)">
    <title
       id="title67">c27:e-&gt;c33:w</title>
    <path
       fill="none"
       stroke="#a6761d"
       d="m 603.4,-261.12 c 23.12,0 13.48,-35.32 25.35,-47.46"
       id="path67" />
    <polygon
       fill="#a6761d"
       stroke="#a6761d"
       points="637.98,-312.09 629.87,-305.27 627.39,-311.81 "
       id="polygon67" />
  </g>
  <g
     id="node13"
     class="node"
     transform="translate(0.5,426.64394)">
    <title
       id="title68">c28</title>
    <polygon
       fill="none"
       stroke="#000000"
       points="460.15,-95.75 460.15,-146.25 603.4,-146.25 603.4,-95.75 "
       id="polygon68" />
    <text
       text-anchor="middle"
       x="473.39999"
       y="-128.95"
       font-family="Times, serif"
       font-size="14px"
       id="text68">A</text>
    <polyline
       fill="none"
       stroke="#000000"
       points="460.15,-121 486.65,-121"
       id="polyline68" />
    <text
       text-anchor="middle"
       x="473.39999"
       y="-103.7"
       font-family="Times, serif"
       font-size="14px"
       id="text69">B</text>
    <polyline
       fill="none"
       stroke="#000000"
       points="486.65,-95.75 486.65,-146.25"
       id="polyline69" />
    <text
       text-anchor="middle"
       x="532.52002"
       y="-124.95"
       font-family="Times, serif"
       font-size="14px"
       id="text70">$22</text>
    <text
       text-anchor="middle"
       x="532.52002"
       y="-107.7"
       font-family="Times, serif"
       font-size="14px"
       id="text71">$logic_and</text>
    <polyline
       fill="none"
       stroke="#000000"
       points="578.4,-95.75 578.4,-146.25"
       id="polyline71" />
    <text
       text-anchor="middle"
       x="590.90002"
       y="-116.45"
       font-family="Times, serif"
       font-size="14px"
       id="text72">Y</text>
  </g>
  <g
     id="edge42"
     class="edge"
     transform="translate(0.5,426.64394)">
    <title
       id="title72">c28:e-&gt;c32:w</title>
    <path
       fill="none"
       stroke="#7570b3"
       d="m 603.4,-121.12 c 11.38,0 16.68,0.37 24.55,0.59"
       id="path72" />
    <polygon
       fill="#7570b3"
       stroke="#7570b3"
       points="637.88,-120.4 627.84,-117.03 627.93,-124.03 "
       id="polygon72" />
  </g>
  <g
     id="node14"
     class="node"
     transform="translate(0.5,426.64394)">
    <title
       id="title73">c29</title>
    <polygon
       fill="none"
       stroke="#000000"
       points="460.15,-305.75 460.15,-356.25 603.4,-356.25 603.4,-305.75 "
       id="polygon73" />
    <text
       text-anchor="middle"
       x="473.39999"
       y="-338.95001"
       font-family="Times, serif"
       font-size="14px"
       id="text73">A</text>
    <polyline
       fill="none"
       stroke="#000000"
       points="460.15,-331 486.65,-331"
       id="polyline73" />
    <text
       text-anchor="middle"
       x="473.39999"
       y="-313.70001"
       font-family="Times, serif"
       font-size="14px"
       id="text74">B</text>
    <polyline
       fill="none"
       stroke="#000000"
       points="486.65,-305.75 486.65,-356.25"
       id="polyline74" />
    <text
       text-anchor="middle"
       x="532.52002"
       y="-334.95001"
       font-family="Times, serif"
       font-size="14px"
       id="text75">$51</text>
    <text
       text-anchor="middle"
       x="532.52002"
       y="-317.70001"
       font-family="Times, serif"
       font-size="14px"
       id="text76">$logic_and</text>
    <polyline
       fill="none"
       stroke="#000000"
       points="578.4,-305.75 578.4,-356.25"
       id="polyline76" />
    <text
       text-anchor="middle"
       x="590.90002"
       y="-326.45001"
       font-family="Times, serif"
       font-size="14px"
       id="text77">Y</text>
  </g>
  <g
     id="edge9"
     class="edge"
     transform="translate(0.5,426.64394)">
    <title
       id="title77">c29:e-&gt;c33:w</title>
    <path
       fill="none"
       stroke="#e6ab02"
       d="m 603.4,-331.12 c 20.46,0 14.81,28.88 25.48,39.71"
       id="path77" />
    <polygon
       fill="#e6ab02"
       stroke="#e6ab02"
       points="637.98,-287.92 627.39,-288.23 629.9,-294.77 "
       id="polygon77" />
  </g>
  <g
     id="node15"
     class="node"
     transform="translate(0.5,426.64394)">
    <title
       id="title78">c30</title>
    <polygon
       fill="none"
       stroke="#000000"
       points="460.15,-165.75 460.15,-216.25 603.4,-216.25 603.4,-165.75 "
       id="polygon78" />
    <text
       text-anchor="middle"
       x="473.39999"
       y="-198.95"
       font-family="Times, serif"
       font-size="14px"
       id="text78">A</text>
    <polyline
       fill="none"
       stroke="#000000"
       points="460.15,-191 486.65,-191"
       id="polyline78" />
    <text
       text-anchor="middle"
       x="473.39999"
       y="-173.7"
       font-family="Times, serif"
       font-size="14px"
       id="text79">B</text>
    <polyline
       fill="none"
       stroke="#000000"
       points="486.65,-165.75 486.65,-216.25"
       id="polyline79" />
    <text
       text-anchor="middle"
       x="532.52002"
       y="-194.95"
       font-family="Times, serif"
       font-size="14px"
       id="text80">$28</text>
    <text
       text-anchor="middle"
       x="532.52002"
       y="-177.7"
       font-family="Times, serif"
       font-size="14px"
       id="text81">$logic_and</text>
    <polyline
       fill="none"
       stroke="#000000"
       points="578.4,-165.75 578.4,-216.25"
       id="polyline81" />
    <text
       text-anchor="middle"
       x="590.90002"
       y="-186.45"
       font-family="Times, serif"
       font-size="14px"
       id="text82">Y</text>
  </g>
  <g
     id="node19"
     class="node"
     transform="translate(0.5,426.64394)">
    <title
       id="title82">c34</title>
    <polygon
       fill="none"
       stroke="#000000"
       points="807.4,-177.75 807.4,-228.25 939.4,-228.25 939.4,-177.75 "
       id="polygon82" />
    <text
       text-anchor="middle"
       x="820.65002"
       y="-210.95"
       font-family="Times, serif"
       font-size="14px"
       id="text83">A</text>
    <polyline
       fill="none"
       stroke="#000000"
       points="807.4,-203 833.9,-203"
       id="polyline83" />
    <text
       text-anchor="middle"
       x="820.65002"
       y="-185.7"
       font-family="Times, serif"
       font-size="14px"
       id="text84">B</text>
    <polyline
       fill="none"
       stroke="#000000"
       points="833.9,-177.75 833.9,-228.25"
       id="polyline84" />
    <text
       text-anchor="middle"
       x="874.15002"
       y="-206.95"
       font-family="Times, serif"
       font-size="14px"
       id="text85">$35</text>
    <text
       text-anchor="middle"
       x="874.15002"
       y="-189.7"
       font-family="Times, serif"
       font-size="14px"
       id="text86">$logic_or</text>
    <polyline
       fill="none"
       stroke="#000000"
       points="914.4,-177.75 914.4,-228.25"
       id="polyline86" />
    <text
       text-anchor="middle"
       x="926.90002"
       y="-198.45"
       font-family="Times, serif"
       font-size="14px"
       id="text87">Y</text>
  </g>
  <g
     id="edge10"
     class="edge"
     transform="translate(0.5,426.64394)">
    <title
       id="title87">c30:e-&gt;c34:w</title>
    <path
       fill="none"
       stroke="#d95f02"
       d="m 603.4,-191.12 c 86.77,0 111.26,0.68 192.68,0.74"
       id="path87" />
    <polygon
       fill="#d95f02"
       stroke="#d95f02"
       points="805.88,-190.38 795.88,-186.88 795.89,-193.88 "
       id="polygon87" />
  </g>
  <g
     id="node16"
     class="node"
     transform="translate(0.5,426.64394)">
    <title
       id="title88">c31</title>
    <polygon
       fill="none"
       stroke="#000000"
       points="460.15,-375.75 460.15,-426.25 603.4,-426.25 603.4,-375.75 "
       id="polygon88" />
    <text
       text-anchor="middle"
       x="473.39999"
       y="-408.95001"
       font-family="Times, serif"
       font-size="14px"
       id="text88">A</text>
    <polyline
       fill="none"
       stroke="#000000"
       points="460.15,-401 486.65,-401"
       id="polyline88" />
    <text
       text-anchor="middle"
       x="473.39999"
       y="-383.70001"
       font-family="Times, serif"
       font-size="14px"
       id="text89">B</text>
    <polyline
       fill="none"
       stroke="#000000"
       points="486.65,-375.75 486.65,-426.25"
       id="polyline89" />
    <text
       text-anchor="middle"
       x="532.52002"
       y="-404.95001"
       font-family="Times, serif"
       font-size="14px"
       id="text90">$57</text>
    <text
       text-anchor="middle"
       x="532.52002"
       y="-387.70001"
       font-family="Times, serif"
       font-size="14px"
       id="text91">$logic_and</text>
    <polyline
       fill="none"
       stroke="#000000"
       points="578.4,-375.75 578.4,-426.25"
       id="polyline91" />
    <text
       text-anchor="middle"
       x="590.90002"
       y="-396.45001"
       font-family="Times, serif"
       font-size="14px"
       id="text92">Y</text>
  </g>
  <g
     id="node21"
     class="node"
     transform="translate(0.5,426.64394)">
    <title
       id="title92">c35</title>
    <polygon
       fill="none"
       stroke="#000000"
       points="807.4,-262.75 807.4,-313.25 939.4,-313.25 939.4,-262.75 "
       id="polygon92" />
    <text
       text-anchor="middle"
       x="820.65002"
       y="-295.95001"
       font-family="Times, serif"
       font-size="14px"
       id="text93">A</text>
    <polyline
       fill="none"
       stroke="#000000"
       points="807.4,-288 833.9,-288"
       id="polyline93" />
    <text
       text-anchor="middle"
       x="820.65002"
       y="-270.70001"
       font-family="Times, serif"
       font-size="14px"
       id="text94">B</text>
    <polyline
       fill="none"
       stroke="#000000"
       points="833.9,-262.75 833.9,-313.25"
       id="polyline94" />
    <text
       text-anchor="middle"
       x="874.15002"
       y="-291.95001"
       font-family="Times, serif"
       font-size="14px"
       id="text95">$64</text>
    <text
       text-anchor="middle"
       x="874.15002"
       y="-274.70001"
       font-family="Times, serif"
       font-size="14px"
       id="text96">$logic_or</text>
    <polyline
       fill="none"
       stroke="#000000"
       points="914.4,-262.75 914.4,-313.25"
       id="polyline96" />
    <text
       text-anchor="middle"
       x="926.90002"
       y="-283.45001"
       font-family="Times, serif"
       font-size="14px"
       id="text97">Y</text>
  </g>
  <g
     id="edge11"
     class="edge"
     transform="translate(0.5,426.64394)">
    <title
       id="title97">c31:e-&gt;c35:w</title>
    <path
       fill="none"
       stroke="#1b9e77"
       d="m 603.4,-401.12 c 80.24,0 106.69,14.35 168,66.12 20.14,17.01 9.63,48.29 25.19,57.2"
       id="path97" />
    <polygon
       fill="#1b9e77"
       stroke="#1b9e77"
       points="805.92,-275.71 795.4,-274.48 796.93,-281.31 "
       id="polygon97" />
  </g>
  <g
     id="edge12"
     class="edge"
     transform="translate(0.5,426.64394)">
    <title
       id="title98">c32:e-&gt;c34:w</title>
    <path
       fill="none"
       stroke="#d95f02"
       d="m 771.4,-133.12 c 35.31,0 5.15,-64.3 25.12,-79.37"
       id="path98" />
    <polygon
       fill="#d95f02"
       stroke="#d95f02"
       points="805.94,-215.21 797.3,-209.07 795.37,-215.8 "
       id="polygon98" />
  </g>
  <g
     id="edge13"
     class="edge"
     transform="translate(0.5,426.64394)">
    <title
       id="title99">c33:e-&gt;c35:w</title>
    <path
       fill="none"
       stroke="#a6761d"
       d="m 771.4,-300.12 c 11.37,0 16.68,-0.26 24.55,-0.4"
       id="path99" />
    <polygon
       fill="#a6761d"
       stroke="#a6761d"
       points="805.88,-300.61 795.92,-297.02 795.85,-304.02 "
       id="polygon99" />
  </g>
  <g
     id="node20"
     class="node"
     transform="translate(0.5,426.64394)">
    <title
       id="title100">x3</title>
    <path
       fill="none"
       stroke="#7570b3"
       d="m 987.4,-200 c 0,0 50.5,0 50.5,0 6,0 12,-6 12,-12 0,0 0,-12 0,-12 0,-6 -6,-12 -12,-12 0,0 -50.5,0 -50.5,0 -6,0 -12,6 -12,12 0,0 0,12 0,12 0,6 6,12 12,12"
       id="path100" />
    <text
       text-anchor="middle"
       x="1012.65"
       y="-213.7"
       font-family="Times, serif"
       font-size="14px"
       fill="#7570b3"
       id="text100">0:0 - 0:0</text>
  </g>
  <g
     id="edge4"
     class="edge"
     transform="translate(0.5,426.64394)">
    <title
       id="title101">c34:e-&gt;x3:w</title>
    <path
       fill="none"
       stroke="#a6761d"
       d="m 951.93,-206.58 c 3.94,-2.4 7.03,-5.59 10.96,-7.99"
       id="path101" />
    <polygon
       fill="none"
       stroke="#a6761d"
       points="951.84,-206.55 944.99,-208.81 940.27,-203.36 947.11,-201.1 "
       id="polygon101" />
    <polygon
       fill="none"
       stroke="#a6761d"
       points="962.96,-214.59 969.8,-212.32 974.53,-217.76 967.68,-220.03 "
       id="polygon102" />
  </g>
  <g
     id="edge20"
     class="edge"
     transform="translate(0.5,426.64394)">
    <title
       id="title102">x3:e-&gt;n17:w</title>
    <path
       fill="none"
       stroke="#66a61e"
       d="m 1049.9,-218.38 c 15.23,0 16.58,-15.6 25.3,-22.92"
       id="path102" />
    <polygon
       fill="#66a61e"
       stroke="#66a61e"
       points="1084.47,-244.5 1076.16,-237.93 1073.87,-244.54 "
       id="polygon103" />
  </g>
  <g
     id="node22"
     class="node"
     transform="translate(0.5,426.64394)">
    <title
       id="title103">x4</title>
    <path
       fill="none"
       stroke="#a6761d"
       d="m 987.4,-262 c 0,0 50.5,0 50.5,0 6,0 12,-6 12,-12 0,0 0,-12 0,-12 0,-6 -6,-12 -12,-12 0,0 -50.5,0 -50.5,0 -6,0 -12,6 -12,12 0,0 0,12 0,12 0,6 6,12 12,12"
       id="path103" />
    <text
       text-anchor="middle"
       x="1012.65"
       y="-275.70001"
       font-family="Times, serif"
       font-size="14px"
       fill="#a6761d"
       id="text103">0:0 - 1:1</text>
  </g>
  <g
     id="edge5"
     class="edge"
     transform="translate(0.5,426.64394)">
    <title
       id="title104">c35:e-&gt;x4:w</title>
    <path
       fill="none"
       stroke="#d95f02"
       d="m 952.21,-286.07 c 3.67,1.24 6.79,2.81 10.46,4.05"
       id="path104" />
    <polygon
       fill="none"
       stroke="#d95f02"
       points="952.14,-286.09 946.84,-290.98 940.29,-287.98 945.58,-283.08 "
       id="polygon104" />
    <polygon
       fill="none"
       stroke="#d95f02"
       points="962.66,-282.02 967.95,-277.13 974.51,-280.14 969.21,-285.03 "
       id="polygon105" />
  </g>
  <g
     id="edge21"
     class="edge"
     transform="translate(0.5,426.64394)">
    <title
       id="title105">x4:e-&gt;n17:w</title>
    <path
       fill="none"
       stroke="#66a61e"
       d="m 1049.9,-280.38 c 17.7,0 15.91,22.03 25.39,31.32"
       id="path105" />
    <polygon
       fill="#66a61e"
       stroke="#66a61e"
       points="1084.48,-245.54 1073.89,-245.85 1076.4,-252.38 "
       id="polygon106" />
  </g>
  <g
     id="edge7"
     class="edge"
     transform="translate(0.5,426.64394)">
    <title
       id="title106">n1:e-&gt;c29:w</title>
    <path
       fill="none"
       stroke="#e6ab02"
       d="m 424.15,-343 c 11.37,0 16.68,-0.32 24.55,-0.5"
       id="path106" />
    <polygon
       fill="#e6ab02"
       stroke="#e6ab02"
       points="458.63,-343.61 448.67,-340 448.6,-347 "
       id="polygon107" />
  </g>
  <g
     id="edge8"
     class="edge"
     transform="translate(0.5,426.64394)">
    <title
       id="title107">n1:e-&gt;c31:w</title>
    <path
       fill="none"
       stroke="#e6ab02"
       d="m 424.15,-343 c 30.55,0 8.69,-53.11 25.32,-67.22"
       id="path107" />
    <polygon
       fill="#e6ab02"
       stroke="#e6ab02"
       points="458.71,-413.16 450.24,-406.79 448.11,-413.46 "
       id="polygon108" />
  </g>
  <g
     id="edge26"
     class="edge"
     transform="translate(0.5,426.64394)">
    <title
       id="title108">n2:e-&gt;c28:w</title>
    <path
       fill="none"
       stroke="#666666"
       d="m 424.15,-203 c 30.12,0 8.95,52.17 25.45,66.03"
       id="path108" />
    <polygon
       fill="#666666"
       stroke="#666666"
       points="458.7,-134.08 448.11,-133.77 450.23,-140.44 "
       id="polygon109" />
  </g>
  <g
     id="edge27"
     class="edge"
     transform="translate(0.5,426.64394)">
    <title
       id="title109">n2:e-&gt;c30:w</title>
    <path
       fill="none"
       stroke="#666666"
       d="m 424.15,-203 c 11.37,0 16.68,-0.32 24.55,-0.5"
       id="path109" />
    <polygon
       fill="#666666"
       stroke="#666666"
       points="458.63,-203.61 448.67,-200 448.6,-207 "
       id="polygon110" />
  </g>
  <g
     id="edge29"
     class="edge"
     transform="translate(0.5,426.64394)">
    <title
       id="title110">n3:e-&gt;c27:w</title>
    <path
       fill="none"
       stroke="#7570b3"
       d="m 424.15,-273 c 11.37,0 16.68,-0.32 24.55,-0.5"
       id="path110" />
    <polygon
       fill="#7570b3"
       stroke="#7570b3"
       points="458.63,-273.61 448.67,-270 448.6,-277 "
       id="polygon111" />
  </g>
  <g
     id="edge30"
     class="edge"
     transform="translate(0.5,426.64394)">
    <title
       id="title111">n3:e-&gt;c31:w</title>
    <path
       fill="none"
       stroke="#7570b3"
       d="m 424.15,-273 c 49.1,0 -6.37,-96.4 24.76,-112.97"
       id="path111" />
    <polygon
       fill="#7570b3"
       stroke="#7570b3"
       points="458.67,-388.06 449.62,-382.54 448.16,-389.38 "
       id="polygon112" />
  </g>
  <g
     id="edge32"
     class="edge"
     transform="translate(0.5,426.64394)">
    <title
       id="title112">n4:e-&gt;c26:w</title>
    <path
       fill="none"
       stroke="#e6ab02"
       d="m 424.15,-179 c 49.1,0 -6.37,96.4 24.76,112.97"
       id="path112" />
    <polygon
       fill="#e6ab02"
       stroke="#e6ab02"
       points="458.67,-63.94 448.16,-62.62 449.62,-69.46 "
       id="polygon113" />
  </g>
  <g
     id="edge33"
     class="edge"
     transform="translate(0.5,426.64394)">
    <title
       id="title113">n4:e-&gt;c30:w</title>
    <path
       fill="none"
       stroke="#e6ab02"
       d="m 424.15,-179 c 11.37,0 16.68,0.32 24.55,0.5"
       id="path113" />
    <polygon
       fill="#e6ab02"
       stroke="#e6ab02"
       points="458.63,-178.39 448.6,-175 448.67,-182 "
       id="polygon114" />
  </g>
  <g
     id="edge35"
     class="edge"
     transform="translate(0.5,426.64394)">
    <title
       id="title114">n5:e-&gt;c26:w</title>
    <path
       fill="none"
       stroke="#7570b3"
       d="m 424.15,-109 c 30.55,0 8.69,53.11 25.32,67.22"
       id="path114" />
    <polygon
       fill="#7570b3"
       stroke="#7570b3"
       points="458.71,-38.84 448.11,-38.54 450.24,-45.21 "
       id="polygon115" />
  </g>
  <g
     id="edge36"
     class="edge"
     transform="translate(0.5,426.64394)">
    <title
       id="title115">n5:e-&gt;c28:w</title>
    <path
       fill="none"
       stroke="#7570b3"
       d="m 424.15,-109 c 11.37,0 16.68,0.32 24.55,0.5"
       id="path115" />
    <polygon
       fill="#7570b3"
       stroke="#7570b3"
       points="458.63,-108.39 448.6,-105 448.67,-112 "
       id="polygon116" />
  </g>
  <g
     id="edge38"
     class="edge"
     transform="translate(0.5,426.64394)">
    <title
       id="title116">n6:e-&gt;c27:w</title>
    <path
       fill="none"
       stroke="#e6ab02"
       d="m 424.15,-249 c 11.37,0 16.68,0.32 24.55,0.5"
       id="path116" />
    <polygon
       fill="#e6ab02"
       stroke="#e6ab02"
       points="458.63,-248.39 448.6,-245 448.67,-252 "
       id="polygon117" />
  </g>
  <g
     id="edge39"
     class="edge"
     transform="translate(0.5,426.64394)">
    <title
       id="title117">n6:e-&gt;c29:w</title>
    <path
       fill="none"
       stroke="#e6ab02"
       d="m 424.15,-249 c 30.12,0 8.95,-52.17 25.45,-66.03"
       id="path117" />
    <polygon
       fill="#e6ab02"
       stroke="#e6ab02"
       points="458.7,-317.92 450.23,-311.56 448.11,-318.23 "
       id="polygon118" />
  </g>
</svg>
