<?xml version="1.0" encoding="UTF-8" standalone="no"?>
<!-- Generated by graphviz version 12.2.1 (0)
 -->

<!-- Title: not_dff_tmr Pages: 1 -->

<svg
   width="1602.6722pt"
   height="408.72867pt"
   viewBox="0 0 1602.9699 408.66393"
   version="1.1"
   id="svg123"
   sodipodi:docname="not_dff_tmr.svg"
   inkscape:version="1.4.2 (ebf0e940d0, 2025-05-08)"
   xmlns:inkscape="http://www.inkscape.org/namespaces/inkscape"
   xmlns:sodipodi="http://sodipodi.sourceforge.net/DTD/sodipodi-0.dtd"
   xmlns="http://www.w3.org/2000/svg"
   xmlns:svg="http://www.w3.org/2000/svg">
  <defs
     id="defs123" />
  <sodipodi:namedview
     id="namedview123"
     pagecolor="#ffffff"
     bordercolor="#666666"
     borderopacity="1.0"
     inkscape:showpageshadow="2"
     inkscape:pageopacity="0.0"
     inkscape:pagecheckerboard="0"
     inkscape:deskcolor="#d1d1d1"
     inkscape:document-units="pt"
     inkscape:zoom="0.38631747"
     inkscape:cx="1094.9544"
     inkscape:cy="388.28169"
     inkscape:window-width="1920"
     inkscape:window-height="1010"
     inkscape:window-x="0"
     inkscape:window-y="0"
     inkscape:window-maximized="1"
     inkscape:current-layer="svg123" />
  <g
     id="node1"
     class="node"
     transform="translate(-112.85,433.85398)">
    <title
       id="title2">n17</title>
    <polygon
       fill="none"
       stroke="#000000"
       points="152.05,-242.18 129.69,-242.18 113.87,-231.63 113.87,-216.72 129.69,-206.18 152.05,-206.18 167.87,-216.72 167.87,-231.63 "
       id="polygon2" />
    <text
       text-anchor="middle"
       x="140.87"
       y="-219.5"
       font-family="Times, serif"
       font-size="14px"
       id="text2">a</text>
  </g>
  <g
     id="node11"
     class="node"
     transform="translate(-112.85,433.85398)">
    <title
       id="title3">c32</title>
    <polygon
       fill="none"
       stroke="#000000"
       points="478.99,-346.43 478.99,-295.93 361.24,-295.93 361.24,-346.43 "
       id="polygon3" />
    <text
       text-anchor="middle"
       x="384.23999"
       y="-329.13"
       font-family="Times, serif"
       font-size="14px"
       id="text3">CLK</text>
    <polyline
       fill="none"
       stroke="#000000"
       points="361.24,-321.18 407.24,-321.18"
       id="polyline3" />
    <text
       text-anchor="middle"
       x="384.23999"
       y="-303.88"
       font-family="Times, serif"
       font-size="14px"
       id="text4">D</text>
    <polyline
       fill="none"
       stroke="#000000"
       points="407.24,-295.93 407.24,-346.43"
       id="polyline4" />
    <text
       text-anchor="middle"
       x="429.48999"
       y="-325.13"
       font-family="Times, serif"
       font-size="14px"
       id="text5">$6</text>
    <text
       text-anchor="middle"
       x="429.48999"
       y="-307.88"
       font-family="Times, serif"
       font-size="14px"
       id="text6">$dff</text>
    <polyline
       fill="none"
       stroke="#000000"
       points="451.74,-295.93 451.74,-346.43"
       id="polyline6" />
    <text
       text-anchor="middle"
       x="465.37"
       y="-316.63"
       font-family="Times, serif"
       font-size="14px"
       id="text7">Q</text>
  </g>
  <g
     id="edge13"
     class="edge"
     transform="translate(-112.85,433.85398)">
    <title
       id="title7">n17:e-&gt;c32:w</title>
    <path
       fill="none"
       stroke="#1b9e77"
       d="m 169.12,-224.18 c 51.47,0 67.53,-2.17 112.62,-27 19.55,-10.76 17.94,-21.89 36,-35 13.77,-9.99 19.02,-18.27 31.4,-21.22"
       id="path7" />
    <polygon
       fill="#1b9e77"
       stroke="#1b9e77"
       points="358.73,-308.4 349.15,-303.88 348.43,-310.84 "
       id="polygon7" />
  </g>
  <g
     id="node12"
     class="node"
     transform="translate(-112.85,433.85398)">
    <title
       id="title8">c33</title>
    <polygon
       fill="none"
       stroke="#000000"
       points="522.49,-276.43 522.49,-225.93 317.74,-225.93 317.74,-276.43 "
       id="polygon8" />
    <text
       text-anchor="middle"
       x="340.73999"
       y="-259.13"
       font-family="Times, serif"
       font-size="14px"
       id="text8">CLK</text>
    <polyline
       fill="none"
       stroke="#000000"
       points="317.74,-251.18 363.74,-251.18"
       id="polyline8" />
    <text
       text-anchor="middle"
       x="340.73999"
       y="-233.88"
       font-family="Times, serif"
       font-size="14px"
       id="text9">D</text>
    <polyline
       fill="none"
       stroke="#000000"
       points="363.74,-225.93 363.74,-276.43"
       id="polyline9" />
    <text
       text-anchor="middle"
       x="429.48999"
       y="-255.13"
       font-family="Times, serif"
       font-size="14px"
       id="text10">$replica1_cone0</text>
    <text
       text-anchor="middle"
       x="429.48999"
       y="-237.88"
       font-family="Times, serif"
       font-size="14px"
       id="text11">$dff</text>
    <polyline
       fill="none"
       stroke="#000000"
       points="495.24,-225.93 495.24,-276.43"
       id="polyline11" />
    <text
       text-anchor="middle"
       x="508.87"
       y="-246.63"
       font-family="Times, serif"
       font-size="14px"
       id="text12">Q</text>
  </g>
  <g
     id="edge14"
     class="edge"
     transform="translate(-112.85,433.85398)">
    <title
       id="title12">n17:e-&gt;c33:w</title>
    <path
       fill="none"
       stroke="#1b9e77"
       d="m 169.12,-224.18 c 62.47,0 80.22,-12.74 137.45,-14.23"
       id="path12" />
    <polygon
       fill="#1b9e77"
       stroke="#1b9e77"
       points="316.23,-238.53 306.27,-234.91 306.18,-241.91 "
       id="polygon12" />
  </g>
  <g
     id="node13"
     class="node"
     transform="translate(-112.85,433.85398)">
    <title
       id="title13">c34</title>
    <polygon
       fill="none"
       stroke="#000000"
       points="522.49,-206.43 522.49,-155.93 317.74,-155.93 317.74,-206.43 "
       id="polygon13" />
    <text
       text-anchor="middle"
       x="340.73999"
       y="-189.13"
       font-family="Times, serif"
       font-size="14px"
       id="text13">CLK</text>
    <polyline
       fill="none"
       stroke="#000000"
       points="317.74,-181.18 363.74,-181.18"
       id="polyline13" />
    <text
       text-anchor="middle"
       x="340.73999"
       y="-163.88"
       font-family="Times, serif"
       font-size="14px"
       id="text14">D</text>
    <polyline
       fill="none"
       stroke="#000000"
       points="363.74,-155.93 363.74,-206.43"
       id="polyline14" />
    <text
       text-anchor="middle"
       x="429.48999"
       y="-185.13"
       font-family="Times, serif"
       font-size="14px"
       id="text15">$replica2_cone0</text>
    <text
       text-anchor="middle"
       x="429.48999"
       y="-167.88"
       font-family="Times, serif"
       font-size="14px"
       id="text16">$dff</text>
    <polyline
       fill="none"
       stroke="#000000"
       points="495.24,-155.93 495.24,-206.43"
       id="polyline16" />
    <text
       text-anchor="middle"
       x="508.87"
       y="-176.63"
       font-family="Times, serif"
       font-size="14px"
       id="text17">Q</text>
  </g>
  <g
     id="edge15"
     class="edge"
     transform="translate(-112.85,433.85398)">
    <title
       id="title17">n17:e-&gt;c34:w</title>
    <path
       fill="none"
       stroke="#1b9e77"
       d="m 169.12,-224.18 c 66.54,0 77.03,49.5 137.22,55.11"
       id="path17" />
    <polygon
       fill="#1b9e77"
       stroke="#1b9e77"
       points="316.23,-168.62 306.08,-165.58 306.4,-172.57 "
       id="polygon17" />
  </g>
  <g
     id="node2"
     class="node"
     transform="translate(-112.85,433.85398)">
    <title
       id="title18">n18</title>
    <polygon
       fill="none"
       stroke="#000000"
       points="152.27,-296.18 129.47,-296.18 113.35,-285.63 113.35,-270.72 129.47,-260.18 152.27,-260.18 168.39,-270.72 168.39,-285.63 "
       id="polygon18" />
    <text
       text-anchor="middle"
       x="140.87"
       y="-273.5"
       font-family="Times, serif"
       font-size="14px"
       id="text18">clk</text>
  </g>
  <g
     id="edge16"
     class="edge"
     transform="translate(-112.85,433.85398)">
    <title
       id="title19">n18:e-&gt;c32:w</title>
    <path
       fill="none"
       stroke="#d95f02"
       d="m 169.65,-278.18 c 51.24,0 63.03,-12.2 112.09,-27 31.66,-9.55 39.74,-24.79 67.36,-28.01"
       id="path19" />
    <polygon
       fill="#d95f02"
       stroke="#d95f02"
       points="358.73,-333.72 348.93,-329.68 348.55,-336.67 "
       id="polygon19" />
  </g>
  <g
     id="edge17"
     class="edge"
     transform="translate(-112.85,433.85398)">
    <title
       id="title20">n18:e-&gt;c33:w</title>
    <path
       fill="none"
       stroke="#d95f02"
       d="m 169.65,-278.18 c 62.12,0 79.86,12.69 136.61,14.23"
       id="path20" />
    <polygon
       fill="#d95f02"
       stroke="#d95f02"
       points="316.23,-263.82 306.18,-260.46 306.27,-267.46 "
       id="polygon20" />
  </g>
  <g
     id="edge18"
     class="edge"
     transform="translate(-112.85,433.85398)">
    <title
       id="title21">n18:e-&gt;c34:w</title>
    <path
       fill="none"
       stroke="#d95f02"
       d="m 169.65,-278.18 c 51.24,0 70.49,-2.91 112.09,27 20.62,14.83 10.64,45.48 25.1,54.7"
       id="path21" />
    <polygon
       fill="#d95f02"
       stroke="#d95f02"
       points="316.27,-194.16 305.72,-193.15 307.39,-199.95 "
       id="polygon21" />
  </g>
  <g
     id="node3"
     class="node"
     transform="translate(-112.85,433.85398)">
    <title
       id="title22">n19</title>
    <polygon
       fill="none"
       stroke="#000000"
       points="1698.53,-348.18 1674.78,-348.18 1657.99,-337.63 1657.99,-322.72 1674.78,-312.18 1698.53,-312.18 1715.32,-322.72 1715.32,-337.63 "
       id="polygon22" />
    <text
       text-anchor="middle"
       x="1686.65"
       y="-325.5"
       font-family="Times, serif"
       font-size="14px"
       id="text22">err</text>
  </g>
  <g
     id="node4"
     class="node"
     transform="translate(-112.85,433.85398)">
    <title
       id="title23">n20</title>
    <polygon
       fill="none"
       stroke="#000000"
       points="649.62,-303.18 676.62,-321.18 649.62,-339.18 622.62,-321.18 "
       id="polygon23" />
    <text
       text-anchor="middle"
       x="649.62"
       y="-316.5"
       font-family="Times, serif"
       font-size="14px"
       id="text23">ff</text>
  </g>
  <g
     id="node8"
     class="node"
     transform="translate(-112.85,433.85398)">
    <title
       id="title24">c26</title>
    <polygon
       fill="none"
       stroke="#000000"
       points="916.24,-342.43 916.24,-299.93 776.74,-299.93 776.74,-342.43 "
       id="polygon24" />
    <text
       text-anchor="middle"
       x="789.62"
       y="-316.63"
       font-family="Times, serif"
       font-size="14px"
       id="text24">A</text>
    <polyline
       fill="none"
       stroke="#000000"
       points="802.49,-299.93 802.49,-342.43"
       id="polyline24" />
    <text
       text-anchor="middle"
       x="846.87"
       y="-325.13"
       font-family="Times, serif"
       font-size="14px"
       id="text25">$2</text>
    <text
       text-anchor="middle"
       x="846.87"
       y="-307.88"
       font-family="Times, serif"
       font-size="14px"
       id="text26">$logic_not</text>
    <polyline
       fill="none"
       stroke="#000000"
       points="891.24,-299.93 891.24,-342.43"
       id="polyline26" />
    <text
       text-anchor="middle"
       x="903.73999"
       y="-316.63"
       font-family="Times, serif"
       font-size="14px"
       id="text27">Y</text>
  </g>
  <g
     id="edge26"
     class="edge"
     transform="translate(-112.85,433.85398)">
    <title
       id="title27">n20:e-&gt;c26:w</title>
    <path
       fill="none"
       stroke="#a6761d"
       d="m 678.43,-321.18 c 39.6,0 52.28,-0.1 86.83,-0.12"
       id="path27" />
    <polygon
       fill="#a6761d"
       stroke="#a6761d"
       points="775.23,-321.3 765.23,-317.8 765.23,-324.8 "
       id="polygon27" />
  </g>
  <g
     id="node7"
     class="node"
     transform="translate(-112.85,433.85398)">
    <title
       id="title30">n23</title>
    <polygon
       fill="none"
       stroke="#000000"
       points="1697.84,-156.18 1675.47,-156.18 1659.65,-145.63 1659.65,-130.72 1675.47,-120.18 1697.84,-120.18 1713.65,-130.72 1713.65,-145.63 "
       id="polygon30" />
    <text
       text-anchor="middle"
       x="1686.65"
       y="-133.5"
       font-family="Times, serif"
       font-size="14px"
       id="text30">o</text>
  </g>
  <g
     id="node29"
     class="node"
     transform="translate(-112.85,433.85398)">
    <title
       id="title31">n3</title>
    <circle
       fill="#000000"
       stroke="#000000"
       cx="1023.87"
       cy="-321.17999"
       id="ellipse31"
       r="1.8" />
  </g>
  <g
     id="edge28"
     class="edge"
     transform="translate(-112.85,433.85398)">
    <title
       id="title32">c26:e-&gt;n3:w</title>
    <path
       fill="none"
       stroke="#d95f02"
       d="m 916.24,-321.3 c 42.39,0 55.72,0.1 93.12,0.12"
       id="path32" />
    <polygon
       fill="#d95f02"
       stroke="#d95f02"
       points="1019.07,-321.18 1009.07,-317.68 1009.07,-324.68 "
       id="polygon32" />
  </g>
  <g
     id="node9"
     class="node"
     transform="translate(-112.85,433.85398)">
    <title
       id="title33">c27</title>
    <polygon
       fill="none"
       stroke="#000000"
       points="740.74,-273.43 740.74,-230.93 558.49,-230.93 558.49,-273.43 "
       id="polygon33" />
    <text
       text-anchor="middle"
       x="571.37"
       y="-247.63"
       font-family="Times, serif"
       font-size="14px"
       id="text33">A</text>
    <polyline
       fill="none"
       stroke="#000000"
       points="584.24,-230.93 584.24,-273.43"
       id="polyline33" />
    <text
       text-anchor="middle"
       x="649.98999"
       y="-256.13"
       font-family="Times, serif"
       font-size="14px"
       id="text34">$replica1_cone0</text>
    <text
       text-anchor="middle"
       x="649.98999"
       y="-238.88"
       font-family="Times, serif"
       font-size="14px"
       id="text35">$logic_not</text>
    <polyline
       fill="none"
       stroke="#000000"
       points="715.74,-230.93 715.74,-273.43"
       id="polyline35" />
    <text
       text-anchor="middle"
       x="728.23999"
       y="-247.63"
       font-family="Times, serif"
       font-size="14px"
       id="text36">Y</text>
  </g>
  <g
     id="node27"
     class="node"
     transform="translate(-112.85,433.85398)">
    <title
       id="title36">n1</title>
    <circle
       fill="#000000"
       stroke="#000000"
       cx="846.48999"
       cy="-252.17999"
       id="ellipse36"
       r="1.8" />
  </g>
  <g
     id="edge1"
     class="edge"
     transform="translate(-112.85,433.85398)">
    <title
       id="title37">c27:e-&gt;n1:w</title>
    <path
       fill="none"
       stroke="#e7298a"
       d="m 740.74,-252.3 c 41.45,0 54.61,0.1 90.97,0.12"
       id="path37" />
    <polygon
       fill="#e7298a"
       stroke="#e7298a"
       points="841.7,-252.18 831.7,-248.68 831.7,-255.68 "
       id="polygon37" />
  </g>
  <g
     id="node10"
     class="node"
     transform="translate(-112.85,433.85398)">
    <title
       id="title38">c28</title>
    <polygon
       fill="none"
       stroke="#000000"
       points="740.74,-184.43 740.74,-141.93 558.49,-141.93 558.49,-184.43 "
       id="polygon38" />
    <text
       text-anchor="middle"
       x="571.37"
       y="-158.63"
       font-family="Times, serif"
       font-size="14px"
       id="text38">A</text>
    <polyline
       fill="none"
       stroke="#000000"
       points="584.24,-141.93 584.24,-184.43"
       id="polyline38" />
    <text
       text-anchor="middle"
       x="649.98999"
       y="-167.13"
       font-family="Times, serif"
       font-size="14px"
       id="text39">$replica2_cone0</text>
    <text
       text-anchor="middle"
       x="649.98999"
       y="-149.88"
       font-family="Times, serif"
       font-size="14px"
       id="text40">$logic_not</text>
    <polyline
       fill="none"
       stroke="#000000"
       points="715.74,-141.93 715.74,-184.43"
       id="polyline40" />
    <text
       text-anchor="middle"
       x="728.23999"
       y="-158.63"
       font-family="Times, serif"
       font-size="14px"
       id="text41">Y</text>
  </g>
  <g
     id="node28"
     class="node"
     transform="translate(-112.85,433.85398)">
    <title
       id="title41">n2</title>
    <circle
       fill="#000000"
       stroke="#000000"
       cx="846.48999"
       cy="-144.17999"
       id="ellipse41"
       r="1.8" />
  </g>
  <g
     id="edge20"
     class="edge"
     transform="translate(-112.85,433.85398)">
    <title
       id="title42">c28:e-&gt;n2:w</title>
    <path
       fill="none"
       stroke="#66a61e"
       d="m 740.74,-163.3 c 42.35,0 54.19,15.98 91.29,18.72"
       id="path42" />
    <polygon
       fill="#66a61e"
       stroke="#66a61e"
       points="841.7,-144.23 831.58,-141.09 831.83,-148.09 "
       id="polygon42" />
  </g>
  <g
     id="edge25"
     class="edge"
     transform="translate(-112.85,433.85398)">
    <title
       id="title43">c32:e-&gt;n20:w</title>
    <path
       fill="none"
       stroke="#a6761d"
       d="m 479.99,-321.3 c 58.67,0 76.09,0.11 129.61,0.12"
       id="path43" />
    <polygon
       fill="#a6761d"
       stroke="#a6761d"
       points="619.29,-321.18 609.29,-317.68 609.29,-324.68 "
       id="polygon43" />
  </g>
  <g
     id="edge33"
     class="edge"
     transform="translate(-112.85,433.85398)">
    <title
       id="title44">c33:e-&gt;c27:w</title>
    <path
       fill="none"
       stroke="#666666"
       d="m 522.49,-251.3 c 11.38,0 16.68,-0.51 24.55,-0.8"
       id="path44" />
    <polygon
       fill="#666666"
       stroke="#666666"
       points="556.98,-252.28 547.04,-248.6 546.92,-255.6 "
       id="polygon44" />
  </g>
  <g
     id="edge34"
     class="edge"
     transform="translate(-112.85,433.85398)">
    <title
       id="title45">c34:e-&gt;c28:w</title>
    <path
       fill="none"
       stroke="#7570b3"
       d="m 522.49,-181.3 c 13.28,0 16.82,9.91 25.08,15.02"
       id="path45" />
    <polygon
       fill="#7570b3"
       stroke="#7570b3"
       points="557.03,-163.7 546.46,-162.95 548.3,-169.7 "
       id="polygon45" />
  </g>
  <g
     id="node14"
     class="node"
     transform="translate(-112.85,433.85398)">
    <title
       id="title46">c36</title>
    <polygon
       fill="none"
       stroke="#000000"
       points="1274.74,-231.43 1274.74,-180.93 1131.49,-180.93 1131.49,-231.43 "
       id="polygon46" />
    <text
       text-anchor="middle"
       x="1144.74"
       y="-214.13"
       font-family="Times, serif"
       font-size="14px"
       id="text46">A</text>
    <polyline
       fill="none"
       stroke="#000000"
       points="1131.49,-206.18 1157.99,-206.18"
       id="polyline46" />
    <text
       text-anchor="middle"
       x="1144.74"
       y="-188.88"
       font-family="Times, serif"
       font-size="14px"
       id="text47">B</text>
    <polyline
       fill="none"
       stroke="#000000"
       points="1157.99,-180.93 1157.99,-231.43"
       id="polyline47" />
    <text
       text-anchor="middle"
       x="1203.87"
       y="-210.13"
       font-family="Times, serif"
       font-size="14px"
       id="text48">$24</text>
    <text
       text-anchor="middle"
       x="1203.87"
       y="-192.88"
       font-family="Times, serif"
       font-size="14px"
       id="text49">$logic_and</text>
    <polyline
       fill="none"
       stroke="#000000"
       points="1249.74,-180.93 1249.74,-231.43"
       id="polyline49" />
    <text
       text-anchor="middle"
       x="1262.24"
       y="-201.63"
       font-family="Times, serif"
       font-size="14px"
       id="text50">Y</text>
  </g>
  <g
     id="node23"
     class="node"
     transform="translate(-112.85,433.85398)">
    <title
       id="title50">c45</title>
    <polygon
       fill="none"
       stroke="#000000"
       points="1448.37,-219.43 1448.37,-168.93 1316.37,-168.93 1316.37,-219.43 "
       id="polygon50" />
    <text
       text-anchor="middle"
       x="1329.62"
       y="-202.13"
       font-family="Times, serif"
       font-size="14px"
       id="text51">A</text>
    <polyline
       fill="none"
       stroke="#000000"
       points="1316.37,-194.18 1342.87,-194.18"
       id="polyline51" />
    <text
       text-anchor="middle"
       x="1329.62"
       y="-176.88"
       font-family="Times, serif"
       font-size="14px"
       id="text52">B</text>
    <polyline
       fill="none"
       stroke="#000000"
       points="1342.87,-168.93 1342.87,-219.43"
       id="polyline52" />
    <text
       text-anchor="middle"
       x="1383.12"
       y="-198.13"
       font-family="Times, serif"
       font-size="14px"
       id="text53">$36</text>
    <text
       text-anchor="middle"
       x="1383.12"
       y="-180.88"
       font-family="Times, serif"
       font-size="14px"
       id="text54">$logic_or</text>
    <polyline
       fill="none"
       stroke="#000000"
       points="1423.37,-168.93 1423.37,-219.43"
       id="polyline54" />
    <text
       text-anchor="middle"
       x="1435.87"
       y="-189.63"
       font-family="Times, serif"
       font-size="14px"
       id="text55">Y</text>
  </g>
  <g
     id="edge35"
     class="edge"
     transform="translate(-112.85,433.85398)">
    <title
       id="title55">c36:e-&gt;c45:w</title>
    <path
       fill="none"
       stroke="#e6ab02"
       d="m 1274.74,-206.3 c 13.54,0 19.47,-0.28 29.2,-0.43"
       id="path55" />
    <polygon
       fill="#e6ab02"
       stroke="#e6ab02"
       points="1313.85,-206.79 1303.88,-203.22 1303.83,-210.22 "
       id="polygon55" />
  </g>
  <g
     id="node15"
     class="node"
     transform="translate(-112.85,433.85398)">
    <title
       id="title56">c37</title>
    <polygon
       fill="none"
       stroke="#000000"
       points="1274.74,-301.43 1274.74,-250.93 1131.49,-250.93 1131.49,-301.43 "
       id="polygon56" />
    <text
       text-anchor="middle"
       x="1144.74"
       y="-284.13"
       font-family="Times, serif"
       font-size="14px"
       id="text56">A</text>
    <polyline
       fill="none"
       stroke="#000000"
       points="1131.49,-276.18 1157.99,-276.18"
       id="polyline56" />
    <text
       text-anchor="middle"
       x="1144.74"
       y="-258.88"
       font-family="Times, serif"
       font-size="14px"
       id="text57">B</text>
    <polyline
       fill="none"
       stroke="#000000"
       points="1157.99,-250.93 1157.99,-301.43"
       id="polyline57" />
    <text
       text-anchor="middle"
       x="1203.87"
       y="-280.13"
       font-family="Times, serif"
       font-size="14px"
       id="text58">$26</text>
    <text
       text-anchor="middle"
       x="1203.87"
       y="-262.88"
       font-family="Times, serif"
       font-size="14px"
       id="text59">$logic_and</text>
    <polyline
       fill="none"
       stroke="#000000"
       points="1249.74,-250.93 1249.74,-301.43"
       id="polyline59" />
    <text
       text-anchor="middle"
       x="1262.24"
       y="-271.63"
       font-family="Times, serif"
       font-size="14px"
       id="text60">Y</text>
  </g>
  <g
     id="edge36"
     class="edge"
     transform="translate(-112.85,433.85398)">
    <title
       id="title60">c37:e-&gt;c45:w</title>
    <path
       fill="none"
       stroke="#7570b3"
       d="m 1274.74,-276.3 c 41.17,0 4.17,76.48 29.46,92.01"
       id="path60" />
    <polygon
       fill="#7570b3"
       stroke="#7570b3"
       points="1313.89,-181.91 1303.35,-180.89 1305.01,-187.69 "
       id="polygon60" />
  </g>
  <g
     id="node16"
     class="node"
     transform="translate(-112.85,433.85398)">
    <title
       id="title61">c38</title>
    <polygon
       fill="none"
       stroke="#000000"
       points="1274.74,-433.43 1274.74,-382.93 1131.49,-382.93 1131.49,-433.43 "
       id="polygon61" />
    <text
       text-anchor="middle"
       x="1144.74"
       y="-416.13"
       font-family="Times, serif"
       font-size="14px"
       id="text61">A</text>
    <polyline
       fill="none"
       stroke="#000000"
       points="1131.49,-408.18 1157.99,-408.18"
       id="polyline61" />
    <text
       text-anchor="middle"
       x="1144.74"
       y="-390.88"
       font-family="Times, serif"
       font-size="14px"
       id="text62">B</text>
    <polyline
       fill="none"
       stroke="#000000"
       points="1157.99,-382.93 1157.99,-433.43"
       id="polyline62" />
    <text
       text-anchor="middle"
       x="1203.87"
       y="-412.13"
       font-family="Times, serif"
       font-size="14px"
       id="text63">$28</text>
    <text
       text-anchor="middle"
       x="1203.87"
       y="-394.88"
       font-family="Times, serif"
       font-size="14px"
       id="text64">$logic_and</text>
    <polyline
       fill="none"
       stroke="#000000"
       points="1249.74,-382.93 1249.74,-433.43"
       id="polyline64" />
    <text
       text-anchor="middle"
       x="1262.24"
       y="-403.63"
       font-family="Times, serif"
       font-size="14px"
       id="text65">Y</text>
  </g>
  <g
     id="node24"
     class="node"
     transform="translate(-112.85,433.85398)">
    <title
       id="title65">c46</title>
    <polygon
       fill="none"
       stroke="#000000"
       points="1448.37,-390.43 1448.37,-339.93 1316.37,-339.93 1316.37,-390.43 "
       id="polygon65" />
    <text
       text-anchor="middle"
       x="1329.62"
       y="-373.13"
       font-family="Times, serif"
       font-size="14px"
       id="text66">A</text>
    <polyline
       fill="none"
       stroke="#000000"
       points="1316.37,-365.18 1342.87,-365.18"
       id="polyline66" />
    <text
       text-anchor="middle"
       x="1329.62"
       y="-347.88"
       font-family="Times, serif"
       font-size="14px"
       id="text67">B</text>
    <polyline
       fill="none"
       stroke="#000000"
       points="1342.87,-339.93 1342.87,-390.43"
       id="polyline67" />
    <text
       text-anchor="middle"
       x="1383.12"
       y="-369.13"
       font-family="Times, serif"
       font-size="14px"
       id="text68">$38</text>
    <text
       text-anchor="middle"
       x="1383.12"
       y="-351.88"
       font-family="Times, serif"
       font-size="14px"
       id="text69">$logic_or</text>
    <polyline
       fill="none"
       stroke="#000000"
       points="1423.37,-339.93 1423.37,-390.43"
       id="polyline69" />
    <text
       text-anchor="middle"
       x="1435.87"
       y="-360.63"
       font-family="Times, serif"
       font-size="14px"
       id="text70">Y</text>
  </g>
  <g
     id="edge37"
     class="edge"
     transform="translate(-112.85,433.85398)">
    <title
       id="title70">c38:e-&gt;c46:w</title>
    <path
       fill="none"
       stroke="#e6ab02"
       d="m 1274.74,-408.3 c 17.99,0 18.77,19.36 29.77,27.23"
       id="path70" />
    <polygon
       fill="#e6ab02"
       stroke="#e6ab02"
       points="1313.92,-378.24 1303.33,-377.77 1305.35,-384.47 "
       id="polygon70" />
  </g>
  <g
     id="node17"
     class="node"
     transform="translate(-112.85,433.85398)">
    <title
       id="title71">c39</title>
    <polygon
       fill="none"
       stroke="#000000"
       points="1274.74,-161.43 1274.74,-110.93 1131.49,-110.93 1131.49,-161.43 "
       id="polygon71" />
    <text
       text-anchor="middle"
       x="1144.74"
       y="-144.13"
       font-family="Times, serif"
       font-size="14px"
       id="text71">A</text>
    <polyline
       fill="none"
       stroke="#000000"
       points="1131.49,-136.18 1157.99,-136.18"
       id="polyline71" />
    <text
       text-anchor="middle"
       x="1144.74"
       y="-118.88"
       font-family="Times, serif"
       font-size="14px"
       id="text72">B</text>
    <polyline
       fill="none"
       stroke="#000000"
       points="1157.99,-110.93 1157.99,-161.43"
       id="polyline72" />
    <text
       text-anchor="middle"
       x="1203.87"
       y="-140.13"
       font-family="Times, serif"
       font-size="14px"
       id="text73">$30</text>
    <text
       text-anchor="middle"
       x="1203.87"
       y="-122.88"
       font-family="Times, serif"
       font-size="14px"
       id="text74">$logic_and</text>
    <polyline
       fill="none"
       stroke="#000000"
       points="1249.74,-110.93 1249.74,-161.43"
       id="polyline74" />
    <text
       text-anchor="middle"
       x="1262.24"
       y="-131.63"
       font-family="Times, serif"
       font-size="14px"
       id="text75">Y</text>
  </g>
  <g
     id="edge38"
     class="edge"
     transform="translate(-112.85,433.85398)">
    <title
       id="title75">c39:e-&gt;c46:w</title>
    <path
       fill="none"
       stroke="#a6761d"
       d="m 1274.74,-136.3 c 93.59,0 -44.32,-198.07 29.38,-215.09"
       id="path75" />
    <polygon
       fill="#a6761d"
       stroke="#a6761d"
       points="1313.86,-352.4 1304.27,-347.89 1303.55,-354.85 "
       id="polygon75" />
  </g>
  <g
     id="node18"
     class="node"
     transform="translate(-112.85,433.85398)">
    <title
       id="title76">c40</title>
    <polygon
       fill="none"
       stroke="#000000"
       points="1095.49,-223.43 1095.49,-172.93 952.24,-172.93 952.24,-223.43 "
       id="polygon76" />
    <text
       text-anchor="middle"
       x="965.48999"
       y="-206.13"
       font-family="Times, serif"
       font-size="14px"
       id="text76">A</text>
    <polyline
       fill="none"
       stroke="#000000"
       points="952.24,-198.18 978.74,-198.18"
       id="polyline76" />
    <text
       text-anchor="middle"
       x="965.48999"
       y="-180.88"
       font-family="Times, serif"
       font-size="14px"
       id="text77">B</text>
    <polyline
       fill="none"
       stroke="#000000"
       points="978.74,-172.93 978.74,-223.43"
       id="polyline77" />
    <text
       text-anchor="middle"
       x="1024.62"
       y="-202.13"
       font-family="Times, serif"
       font-size="14px"
       id="text78">$32</text>
    <text
       text-anchor="middle"
       x="1024.62"
       y="-184.88"
       font-family="Times, serif"
       font-size="14px"
       id="text79">$logic_and</text>
    <polyline
       fill="none"
       stroke="#000000"
       points="1070.49,-172.93 1070.49,-223.43"
       id="polyline79" />
    <text
       text-anchor="middle"
       x="1082.99"
       y="-193.63"
       font-family="Times, serif"
       font-size="14px"
       id="text80">Y</text>
  </g>
  <g
     id="node25"
     class="node"
     transform="translate(-112.85,433.85398)">
    <title
       id="title80">c47</title>
    <polygon
       fill="none"
       stroke="#000000"
       points="1621.99,-163.43 1621.99,-112.93 1489.99,-112.93 1489.99,-163.43 "
       id="polygon80" />
    <text
       text-anchor="middle"
       x="1503.24"
       y="-146.13"
       font-family="Times, serif"
       font-size="14px"
       id="text81">A</text>
    <polyline
       fill="none"
       stroke="#000000"
       points="1489.99,-138.18 1516.49,-138.18"
       id="polyline81" />
    <text
       text-anchor="middle"
       x="1503.24"
       y="-120.88"
       font-family="Times, serif"
       font-size="14px"
       id="text82">B</text>
    <polyline
       fill="none"
       stroke="#000000"
       points="1516.49,-112.93 1516.49,-163.43"
       id="polyline82" />
    <text
       text-anchor="middle"
       x="1556.74"
       y="-142.13"
       font-family="Times, serif"
       font-size="14px"
       id="text83">$39</text>
    <text
       text-anchor="middle"
       x="1556.74"
       y="-124.88"
       font-family="Times, serif"
       font-size="14px"
       id="text84">$logic_or</text>
    <polyline
       fill="none"
       stroke="#000000"
       points="1596.99,-112.93 1596.99,-163.43"
       id="polyline84" />
    <text
       text-anchor="middle"
       x="1609.49"
       y="-133.63"
       font-family="Times, serif"
       font-size="14px"
       id="text85">Y</text>
  </g>
  <g
     id="edge6"
     class="edge"
     transform="translate(-112.85,433.85398)">
    <title
       id="title85">c40:e-&gt;c47:w</title>
    <path
       fill="none"
       stroke="#7570b3"
       d="m 1095.49,-198.3 c 46.04,0 -1.79,70.83 36,97.12 34.68,24.13 285.95,-16.76 347.12,-23.47"
       id="path85" />
    <polygon
       fill="#7570b3"
       stroke="#7570b3"
       points="1488.48,-125.43 1478.79,-121.15 1478.23,-128.13 "
       id="polygon85" />
  </g>
  <g
     id="node19"
     class="node"
     transform="translate(-112.85,433.85398)">
    <title
       id="title86">c41</title>
    <polygon
       fill="none"
       stroke="#000000"
       points="1453.99,-320.43 1453.99,-269.93 1310.74,-269.93 1310.74,-320.43 "
       id="polygon86" />
    <text
       text-anchor="middle"
       x="1323.99"
       y="-303.13"
       font-family="Times, serif"
       font-size="14px"
       id="text86">A</text>
    <polyline
       fill="none"
       stroke="#000000"
       points="1310.74,-295.18 1337.24,-295.18"
       id="polyline86" />
    <text
       text-anchor="middle"
       x="1323.99"
       y="-277.88"
       font-family="Times, serif"
       font-size="14px"
       id="text87">B</text>
    <polyline
       fill="none"
       stroke="#000000"
       points="1337.24,-269.93 1337.24,-320.43"
       id="polyline87" />
    <text
       text-anchor="middle"
       x="1383.12"
       y="-299.13"
       font-family="Times, serif"
       font-size="14px"
       id="text88">$34</text>
    <text
       text-anchor="middle"
       x="1383.12"
       y="-281.88"
       font-family="Times, serif"
       font-size="14px"
       id="text89">$logic_and</text>
    <polyline
       fill="none"
       stroke="#000000"
       points="1428.99,-269.93 1428.99,-320.43"
       id="polyline89" />
    <text
       text-anchor="middle"
       x="1441.49"
       y="-290.63"
       font-family="Times, serif"
       font-size="14px"
       id="text90">Y</text>
  </g>
  <g
     id="node26"
     class="node"
     transform="translate(-112.85,433.85398)">
    <title
       id="title90">c48</title>
    <polygon
       fill="none"
       stroke="#000000"
       points="1621.99,-355.43 1621.99,-304.93 1489.99,-304.93 1489.99,-355.43 "
       id="polygon90" />
    <text
       text-anchor="middle"
       x="1503.24"
       y="-338.13"
       font-family="Times, serif"
       font-size="14px"
       id="text91">A</text>
    <polyline
       fill="none"
       stroke="#000000"
       points="1489.99,-330.18 1516.49,-330.18"
       id="polyline91" />
    <text
       text-anchor="middle"
       x="1503.24"
       y="-312.88"
       font-family="Times, serif"
       font-size="14px"
       id="text92">B</text>
    <polyline
       fill="none"
       stroke="#000000"
       points="1516.49,-304.93 1516.49,-355.43"
       id="polyline92" />
    <text
       text-anchor="middle"
       x="1556.74"
       y="-334.13"
       font-family="Times, serif"
       font-size="14px"
       id="text93">$40</text>
    <text
       text-anchor="middle"
       x="1556.74"
       y="-316.88"
       font-family="Times, serif"
       font-size="14px"
       id="text94">$logic_or</text>
    <polyline
       fill="none"
       stroke="#000000"
       points="1596.99,-304.93 1596.99,-355.43"
       id="polyline94" />
    <text
       text-anchor="middle"
       x="1609.49"
       y="-325.63"
       font-family="Times, serif"
       font-size="14px"
       id="text95">Y</text>
  </g>
  <g
     id="edge7"
     class="edge"
     transform="translate(-112.85,433.85398)">
    <title
       id="title95">c41:e-&gt;c48:w</title>
    <path
       fill="none"
       stroke="#7570b3"
       d="m 1453.99,-295.3 c 14.11,0 16.72,-12.52 25.08,-18.78"
       id="path95" />
    <polygon
       fill="#7570b3"
       stroke="#7570b3"
       points="1488.55,-317.09 1480.08,-310.72 1477.96,-317.39 "
       id="polygon95" />
  </g>
  <g
     id="node20"
     class="node"
     transform="translate(-112.85,433.85398)">
    <title
       id="title96">c42</title>
    <polygon
       fill="none"
       stroke="#000000"
       points="1093.62,-412.43 1093.62,-369.93 954.12,-369.93 954.12,-412.43 "
       id="polygon96" />
    <text
       text-anchor="middle"
       x="966.98999"
       y="-386.63"
       font-family="Times, serif"
       font-size="14px"
       id="text96">A</text>
    <polyline
       fill="none"
       stroke="#000000"
       points="979.87,-369.93 979.87,-412.43"
       id="polyline96" />
    <text
       text-anchor="middle"
       x="1024.24"
       y="-395.13"
       font-family="Times, serif"
       font-size="14px"
       id="text97">$18</text>
    <text
       text-anchor="middle"
       x="1024.24"
       y="-377.88"
       font-family="Times, serif"
       font-size="14px"
       id="text98">$logic_not</text>
    <polyline
       fill="none"
       stroke="#000000"
       points="1068.62,-369.93 1068.62,-412.43"
       id="polyline98" />
    <text
       text-anchor="middle"
       x="1081.12"
       y="-386.63"
       font-family="Times, serif"
       font-size="14px"
       id="text99">Y</text>
  </g>
  <g
     id="edge8"
     class="edge"
     transform="translate(-112.85,433.85398)">
    <title
       id="title99">c42:e-&gt;c38:w</title>
    <path
       fill="none"
       stroke="#a6761d"
       d="m 1094.62,-391.3 c 16.39,0 16.87,-18.01 26.3,-25.89"
       id="path99" />
    <polygon
       fill="#a6761d"
       stroke="#a6761d"
       points="1130.06,-420.31 1121.73,-413.77 1119.46,-420.39 "
       id="polygon99" />
  </g>
  <g
     id="node21"
     class="node"
     transform="translate(-112.85,433.85398)">
    <title
       id="title100">c43</title>
    <polygon
       fill="none"
       stroke="#000000"
       points="1093.62,-115.43 1093.62,-72.93 954.12,-72.93 954.12,-115.43 "
       id="polygon100" />
    <text
       text-anchor="middle"
       x="966.98999"
       y="-89.629997"
       font-family="Times, serif"
       font-size="14px"
       id="text100">A</text>
    <polyline
       fill="none"
       stroke="#000000"
       points="979.87,-72.93 979.87,-115.43"
       id="polyline100" />
    <text
       text-anchor="middle"
       x="1024.24"
       y="-98.129997"
       font-family="Times, serif"
       font-size="14px"
       id="text101">$20</text>
    <text
       text-anchor="middle"
       x="1024.24"
       y="-80.879997"
       font-family="Times, serif"
       font-size="14px"
       id="text102">$logic_not</text>
    <polyline
       fill="none"
       stroke="#000000"
       points="1068.62,-72.93 1068.62,-115.43"
       id="polyline102" />
    <text
       text-anchor="middle"
       x="1081.12"
       y="-89.629997"
       font-family="Times, serif"
       font-size="14px"
       id="text103">Y</text>
  </g>
  <g
     id="edge9"
     class="edge"
     transform="translate(-112.85,433.85398)">
    <title
       id="title103">c43:e-&gt;c39:w</title>
    <path
       fill="none"
       stroke="#d95f02"
       d="m 1094.62,-94.3 c 24.44,0 13.35,-38.09 26.13,-50.58"
       id="path103" />
    <polygon
       fill="#d95f02"
       stroke="#d95f02"
       points="1130.07,-148.28 1121.87,-141.57 1119.47,-148.14 "
       id="polygon103" />
  </g>
  <g
     id="node22"
     class="node"
     transform="translate(-112.85,433.85398)">
    <title
       id="title104">c44</title>
    <polygon
       fill="none"
       stroke="#000000"
       points="1272.87,-363.43 1272.87,-320.93 1133.37,-320.93 1133.37,-363.43 "
       id="polygon104" />
    <text
       text-anchor="middle"
       x="1146.24"
       y="-337.63"
       font-family="Times, serif"
       font-size="14px"
       id="text104">A</text>
    <polyline
       fill="none"
       stroke="#000000"
       points="1159.12,-320.93 1159.12,-363.43"
       id="polyline104" />
    <text
       text-anchor="middle"
       x="1203.49"
       y="-346.13"
       font-family="Times, serif"
       font-size="14px"
       id="text105">$22</text>
    <text
       text-anchor="middle"
       x="1203.49"
       y="-328.88"
       font-family="Times, serif"
       font-size="14px"
       id="text106">$logic_not</text>
    <polyline
       fill="none"
       stroke="#000000"
       points="1247.87,-320.93 1247.87,-363.43"
       id="polyline106" />
    <text
       text-anchor="middle"
       x="1260.37"
       y="-337.63"
       font-family="Times, serif"
       font-size="14px"
       id="text107">Y</text>
  </g>
  <g
     id="edge10"
     class="edge"
     transform="translate(-112.85,433.85398)">
    <title
       id="title107">c44:e-&gt;c41:w</title>
    <path
       fill="none"
       stroke="#e6ab02"
       d="m 1273.87,-342.3 c 17.7,0 16.45,21.48 26.16,30.54"
       id="path107" />
    <polygon
       fill="#e6ab02"
       stroke="#e6ab02"
       points="1309.32,-308.33 1298.73,-308.51 1301.15,-315.08 "
       id="polygon107" />
  </g>
  <g
     id="edge11"
     class="edge"
     transform="translate(-112.85,433.85398)">
    <title
       id="title108">c45:e-&gt;c47:w</title>
    <path
       fill="none"
       stroke="#e6ab02"
       d="m 1449.37,-194.3 c 21.9,0 17.24,29.83 30.02,40.08"
       id="path108" />
    <polygon
       fill="#e6ab02"
       stroke="#e6ab02"
       points="1488.55,-151.27 1477.96,-151 1480.1,-157.66 "
       id="polygon108" />
  </g>
  <g
     id="edge12"
     class="edge"
     transform="translate(-112.85,433.85398)">
    <title
       id="title109">c46:e-&gt;c48:w</title>
    <path
       fill="none"
       stroke="#d95f02"
       d="m 1449.37,-365.3 c 16.12,0 19.25,13.73 29.69,19.74"
       id="path109" />
    <polygon
       fill="#d95f02"
       stroke="#d95f02"
       points="1488.52,-343.17 1477.97,-342.23 1479.68,-349.01 "
       id="polygon109" />
  </g>
  <g
     id="edge27"
     class="edge"
     transform="translate(-112.85,433.85398)">
    <title
       id="title110">c47:e-&gt;n23:w</title>
    <path
       fill="none"
       stroke="#66a61e"
       d="m 1621.99,-138.3 c 11.63,0 16.99,0.06 25.1,0.1"
       id="path110" />
    <polygon
       fill="#66a61e"
       stroke="#66a61e"
       points="1656.89,-138.18 1646.88,-134.7 1646.89,-141.7 "
       id="polygon110" />
  </g>
  <g
     id="edge19"
     class="edge"
     transform="translate(-112.85,433.85398)">
    <title
       id="title111">c48:e-&gt;n19:w</title>
    <path
       fill="none"
       stroke="#a6761d"
       d="m 1621.99,-330.3 c 11.38,0 16.68,0.06 24.55,0.1"
       id="path111" />
    <polygon
       fill="#a6761d"
       stroke="#a6761d"
       points="1656.48,-330.18 1646.47,-326.7 1646.48,-333.7 "
       id="polygon111" />
  </g>
  <g
     id="edge2"
     class="edge"
     transform="translate(-112.85,433.85398)">
    <title
       id="title112">n1:e-&gt;c37:w</title>
    <path
       fill="none"
       stroke="#e7298a"
       d="m 849.77,-252.18 c 45.96,0 56.9,-8.01 102.47,-14 75.73,-9.95 96.92,-21.44 167.91,-22.54"
       id="path112" />
    <polygon
       fill="#e7298a"
       stroke="#e7298a"
       points="1129.98,-288.79 1120,-285.22 1119.95,-292.22 "
       id="polygon112" />
  </g>
  <g
     id="edge3"
     class="edge"
     transform="translate(-112.85,433.85398)">
    <title
       id="title113">n1:e-&gt;c39:w</title>
    <path
       fill="none"
       stroke="#e7298a"
       d="m 849.77,-252.18 c 54.77,0 202.63,-14.81 245.72,19 36.88,28.94 -6.43,96.57 25.02,107.98"
       id="path113" />
    <polygon
       fill="#e7298a"
       stroke="#e7298a"
       points="1129.99,-123.78 1119.58,-121.8 1120.62,-128.72 "
       id="polygon113" />
  </g>
  <g
     id="edge4"
     class="edge"
     transform="translate(-112.85,433.85398)">
    <title
       id="title114">n1:e-&gt;c40:w</title>
    <path
       fill="none"
       stroke="#e7298a"
       d="m 849.77,-252.18 c 45.08,0 52.36,34.87 91.24,40.59"
       id="path114" />
    <polygon
       fill="#e7298a"
       stroke="#e7298a"
       points="950.73,-210.91 940.51,-208.12 941,-215.1 "
       id="polygon114" />
  </g>
  <g
     id="edge5"
     class="edge"
     transform="translate(-112.85,433.85398)">
    <title
       id="title115">n1:e-&gt;c42:w</title>
    <path
       fill="none"
       stroke="#e7298a"
       d="m 849.77,-252.18 c 34.03,0 44.53,-11.98 66.47,-38 27.95,-33.14 -3.76,-89.27 25.65,-99.5"
       id="path115" />
    <polygon
       fill="#e7298a"
       stroke="#e7298a"
       points="951.62,-391.09 942.22,-386.19 941.22,-393.12 "
       id="polygon115" />
  </g>
  <g
     id="edge21"
     class="edge"
     transform="translate(-112.85,433.85398)">
    <title
       id="title116">n2:e-&gt;c36:w</title>
    <path
       fill="none"
       stroke="#66a61e"
       d="m 849.77,-144.18 c 109.53,0 151.59,37.02 245.72,-19 21.15,-12.59 11.52,-43 24.99,-52.64"
       id="path116" />
    <polygon
       fill="#66a61e"
       stroke="#66a61e"
       points="1130.03,-218.41 1121.29,-212.41 1119.46,-219.17 "
       id="polygon116" />
  </g>
  <g
     id="edge22"
     class="edge"
     transform="translate(-112.85,433.85398)">
    <title
       id="title117">n2:e-&gt;c40:w</title>
    <path
       fill="none"
       stroke="#66a61e"
       d="m 849.77,-144.18 c 45.08,0 52.36,-34.86 91.24,-40.58"
       id="path117" />
    <polygon
       fill="#66a61e"
       stroke="#66a61e"
       points="950.73,-185.45 941,-181.25 940.51,-188.24 "
       id="polygon117" />
  </g>
  <g
     id="edge23"
     class="edge"
     transform="translate(-112.85,433.85398)">
    <title
       id="title118">n2:e-&gt;c41:w</title>
    <path
       fill="none"
       stroke="#66a61e"
       d="m 849.77,-144.18 c 58.05,0 47.63,61.95 102.47,81 136.33,47.38 221.11,64.71 322.5,-38 54.8,-55.52 -36.05,-169.06 24.87,-180.45"
       id="path118" />
    <polygon
       fill="#66a61e"
       stroke="#66a61e"
       points="1309.23,-282.43 1299.56,-278.11 1298.98,-285.09 "
       id="polygon118" />
  </g>
  <g
     id="edge24"
     class="edge"
     transform="translate(-112.85,433.85398)">
    <title
       id="title119">n2:e-&gt;c43:w</title>
    <path
       fill="none"
       stroke="#66a61e"
       d="m 849.77,-144.18 c 46.92,0 51.81,42.21 92,48.97"
       id="path119" />
    <polygon
       fill="#66a61e"
       stroke="#66a61e"
       points="951.61,-94.42 941.36,-91.73 941.92,-98.71 "
       id="polygon119" />
  </g>
  <g
     id="edge29"
     class="edge"
     transform="translate(-112.85,433.85398)">
    <title
       id="title120">n3:e-&gt;c36:w</title>
    <path
       fill="none"
       stroke="#d95f02"
       d="m 1027.14,-321.18 c 38.99,0 43.93,24.6 68.35,55 19.65,24.47 5.05,61.42 24.77,70.54"
       id="path120" />
    <polygon
       fill="#d95f02"
       stroke="#d95f02"
       points="1130,-193.83 1119.53,-192.22 1120.81,-199.1 "
       id="polygon120" />
  </g>
  <g
     id="edge30"
     class="edge"
     transform="translate(-112.85,433.85398)">
    <title
       id="title121">n3:e-&gt;c37:w</title>
    <path
       fill="none"
       stroke="#d95f02"
       d="m 1027.14,-321.18 c 31.31,0 41.58,0.78 68.35,17 16.6,10.06 14.18,30.24 25.16,37.73"
       id="path121" />
    <polygon
       fill="#d95f02"
       stroke="#d95f02"
       points="1130.03,-263.94 1119.46,-263.14 1121.27,-269.9 "
       id="polygon121" />
  </g>
  <g
     id="edge31"
     class="edge"
     transform="translate(-112.85,433.85398)">
    <title
       id="title122">n3:e-&gt;c38:w</title>
    <path
       fill="none"
       stroke="#d95f02"
       d="m 1027.14,-321.18 c 34.98,0 40.46,-17.9 68.35,-39 14.12,-10.68 14.4,-26.53 24.92,-32.74"
       id="path122" />
    <polygon
       fill="#d95f02"
       stroke="#d95f02"
       points="1130.02,-395.2 1121.1,-389.49 1119.48,-396.3 "
       id="polygon122" />
  </g>
  <g
     id="edge32"
     class="edge"
     transform="translate(-112.85,433.85398)">
    <title
       id="title123">n3:e-&gt;c44:w</title>
    <path
       fill="none"
       stroke="#d95f02"
       d="m 1027.14,-321.18 c 43.79,0 55.66,-17.8 94.21,-20.72"
       id="path123" />
    <polygon
       fill="#d95f02"
       stroke="#d95f02"
       points="1130.85,-342.25 1120.99,-338.38 1120.73,-345.38 "
       id="polygon123" />
  </g>
</svg>
