<?xml version="1.0" encoding="UTF-8" standalone="no"?>
<!-- Generated by graphviz version 12.2.1 (0)
 -->

<!-- Title: mux_2bit Pages: 1 -->

<svg
   width="288.89197pt"
   height="144.79549pt"
   viewBox="0 0 289.18476 145"
   version="1.1"
   id="svg14"
   sodipodi:docname="mux_2bit.svg"
   inkscape:version="1.4.1 (93de688d07, 2025-03-30)"
   xmlns:inkscape="http://www.inkscape.org/namespaces/inkscape"
   xmlns:sodipodi="http://sodipodi.sourceforge.net/DTD/sodipodi-0.dtd"
   xmlns="http://www.w3.org/2000/svg"
   xmlns:svg="http://www.w3.org/2000/svg">
  <defs
     id="defs14" />
  <sodipodi:namedview
     id="namedview14"
     pagecolor="#ffffff"
     bordercolor="#666666"
     borderopacity="1.0"
     inkscape:showpageshadow="2"
     inkscape:pageopacity="0.0"
     inkscape:pagecheckerboard="0"
     inkscape:deskcolor="#d1d1d1"
     inkscape:document-units="pt"
     inkscape:zoom="1.6991525"
     inkscape:cx="65.032419"
     inkscape:cy="92.399002"
     inkscape:window-width="1920"
     inkscape:window-height="1010"
     inkscape:window-x="0"
     inkscape:window-y="0"
     inkscape:window-maximized="1"
     inkscape:current-layer="svg14" />
  <g
     id="node1"
     class="node"
     transform="translate(0.44096427,169.75)">
    <title
       id="title2">n1</title>
    <polygon
       fill="none"
       stroke="#000000"
       points="0.52,-104.71 0.52,-89.79 16.34,-79.25 38.71,-79.25 54.52,-89.79 54.52,-104.71 38.71,-115.25 16.34,-115.25 "
       id="polygon2" />
    <text
       text-anchor="middle"
       x="27.52"
       y="-92.580002"
       font-family="Times, serif"
       font-size="14px"
       id="text2">a</text>
  </g>
  <g
     id="node5"
     class="node"
     transform="translate(0.44096427,169.75)">
    <title
       id="title3">c9</title>
    <polygon
       fill="none"
       stroke="#000000"
       points="91.05,-59.38 91.05,-135.12 198.3,-135.12 198.3,-59.38 "
       id="polygon3" />
    <text
       text-anchor="middle"
       x="104.3"
       y="-117.83"
       font-family="Times, serif"
       font-size="14px"
       id="text3">A</text>
    <polyline
       fill="none"
       stroke="#000000"
       points="91.05,-109.88 117.55,-109.88"
       id="polyline3" />
    <text
       text-anchor="middle"
       x="104.3"
       y="-92.580002"
       font-family="Times, serif"
       font-size="14px"
       id="text4">B</text>
    <polyline
       fill="none"
       stroke="#000000"
       points="91.05,-84.62 117.55,-84.62"
       id="polyline4" />
    <text
       text-anchor="middle"
       x="104.3"
       y="-67.330002"
       font-family="Times, serif"
       font-size="14px"
       id="text5">S</text>
    <polyline
       fill="none"
       stroke="#000000"
       points="117.55,-59.38 117.55,-135.12"
       id="polyline5" />
    <text
       text-anchor="middle"
       x="145.42"
       y="-101.2"
       font-family="Times, serif"
       font-size="14px"
       id="text6">$2</text>
    <text
       text-anchor="middle"
       x="145.42"
       y="-83.949997"
       font-family="Times, serif"
       font-size="14px"
       id="text7">$mux</text>
    <polyline
       fill="none"
       stroke="#000000"
       points="173.3,-59.38 173.3,-135.12"
       id="polyline7" />
    <text
       text-anchor="middle"
       x="185.8"
       y="-92.830002"
       font-family="Times, serif"
       font-size="14px"
       id="text8">Y</text>
  </g>
  <g
     id="edge1"
     class="edge"
     transform="translate(0.44096427,169.75)">
    <title
       id="title8">n1:e-&gt;c9:w</title>
    <path
       fill="none"
       stroke="#e7298a"
       stroke-width="3"
       d="m 55.05,-97.25 c 11.37,0 16.68,0 24.55,0"
       id="path8" />
    <polygon
       fill="#e7298a"
       stroke="#e7298a"
       stroke-width="3"
       points="86.51,-97.25 76.51,-93.75 76.51,-100.75 "
       id="polygon8" />
  </g>
  <g
     id="node2"
     class="node"
     transform="translate(0.44096427,169.75)">
    <title
       id="title9">n2</title>
    <polygon
       fill="none"
       stroke="#000000"
       points="0.52,-158.71 0.52,-143.79 16.34,-133.25 38.71,-133.25 54.52,-143.79 54.52,-158.71 38.71,-169.25 16.34,-169.25 "
       id="polygon9" />
    <text
       text-anchor="middle"
       x="27.52"
       y="-146.57001"
       font-family="Times, serif"
       font-size="14px"
       id="text9">b</text>
  </g>
  <g
     id="edge2"
     class="edge"
     transform="translate(0.44096427,169.75)">
    <title
       id="title10">n2:e-&gt;c9:w</title>
    <path
       fill="none"
       stroke="#7570b3"
       stroke-width="3"
       d="m 55.05,-151.25 c 15.83,0 16.46,17.2 25.4,24.99"
       id="path10" />
    <polygon
       fill="#7570b3"
       stroke="#7570b3"
       stroke-width="3"
       points="86.77,-124.02 76.17,-124.06 78.51,-130.66 "
       id="polygon10" />
  </g>
  <g
     id="node3"
     class="node"
     transform="translate(0.44096427,169.75)">
    <title
       id="title11">n3</title>
    <polygon
       fill="none"
       stroke="#000000"
       points="234.3,-104.71 234.3,-89.79 250.11,-79.25 272.48,-79.25 288.3,-89.79 288.3,-104.71 272.48,-115.25 250.11,-115.25 "
       id="polygon11" />
    <text
       text-anchor="middle"
       x="261.29999"
       y="-92.580002"
       font-family="Times, serif"
       font-size="14px"
       id="text11">o</text>
  </g>
  <g
     id="node4"
     class="node"
     transform="translate(0.44096427,169.75)">
    <title
       id="title12">n4</title>
    <polygon
       fill="none"
       stroke="#000000"
       points="0,-50.71 0,-35.79 16.12,-25.25 38.92,-25.25 55.05,-35.79 55.05,-50.71 38.92,-61.25 16.12,-61.25 "
       id="polygon12" />
    <text
       text-anchor="middle"
       x="27.52"
       y="-38.580002"
       font-family="Times, serif"
       font-size="14px"
       id="text12">sel</text>
  </g>
  <g
     id="edge4"
     class="edge"
     transform="translate(0.44096427,169.75)">
    <title
       id="title13">n4:e-&gt;c9:w</title>
    <path
       fill="none"
       stroke="#a6761d"
       d="m 55.05,-43.25 c 15.83,0 16.46,-17.2 25.4,-24.99"
       id="path13" />
    <polygon
       fill="#a6761d"
       stroke="#a6761d"
       points="89.62,-71.49 81.37,-64.85 79.03,-71.45 "
       id="polygon13" />
  </g>
  <g
     id="edge3"
     class="edge"
     transform="translate(0.44096427,169.75)">
    <title
       id="title14">c9:e-&gt;n3:w</title>
    <path
       fill="none"
       stroke="#7570b3"
       stroke-width="3"
       d="m 198.3,-97.5 c 11.37,0 16.68,0.13 24.55,0.2"
       id="path14" />
    <polygon
       fill="#7570b3"
       stroke="#7570b3"
       stroke-width="3"
       points="229.76,-97.27 219.74,-93.81 219.77,-100.81 "
       id="polygon14" />
  </g>
</svg>
